<svg width="215" height="252" viewBox="0 0 215 252" fill="none" xmlns="http://www.w3.org/2000/svg">
<path d="M187.466 85.9808V85.6081H0.605957V225.775H187.838V85.6081H187.466V85.9808H187.093V225.03H1.35132V86.3534H187.466V85.9808Z" fill="#9FA1A1"/>
<path d="M187.466 129.409V129.036H0.605957V136.136H187.838V129.036H187.466V129.409H187.093V135.39H1.35132V129.782H187.466V129.409Z" fill="#9FA1A1"/>
<path d="M8.62621 170.76L8.91914 170.992C8.91914 170.992 8.95112 170.951 9.01925 170.868C9.53027 170.249 11.9757 167.41 15.8484 164.735C19.7225 162.058 25.0143 159.552 31.2306 159.553C31.6327 159.553 32.0388 159.564 32.4488 159.585C39.4284 159.956 43.5029 162.872 45.8736 165.692C47.0565 167.102 47.808 168.492 48.2627 169.525C48.4893 170.042 48.6421 170.47 48.7382 170.766C48.7859 170.914 48.8187 171.03 48.8403 171.106L48.8634 171.193L48.8694 171.218L49.2324 171.133V170.76H4.15574V171.133L4.18689 171.505L8.81867 171.119L8.91914 170.992L8.62621 170.76L8.59536 170.389L4.12488 170.762L4.15574 171.506H49.702L49.5954 171.049C49.5864 171.014 48.9201 168.167 46.4445 165.213C43.9723 162.258 39.6646 159.214 32.4881 158.841C32.0651 158.818 31.6458 158.808 31.2306 158.808C24.3805 158.809 18.6587 161.746 14.6535 164.669C10.6474 167.594 8.3476 170.513 8.33358 170.53L8.62621 170.76Z" fill="#9FA1A1"/>
<path d="M21.2848 172.323C21.2848 172.323 21.2939 172.278 21.3145 172.185C21.4683 171.491 22.248 168.296 24.0068 165.31C24.8856 163.817 26.0071 162.379 27.4021 161.322C28.799 160.266 30.459 159.586 32.4682 159.585V158.84C30.1405 158.838 28.2083 159.695 26.6564 160.961C24.326 162.861 22.8151 165.662 21.8706 167.985C20.9279 170.309 20.5572 172.162 20.5537 172.177L21.2848 172.323Z" fill="#9FA1A1"/>
<path d="M35.0737 171.547L35.085 171.458C35.1456 171.003 35.4836 168.881 36.5289 166.913C37.0507 165.928 37.746 164.986 38.6558 164.296C39.5674 163.608 40.6872 163.161 42.1189 163.16C42.5716 163.16 43.0558 163.205 43.5743 163.304L43.7138 162.572C43.1528 162.465 42.6214 162.414 42.1189 162.414C40.4223 162.412 39.0568 162.996 38.0042 163.861C36.4229 165.161 35.5203 167.061 34.9962 168.629C34.4739 170.2 34.335 171.447 34.333 171.465L35.0737 171.547Z" fill="#9FA1A1"/>
<path d="M73.0747 170.76L73.3669 170.992C73.3677 170.992 73.399 170.951 73.4676 170.868C73.9781 170.249 76.4237 167.41 80.2966 164.735C84.171 162.058 89.4624 159.552 95.6787 159.553C96.0805 159.553 96.4867 159.564 96.8966 159.585C103.877 159.956 107.951 162.872 110.321 165.692C111.504 167.102 112.256 168.492 112.71 169.525C112.938 170.042 113.09 170.47 113.186 170.766C113.234 170.914 113.267 171.03 113.288 171.106L113.311 171.193L113.317 171.218L113.68 171.133V170.76H68.604V171.133L68.6353 171.505L73.2671 171.119L73.3669 170.992L73.0747 170.76L73.0434 170.389L68.5735 170.762L68.604 171.506H114.15L114.043 171.049C114.034 171.014 113.368 168.167 110.892 165.213C108.42 162.258 104.113 159.214 96.9361 158.841C96.5128 158.818 96.0939 158.808 95.6787 158.808C88.8288 158.809 83.1066 161.746 79.1018 164.669C75.0954 167.594 72.796 170.513 72.7818 170.53L73.0747 170.76Z" fill="#9FA1A1"/>
<path d="M85.7328 172.323C85.7328 172.323 85.7417 172.278 85.7626 172.185C85.9161 171.491 86.6958 168.296 88.4549 165.31C89.3336 163.817 90.4554 162.379 91.85 161.322C93.2468 160.266 94.9067 159.586 96.9162 159.585V158.84C94.5885 158.838 92.6565 159.695 91.1046 160.961C88.7739 162.861 87.263 165.662 86.3186 167.985C85.3758 170.309 85.0053 172.162 85.0023 172.177L85.7328 172.323Z" fill="#9FA1A1"/>
<path d="M99.5216 171.547L99.5336 171.458C99.5939 171.003 99.9316 168.881 100.977 166.913C101.498 165.928 102.194 164.986 103.104 164.296C104.015 163.608 105.136 163.161 106.567 163.16C107.02 163.16 107.505 163.205 108.023 163.304L108.162 162.572C107.601 162.465 107.07 162.414 106.567 162.414C104.87 162.412 103.505 162.996 102.452 163.861C100.871 165.161 99.9681 167.061 99.4441 168.629C98.9224 170.2 98.783 171.447 98.7815 171.465L99.5216 171.547Z" fill="#9FA1A1"/>
<path d="M137.523 170.76L137.815 170.992C137.815 170.992 137.847 170.951 137.915 170.868C138.426 170.249 140.871 167.41 144.744 164.735C148.618 162.058 153.91 159.552 160.126 159.553C160.528 159.553 160.934 159.564 161.344 159.585C168.324 159.956 172.399 162.872 174.769 165.692C175.952 167.102 176.704 168.492 177.158 169.525C177.385 170.042 177.538 170.47 177.634 170.766C177.681 170.914 177.715 171.03 177.736 171.106L177.759 171.193L177.765 171.218L178.128 171.133V170.76H133.052V171.133L133.083 171.505L137.715 171.119L137.815 170.992L137.523 170.76L137.491 170.389L133.021 170.762L133.052 171.506H178.597L178.491 171.049C178.482 171.014 177.816 168.167 175.34 165.213C172.868 162.258 168.56 159.214 161.384 158.841C160.961 158.818 160.542 158.808 160.126 158.808C153.277 158.809 147.554 161.746 143.55 164.669C139.543 167.594 137.244 170.513 137.23 170.53L137.523 170.76Z" fill="#9FA1A1"/>
<path d="M150.18 172.323C150.18 172.323 150.189 172.278 150.21 172.185C150.364 171.491 151.143 168.296 152.903 165.31C153.781 163.817 154.903 162.379 156.298 161.322C157.694 160.266 159.354 159.586 161.363 159.585V158.84C159.035 158.838 157.104 159.695 155.552 160.961C153.222 162.861 151.711 165.662 150.766 167.985C149.823 170.309 149.453 172.162 149.449 172.177L150.18 172.323Z" fill="#9FA1A1"/>
<path d="M163.969 171.547L163.981 171.458C164.042 171.003 164.379 168.881 165.424 166.913C165.946 165.928 166.642 164.986 167.552 164.296C168.463 163.608 169.583 163.161 171.015 163.16C171.468 163.16 171.952 163.205 172.47 163.304L172.61 162.572C172.048 162.465 171.517 162.414 171.015 162.414C169.318 162.412 167.953 162.996 166.9 163.861C165.319 165.161 164.416 167.061 163.892 168.629C163.369 170.2 163.231 171.447 163.229 171.465L163.969 171.547Z" fill="#9FA1A1"/>
<path d="M187.466 171.147V170.774H0.605957V177.873H187.838V170.774H187.466V171.147H187.093V177.128H1.35132V171.52H187.466V171.147Z" fill="#9FA1A1"/>
<path d="M187.466 85.9812V85.6085H0.605957V92.6895H187.838V85.6085H187.466V85.9812H187.093V91.9441H1.35132V86.3538H187.466V85.9812Z" fill="#9FA1A1"/>
<path d="M187.466 206.928V206.555H0.605957V225.775H187.838V206.555H187.466V206.928H187.093V225.03H1.35132V207.3H187.466V206.928Z" fill="#9FA1A1"/>
<path d="M36.5662 107.431V107.058H10.8612V130.155H36.9389V107.058H36.5662V107.431H36.1935V129.409H11.6066V107.804H36.5662V107.431Z" fill="#9FA1A1"/>
<path d="M36.5662 107.431V107.058H10.8612V111.093H36.9389V107.058H36.5662V107.431H36.1935V110.347H11.6066V107.803H36.5662V107.431Z" fill="#9FA1A1"/>
<path d="M137.15 107.431V107.058H58.9182V130.155H137.523V107.058H137.15V107.431H136.778V129.409H59.6636V107.804H137.15V107.431Z" fill="#9FA1A1"/>
<path d="M137.15 107.431V107.058H58.9182V111.093H137.523V107.058H137.15V107.431H136.778V110.347H59.6636V107.803H137.15V107.431Z" fill="#9FA1A1"/>
<path d="M116.66 107.431V107.058H95.0529V130.155H117.033V107.058H116.66V107.431H116.288V129.409H95.7982V107.804H116.66V107.431Z" fill="#9FA1A1"/>
<path d="M116.66 107.431V107.058H95.0529V111.093H117.033V107.058H116.66V107.431H116.288V110.347H95.7982V107.803H116.66V107.431Z" fill="#9FA1A1"/>
<path d="M195.781 213.542C195.78 213.543 193.794 215.01 191.612 216.695C190.521 217.538 189.382 218.435 188.415 219.231C187.445 220.03 186.657 220.718 186.237 221.183C184.665 222.93 182.597 225.69 182.593 225.694L183.189 226.141C183.189 226.141 183.317 225.97 183.535 225.686C184.186 224.832 185.641 222.958 186.791 221.681C187.147 221.284 187.933 220.592 188.888 219.806C190.324 218.623 192.16 217.206 193.635 216.085C194.373 215.525 195.02 215.039 195.483 214.693C195.946 214.347 196.223 214.142 196.224 214.141L195.781 213.542Z" fill="#17282F"/>
<path d="M190.268 212.157C190.265 212.159 188.105 213.67 185.81 215.468C184.662 216.366 183.481 217.336 182.514 218.229C181.547 219.129 180.798 219.92 180.482 220.586C179.445 222.833 178.066 225.938 178.065 225.939L178.746 226.242C178.747 226.24 179.091 225.466 179.565 224.41C180.039 223.354 180.642 222.018 181.159 220.899C181.361 220.444 182.079 219.639 183.02 218.776C184.433 217.47 186.356 215.964 187.922 214.788C188.705 214.201 189.399 213.695 189.897 213.337C190.395 212.978 190.694 212.768 190.695 212.767L190.268 212.157Z" fill="#17282F"/>
<path d="M200.833 217.12C200.833 217.12 200.315 218.672 199.625 219.707C198.935 220.742 193.07 222.295 190.137 224.019C187.204 225.745 190.137 227.298 194.622 226.953C199.108 226.607 205.318 226.953 208.078 225.572C210.839 224.192 214.117 220.57 214.117 220.57" fill="white"/>
<path d="M200.48 217.001C200.48 217.002 200.45 217.092 200.392 217.25C200.22 217.721 199.801 218.775 199.315 219.5C199.286 219.55 199.154 219.674 198.943 219.803C198.197 220.272 196.583 220.878 194.858 221.535C193.128 222.197 191.274 222.919 189.948 223.698C189.515 223.954 189.188 224.211 188.956 224.486C188.726 224.759 188.586 225.064 188.586 225.383C188.584 225.745 188.769 226.067 189.032 226.306C189.431 226.668 190.019 226.918 190.758 227.098C191.497 227.276 192.39 227.374 193.39 227.374C193.794 227.374 194.216 227.357 194.651 227.324C196.872 227.153 199.546 227.153 202.017 227.022C204.493 226.888 206.756 226.643 208.246 225.906C209.686 225.184 211.207 223.917 212.386 222.827C213.563 221.737 214.389 220.825 214.393 220.82L213.841 220.319C213.841 220.319 213.793 220.373 213.699 220.474C213.051 221.174 210.231 224.086 207.913 225.239C206.641 225.881 204.42 226.154 201.978 226.278C199.533 226.407 196.858 226.407 194.594 226.581C194.177 226.612 193.774 226.628 193.39 226.628C192.123 226.629 191.049 226.46 190.327 226.194C189.966 226.062 189.697 225.905 189.538 225.758C189.376 225.606 189.332 225.491 189.331 225.383C189.331 225.287 189.372 225.151 189.527 224.966C189.679 224.782 189.942 224.566 190.326 224.34C191.744 223.505 193.936 222.685 195.856 221.952C196.816 221.586 197.711 221.239 198.42 220.913C198.775 220.75 199.084 220.593 199.337 220.435C199.591 220.274 199.792 220.123 199.936 219.914C200.666 218.812 201.18 217.252 201.187 217.237L200.48 217.001Z" fill="#17282F"/>
<path d="M203.164 231.639H159.207L154.578 177.355H198.534L203.164 231.639Z" fill="white"/>
<path d="M203.164 231.64V231.267H159.549L154.983 177.728H198.192L202.792 231.672L203.164 231.64L203.535 231.608L198.877 176.983H154.171L158.865 232.012H203.57L203.535 231.608L203.164 231.64Z" fill="#17282F"/>
<path d="M194.257 231.639H150.301L155.263 167.535H199.219L194.257 231.639Z" fill="white"/>
<path d="M194.258 231.64V231.267H150.704L155.608 167.909H198.817L193.886 231.611L194.258 231.64L194.63 231.669L199.623 167.163H154.918L149.899 232.012H194.603L194.63 231.669L194.258 231.64Z" fill="#17282F"/>
<path d="M160.006 178.785C159.588 178.785 159.245 178.703 158.977 178.541C158.709 178.377 158.516 178.138 158.397 177.823C158.278 177.509 158.228 177.122 158.246 176.664L159.354 176.449C159.344 176.718 159.359 176.955 159.397 177.162C159.436 177.368 159.507 177.526 159.61 177.639C159.713 177.75 159.856 177.806 160.039 177.806C160.245 177.806 160.396 177.745 160.491 177.621C160.587 177.498 160.642 177.342 160.656 177.154C160.68 176.85 160.63 176.601 160.508 176.407C160.386 176.212 160.218 176.017 160.004 175.822L159.187 175.05C158.958 174.837 158.78 174.602 158.654 174.341C158.528 174.081 158.48 173.759 158.51 173.374C158.552 172.825 158.745 172.402 159.089 172.104C159.433 171.806 159.883 171.657 160.438 171.657C160.764 171.657 161.033 171.707 161.242 171.808C161.452 171.907 161.614 172.046 161.73 172.224C161.844 172.402 161.924 172.603 161.97 172.829C162.016 173.056 162.037 173.295 162.034 173.547L160.938 173.735C160.943 173.519 160.934 173.323 160.91 173.151C160.886 172.979 160.831 172.845 160.744 172.748C160.657 172.651 160.522 172.602 160.339 172.602C160.15 172.602 160 172.663 159.891 172.786C159.781 172.91 159.719 173.063 159.705 173.246C159.686 173.481 159.72 173.674 159.806 173.826C159.891 173.978 160.02 174.134 160.19 174.294L160.999 175.058C161.267 175.299 161.49 175.58 161.668 175.904C161.846 176.227 161.917 176.618 161.882 177.076C161.856 177.408 161.761 177.704 161.595 177.961C161.428 178.218 161.209 178.42 160.938 178.566C160.666 178.712 160.355 178.785 160.006 178.785Z" fill="#040606"/>
<path d="M164.369 178.785C163.859 178.785 163.468 178.685 163.195 178.485C162.92 178.284 162.741 178.011 162.653 177.664C162.565 177.318 162.539 176.919 162.573 176.467L162.765 173.984C162.802 173.51 162.891 173.097 163.033 172.748C163.174 172.398 163.397 172.129 163.701 171.94C164.004 171.751 164.411 171.657 164.921 171.657C165.402 171.657 165.772 171.739 166.031 171.902C166.29 172.065 166.466 172.298 166.557 172.602C166.648 172.905 166.678 173.258 166.646 173.659L166.602 174.242H165.381L165.428 173.641C165.444 173.446 165.447 173.27 165.44 173.109C165.431 172.948 165.387 172.82 165.306 172.726C165.225 172.632 165.075 172.585 164.857 172.585C164.64 172.585 164.477 172.635 164.369 172.735C164.261 172.835 164.187 172.969 164.145 173.139C164.103 173.307 164.075 173.498 164.058 173.709L163.824 176.733C163.804 176.985 163.809 177.192 163.836 177.355C163.863 177.518 163.927 177.642 164.026 177.724C164.126 177.808 164.266 177.849 164.45 177.849C164.662 177.849 164.816 177.799 164.913 177.699C165.009 177.599 165.075 177.465 165.111 177.3C165.147 177.134 165.173 176.947 165.188 176.741L165.237 176.114H166.456L166.413 176.672C166.382 177.085 166.299 177.45 166.166 177.767C166.032 178.085 165.822 178.334 165.536 178.515C165.251 178.694 164.861 178.785 164.369 178.785Z" fill="#040606"/>
<path d="M168.582 176.278H169.527L169.28 173.358L168.582 176.278ZM166.789 178.691L168.72 171.734H170.076L170.929 178.691H169.752L169.602 177.085H168.391L167.983 178.691H166.789Z" fill="#040606"/>
<path d="M171.59 178.691L172.128 171.734H173.013L174.398 175.702L174.705 171.734H175.752L175.213 178.691H174.372L172.993 174.534L172.671 178.691H171.59Z" fill="#040606"/>
<path d="M178.375 178.691L178.913 171.734H180.175L179.949 174.646H181.367L181.592 171.734H182.864L182.325 178.691H181.053L181.297 175.548H179.88L179.636 178.691H178.375Z" fill="#040606"/>
<path d="M183.39 178.691L183.928 171.734H186.848L186.78 172.627H185.13L184.975 174.629H186.271L186.203 175.513H184.906L184.729 177.815H186.394L186.326 178.691H183.39Z" fill="#040606"/>
<path d="M188.645 174.706H189.04C189.286 174.706 189.485 174.67 189.637 174.599C189.788 174.527 189.901 174.413 189.976 174.255C190.051 174.098 190.099 173.895 190.118 173.65C190.145 173.301 190.101 173.039 189.986 172.864C189.87 172.689 189.632 172.602 189.272 172.602H188.808L188.645 174.706ZM187.065 178.691L187.604 171.734H189.27C189.74 171.734 190.132 171.79 190.446 171.902C190.761 172.014 190.993 172.205 191.14 172.473C191.289 172.743 191.345 173.109 191.309 173.573C191.287 173.853 191.242 174.106 191.173 174.328C191.104 174.552 191.002 174.742 190.867 174.899C190.731 175.057 190.552 175.178 190.327 175.265L191.033 178.691H189.762L189.167 175.505H188.583L188.336 178.691H187.065Z" fill="#040606"/>
<path d="M191.866 178.691L192.405 171.734H195.325L195.256 172.627H193.607L193.452 174.629H194.748L194.679 175.513H193.383L193.205 177.815H194.871L194.803 178.691H191.866Z" fill="#040606"/>
<path d="M162.282 227.335L162.748 221.315H161.64L161.712 220.378H165.182L165.11 221.315H164.019L163.553 227.335H162.282Z" fill="#040606"/>
<path d="M167.198 226.494C167.411 226.494 167.57 226.447 167.678 226.356C167.785 226.265 167.862 226.138 167.909 225.978C167.956 225.818 167.986 225.642 168 225.454L168.248 222.25C168.263 222.056 168.26 221.881 168.237 221.727C168.215 221.572 168.157 221.451 168.064 221.362C167.97 221.273 167.818 221.229 167.606 221.229C167.405 221.229 167.25 221.273 167.141 221.362C167.031 221.451 166.952 221.572 166.906 221.727C166.86 221.881 166.829 222.056 166.814 222.25L166.566 225.454C166.551 225.642 166.554 225.818 166.573 225.978C166.592 226.138 166.65 226.265 166.746 226.356C166.841 226.447 166.993 226.494 167.198 226.494ZM167.126 227.429C166.634 227.429 166.249 227.338 165.971 227.154C165.693 226.971 165.504 226.708 165.405 226.365C165.306 226.021 165.274 225.614 165.31 225.144L165.512 222.543C165.548 222.073 165.643 221.671 165.794 221.336C165.946 221.001 166.175 220.744 166.481 220.568C166.787 220.39 167.186 220.301 167.678 220.301C168.181 220.301 168.571 220.39 168.847 220.568C169.122 220.744 169.311 221.001 169.414 221.336C169.517 221.671 169.55 222.073 169.514 222.543L169.311 225.153C169.276 225.617 169.181 226.019 169.025 226.36C168.87 226.701 168.641 226.965 168.337 227.151C168.034 227.336 167.63 227.429 167.126 227.429Z" fill="#040606"/>
<path d="M173.745 223.35H174.226C174.455 223.35 174.636 223.317 174.77 223.251C174.904 223.185 175.001 223.08 175.061 222.933C175.121 222.787 175.161 222.591 175.18 222.345C175.199 222.094 175.196 221.889 175.171 221.731C175.147 221.574 175.075 221.458 174.958 221.383C174.84 221.309 174.65 221.271 174.387 221.271H173.906L173.745 223.35ZM172.166 227.335L172.704 220.378H174.748C175.166 220.378 175.499 220.455 175.748 220.61C175.996 220.765 176.171 220.99 176.271 221.285C176.371 221.579 176.405 221.936 176.373 222.354C176.338 222.807 176.233 223.171 176.056 223.449C175.88 223.727 175.648 223.928 175.361 224.054C175.073 224.18 174.741 224.242 174.363 224.242H173.676L173.437 227.335H172.166Z" fill="#040606"/>
<path d="M177.763 224.921H178.708L178.461 222.001L177.763 224.921ZM175.97 227.335L177.9 220.378H179.257L180.11 227.335H178.934L178.782 225.729H177.572L177.164 227.335H175.97Z" fill="#040606"/>
<path d="M181.51 227.335L181.715 224.681L180.64 220.378H181.825L182.47 223.135L183.491 220.378H184.65L182.926 224.681L182.721 227.335H181.51Z" fill="#040606"/>
<path d="M180.07 198.846C180.495 198.846 180.912 198.846 181.326 198.846C181.358 198.422 181.391 198.005 181.422 197.59C181 197.59 180.585 197.59 180.167 197.59C180.134 198.01 180.102 198.425 180.07 198.846ZM177.028 205.21C176.602 205.21 176.186 205.21 175.771 205.21C175.739 205.635 175.706 206.052 175.674 206.467C176.097 206.467 176.511 206.467 176.931 206.467C176.963 206.047 176.995 205.632 177.028 205.21ZM179.571 205.204C179.604 204.784 179.637 204.362 179.669 203.94C179.241 203.94 178.824 203.94 178.408 203.94C178.375 204.364 178.343 204.781 178.311 205.202C178.737 205.202 179.156 205.202 179.575 205.202C179.542 205.623 179.509 206.044 179.477 206.466C180.328 206.466 181.168 206.466 182.006 206.466C182.039 206.041 182.072 205.625 182.104 205.204C181.254 205.204 180.413 205.204 179.571 205.204ZM171.661 209.013C171.727 208.166 171.792 207.318 171.857 206.472L171.854 206.474C172.275 206.474 172.696 206.474 173.118 206.474C173.151 206.042 173.183 205.626 173.216 205.201C172.79 205.201 172.371 205.201 171.953 205.201L171.956 205.204C171.988 204.78 172.019 204.356 172.051 203.931C172.895 203.931 173.74 203.931 174.596 203.931C174.629 203.503 174.661 203.086 174.694 202.669C175.12 202.669 175.535 202.669 175.96 202.669C175.928 203.09 175.896 203.508 175.864 203.925C176.292 203.925 176.709 203.925 177.134 203.925C177.199 203.076 177.265 202.234 177.33 201.392L177.327 201.396L177.488 201.394C178.705 201.393 179.921 201.393 181.138 201.392C181.106 201.813 181.073 202.234 181.041 202.656C181.469 202.656 181.886 202.656 182.301 202.656C182.334 202.232 182.366 201.815 182.399 201.395C181.973 201.395 181.554 201.395 181.135 201.395C181.168 200.974 181.2 200.552 181.234 200.119C180.381 200.119 179.54 200.119 178.692 200.119C178.758 199.268 178.823 198.431 178.888 197.591C177.617 197.591 176.353 197.591 175.078 197.591C175.045 198.016 175.012 198.433 174.98 198.858C174.13 198.858 173.292 198.858 172.452 198.858C172.386 199.706 172.322 200.546 172.256 201.399C172.68 201.399 173.097 201.399 173.513 201.399C173.479 201.825 173.447 202.24 173.414 202.666C172.991 202.666 172.574 202.666 172.152 202.666C172.119 203.097 172.086 203.516 172.053 203.935C171.634 203.935 171.215 203.935 170.785 203.935C170.818 203.51 170.85 203.092 170.883 202.664C169.608 202.664 168.345 202.664 167.076 202.664C167.11 202.239 167.142 201.824 167.175 201.398C168.438 201.398 169.702 201.398 170.975 201.398C171.238 198.008 171.499 194.629 171.762 191.238C172.193 191.238 172.615 191.238 173.036 191.238L173.033 191.234C172.939 192.457 172.846 193.679 172.752 194.902L172.741 195.038C173.164 195.038 173.58 195.038 174.009 195.038C174.075 194.197 174.14 193.357 174.205 192.511C174.631 192.511 175.045 192.511 175.471 192.511C175.407 193.35 175.341 194.19 175.275 195.047C175.708 195.047 176.129 195.047 176.551 195.047L176.548 195.044C176.516 195.463 176.483 195.881 176.45 196.312C178.568 196.312 180.678 196.312 182.796 196.312C182.763 196.738 182.731 197.153 182.698 197.579C183.123 197.579 183.54 197.579 183.97 197.579C183.937 198.013 183.904 198.434 183.872 198.855L183.875 198.853C183.454 198.853 183.032 198.853 182.611 198.853C182.578 199.285 182.546 199.701 182.512 200.126C182.939 200.126 183.357 200.126 183.776 200.126L183.773 200.123C183.708 200.965 183.643 201.807 183.577 202.665C184.006 202.665 184.428 202.665 184.849 202.665L184.847 202.662C184.781 203.504 184.716 204.345 184.65 205.198C184.23 205.198 183.814 205.198 183.389 205.198C183.323 206.049 183.258 206.889 183.193 207.745C183.613 207.745 184.035 207.745 184.456 207.745L184.453 207.742C184.42 208.16 184.388 208.58 184.355 209.01C185.204 209.01 186.044 209.01 186.89 209.01C186.858 209.436 186.826 209.851 186.793 210.277C185.53 210.277 184.267 210.277 182.991 210.277C182.926 211.129 182.861 211.969 182.795 212.815C182.369 212.815 181.954 212.815 181.528 212.815C181.56 212.4 181.592 211.983 181.626 211.55C180.77 211.55 179.925 211.55 179.08 211.55L179.083 211.553C179.115 211.133 179.148 210.715 179.181 210.284C178.755 210.284 178.338 210.284 177.915 210.284C177.948 209.857 177.98 209.443 178.013 209.017C178.852 209.017 179.692 209.017 180.54 209.017C180.574 208.588 180.606 208.171 180.638 207.748C178.528 207.748 176.421 207.748 174.302 207.748C174.27 208.164 174.237 208.581 174.204 209.01C173.348 209.01 172.503 209.01 171.658 209.01L171.661 209.013Z" fill="#17282F"/>
<path d="M163.18 187.432C163.016 189.55 162.852 191.659 162.689 193.767C164.807 193.767 166.916 193.767 169.025 193.767C169.188 191.651 169.351 189.544 169.515 187.432C167.402 187.432 165.294 187.432 163.18 187.432ZM161.318 195.038C161.547 192.076 161.776 189.122 162.005 186.162C164.963 186.162 167.917 186.162 170.88 186.162C170.651 189.117 170.423 192.073 170.193 195.038C167.24 195.038 164.283 195.038 161.318 195.038Z" fill="#17282F"/>
<path d="M187.292 187.434C185.173 187.434 183.064 187.434 180.956 187.434C180.792 189.552 180.629 191.661 180.466 193.77C182.582 193.77 184.689 193.77 186.802 193.77C186.965 191.656 187.128 189.549 187.292 187.434ZM187.97 195.041C185.009 195.041 182.055 195.041 179.095 195.041C179.324 192.082 179.553 189.128 179.782 186.165C182.736 186.165 185.692 186.165 188.657 186.165C188.428 189.119 188.199 192.075 187.97 195.041Z" fill="#17282F"/>
<path d="M168.139 205.21C166.021 205.21 163.911 205.21 161.804 205.21C161.64 207.327 161.477 209.437 161.313 211.545C163.429 211.545 165.537 211.545 167.648 211.545C167.812 209.433 167.975 207.325 168.139 205.21ZM160.632 203.938C163.593 203.938 166.547 203.938 169.507 203.938C169.278 206.896 169.049 209.85 168.819 212.812C165.865 212.812 162.909 212.812 159.945 212.812C160.173 209.858 160.402 206.903 160.632 203.938Z" fill="#17282F"/>
<path d="M174.507 188.689C174.932 188.689 175.349 188.689 175.764 188.689C175.796 188.265 175.829 187.847 175.861 187.433C175.438 187.433 175.024 187.433 174.605 187.433C174.572 187.852 174.54 188.267 174.507 188.689ZM173.036 191.238C173.101 190.395 173.167 189.553 173.233 188.699C172.808 188.699 172.39 188.699 171.968 188.699C172.033 187.849 172.098 187.011 172.164 186.165C174.272 186.165 176.382 186.165 178.5 186.165C178.435 187.004 178.369 187.844 178.304 188.693C177.886 188.693 177.472 188.693 177.049 188.693C177.017 189.118 176.984 189.536 176.951 189.965C177.368 189.965 177.785 189.965 178.208 189.965C178.141 190.815 178.077 191.652 178.011 192.498C177.594 192.498 177.177 192.498 176.748 192.498C176.78 192.081 176.812 191.663 176.845 191.238C176.419 191.238 176.004 191.238 175.578 191.238C175.611 190.813 175.643 190.396 175.676 189.972C175.249 189.972 174.835 189.972 174.408 189.972C174.376 190.387 174.344 190.804 174.31 191.234C173.877 191.234 173.455 191.234 173.033 191.234L173.036 191.238Z" fill="#17282F"/>
<path d="M167.463 197.583C167.431 198.002 167.398 198.421 167.364 198.852C168.213 198.852 169.054 198.852 169.9 198.852C169.867 199.278 169.835 199.693 169.802 200.119C168.54 200.119 167.276 200.119 166.001 200.119C165.935 200.971 165.87 201.811 165.804 202.657C164.108 202.657 162.424 202.657 160.731 202.657C160.796 201.819 160.862 200.978 160.926 200.131C161.342 200.131 161.759 200.131 162.184 200.131C162.152 200.547 162.12 200.962 162.087 201.385C162.935 201.385 163.776 201.385 164.632 201.385C164.73 200.119 164.828 198.851 164.927 197.583L164.923 197.587C165.771 197.587 166.618 197.587 167.466 197.587L167.463 197.583Z" fill="#17282F"/>
<path d="M171.658 209.01C171.625 209.429 171.593 209.849 171.559 210.28C171.984 210.28 172.402 210.28 172.827 210.28C172.794 210.705 172.762 211.121 172.729 211.547C173.154 211.547 173.571 211.547 173.995 211.547C173.962 211.975 173.93 212.393 173.897 212.815C172.634 212.815 171.372 212.815 170.103 212.815C170.201 211.554 170.298 210.29 170.397 209.013C170.817 209.013 171.239 209.013 171.661 209.013L171.658 209.01Z" fill="#17282F"/>
<path d="M164.927 197.583C164.085 197.583 163.243 197.583 162.389 197.583C162.356 198.007 162.324 198.424 162.291 198.848C161.865 198.848 161.451 198.848 161.027 198.848C161.092 198.011 161.157 197.171 161.222 196.322C162.482 196.322 163.746 196.322 165.022 196.322C164.989 196.743 164.956 197.164 164.924 197.587L164.927 197.583Z" fill="#17282F"/>
<path d="M187.576 200.119C187.154 200.119 186.739 200.119 186.317 200.119C186.382 199.276 186.447 198.438 186.513 197.588C186.088 197.588 185.67 197.588 185.246 197.588C185.28 197.159 185.312 196.742 185.345 196.32C186.187 196.32 187.025 196.32 187.87 196.32C187.772 197.584 187.675 198.847 187.576 200.119Z" fill="#17282F"/>
<path d="M167.466 197.586C167.498 197.167 167.531 196.748 167.564 196.321C168.408 196.321 169.248 196.321 170.095 196.321C170.062 196.737 170.03 197.155 169.997 197.583C169.151 197.583 168.308 197.583 167.463 197.583L167.466 197.586Z" fill="#17282F"/>
<path d="M184.849 202.665C184.881 202.247 184.914 201.828 184.947 201.402C185.367 201.402 185.784 201.402 186.208 201.402C186.175 201.817 186.143 202.234 186.111 202.662C185.689 202.662 185.268 202.662 184.846 202.662L184.849 202.665Z" fill="#17282F"/>
<path d="M186.024 203.938C186.444 203.938 186.858 203.938 187.28 203.938C187.248 204.355 187.216 204.772 187.183 205.196C186.766 205.196 186.349 205.196 185.927 205.196C185.959 204.779 185.991 204.364 186.024 203.938Z" fill="#17282F"/>
<path d="M176.551 195.046C176.583 194.628 176.616 194.209 176.648 193.783C177.07 193.783 177.486 193.783 177.91 193.783C177.878 194.198 177.846 194.615 177.812 195.043C177.39 195.043 176.969 195.043 176.548 195.043L176.551 195.046Z" fill="#17282F"/>
<path d="M171.857 206.471C171.438 206.471 171.02 206.471 170.594 206.471C170.627 206.049 170.659 205.633 170.692 205.203C171.113 205.203 171.534 205.203 171.956 205.203L171.953 205.2C171.92 205.625 171.887 206.049 171.854 206.474L171.857 206.471Z" fill="#17282F"/>
<path d="M184.456 207.744C184.488 207.325 184.52 206.907 184.553 206.48C184.974 206.48 185.391 206.48 185.815 206.48C185.782 206.895 185.75 207.312 185.717 207.741C185.295 207.741 184.874 207.741 184.453 207.741L184.456 207.744Z" fill="#17282F"/>
<path d="M183.872 198.855C184.29 198.855 184.709 198.855 185.135 198.855C185.103 199.276 185.07 199.694 185.038 200.123C184.616 200.123 184.195 200.123 183.773 200.123L183.776 200.125C183.809 199.701 183.842 199.276 183.875 198.852L183.872 198.855Z" fill="#17282F"/>
<path d="M176.534 211.547C176.112 211.547 175.698 211.547 175.278 211.547C175.31 211.128 175.342 210.714 175.375 210.291C175.79 210.291 176.207 210.291 176.632 210.291C176.6 210.705 176.567 211.121 176.534 211.547Z" fill="#17282F"/>
<path d="M179.08 211.55C179.048 211.969 179.016 212.387 178.982 212.813C178.562 212.813 178.145 212.813 177.721 212.813C177.753 212.398 177.785 211.981 177.819 211.553C178.24 211.553 178.662 211.553 179.083 211.553L179.08 211.55Z" fill="#17282F"/>
<path d="M186.593 212.816C186.171 212.816 185.757 212.816 185.337 212.816C185.369 212.398 185.402 211.983 185.434 211.56C185.849 211.56 186.266 211.56 186.69 211.56C186.659 211.974 186.626 212.39 186.593 212.816Z" fill="#17282F"/>
<path d="M177.33 201.392C176.911 201.392 176.493 201.392 176.065 201.392C176.098 200.972 176.131 200.555 176.164 200.132C176.579 200.132 176.996 200.132 177.424 200.132C177.391 200.553 177.359 200.974 177.327 201.396L177.33 201.392Z" fill="#17282F"/>
<path d="M167.851 192.5C166.582 192.5 165.321 192.5 164.055 192.5C164.153 191.235 164.25 189.974 164.348 188.705C165.61 188.705 166.874 188.705 168.145 188.705C168.047 189.966 167.949 191.229 167.851 192.5Z" fill="#17282F"/>
<path d="M181.83 192.498C181.928 191.229 182.026 189.969 182.124 188.702C183.39 188.702 184.65 188.702 185.92 188.702C185.822 189.963 185.724 191.227 185.626 192.498C184.366 192.498 183.102 192.498 181.83 192.498Z" fill="#17282F"/>
<path d="M162.678 210.274C162.776 209.006 162.874 207.745 162.972 206.478C164.237 206.478 165.498 206.478 166.768 206.478C166.67 207.74 166.573 209.003 166.474 210.274C165.213 210.274 163.95 210.274 162.678 210.274Z" fill="#17282F"/>
<path d="M165.924 182.781H160.023L159.521 189.257L160.264 189.314L160.712 183.527H165.924V182.781Z" fill="#6CCB94"/>
<path d="M186.141 183.527H191.295L190.851 189.257L191.594 189.314L192.1 182.781H186.141V183.527Z" fill="#6CCB94"/>
<path d="M163.425 215.076H158.27L158.714 209.345L157.971 209.288L157.465 215.821H163.425V215.076Z" fill="#6CCB94"/>
<path d="M183.641 215.821H189.543L190.044 209.345L189.301 209.288L188.853 215.076H183.641V215.821Z" fill="#6CCB94"/>
<path d="M107.185 164.385C107.185 164.385 113.169 157.487 114.206 156.972C115.243 156.458 129.219 149.625 129.219 149.625L125.33 169.388L103.952 179.326L107.185 164.385Z" fill="white"/>
<path d="M107.184 164.385L107.466 164.629C107.467 164.628 107.839 164.2 108.416 163.545C109.279 162.565 110.601 161.082 111.8 159.798C112.4 159.156 112.969 158.565 113.433 158.114C113.664 157.889 113.869 157.698 114.034 157.558C114.197 157.417 114.332 157.323 114.371 157.306C114.886 157.05 118.642 155.212 122.264 153.44C124.076 152.554 125.856 151.683 127.182 151.035C128.509 150.386 129.38 149.961 129.383 149.959L129.219 149.625L128.854 149.552L125 169.129L104.473 178.672L107.549 164.463L107.184 164.385L106.821 164.306L103.428 179.979L125.658 169.646L129.729 148.96L129.056 149.29C129.055 149.29 115.081 156.122 114.039 156.638C113.837 156.743 113.632 156.914 113.356 157.162C112.41 158.018 110.808 159.753 109.429 161.287C108.05 162.818 106.904 164.14 106.903 164.141L106.841 164.213L106.821 164.306L107.184 164.385Z" fill="#17282F"/>
<path d="M144.569 179.537L125.588 176.028C124.041 175.741 123.017 174.254 123.303 172.707L131.696 127.319C131.982 125.771 133.469 124.749 135.017 125.035L153.998 128.545C155.546 128.83 156.568 130.318 156.281 131.865L147.889 177.252C147.603 178.8 146.116 179.824 144.569 179.537Z" fill="white"/>
<path d="M144.568 179.538L144.636 179.171L125.655 175.661C124.462 175.441 123.628 174.398 123.628 173.228C123.628 173.079 123.641 172.928 123.67 172.775L132.062 127.387C132.282 126.194 133.325 125.359 134.495 125.359C134.644 125.359 134.796 125.373 134.949 125.401L153.929 128.911C155.123 129.131 155.957 130.174 155.957 131.344C155.957 131.493 155.943 131.645 155.915 131.798L147.523 177.185C147.302 178.379 146.259 179.213 145.089 179.213C144.94 179.213 144.788 179.199 144.635 179.171L144.568 179.538L144.5 179.904C144.698 179.94 144.895 179.958 145.089 179.958C146.614 179.958 147.967 178.873 148.256 177.32L156.648 131.933C156.684 131.735 156.702 131.538 156.702 131.344C156.702 129.819 155.617 128.466 154.064 128.178L135.084 124.668C134.887 124.632 134.69 124.614 134.495 124.614C132.97 124.614 131.617 125.699 131.329 127.252L122.937 172.639C122.9 172.837 122.883 173.034 122.883 173.228C122.883 174.753 123.968 176.106 125.52 176.394L144.5 179.904L144.568 179.538Z" fill="#17282F"/>
<path d="M143.581 149.936C143.851 149.987 144.115 150.037 144.376 150.087C144.432 149.791 144.487 149.499 144.542 149.209C144.274 149.159 144.012 149.109 143.747 149.059C143.691 149.352 143.637 149.641 143.581 149.936ZM141.127 154.074C140.858 154.023 140.595 153.973 140.333 153.924C140.277 154.22 140.222 154.512 140.166 154.8C140.435 154.852 140.696 154.901 140.962 154.951C141.017 154.658 141.072 154.369 141.127 154.074ZM142.738 154.375C142.793 154.08 142.849 153.787 142.905 153.491C142.634 153.441 142.37 153.391 142.107 153.341C142.051 153.637 141.995 153.927 141.94 154.222C142.21 154.273 142.476 154.323 142.74 154.373C142.684 154.668 142.629 154.961 142.573 155.256C143.112 155.357 143.643 155.458 144.173 155.559C144.229 155.262 144.285 154.972 144.34 154.678C143.802 154.576 143.27 154.476 142.738 154.375ZM137.416 156.122C137.528 155.53 137.64 154.938 137.751 154.346L137.749 154.348C138.016 154.398 138.282 154.449 138.548 154.5C138.606 154.198 138.661 153.907 138.717 153.611C138.447 153.559 138.182 153.51 137.917 153.459L137.919 153.462C137.974 153.166 138.029 152.869 138.085 152.573C138.619 152.674 139.153 152.775 139.695 152.878C139.752 152.578 139.807 152.287 139.862 151.996C140.132 152.047 140.394 152.096 140.664 152.148C140.608 152.442 140.552 152.734 140.497 153.025C140.769 153.077 141.032 153.127 141.302 153.178C141.414 152.585 141.525 151.997 141.636 151.409L141.634 151.41L141.736 151.429C142.506 151.574 143.276 151.719 144.046 151.865C143.99 152.159 143.935 152.453 143.879 152.747C144.15 152.8 144.414 152.849 144.677 152.899C144.732 152.603 144.788 152.311 144.844 152.019C144.573 151.967 144.309 151.917 144.044 151.867C144.1 151.572 144.155 151.278 144.212 150.975C143.673 150.874 143.141 150.773 142.604 150.671C142.716 150.078 142.827 149.492 142.938 148.907C142.133 148.754 141.334 148.603 140.527 148.45C140.471 148.746 140.415 149.038 140.359 149.334C139.822 149.232 139.292 149.132 138.761 149.031C138.649 149.624 138.538 150.21 138.424 150.805C138.694 150.856 138.957 150.906 139.22 150.956C139.164 151.253 139.109 151.543 139.053 151.841C138.785 151.79 138.521 151.741 138.254 151.689C138.197 151.99 138.142 152.282 138.086 152.575C137.821 152.525 137.556 152.475 137.283 152.423C137.34 152.126 137.395 151.835 137.452 151.536C136.645 151.383 135.845 151.231 135.043 151.079C135.099 150.783 135.154 150.493 135.21 150.196C136.009 150.347 136.808 150.499 137.615 150.652C138.063 148.284 138.509 145.924 138.957 143.556C139.23 143.609 139.496 143.659 139.763 143.709L139.762 143.707C139.601 144.56 139.44 145.414 139.279 146.268L139.261 146.363C139.528 146.413 139.792 146.463 140.064 146.515C140.175 145.927 140.286 145.341 140.397 144.75C140.667 144.801 140.929 144.852 141.198 144.903C141.088 145.488 140.977 146.075 140.863 146.673C141.137 146.725 141.404 146.776 141.671 146.826L141.669 146.823C141.614 147.116 141.559 147.408 141.501 147.71C142.842 147.963 144.177 148.216 145.517 148.47C145.461 148.767 145.406 149.056 145.35 149.355C145.619 149.405 145.883 149.455 146.155 149.507C146.097 149.809 146.042 150.104 145.986 150.398L145.988 150.397C145.722 150.346 145.455 150.295 145.189 150.245C145.132 150.546 145.077 150.838 145.021 151.134C145.291 151.185 145.555 151.235 145.821 151.285L145.818 151.283C145.707 151.871 145.596 152.459 145.483 153.058C145.754 153.11 146.021 153.16 146.288 153.21L146.287 153.209C146.176 153.796 146.064 154.384 145.952 154.979C145.687 154.928 145.423 154.879 145.154 154.828C145.042 155.422 144.931 156.008 144.818 156.606C145.084 156.656 145.35 156.707 145.617 156.757L145.616 156.755C145.561 157.048 145.505 157.34 145.448 157.641C145.985 157.742 146.518 157.843 147.053 157.944C146.996 158.242 146.942 158.532 146.886 158.83C146.087 158.678 145.287 158.526 144.481 158.374C144.368 158.968 144.257 159.555 144.145 160.146C143.875 160.095 143.613 160.045 143.343 159.994C143.398 159.704 143.453 159.413 143.51 159.11C142.968 159.008 142.434 158.906 141.899 158.805L141.901 158.807C141.956 158.515 142.011 158.222 142.069 157.922C141.799 157.87 141.535 157.82 141.267 157.771C141.324 157.472 141.378 157.183 141.435 156.885C141.966 156.986 142.498 157.087 143.034 157.188C143.09 156.889 143.146 156.597 143.201 156.302C141.867 156.049 140.533 155.797 139.192 155.543C139.137 155.833 139.082 156.124 139.025 156.424C138.483 156.322 137.949 156.22 137.414 156.119L137.416 156.122Z" fill="#17282F"/>
<path d="M133.843 139.835C133.563 141.314 133.284 142.787 133.006 144.259C134.346 144.513 135.681 144.765 137.014 145.018C137.294 143.541 137.573 142.069 137.851 140.595C136.514 140.342 135.181 140.089 133.843 139.835ZM132.033 144.993C132.424 142.926 132.814 140.863 133.205 138.797C135.077 139.151 136.946 139.505 138.82 139.86C138.43 141.923 138.04 143.987 137.649 146.057C135.779 145.703 133.909 145.349 132.033 144.993Z" fill="#17282F"/>
<path d="M149.1 142.727C147.759 142.473 146.424 142.22 145.091 141.967C144.811 143.447 144.533 144.92 144.254 146.391C145.593 146.645 146.927 146.898 148.263 147.151C148.542 145.675 148.82 144.203 149.1 142.727ZM148.897 148.189C147.023 147.835 145.154 147.481 143.281 147.126C143.672 145.06 144.062 142.998 144.453 140.93C146.322 141.283 148.193 141.638 150.069 141.993C149.679 144.055 149.288 146.12 148.897 148.189Z" fill="#17282F"/>
<path d="M135.503 153.009C134.163 152.755 132.828 152.502 131.495 152.249C131.215 153.728 130.936 155.201 130.658 156.674C131.996 156.927 133.331 157.18 134.666 157.433C134.946 155.957 135.225 154.485 135.503 153.009ZM130.859 151.209C132.733 151.563 134.602 151.917 136.475 152.273C136.084 154.338 135.693 156.401 135.302 158.469C133.433 158.116 131.562 157.761 129.687 157.406C130.077 155.343 130.467 153.279 130.859 151.209Z" fill="#17282F"/>
<path d="M140.906 142.083C141.175 142.134 141.439 142.184 141.7 142.234C141.757 141.936 141.811 141.646 141.866 141.356C141.599 141.306 141.336 141.255 141.072 141.205C141.016 141.499 140.962 141.788 140.906 142.083ZM139.763 143.71C139.874 143.121 139.986 142.533 140.098 141.937C139.829 141.886 139.565 141.836 139.298 141.785C139.41 141.192 139.521 140.607 139.633 140.016C140.967 140.269 142.302 140.522 143.642 140.776C143.531 141.362 143.42 141.948 143.308 142.541C143.044 142.491 142.782 142.441 142.514 142.391C142.458 142.687 142.402 142.979 142.346 143.278C142.61 143.329 142.873 143.378 143.141 143.429C143.028 144.022 142.918 144.607 142.806 145.197C142.542 145.147 142.279 145.098 142.007 145.046C142.062 144.755 142.118 144.463 142.173 144.167C141.903 144.115 141.641 144.066 141.371 144.015C141.427 143.718 141.483 143.426 141.538 143.131C141.269 143.08 141.006 143.03 140.736 142.979C140.681 143.269 140.626 143.56 140.569 143.861C140.295 143.808 140.028 143.758 139.761 143.707L139.763 143.71Z" fill="#17282F"/>
<path d="M135.709 147.531C135.654 147.824 135.598 148.116 135.542 148.417C136.078 148.52 136.611 148.62 137.146 148.722C137.089 149.019 137.035 149.309 136.979 149.607C136.18 149.455 135.38 149.304 134.573 149.151C134.461 149.746 134.35 150.332 134.238 150.923C133.165 150.72 132.1 150.518 131.029 150.315C131.139 149.73 131.25 149.143 131.362 148.551C131.624 148.601 131.888 148.651 132.158 148.702C132.103 148.992 132.047 149.282 131.992 149.577C132.528 149.679 133.06 149.78 133.602 149.883C133.769 148.998 133.937 148.113 134.105 147.228L134.102 147.229C134.638 147.331 135.174 147.433 135.71 147.534L135.709 147.531Z" fill="#17282F"/>
<path d="M137.414 156.119C137.358 156.411 137.303 156.704 137.246 157.005C137.515 157.057 137.779 157.106 138.048 157.157C137.992 157.455 137.937 157.744 137.881 158.042C138.15 158.093 138.413 158.143 138.682 158.194C138.625 158.493 138.57 158.784 138.515 159.08C137.714 158.928 136.917 158.777 136.113 158.625C136.28 157.744 136.447 156.861 136.616 155.971C136.882 156.021 137.149 156.071 137.415 156.122L137.414 156.119Z" fill="#17282F"/>
<path d="M134.105 147.228C133.572 147.126 133.039 147.026 132.498 146.924C132.443 147.22 132.387 147.511 132.332 147.806C132.062 147.755 131.799 147.706 131.532 147.655C131.642 147.07 131.753 146.484 131.865 145.891C132.662 146.043 133.461 146.194 134.269 146.347C134.214 146.64 134.158 146.936 134.103 147.229L134.105 147.228Z" fill="#17282F"/>
<path d="M148.226 151.736C147.958 151.686 147.696 151.636 147.429 151.586C147.54 150.997 147.651 150.412 147.763 149.819C147.494 149.767 147.23 149.718 146.963 149.667C147.019 149.367 147.074 149.076 147.13 148.781C147.663 148.882 148.192 148.983 148.728 149.084C148.561 149.966 148.394 150.849 148.226 151.736Z" fill="#17282F"/>
<path d="M135.71 147.534C135.766 147.242 135.821 146.949 135.877 146.652C136.412 146.752 136.943 146.854 137.479 146.955C137.425 147.246 137.369 147.536 137.313 147.836C136.778 147.734 136.243 147.632 135.709 147.531L135.71 147.534Z" fill="#17282F"/>
<path d="M146.288 153.211C146.343 152.918 146.399 152.626 146.455 152.329C146.721 152.379 146.985 152.429 147.253 152.479C147.198 152.77 147.144 153.061 147.087 153.36C146.82 153.309 146.553 153.259 146.286 153.209L146.288 153.211Z" fill="#17282F"/>
<path d="M146.926 154.253C147.192 154.303 147.454 154.353 147.721 154.403C147.666 154.695 147.611 154.986 147.555 155.282C147.291 155.232 147.027 155.182 146.76 155.132C146.815 154.84 146.87 154.55 146.926 154.253Z" fill="#17282F"/>
<path d="M141.67 146.826C141.726 146.533 141.781 146.241 141.837 145.943C142.103 145.994 142.367 146.044 142.636 146.095C142.581 146.384 142.525 146.676 142.469 146.975C142.202 146.925 141.935 146.873 141.669 146.823L141.67 146.826Z" fill="#17282F"/>
<path d="M137.752 154.347C137.487 154.297 137.222 154.246 136.952 154.195C137.008 153.901 137.063 153.61 137.12 153.311C137.386 153.361 137.653 153.412 137.919 153.462L137.917 153.46C137.861 153.756 137.805 154.051 137.749 154.348L137.752 154.347Z" fill="#17282F"/>
<path d="M145.617 156.757C145.673 156.465 145.728 156.172 145.784 155.875C146.05 155.925 146.314 155.975 146.582 156.025C146.528 156.315 146.472 156.607 146.416 156.906C146.149 156.855 145.883 156.805 145.616 156.754L145.617 156.757Z" fill="#17282F"/>
<path d="M145.986 150.399C146.251 150.448 146.516 150.499 146.786 150.55C146.73 150.844 146.675 151.135 146.619 151.435C146.352 151.384 146.085 151.334 145.818 151.283L145.821 151.285C145.877 150.99 145.932 150.694 145.988 150.397L145.986 150.399Z" fill="#17282F"/>
<path d="M140.289 158.498C140.022 158.447 139.759 158.397 139.494 158.347C139.549 158.055 139.604 157.765 139.66 157.47C139.923 157.52 140.187 157.57 140.455 157.621C140.401 157.91 140.345 158.201 140.289 158.498Z" fill="#17282F"/>
<path d="M141.899 158.805C141.844 159.098 141.789 159.39 141.732 159.688C141.466 159.638 141.203 159.587 140.934 159.537C140.989 159.247 141.044 158.955 141.101 158.656C141.368 158.707 141.634 158.758 141.901 158.808L141.899 158.805Z" fill="#17282F"/>
<path d="M146.548 160.603C146.281 160.552 146.02 160.503 145.753 160.452C145.809 160.16 145.864 159.87 145.92 159.575C146.182 159.625 146.446 159.674 146.714 159.725C146.66 160.014 146.605 160.305 146.548 160.603Z" fill="#17282F"/>
<path d="M141.636 151.409C141.372 151.359 141.106 151.309 140.836 151.258C140.892 150.964 140.947 150.673 141.003 150.378C141.266 150.427 141.53 150.477 141.801 150.528C141.745 150.823 141.689 151.117 141.634 151.411L141.636 151.409Z" fill="#17282F"/>
<path d="M136.377 143.982C135.574 143.83 134.776 143.678 133.975 143.527C134.142 142.644 134.308 141.763 134.476 140.876C135.274 141.028 136.074 141.179 136.878 141.332C136.712 142.212 136.544 143.094 136.377 143.982Z" fill="#17282F"/>
<path d="M145.223 145.656C145.391 144.769 145.557 143.89 145.725 143.005C146.526 143.156 147.323 143.308 148.127 143.46C147.96 144.341 147.793 145.223 147.626 146.11C146.827 145.96 146.028 145.808 145.223 145.656Z" fill="#17282F"/>
<path d="M131.626 155.937C131.794 155.051 131.961 154.171 132.128 153.286C132.929 153.438 133.727 153.589 134.53 153.741C134.363 154.622 134.196 155.505 134.029 156.392C133.231 156.241 132.431 156.09 131.626 155.937Z" fill="#17282F"/>
<path d="M136.004 136.772L132.122 136.036L131.243 140.684L131.975 140.822L132.716 136.908L135.866 137.504L136.004 136.772Z" fill="#6CCB94"/>
<path d="M148.657 139.928L151.807 140.525L151.067 144.44L151.799 144.579L152.679 139.931L148.796 139.196L148.657 139.928Z" fill="#6CCB94"/>
<path d="M131.739 159.322L128.588 158.725L129.329 154.809L128.596 154.671L127.717 159.319L131.599 160.054L131.739 159.322Z" fill="#6CCB94"/>
<path d="M144.392 162.477L148.274 163.213L149.154 158.565L148.421 158.426L147.681 162.342L144.53 161.745L144.392 162.477Z" fill="#6CCB94"/>
<path d="M155.622 135.438L156.281 131.866C156.568 130.318 155.546 128.831 153.997 128.545L135.017 125.035C133.469 124.749 131.982 125.772 131.696 127.32L131.036 130.891L155.622 135.438Z" fill="#17282F"/>
<path d="M155.621 135.437L155.987 135.505L156.648 131.933C156.684 131.736 156.702 131.538 156.702 131.344C156.702 129.819 155.617 128.466 154.064 128.178L135.084 124.668C134.887 124.632 134.69 124.614 134.495 124.614C132.97 124.614 131.617 125.699 131.329 127.252L130.601 131.189L155.92 135.871L155.987 135.505L155.621 135.437L155.689 135.071L131.469 130.592L132.062 127.387C132.282 126.194 133.325 125.359 134.495 125.359C134.644 125.359 134.796 125.373 134.949 125.401L153.929 128.911C155.123 129.131 155.957 130.174 155.957 131.344C155.957 131.493 155.943 131.645 155.915 131.798L155.255 135.369L155.621 135.437Z" fill="#17282F"/>
<path d="M123.711 170.501L123.303 172.707C123.017 174.254 124.041 175.741 125.588 176.028L144.569 179.537C146.116 179.824 147.603 178.8 147.889 177.252L148.297 175.047L123.711 170.501Z" fill="#17282F"/>
<path d="M123.711 170.502L123.345 170.434L122.937 172.639C122.9 172.837 122.883 173.034 122.883 173.228C122.883 174.753 123.968 176.106 125.52 176.394L144.5 179.904C144.698 179.94 144.895 179.958 145.089 179.958C146.614 179.958 147.967 178.873 148.256 177.32L148.731 174.749L123.412 170.067L123.345 170.434L123.711 170.502L123.643 170.868L147.863 175.346L147.523 177.185C147.302 178.379 146.259 179.213 145.089 179.213C144.94 179.213 144.788 179.199 144.636 179.171L125.655 175.661C124.462 175.441 123.628 174.398 123.628 173.228C123.628 173.079 123.641 172.928 123.67 172.775L124.077 170.569L123.711 170.502Z" fill="#17282F"/>
<path d="M117.546 161.828C117.546 161.828 124.19 162.821 126.239 163.199C128.288 163.579 136.515 161.098 137.216 162.404C137.915 163.711 136.896 165.406 135.008 166.705C133.12 168.003 125.33 169.388 125.33 169.388C125.33 169.388 122.894 173.646 118.148 175.123C113.402 176.599 105.907 176.391 105.907 176.391" fill="white"/>
<path d="M117.491 162.197C117.494 162.197 119.151 162.444 121.067 162.74C122.982 163.035 125.157 163.378 126.171 163.566C126.352 163.599 126.552 163.612 126.775 163.612C127.868 163.609 129.556 163.301 131.287 162.997C133.012 162.692 134.774 162.391 135.886 162.394C136.214 162.393 136.483 162.42 136.659 162.468C136.746 162.492 136.808 162.52 136.843 162.543L136.887 162.581C137.008 162.807 137.064 163.041 137.064 163.293C137.066 163.751 136.867 164.28 136.476 164.821C136.086 165.362 135.509 165.908 134.797 166.398C134.394 166.678 133.566 167.011 132.587 167.316C131.115 167.779 129.279 168.207 127.816 168.517C127.085 168.672 126.446 168.798 125.991 168.886C125.535 168.973 125.265 169.021 125.264 169.021L125.093 169.051L125.006 169.203L124.982 169.243C124.721 169.685 122.335 173.438 118.037 174.767C114.421 175.896 109.061 176.031 106.89 176.029C106.275 176.029 105.918 176.018 105.917 176.018L105.897 176.763C105.9 176.763 106.267 176.774 106.89 176.774C109.096 176.772 114.476 176.652 118.258 175.478C123.166 173.942 125.629 169.604 125.653 169.573L125.33 169.388L125.395 169.755C125.398 169.754 127.35 169.407 129.545 168.896C130.643 168.641 131.8 168.344 132.81 168.027C133.823 167.707 134.677 167.381 135.219 167.012C135.989 166.482 136.626 165.886 137.08 165.258C137.533 164.63 137.808 163.963 137.809 163.293C137.81 162.927 137.724 162.563 137.544 162.228C137.391 161.952 137.125 161.823 136.852 161.749C136.574 161.674 136.253 161.648 135.886 161.648C134.656 161.65 132.89 161.958 131.158 162.263C129.433 162.568 127.738 162.868 126.775 162.866C126.582 162.867 126.421 162.854 126.306 162.833C124.241 162.451 117.604 161.46 117.601 161.459L117.491 162.197Z" fill="#17282F"/>
<path d="M9.01583 251.604H120.82C121.088 247.964 122.054 228.678 114.98 202.463C107.109 173.293 107.109 145.049 107.109 145.049C107.109 145.049 112.434 133.011 105.72 123.056C99.0062 113.101 90.1796 110.271 90.1796 110.271C90.1796 110.271 41.8247 95.2753 32.796 96.4336C32.796 96.4336 10.1083 115.648 8.25623 116.806C6.40415 117.963 1.31091 125.834 1.31091 130.465C1.31091 135.095 10.3398 200.147 11.4972 208.482C12.5636 216.159 9.50502 246.815 9.01583 251.604Z" fill="url(#paint0_linear_298_729)"/>
<path d="M9.01645 251.605V251.978H121.167L121.192 251.633C121.266 250.632 121.391 248.471 121.391 245.324C121.391 236.917 120.498 221.479 115.341 202.366C111.413 187.811 109.447 173.476 108.465 162.784C107.974 157.438 107.728 153.002 107.605 149.904C107.543 148.355 107.513 147.14 107.497 146.314C107.482 145.486 107.482 145.051 107.482 145.05H107.11L107.45 145.2C107.461 145.173 109.484 140.607 109.485 134.722C109.486 131.014 108.676 126.773 106.03 122.848C99.2453 112.792 90.3382 109.932 90.2942 109.917L90.2927 109.916L90.2905 109.915C90.2883 109.915 79.0787 106.439 66.4418 102.961C60.1226 101.223 53.4471 99.4839 47.6332 98.1781C41.8152 96.8737 36.8769 95.9994 33.9614 95.9971C33.5102 95.9971 33.1058 96.018 32.7491 96.0642L32.6396 96.0776L32.5555 96.1492C32.5546 96.1499 32.2011 96.4496 31.5772 96.9773C29.3938 98.8235 23.9089 103.456 18.7682 107.753C16.1979 109.902 13.7134 111.967 11.7717 113.556C10.801 114.351 9.96567 115.027 9.32421 115.535C8.68632 116.041 8.22718 116.387 8.05947 116.49C7.51267 116.838 6.84937 117.561 6.09327 118.552C4.96851 120.036 3.68917 122.106 2.68322 124.255C1.67959 126.408 0.942644 128.628 0.938843 130.465C0.940035 131.089 1.0821 132.6 1.33165 134.846C3.07715 150.527 10.1159 201.239 11.1285 208.534C11.2811 209.627 11.3495 211.239 11.3492 213.191C11.3501 224.559 9.06281 247.487 8.64585 251.567L8.60359 251.978H9.01645V251.605L9.38711 251.643C9.80467 247.549 12.0938 224.637 12.0946 213.191C12.0943 211.22 12.0276 209.589 11.8669 208.431C11.2884 204.264 8.74193 185.917 6.34013 168.035C5.13943 159.094 3.97449 150.268 3.11032 143.39C2.67823 139.951 2.32097 136.999 2.07232 134.764C1.82344 132.533 1.68309 130.999 1.68421 130.465C1.67698 128.28 2.92338 125.172 4.415 122.515C5.15918 121.184 5.96164 119.959 6.68718 119.003C7.40727 118.048 8.0752 117.353 8.45422 117.122C8.72389 116.952 9.27121 116.53 10.0754 115.889C15.6697 111.428 33.0353 96.7194 33.0373 96.7179L32.7966 96.4339L32.8437 96.8036C33.1585 96.7626 33.5338 96.7425 33.9614 96.7425C36.742 96.7402 41.6789 97.6041 47.47 98.9055C56.1625 100.858 66.816 103.788 75.2923 106.231C79.5312 107.453 83.2259 108.552 85.8608 109.346C87.1779 109.742 88.2303 110.063 88.9533 110.284C89.6763 110.506 90.0684 110.627 90.0699 110.628L90.0662 110.626L90.1578 110.658C91.1082 110.989 99.1827 114.027 105.412 123.265C107.956 127.039 108.74 131.119 108.74 134.722C108.741 137.578 108.246 140.13 107.751 141.964C107.504 142.88 107.257 143.618 107.072 144.124C106.98 144.377 106.903 144.573 106.85 144.704L106.789 144.852L106.769 144.899L106.737 144.971V145.05C106.738 145.068 106.736 173.333 114.621 202.561C119.758 221.596 120.646 236.969 120.646 245.324C120.646 248.451 120.521 250.594 120.449 251.578L120.821 251.605V251.232H9.01645V251.605Z" fill="#17282F"/>
<path d="M24.101 137.734C24.1024 137.739 26.361 146.543 29.8091 156.945C33.2617 167.351 37.8836 179.339 42.6836 185.786L43.2813 185.34C38.5896 179.055 33.9515 167.082 30.5167 156.71C28.7968 151.522 27.373 146.73 26.3796 143.237C25.8826 141.49 25.4933 140.067 25.2283 139.081C24.9634 138.096 24.8234 137.55 24.8231 137.549L24.101 137.734Z" fill="#17282F"/>
<path d="M33.6174 173.919C33.6209 173.925 35.0724 176.944 37.3393 180.664C39.6083 184.385 42.6838 188.805 45.9806 191.634L46.4657 191.068C43.2804 188.341 40.2209 183.964 37.9758 180.277C36.8519 178.433 35.9296 176.76 35.2881 175.55C34.9678 174.945 34.7174 174.455 34.5477 174.118C34.3776 173.78 34.2895 173.596 34.2892 173.595L33.6174 173.919Z" fill="#17282F"/>
<path d="M115.37 36.7742C115.37 36.7742 115.135 51.6517 113.72 53.4719C112.306 55.2921 110.084 58.0015 110.207 59.4974C110.329 60.9934 113.527 70.25 113.69 71.544C113.852 72.8372 108.516 75.3469 108.516 75.3469C108.516 75.3469 99.7923 92.7355 98.9039 94.0295C98.0154 95.3234 95.9537 95.1222 93.5275 94.6384C91.1014 94.1547 86.814 91.4073 86.814 91.4073L78.413 107.179C78.413 107.179 64.8638 96.068 58.757 91.9074C52.6502 87.746 45.088 83.5049 45.088 83.5049L52.9662 72.4638C52.9662 72.4638 56.6424 67.7315 57.6091 59.7262C58.5751 51.721 60.7121 41.0064 77.4858 32.791C94.2602 24.5748 110.799 33.3395 115.37 36.7742Z" fill="white"/>
<path d="M115.369 36.7737L114.996 36.7677C114.996 36.77 114.982 37.6943 114.938 39.1149C114.872 41.2459 114.739 44.4868 114.492 47.3564C114.368 48.7905 114.216 50.1329 114.03 51.1898C113.938 51.7183 113.836 52.1752 113.73 52.5315C113.626 52.8863 113.506 53.1427 113.426 53.2426C112.74 54.1258 111.854 55.2282 111.134 56.3127C110.773 56.8554 110.453 57.3935 110.218 57.9071C109.985 58.4206 109.83 58.9081 109.829 59.3754L109.835 59.5275C109.854 59.76 109.921 60.0724 110.022 60.4808C110.376 61.8992 111.167 64.4022 111.888 66.7009C112.249 67.8495 112.592 68.9452 112.853 69.8217C113.113 70.6916 113.294 71.3706 113.319 71.5897L113.32 71.6024C113.323 71.6397 113.289 71.7604 113.17 71.9177C112.969 72.1942 112.557 72.5527 112.062 72.9031C111.319 73.4323 110.388 73.9622 109.647 74.3565C109.276 74.5533 108.953 74.7173 108.722 74.8313C108.492 74.9454 108.357 75.0087 108.357 75.0087L108.24 75.0639L108.183 75.1787C108.181 75.1817 107.637 76.2654 106.806 77.9157C105.558 80.391 103.667 84.1342 102.004 87.3788C101.172 89.0015 100.397 90.4989 99.7907 91.6505C99.4866 92.2259 99.225 92.7149 99.0193 93.0883C98.815 93.4595 98.6608 93.7241 98.5959 93.818C98.3924 94.1125 98.1256 94.307 97.7686 94.4419C97.4123 94.5746 96.9658 94.6372 96.4493 94.6364C95.6368 94.6372 94.6581 94.4844 93.599 94.2727C92.4697 94.0506 90.7964 93.2545 89.4383 92.5136C88.7571 92.1432 88.1496 91.7877 87.7136 91.5245C87.4952 91.3934 87.32 91.2853 87.1993 91.21C87.0793 91.1347 87.0144 91.0937 87.0144 91.093L86.6745 90.8753L78.0834 107.004L78.4121 107.179L78.6484 106.89C78.6432 106.887 65.1029 95.7813 58.9663 91.5991C52.8394 87.4243 45.2741 83.1824 45.2694 83.1794L45.0871 83.5044L45.3905 83.7206L53.2687 72.6795L52.9654 72.4633L53.259 72.6921C53.2844 72.6586 56.9985 67.8719 57.978 59.7705C58.4595 55.7798 59.2287 51.1637 61.9403 46.5246C64.6534 41.8877 69.3135 37.209 77.6489 33.1252C82.6555 30.6736 87.6353 29.7516 92.2819 29.7509C97.659 29.7509 102.59 30.9882 106.571 32.5244C110.55 34.0591 113.583 35.8964 115.145 37.0711L115.369 36.7737L115.593 36.4756C113.964 35.2517 110.888 33.392 106.839 31.829C102.791 30.2674 97.7738 29.0063 92.2819 29.0055C87.5369 29.0055 82.4371 29.9499 77.3209 32.4558C68.8834 36.5866 64.0877 41.3734 61.2971 46.1489C58.5049 50.923 57.7223 55.6665 57.2378 59.681C56.7608 63.6367 55.6137 66.7821 54.588 68.9362C54.0752 70.0133 53.5922 70.8421 53.2397 71.3997C53.0638 71.6784 52.9192 71.8894 52.8208 72.0295C52.7708 72.0996 52.7328 72.1518 52.7075 72.186L52.6709 72.2345L52.6665 72.2404L44.5424 83.6259L44.9048 83.8294C44.906 83.8301 45.3754 84.0933 46.1784 84.5554C48.5871 85.9403 53.9813 89.1036 58.5467 92.2148C61.5811 94.2824 66.4952 98.0994 70.6425 101.395C72.7168 103.043 74.6003 104.561 75.9651 105.667C77.3299 106.773 78.1736 107.465 78.1759 107.466L78.5277 107.755L87.1426 91.5827L86.8132 91.4068L86.6127 91.7206C86.6171 91.7236 87.6949 92.4145 89.0821 93.1688C90.4744 93.9224 92.1574 94.7415 93.4536 95.0039C94.5307 95.2178 95.5466 95.3811 96.4493 95.3818C97.0239 95.3818 97.5554 95.3162 98.0287 95.1403C98.5012 94.9659 98.9164 94.67 99.2101 94.2399C99.3435 94.0439 99.5716 93.6369 99.8988 93.0317C102.171 88.8233 108.848 75.5156 108.848 75.5133L108.515 75.3464L108.674 75.6833C108.681 75.6803 109.981 75.0684 111.295 74.285C111.952 73.8922 112.612 73.4584 113.125 73.0231C113.381 72.8047 113.602 72.587 113.77 72.3604C113.935 72.1331 114.062 71.8916 114.065 71.6024L114.059 71.4973V71.4966C114.032 71.2923 113.962 71.0061 113.857 70.6178C113.491 69.2709 112.695 66.797 111.976 64.4894C111.617 63.3363 111.278 62.2257 111.022 61.3261C110.766 60.4331 110.596 59.7228 110.577 59.4664L110.574 59.3754C110.572 59.0832 110.685 58.6748 110.896 58.2164C111.527 56.8307 112.979 55.0292 114.014 53.7002C114.256 53.379 114.407 52.9236 114.559 52.3198C115.068 50.2238 115.356 46.3636 115.527 42.996C115.697 39.6329 115.742 36.7819 115.742 36.7797L115.745 36.5896L115.593 36.4756L115.369 36.7737Z" fill="#17282F"/>
<path d="M103.038 36.4161C103.038 36.4161 103.891 43.7334 102.68 45.5938C101.468 47.4542 91.078 48.9546 91.0385 50.2083C90.9982 51.4613 91.0012 57.7686 89.1415 57.6076C87.2818 57.4466 86.7974 57.7708 86.2711 57.2454C85.7456 56.7199 86.7936 51.4635 82.428 52.2745C78.0624 53.0855 74.0225 59.6365 74.1053 63.4371C74.188 67.2377 77.6264 70.0254 77.6264 70.0254C77.6264 70.0254 77.2626 71.8448 70.0676 74.1935C62.8726 76.5421 54.3822 74.8479 52.966 72.4635C51.549 70.0791 47.3695 39.3953 46.4763 31.2299C45.5824 23.0636 52.3667 8.01991 64.2105 4.49656C76.0544 0.973213 89.9629 2.90746 89.9629 2.90746C89.9629 2.90746 97.117 -1.34189 103.344 1.1618C109.571 3.66547 111.031 11.1035 111.031 11.1035C111.031 11.1035 122.674 10.6935 125.79 18.2515C128.908 25.8103 126.607 34.1808 122.526 37.7809C118.444 41.381 111.408 37.6646 108.294 36.4131C105.18 35.1617 103.038 36.4161 103.038 36.4161Z" fill="#17282F"/>
<path d="M103.038 36.4158L102.668 36.4583C102.668 36.4591 102.686 36.6111 102.713 36.8817C102.794 37.6926 102.958 39.5509 102.957 41.3666C102.958 42.2252 102.92 43.0757 102.824 43.7927C102.731 44.509 102.564 45.0949 102.367 45.3901C102.279 45.5324 102.027 45.7441 101.653 45.9483C100.997 46.3121 99.9882 46.6818 98.8589 47.0328C97.1617 47.5628 95.1873 48.0614 93.6227 48.5333C92.8394 48.7703 92.1603 48.9991 91.652 49.2324C91.3971 49.3502 91.1846 49.4665 91.0125 49.6044C90.9267 49.6744 90.8492 49.7497 90.7851 49.8451C90.721 49.939 90.6703 50.059 90.6659 50.1962C90.6465 50.8245 90.6361 52.6581 90.4117 54.324C90.3014 55.1536 90.1329 55.9407 89.9034 56.4833C89.7893 56.7539 89.6596 56.9604 89.5389 57.0796C89.4144 57.1996 89.3242 57.2354 89.2109 57.2376L89.1736 57.2361C88.6839 57.1937 88.2852 57.184 87.9572 57.184C87.6852 57.184 87.463 57.1907 87.2841 57.1907C87.0605 57.1914 86.9085 57.1788 86.8078 57.1497C86.7065 57.1191 86.6409 57.0841 86.5351 56.9812L86.4531 57.0632L86.5552 57.0066L86.5351 56.9812L86.4531 57.0632L86.5552 57.0066C86.5507 57.0066 86.5119 56.8866 86.4926 56.7196C86.4523 56.4222 86.4307 55.969 86.3785 55.4674C86.2973 54.7123 86.1534 53.835 85.7092 53.1023C85.4863 52.7364 85.1807 52.4077 84.7752 52.1774C84.3698 51.9455 83.8711 51.8158 83.2823 51.8166C82.9975 51.8166 82.6912 51.8464 82.3603 51.9075C80.0429 52.3465 77.9186 54.2234 76.3407 56.4528C74.768 58.6911 73.7379 61.2879 73.7312 63.3213L73.7327 63.445C73.7789 65.4583 74.7024 67.1696 75.5976 68.3779C76.4957 69.5876 77.376 70.3017 77.3916 70.3143L77.6264 70.0251L77.2605 69.9521L77.4326 69.9864L77.2649 69.9335L77.2605 69.9521L77.4326 69.9864L77.2649 69.9335C77.2642 69.9372 77.127 70.3628 76.1335 71.0679C75.1414 71.7723 73.3018 72.7457 69.9522 73.8384C67.567 74.6173 65.0253 74.946 62.6558 74.946C60.3332 74.946 58.1761 74.63 56.5028 74.1261C55.6665 73.875 54.9509 73.576 54.4008 73.254C53.85 72.9328 53.4699 72.5862 53.2865 72.2732C53.2284 72.1792 53.1292 71.9318 53.0256 71.5882C52.6299 70.2868 52.0887 67.5632 51.4991 64.1233C49.7267 53.7963 47.4734 36.9175 46.8466 31.1886C46.7957 30.7235 46.7704 30.233 46.7704 29.721C46.7672 25.6237 48.4126 20.1922 51.4388 15.4062C54.465 10.6158 58.8589 6.47525 64.3172 4.85408C69.9097 3.18893 75.9956 2.74991 80.827 2.74991C83.4783 2.74991 85.7532 2.88184 87.3624 3.01377C88.1674 3.07937 88.8062 3.14495 89.243 3.19415C89.6797 3.24409 89.9116 3.27615 89.9123 3.27615L90.0412 3.29403L90.1538 3.22694L90.1978 3.20161C90.6547 2.93626 94.6536 0.73967 99.0438 0.744888C100.423 0.744888 101.84 0.958801 103.205 1.50739C106.205 2.71265 108.073 5.11794 109.193 7.24447C109.752 8.30662 110.121 9.29497 110.35 10.015C110.465 10.375 110.544 10.6679 110.594 10.8692C110.619 10.9698 110.637 11.0481 110.649 11.0995L110.665 11.1748L110.726 11.4871L111.044 11.4759C111.044 11.4759 111.147 11.4722 111.347 11.4722C112.265 11.4714 115.144 11.5557 118.11 12.4747C119.593 12.9331 121.096 13.5994 122.391 14.5572C123.686 15.5158 124.772 16.7591 125.446 18.3937C126.431 20.784 126.865 23.2587 126.865 25.6334C126.87 30.6199 124.94 35.1621 122.28 37.5011C121.094 38.5454 119.647 38.9359 118.076 38.9382C116.334 38.9389 114.46 38.444 112.757 37.8343C111.052 37.2253 109.524 36.506 108.433 36.067C107.352 35.6325 106.373 35.4841 105.551 35.4849C103.901 35.4856 102.888 36.0722 102.85 36.0939L102.64 36.2168L102.668 36.4583L103.038 36.4158L103.227 36.7371L103.182 36.6603L103.226 36.7378L103.227 36.7371L103.182 36.6603L103.226 36.7378C103.246 36.7259 104.128 36.2295 105.551 36.2302C106.285 36.2302 107.164 36.3607 108.155 36.7587C109.212 37.1828 110.762 37.9125 112.507 38.5364C114.251 39.1595 116.195 39.682 118.076 39.6835C119.766 39.685 121.424 39.2512 122.772 38.0601C125.641 35.5207 127.606 30.8092 127.611 25.6334C127.611 23.1677 127.16 20.5962 126.136 18.1097C125.404 16.335 124.217 14.9799 122.834 13.958C118.68 10.899 112.791 10.7335 111.347 10.7268C111.137 10.7268 111.022 10.7305 111.017 10.7305L111.031 11.1032L111.397 11.0317C111.392 11.0086 111.02 9.11906 109.852 6.89787C108.685 4.67966 106.71 2.11412 103.483 0.815689C102.014 0.225365 100.5 -0.000480652 99.0438 -0.000480652C94.1027 0.00548553 89.802 2.57401 89.7729 2.58669L89.963 2.9072L90.0144 2.53748C90.0025 2.53599 86.1795 2.00455 80.827 2.00455C75.9501 2.00529 69.8038 2.44431 64.1048 4.13927C58.4146 5.83423 53.9029 10.1119 50.8089 15.0082C47.7157 19.909 46.0279 25.4321 46.025 29.721C46.025 30.2576 46.0515 30.7749 46.1057 31.2698C46.5535 35.3627 47.8215 45.074 49.1565 54.0691C49.8236 58.5659 50.5071 62.883 51.113 66.229C51.4164 67.9023 51.6996 69.3327 51.9538 70.4261C52.0813 70.9725 52.2005 71.4354 52.3123 71.8051C52.4271 72.177 52.5262 72.4491 52.6455 72.6533C52.9302 73.1296 53.4073 73.5343 54.0244 73.8973C55.8759 74.9744 59.0683 75.6869 62.6558 75.6914C65.0931 75.6907 67.7086 75.3552 70.184 74.5473C73.8064 73.3644 75.7302 72.3104 76.77 71.5255C77.8076 70.7429 77.9693 70.2107 77.9917 70.0982L78.0356 69.8776L77.8612 69.7359L77.8284 69.7084C77.6555 69.5623 76.8252 68.8318 76.0381 67.716C75.2502 66.5994 74.5131 65.1042 74.478 63.4286L74.4765 63.3213C74.4706 61.5384 75.441 59.0131 76.9497 56.8828C78.4531 54.7429 80.4916 53.0047 82.4959 52.641C82.7881 52.5866 83.0497 52.562 83.2823 52.562C84.0418 52.5672 84.492 52.8035 84.8282 53.1627C85.3313 53.7009 85.5392 54.6207 85.6294 55.4719C85.6764 55.8967 85.698 56.3 85.7323 56.6354C85.7494 56.8038 85.7696 56.9551 85.8031 57.0945C85.8404 57.2332 85.8747 57.3673 86.0081 57.5089C86.181 57.6841 86.3882 57.8086 86.6066 57.8675C86.8257 57.9278 87.0412 57.9353 87.2841 57.936C87.4802 57.936 87.6971 57.9293 87.9572 57.9293C88.2703 57.9293 88.6444 57.9383 89.1095 57.9785L89.2109 57.983C89.5456 57.9852 89.8475 57.8287 90.0651 57.6073C90.4497 57.216 90.6756 56.6406 90.8567 55.9713C91.1213 54.9665 91.2502 53.7374 91.3203 52.6499C91.3896 51.5639 91.3978 50.6173 91.4112 50.22L91.3128 50.217L91.4015 50.2632L91.4112 50.22L91.3128 50.217L91.4015 50.2632L91.4269 50.2327C91.4992 50.1514 91.7429 49.9994 92.0888 49.8533C93.3104 49.3241 95.7545 48.7196 98.001 48.0689C99.1265 47.7417 100.207 47.401 101.084 47.0388C101.523 46.8577 101.911 46.6713 102.233 46.4716C102.555 46.2711 102.816 46.0624 102.992 45.797C103.298 45.3185 103.456 44.6611 103.563 43.8919C103.666 43.1241 103.702 42.2468 103.702 41.3666C103.702 38.889 103.409 36.3801 103.409 36.3726L103.038 36.4158Z" fill="#17282F"/>
<path d="M114.005 53.2319C113.991 53.2155 113.597 52.7481 112.92 52.2748C112.244 51.803 111.275 51.3171 110.113 51.3163C108.937 51.3126 107.6 51.8328 106.29 53.2639L106.839 53.7686C108.052 52.4552 109.157 52.0647 110.113 52.0617C111.059 52.0602 111.894 52.4657 112.494 52.8861C112.793 53.0948 113.032 53.3057 113.194 53.4615C113.275 53.5397 113.337 53.6046 113.378 53.6486L113.423 53.6977L113.435 53.7119L114.005 53.2319Z" fill="#17282F"/>
<path d="M108.447 58.831C108.213 60.0035 107.526 60.8547 106.911 60.7325C106.297 60.6095 105.989 59.56 106.223 58.3875C106.457 57.2151 107.145 56.3639 107.758 56.4869C108.372 56.6091 108.681 57.6593 108.447 58.831Z" fill="#17282F"/>
<path d="M103.142 79.2008L103.183 79.3201L103.143 79.2001L103.142 79.2008L103.183 79.3201L103.143 79.2001C103.135 79.2031 102.866 79.2896 102.444 79.2888C102.009 79.2888 101.414 79.2001 100.75 78.8371C100.089 78.4726 99.3514 77.8309 98.6455 76.6912L98.012 77.084C98.773 78.3146 99.607 79.06 100.392 79.4901C101.177 79.9216 101.906 80.0349 102.444 80.0342C103.001 80.0342 103.355 79.9156 103.384 79.906L103.142 79.2008Z" fill="#17282F"/>
<path d="M86.8138 91.4069C86.8138 91.4069 83.9829 88.7408 82.5257 85.5066C81.0685 82.2732 79.571 79.2418 79.571 79.2418C79.571 79.2418 79.7388 91.0469 80.1852 94.0791C80.6317 97.1112 81.8459 100.506 81.8459 100.506L86.8138 91.4069Z" fill="#17282F"/>
<path d="M86.8142 91.4075L87.0698 91.1362C87.0698 91.1362 87.0296 91.0989 86.9521 91.0214C86.405 90.4847 84.1018 88.1048 82.866 85.3544C81.4058 82.1135 79.9069 79.0799 79.9054 79.0777L79.1757 77.5996L79.1988 79.2476C79.1988 79.2491 79.2405 82.2015 79.3389 85.5348C79.4373 88.8733 79.5878 92.571 79.8167 94.1341C80.2721 97.2184 81.4923 100.621 81.4952 100.633L81.7755 101.416L87.2793 91.3337L87.0698 91.1362L86.8142 91.4075L86.4869 91.2294L81.5191 100.329L81.8463 100.507L82.1974 100.382C82.1974 100.381 82.1236 100.174 82.0036 99.8122C81.6443 98.7262 80.8825 96.2591 80.5538 94.0252C80.3369 92.5561 80.1804 88.8353 80.0835 85.5132C80.0351 83.8495 80 82.2805 79.9769 81.1274C79.9546 79.9736 79.9441 79.2394 79.9441 79.2372L79.5714 79.2424L79.2375 79.4079C79.2383 79.4093 79.6109 80.1629 80.1662 81.3234C80.7215 82.4832 81.4595 84.0478 82.1862 85.6607C83.6881 88.9836 86.5436 91.6609 86.5585 91.6788L86.8142 91.4075Z" fill="#17282F"/>
<path d="M39.2615 88.0078C39.2615 88.0078 41.9413 83.06 43.3842 82.8536C44.8273 82.6479 67.7098 88.42 72.8633 91.306C78.0175 94.1921 83.171 101.407 83.171 101.407L39.2615 88.0078Z" fill="white"/>
<path d="M39.2616 88.0075L39.5891 88.1849C39.5894 88.1849 39.6293 88.1103 39.7047 87.9769C39.9671 87.5081 40.6486 86.326 41.412 85.2511C41.7929 84.7145 42.1956 84.2039 42.5659 83.8305C42.7502 83.6434 42.9269 83.4913 43.0804 83.3877C43.2336 83.2826 43.3631 83.2319 43.437 83.2223L43.4793 83.2208C43.6802 83.2185 44.2695 83.3028 45.0781 83.4615C47.9317 84.0146 53.753 85.4464 59.3991 87.0467C62.2226 87.8472 65.005 88.6902 67.3529 89.4863C69.6986 90.2801 71.6187 91.0344 72.6816 91.6307C75.1919 93.0342 77.7552 95.5379 79.6716 97.6868C80.6316 98.7616 81.4314 99.7477 81.9912 100.464C82.2714 100.823 82.4906 101.113 82.6404 101.314C82.7895 101.515 82.867 101.624 82.8677 101.624L83.1711 101.407L83.2799 101.051L39.3705 87.6512L39.2616 88.0075L39.1527 88.3638L84.1125 102.084L83.4737 101.191C83.4685 101.183 82.1738 99.3706 80.2276 97.1904C78.2792 95.011 75.6884 92.4633 73.0453 90.9808C71.729 90.2451 69.3893 89.3648 66.5531 88.4338C62.3031 87.0408 56.9603 85.5552 52.4747 84.4156C50.2311 83.8454 48.203 83.3624 46.6314 83.0217C45.8453 82.8511 45.1738 82.7154 44.6439 82.6222C44.1105 82.5298 43.7338 82.4769 43.4793 82.4754L43.3317 82.4843C43.0553 82.5261 42.8128 82.6595 42.5724 82.8339C42.1542 83.1417 41.737 83.6009 41.3242 84.1226C40.094 85.6842 38.9395 87.8211 38.9337 87.8301L38.7168 88.2311L39.1527 88.3638L39.2616 88.0075Z" fill="#17282F"/>
<path d="M38.4368 86.1522C38.4368 86.1522 51.4238 89.4504 65.2362 93.5731C79.0478 97.6964 84.8199 102.026 85.6443 103.262C86.4694 104.499 90.1798 110.271 90.1798 110.271C90.1798 110.271 78.6356 108.003 56.9902 103.056C35.3447 98.1086 31.0157 97.4907 31.0157 97.4907C31.0157 97.4907 37.4061 87.8009 38.4368 86.1522Z" fill="url(#paint1_linear_298_729)"/>
<path d="M38.4369 86.1519L38.3452 86.5127C38.3475 86.5135 39.1555 86.7184 40.588 87.0919C44.8855 88.2121 54.7773 90.8403 65.1297 93.9298C72.0147 95.9856 76.8886 98.0897 80.1347 99.8279C81.7581 100.697 82.9738 101.474 83.8287 102.106C84.6822 102.732 85.1816 103.232 85.3344 103.468C85.7436 104.082 86.878 105.836 87.9081 107.433C88.4239 108.231 88.9129 108.991 89.2736 109.552C89.6344 110.112 89.8662 110.472 89.8662 110.472L90.18 110.271L90.2515 109.905C90.2493 109.905 89.5322 109.764 88.1123 109.474C83.8541 108.605 73.3049 106.402 57.0731 102.692C35.4229 97.7439 31.0919 97.1245 31.0686 97.1215L31.0159 97.4905L31.3269 97.6954C31.3286 97.6925 37.7146 88.0109 38.7531 86.3495L38.4369 86.1519L38.121 85.9544C37.6115 86.7691 35.7539 89.6082 34.0285 92.2349C33.1652 93.549 32.3342 94.8116 31.719 95.7455C31.1041 96.6795 30.7058 97.2832 30.7046 97.2847L30.3809 97.7759L30.9632 97.8594C30.9635 97.8594 31.0249 97.8676 31.1833 97.8937C32.2929 98.0771 37.9714 99.0908 56.9076 103.419C78.5568 108.368 90.1047 110.636 90.1084 110.637L90.9663 110.806L90.4938 110.07C90.4923 110.068 86.7848 104.3 85.9552 103.055C85.6959 102.673 85.1644 102.168 84.2715 101.506C81.6016 99.5365 75.734 96.3187 65.3429 93.2158C51.5216 89.0902 38.5316 85.7912 38.529 85.7905L38.2652 85.7234L38.121 85.9544L38.4369 86.1519Z" fill="#17282F"/>
<path d="M63.123 145.281C63.123 145.281 71.4577 192.971 72.1517 198.527C72.8463 204.083 71.4577 218.668 72.1517 230.012C72.7956 240.528 75.4275 250.243 75.8084 251.604H116.803C116.464 249.681 113.093 230.412 112.434 220.52C111.74 210.102 111.508 170.515 110.119 160.791C108.73 151.068 109.193 145.049 109.193 145.049C109.193 145.049 112.202 129.539 108.73 122.13C105.257 114.723 91.3672 112.407 88.5892 112.176" fill="url(#paint2_linear_298_729)"/>
<path d="M62.7565 145.346C62.7565 145.348 62.8862 146.09 63.1157 147.405C63.9177 152.007 65.9332 163.588 67.8242 174.626C69.7145 185.659 71.4817 196.167 71.7821 198.574C71.926 199.719 71.9804 201.287 71.9796 203.143C71.9804 208.221 71.5794 215.465 71.5786 222.502C71.5786 225.078 71.633 227.627 71.7799 230.035C72.4276 240.598 75.0654 250.329 75.45 251.706L75.5261 251.978H117.246L117.17 251.54C116.831 249.624 113.461 230.346 112.806 220.495C112.46 215.308 112.228 202.8 111.91 190.386C111.591 177.964 111.188 165.651 110.488 160.74C109.657 154.924 109.492 150.441 109.492 147.79C109.492 146.906 109.51 146.227 109.528 145.768C109.537 145.539 109.547 145.366 109.554 145.25C109.56 145.134 109.565 145.079 109.565 145.079L109.193 145.05L109.559 145.12C109.561 145.108 110.775 138.857 110.776 132.359C110.773 128.608 110.378 124.776 109.068 121.972C107.244 118.108 102.815 115.664 98.5258 114.112C94.2273 112.563 90.0488 111.925 88.6199 111.804L88.5581 112.547C89.9079 112.658 94.0633 113.293 98.2724 114.812C102.491 116.327 106.743 118.745 108.392 122.288C109.623 124.905 110.033 128.664 110.031 132.359C110.031 135.563 109.729 138.721 109.428 141.077C109.278 142.255 109.127 143.232 109.015 143.914C108.901 144.595 108.827 144.978 108.827 144.979L108.823 145L108.822 145.021C108.821 145.03 108.746 146.002 108.746 147.79C108.746 150.472 108.914 154.991 109.75 160.845C110.439 165.657 110.847 177.998 111.164 190.405C111.483 202.821 111.714 215.315 112.062 220.545C112.725 230.477 116.096 249.739 116.435 251.67L116.803 251.605V251.232H75.8086V251.605L76.1678 251.504C75.7899 250.158 73.164 240.459 72.5237 229.989C72.3777 227.603 72.324 225.067 72.324 222.502C72.324 215.491 72.725 208.256 72.725 203.143C72.725 201.271 72.6721 199.684 72.5223 198.481C72.1712 195.678 69.9157 182.38 67.7445 169.758C65.574 157.14 63.4907 145.217 63.4907 145.217L62.7565 145.346Z" fill="#17282F"/>
<path d="M82.5157 118.808C82.4792 118.837 70.8425 127.568 67.9244 145.05L68.6601 145.172C70.0927 136.575 73.6742 130.129 76.8972 125.831C78.5086 123.682 80.0299 122.071 81.1465 121C81.7048 120.464 82.1609 120.063 82.477 119.797C82.635 119.665 82.758 119.565 82.8407 119.5C82.9234 119.434 82.9629 119.405 82.9629 119.405L82.5157 118.808Z" fill="#17282F"/>
<defs>
<linearGradient id="paint0_linear_298_729" x1="61.1645" y1="101.221" x2="61.1645" y2="251.604" gradientUnits="userSpaceOnUse">
<stop stop-color="#004426"/>
<stop offset="1" stop-color="#048F43"/>
</linearGradient>
<linearGradient id="paint1_linear_298_729" x1="60.5978" y1="86.9059" x2="60.5978" y2="110.271" gradientUnits="userSpaceOnUse">
<stop stop-color="#004426"/>
<stop offset="1" stop-color="#048F43"/>
</linearGradient>
<linearGradient id="paint2_linear_298_729" x1="89.9629" y1="116.533" x2="89.9629" y2="251.604" gradientUnits="userSpaceOnUse">
<stop stop-color="#004426"/>
<stop offset="1" stop-color="#048F43"/>
</linearGradient>
</defs>
</svg>
