<svg width="248" height="241" viewBox="0 0 248 241" fill="none" xmlns="http://www.w3.org/2000/svg">
<mask id="mask0_298_514" style="mask-type:alpha" maskUnits="userSpaceOnUse" x="0" y="-1" width="248" height="242">
<rect width="248" height="241" transform="matrix(-1 0 0 1 248 -0.000488281)" fill="#D9D9D9"/>
</mask>
<g mask="url(#mask0_298_514)">
<path d="M71.256 208.452H125.468L127.113 200.735H71.256V208.452Z" fill="#E0E0DE"/>
<path d="M71.2562 208.452V208.036H125.131L126.599 201.151H71.6721V208.452H71.2562H70.8404V200.319H127.626L125.805 208.868H70.8404V208.452H71.2562Z" fill="#232D34"/>
<path d="M151.624 344.908L97.3088 112.133L108.106 109.613L162.547 342.931C163.184 345.66 161.112 348.272 158.308 348.272H155.862C153.84 348.272 152.083 346.878 151.624 344.908Z" fill="#E0E0DE"/>
<path d="M151.624 344.909L151.219 345.003L96.8099 111.823L108.417 109.115L162.952 342.836C163.038 343.203 163.079 343.569 163.078 343.929C163.078 345.21 162.559 346.399 161.704 347.267C160.85 348.137 159.653 348.689 158.308 348.688H155.862C153.646 348.688 151.722 347.161 151.219 345.003L151.624 344.909L152.029 344.814C152.444 346.595 154.033 347.856 155.862 347.856H158.308C159.423 347.855 160.403 347.403 161.111 346.684C161.819 345.965 162.247 344.983 162.247 343.929C162.247 343.632 162.213 343.33 162.142 343.025L107.796 110.113L97.8088 112.444L152.029 344.814L151.624 344.909Z" fill="#232D34"/>
<path d="M99.4661 344.908L45.1527 112.133L55.95 109.613L110.39 342.931C111.027 345.66 108.955 348.272 106.151 348.272H103.705C101.683 348.272 99.926 346.878 99.4661 344.908Z" fill="#E0E0DE"/>
<path d="M99.4662 344.909L99.0611 345.003L44.6529 111.823L56.2603 109.115L110.795 342.836C110.881 343.203 110.921 343.569 110.921 343.929C110.921 345.21 110.402 346.399 109.547 347.267C108.692 348.137 107.496 348.689 106.151 348.688H103.705C101.489 348.688 99.5652 347.161 99.0611 345.003L99.4662 344.909L99.8712 344.814C100.287 346.595 101.876 347.856 103.705 347.856H106.151C107.266 347.855 108.246 347.403 108.954 346.684C109.662 345.965 110.091 344.983 110.09 343.929C110.09 343.632 110.056 343.33 109.985 343.025L55.639 110.113L45.6518 112.444L99.8712 344.814L99.4662 344.909Z" fill="#232D34"/>
<path d="M47.3077 348.272H44.8567C42.0363 348.272 39.9612 345.631 40.6274 342.891L100.141 98.1083C100.498 96.6378 100.372 95.06 99.6433 93.7334C98.5704 91.7781 96.5934 90.6253 94.4318 90.6253H68.9764C66.4679 90.6253 64.2314 92.2073 63.3964 94.5727L-25.1512 345.368C-25.765 347.108 -27.4101 348.272 -29.2557 348.272H-31.7808C-34.7841 348.272 -36.885 345.302 -35.8853 342.47L52.9417 90.8815C55.3379 84.0964 61.7812 79.5386 68.9764 79.5386H94.0109C99.1501 79.5386 104.14 81.6611 107.445 85.5968C110.96 89.7845 112.24 95.2755 110.955 100.56L51.537 344.948C51.0629 346.899 49.3155 348.272 47.3077 348.272Z" fill="white"/>
<path d="M47.3069 348.272V348.688H44.8559C43.511 348.689 42.3133 348.136 41.4591 347.267C40.605 346.398 40.086 345.208 40.0852 343.928C40.0852 343.555 40.1301 343.175 40.2224 342.793L99.7365 98.0103C99.8554 97.5204 99.917 97.0189 99.917 96.5215C99.917 95.6141 99.7116 94.7225 99.2782 93.9332C98.2744 92.1093 96.4438 91.043 94.431 91.0414H68.9756C66.6434 91.0414 64.5641 92.5118 63.7882 94.7117L-24.7594 345.507C-25.4331 347.413 -27.2346 348.688 -29.2565 348.688H-31.7816C-33.1406 348.689 -34.3399 348.128 -35.1908 347.255C-36.0416 346.382 -36.554 345.193 -36.554 343.925C-36.554 343.401 -36.4658 342.863 -36.2786 342.332L52.5492 90.7436C55.0044 83.7913 61.6033 79.1229 68.9756 79.1229H94.0102C99.2624 79.1229 104.371 81.2912 107.763 85.33C110.445 88.5246 111.858 92.4661 111.858 96.5065C111.858 97.888 111.693 99.2803 111.358 100.658L51.9404 345.046C51.4206 347.183 49.5068 348.688 47.3069 348.688V348.272V347.856C49.1226 347.856 50.7028 346.615 51.132 344.849L110.55 100.462C110.869 99.1481 111.026 97.8215 111.026 96.5065C111.026 92.6599 109.684 88.9121 107.125 85.8647C103.908 82.0314 99.0362 79.9546 94.0102 79.9546H68.9756C61.9576 79.9538 55.6698 84.4018 53.3335 91.0205L-35.4943 342.609C-35.6499 343.051 -35.7222 343.493 -35.7222 343.925C-35.7222 344.967 -35.2997 345.951 -34.5952 346.674C-33.8891 347.397 -32.9111 347.855 -31.7816 347.856H-29.2565C-27.5872 347.856 -26.0993 346.804 -25.5437 345.231L63.0039 94.4347C63.8971 91.903 66.2908 90.2096 68.9756 90.2096H94.431C96.7407 90.208 98.864 91.4481 100.008 93.5332C100.515 94.458 100.749 95.4894 100.749 96.5215C100.749 97.0879 100.679 97.6551 100.544 98.2066L41.0308 342.989C40.9535 343.306 40.9169 343.62 40.9169 343.928C40.9169 344.982 41.3452 345.964 42.0522 346.683C42.7608 347.403 43.7405 347.855 44.8559 347.856H47.3069V348.272Z" fill="#232D34"/>
<path d="M99.7948 97.7862C99.7948 97.7862 99.838 97.6789 99.9137 97.4818C100.181 96.7906 100.85 95.0057 101.451 93.0179C102.052 91.0343 102.579 88.8294 102.576 87.3756C102.578 86.8392 102.5 86.4125 102.375 86.1671L103.119 85.7954C103.335 86.2353 103.406 86.7685 103.408 87.3756C103.404 89.2403 102.689 91.8868 101.983 94.1075C101.275 96.3232 100.569 98.0889 100.567 98.0947L99.7948 97.7862Z" fill="#232D34"/>
<path d="M44.4019 132.683H91.4445L93.4023 124.966H44.4019V132.683Z" fill="#232D34"/>
<path d="M44.4008 132.683V132.267H91.1198L92.8664 125.382H44.8167V132.683H44.4008H43.985V124.55H93.936L91.7669 133.099H43.985V132.683H44.4008Z" fill="#232D34"/>
<path d="M22.818 193.306H77.0308L78.675 185.588H22.818V193.306Z" fill="#232D34"/>
<path d="M22.8184 193.305V192.889H76.6943L78.1623 186.003H23.2342V193.305H22.8184H22.4025V185.172H79.1895L77.3672 193.721H22.4025V193.305H22.8184Z" fill="#232D34"/>
<path d="M120.352 202.964L128.691 281.049C128.691 281.049 126.921 292.168 127.427 294.695C127.933 297.223 133.745 324.262 133.745 324.262C133.745 324.262 130.46 325.525 130.965 326.788C131.47 328.053 132.986 335.634 132.986 335.634C132.986 335.634 142.842 334.37 144.611 334.37C146.38 334.37 162.036 346.285 162.036 346.285C162.036 346.285 163.492 345.022 163.492 342.747C163.492 340.473 163.816 335.634 164.069 333.612C164.322 331.59 161.795 322.998 160.784 321.482C159.773 319.966 159.016 313.648 159.016 313.648L157.751 262.349L160.279 225.96C160.279 225.96 168.871 279.028 170.134 284.587C171.398 290.147 177.968 300.508 177.968 300.508L180.243 330.579C180.243 330.579 178.979 334.118 179.484 335.128C179.99 336.139 182.769 343.215 182.769 343.215C182.769 343.215 183.275 334.875 191.361 335.381C199.448 335.887 205.26 338.16 206.271 340.94C207.282 343.72 207.535 345.741 207.535 345.741C207.535 345.741 209.808 341.951 210.82 337.908C211.83 333.865 210.061 329.569 210.061 329.569L208.798 321.988C208.798 321.988 210.82 296.464 206.271 287.114C201.722 277.764 198.437 271.699 198.437 269.425C198.437 267.15 198.184 203.974 198.184 203.974L197.679 190.581L119.088 183L120.352 202.964Z" fill="url(#paint0_linear_298_514)"/>
<path d="M120.351 202.964L120.764 202.92L129.11 281.06L129.101 281.115C129.101 281.116 129.017 281.644 128.89 282.5C128.509 285.063 127.75 290.577 127.752 293.383C127.751 293.914 127.78 294.347 127.834 294.613C128.085 295.869 129.665 303.265 131.182 310.339C131.939 313.877 132.682 317.336 133.234 319.91C133.787 322.484 134.15 324.17 134.151 324.174L134.226 324.522L133.893 324.65L133.782 324.695C133.524 324.801 132.863 325.092 132.29 325.464C132.004 325.65 131.742 325.856 131.569 326.051C131.392 326.248 131.324 326.417 131.327 326.518L131.351 326.634C131.497 327.005 131.682 327.708 131.898 328.606C132.541 331.286 133.393 335.549 133.394 335.552L132.986 335.634L132.933 335.221C132.934 335.221 135.398 334.905 138.087 334.589C139.431 334.43 140.83 334.272 142.006 334.153C143.186 334.035 144.128 333.954 144.611 333.954C144.833 333.959 145.019 334.025 145.256 334.119C146.119 334.478 147.567 335.379 149.316 336.551C154.545 340.061 162.284 345.951 162.287 345.954L162.035 346.285L161.762 345.97C161.782 345.953 162.116 345.649 162.439 345.1C162.762 344.55 163.075 343.762 163.075 342.747C163.076 340.439 163.401 335.613 163.656 333.56C163.665 333.488 163.671 333.394 163.671 333.283C163.672 332.722 163.531 331.774 163.299 330.679C162.951 329.033 162.404 327.035 161.856 325.321C161.582 324.465 161.307 323.679 161.059 323.047C160.813 322.415 160.583 321.928 160.437 321.712C160.132 321.247 159.9 320.551 159.679 319.725C159.027 317.261 158.603 313.707 158.602 313.697L158.599 313.678L157.335 262.34L160.113 222.338L160.688 225.893C160.689 225.896 160.823 226.722 161.06 228.185C161.891 233.3 163.985 246.169 166.011 258.364C167.023 264.462 168.018 270.392 168.829 275.101C169.639 279.807 170.268 283.303 170.539 284.495C171.147 287.187 173.095 291.164 174.889 294.432C175.786 296.068 176.644 297.533 177.278 298.587C177.595 299.115 177.855 299.54 178.036 299.832C178.218 300.125 178.318 300.284 178.318 300.285L178.374 300.372L180.663 330.636L180.634 330.719C180.633 330.72 180.581 330.866 180.5 331.114C180.379 331.486 180.196 332.077 180.047 332.699C179.895 333.319 179.779 333.976 179.78 334.44C179.778 334.686 179.818 334.874 179.855 334.942C179.996 335.224 180.26 335.849 180.595 336.66C181.592 339.082 183.155 343.062 183.155 343.063L182.769 343.215L182.354 343.189C182.358 343.157 182.475 341.145 183.568 339.091C184.114 338.065 184.911 337.025 186.068 336.242C187.225 335.457 188.738 334.942 190.667 334.942C190.9 334.942 191.141 334.95 191.387 334.966C195.463 335.221 198.972 335.92 201.616 336.919C202.938 337.418 204.045 337.993 204.901 338.638C205.756 339.282 206.369 339.999 206.661 340.798C207.686 343.618 207.944 345.668 207.946 345.69L207.534 345.741L207.177 345.528C207.177 345.528 207.21 345.473 207.273 345.363C207.713 344.601 209.55 341.275 210.416 337.807C210.63 336.948 210.715 336.07 210.715 335.224C210.715 333.744 210.455 332.362 210.194 331.355C210.063 330.85 209.933 330.441 209.835 330.158C209.786 330.016 209.746 329.907 209.718 329.834L209.676 329.727L209.658 329.683L208.379 322.005L208.383 321.954C208.383 321.954 208.41 321.605 208.452 320.968C208.578 319.058 208.829 314.582 208.829 309.376C208.83 305.472 208.687 301.157 208.247 297.212C207.809 293.268 207.064 289.69 205.896 287.296C203.624 282.624 201.666 278.772 200.271 275.793C199.574 274.302 199.017 273.031 198.63 271.977C198.245 270.92 198.024 270.091 198.021 269.425C198.021 268.291 197.958 251.926 197.894 235.849C197.863 227.81 197.831 219.841 197.808 213.883C197.795 210.904 197.785 208.427 197.779 206.696C197.772 204.963 197.768 203.979 197.768 203.976L198.184 203.974L197.768 203.99L197.276 190.96L119.534 183.461L120.766 202.937L120.351 202.964L119.936 202.99L118.641 182.539L198.081 190.202L198.6 203.966V203.973C198.6 203.973 198.852 267.147 198.852 269.425C198.849 269.897 199.038 270.679 199.411 271.691C200.528 274.742 203.231 279.918 206.644 286.932C207.885 289.489 208.627 293.126 209.074 297.12C209.519 301.111 209.661 305.452 209.661 309.376C209.661 316.353 209.212 322.013 209.212 322.02L208.797 321.988L209.207 321.919L210.471 329.5L210.061 329.569L210.446 329.41C210.455 329.438 211.544 332.071 211.547 335.224C211.547 336.126 211.457 337.07 211.223 338.008C210.19 342.13 207.9 345.937 207.891 345.955L207.271 346.988L207.121 345.793L207.11 345.71C207.051 345.306 206.751 343.479 205.88 341.082C205.667 340.492 205.173 339.882 204.402 339.302C202.088 337.551 197.348 336.166 191.335 335.796C191.105 335.782 190.883 335.774 190.667 335.774C188.884 335.776 187.555 336.242 186.535 336.93C185.007 337.963 184.161 339.534 183.704 340.865C183.476 341.528 183.345 342.128 183.272 342.559C183.235 342.775 183.213 342.948 183.2 343.066L183.187 343.199L183.184 343.24L183.07 345.119L182.382 343.367C182.381 343.365 182.208 342.925 181.94 342.246C181.537 341.228 180.922 339.677 180.359 338.287C180.079 337.592 179.811 336.937 179.591 336.41C179.371 335.885 179.195 335.48 179.112 335.314C178.981 335.045 178.95 334.755 178.949 334.44C178.951 333.657 179.18 332.68 179.402 331.872C179.626 331.067 179.848 330.445 179.85 330.44L180.242 330.579L179.827 330.611L177.553 300.539L177.967 300.508L177.616 300.73C177.613 300.726 175.967 298.129 174.16 294.832C172.352 291.53 170.384 287.547 169.728 284.68C169.406 283.262 168.635 278.913 167.651 273.151C164.701 255.877 159.868 226.027 159.868 226.026L160.278 225.96L160.693 225.989L158.167 262.358L159.43 313.638L159.015 313.648L159.428 313.598C159.428 313.6 159.474 313.988 159.561 314.601C159.69 315.519 159.908 316.934 160.187 318.251C160.326 318.91 160.48 319.543 160.643 320.074C160.803 320.603 160.982 321.034 161.129 321.251C161.414 321.683 161.734 322.448 162.097 323.444C162.635 324.931 163.233 326.897 163.698 328.734C164.163 330.578 164.499 332.265 164.503 333.283C164.502 333.42 164.496 333.545 164.481 333.663C164.232 335.654 163.906 340.507 163.907 342.747C163.907 343.975 163.513 344.936 163.119 345.584C162.724 346.234 162.33 346.578 162.307 346.598L162.052 346.82L161.783 346.615C161.782 346.615 161.539 346.43 161.108 346.104C159.6 344.966 155.801 342.116 152.192 339.555C150.387 338.274 148.629 337.066 147.233 336.182C146.536 335.74 145.928 335.38 145.458 335.135C145.224 335.012 145.024 334.919 144.871 334.861C144.721 334.801 144.611 334.784 144.611 334.786C144.209 334.786 143.255 334.863 142.09 334.981C140.336 335.158 138.072 335.424 136.248 335.646C134.424 335.868 133.042 336.045 133.039 336.046L132.655 336.095L132.578 335.715C132.578 335.713 132.484 335.242 132.334 334.513C132.109 333.419 131.76 331.747 131.42 330.233C131.251 329.477 131.084 328.76 130.936 328.177C130.789 327.595 130.657 327.136 130.579 326.943C130.523 326.805 130.496 326.66 130.496 326.518C130.502 326.05 130.76 325.684 131.059 325.379C131.518 324.923 132.141 324.562 132.66 324.297C133.177 324.035 133.586 323.877 133.595 323.873L133.744 324.262L133.338 324.349C133.338 324.347 127.526 297.315 127.019 294.777C126.947 294.411 126.921 293.944 126.92 293.383C126.921 291.429 127.261 288.345 127.6 285.73C127.94 283.118 128.279 280.987 128.28 280.984L128.69 281.049L128.277 281.093L119.936 202.999V202.99L120.351 202.964Z" fill="#232D34"/>
<path d="M147.327 210.175L159.37 216.325L160.933 222.317L160.128 222.528L158.659 216.895L146.948 210.915L147.327 210.175Z" fill="#232D34"/>
<path d="M139.769 209.681C139.771 209.682 140.271 209.98 141.091 210.448C142.318 211.151 144.257 212.236 146.261 213.259C148.264 214.284 150.342 215.249 151.811 215.707L151.563 216.501C149.481 215.849 146.448 214.327 143.909 212.964C141.373 211.602 139.348 210.399 139.345 210.397L139.769 209.681Z" fill="#232D34"/>
<path d="M125.047 79.9476C125.047 79.9476 110.241 106.493 106.413 112.484C102.586 118.475 98.7582 124.632 98.9245 127.295C99.0908 129.958 104.249 136.78 104.249 136.78L126.216 134.617L128.879 87.1893L125.047 79.9476Z" fill="#9C9C9C"/>
<path d="M125.047 79.9475L125.411 80.1496C125.411 80.1504 121.709 86.7875 117.528 94.1739C113.345 101.563 108.691 109.691 106.764 112.708C104.892 115.638 103.022 118.606 101.626 121.17C100.929 122.452 100.35 123.633 99.9504 124.652C99.5495 125.668 99.3333 126.528 99.3358 127.122L99.34 127.269C99.3691 127.818 99.7009 128.726 100.199 129.714C100.943 131.204 102.042 132.916 102.952 134.247C103.407 134.912 103.815 135.484 104.109 135.889C104.403 136.294 104.581 136.529 104.581 136.53L104.25 136.78L104.21 136.367L125.822 134.238L128.457 87.2815L124.68 80.1421L125.047 79.9475L125.415 79.7528L129.301 87.0969L126.612 134.996L104.059 137.217L103.919 137.031C103.914 137.026 102.62 135.315 101.3 133.261C100.64 132.233 99.9729 131.121 99.4547 130.087C98.9391 129.047 98.564 128.103 98.5099 127.321L98.5041 127.122C98.5066 126.341 98.7586 125.417 99.1761 124.348C100.434 121.152 103.251 116.665 106.063 112.26C107.963 109.286 112.626 101.145 116.804 93.7639C118.894 90.0719 120.864 86.5671 122.312 83.9855C123.035 82.6946 123.628 81.6342 124.041 80.8965C124.454 80.1596 124.684 79.7462 124.685 79.7445L125.057 79.0767L125.415 79.7528L125.047 79.9475Z" fill="#232D34"/>
<path d="M121.295 92.077L124.457 104.226L123.652 104.435L120.49 92.2866" fill="#232D34"/>
<path d="M117.76 96.3061C117.761 96.3069 118 96.7361 118.404 97.4297C119.009 98.4694 119.98 100.096 121.045 101.723C122.11 103.348 123.274 104.978 124.24 106.003L123.634 106.573C122.261 105.111 120.626 102.66 119.315 100.557C118.008 98.4569 117.035 96.7153 117.034 96.7111L117.76 96.3061Z" fill="#232D34"/>
<path d="M108.743 145.268L124.22 168.066L124.553 170.896L128.214 174.057L135.203 166.069L126.05 138.445L108.743 145.268Z" fill="white"/>
<path d="M108.744 145.268L109.088 145.034L124.621 167.917L124.947 170.686L128.174 173.472L134.734 165.974L125.794 138.993L108.896 145.655L108.744 145.268L108.591 144.88L126.307 137.896L135.673 166.164L128.255 174.642L124.159 171.104L123.82 168.216L108.108 145.071L108.591 144.88L108.744 145.268Z" fill="#232D34"/>
<path d="M152.508 67.4113C152.508 67.4113 125.247 79.3505 125.048 79.9477C124.849 80.5449 123.257 104.223 125.048 118.749C126.839 133.275 128.63 165.311 128.63 165.311L128.033 170.086C128.033 170.086 149.721 178.841 164.446 179.04C179.171 179.239 196.283 175.458 196.88 174.464C197.477 173.469 198.671 155.162 198.671 155.162L202.252 123.922C202.252 123.922 210.609 146.009 210.809 147.004C211.008 147.999 221.753 152.178 225.334 149.989C228.916 147.8 233.847 134.598 233.847 133.006C233.847 131.414 220.36 81.3408 218.37 80.5449C216.381 79.7489 184.145 67.8097 184.145 67.8097L152.508 67.4113Z" fill="#9C9C9C"/>
<path d="M152.507 67.4111L152.673 67.7928C152.672 67.7928 152.248 67.9791 151.502 68.3068C148.892 69.4529 142.365 72.3273 136.47 74.9797C133.522 76.3063 130.732 77.5771 128.672 78.5477C127.641 79.0326 126.793 79.4427 126.202 79.7454C125.907 79.8959 125.676 80.0207 125.525 80.1097C125.45 80.1538 125.395 80.1895 125.369 80.2086L125.356 80.2186L125.273 80.1172L125.371 80.2045L125.356 80.2186L125.273 80.1172L125.371 80.2045L125.109 79.9675L125.442 80.0789C125.411 80.1654 125.382 80.1879 125.371 80.2045L125.109 79.9675L125.442 80.0789L125.269 80.0215L125.448 80.0598L125.442 80.0789L125.269 80.0215L125.448 80.0598C125.439 80.0931 125.409 80.3334 125.377 80.6811C125.15 83.1612 124.621 91.9441 124.621 101.396C124.621 107.367 124.833 113.609 125.46 118.698C127.254 133.253 129.043 165.281 129.044 165.287L129.046 165.325L128.445 170.137L128.032 170.085L128.188 169.7C128.188 169.7 128.523 169.835 129.142 170.074C131.311 170.91 136.943 173.008 143.634 174.915C150.323 176.824 158.077 178.54 164.451 178.624C164.825 178.629 165.201 178.631 165.579 178.631C172.772 178.632 180.434 177.731 186.361 176.709C189.324 176.198 191.855 175.657 193.672 175.186C194.58 174.951 195.31 174.732 195.818 174.547C196.072 174.456 196.271 174.372 196.401 174.305L196.535 174.226L196.549 174.214L196.671 174.338L196.523 174.249L196.549 174.214L196.671 174.338L196.523 174.249H196.522C196.54 174.206 196.581 174.059 196.619 173.86C196.77 173.099 196.952 171.525 197.134 169.622C197.409 166.763 197.689 163.14 197.901 160.233C198.007 158.78 198.096 157.505 198.157 156.593C198.22 155.683 198.255 155.137 198.255 155.135L198.256 155.125L202.034 122.171L202.641 123.775C202.641 123.775 204.73 129.297 206.845 134.944C207.902 137.767 208.965 140.622 209.778 142.834C210.184 143.94 210.527 144.886 210.775 145.588C210.9 145.939 211.001 146.228 211.074 146.449C211.148 146.674 211.192 146.81 211.216 146.922L211.049 146.955L211.195 146.865L211.216 146.922L211.049 146.955L211.195 146.865L211.217 146.89C211.276 146.956 211.451 147.092 211.699 147.239C212.577 147.768 214.357 148.521 216.358 149.127C218.362 149.734 220.604 150.2 222.421 150.198C223.545 150.201 224.498 150.015 225.117 149.633C225.899 149.164 226.876 147.964 227.821 146.417C229.248 144.097 230.662 141.002 231.711 138.349C232.236 137.022 232.67 135.805 232.971 134.851C233.123 134.375 233.24 133.964 233.318 133.643C233.397 133.325 233.433 133.082 233.431 133.006H233.454L233.431 133.008V133.006H233.454L233.431 133.008C233.431 132.956 233.374 132.631 233.271 132.172C232.495 128.657 229.13 115.95 225.734 104.051C224.034 98.1013 222.327 92.3484 220.93 88.0434C220.231 85.8918 219.61 84.1002 219.11 82.8344C218.86 82.2023 218.64 81.7008 218.462 81.3606C218.374 81.1909 218.295 81.0612 218.237 80.9838L218.177 80.9115V80.9098L218.286 80.7543L218.215 80.9306L218.177 80.9098L218.286 80.7543L218.215 80.9306C217.237 80.5389 208.67 77.3509 200.366 74.2686C196.213 72.7266 192.122 71.2087 189.068 70.0776C187.541 69.5112 186.275 69.0421 185.39 68.7135C184.504 68.3858 184.001 68.1995 184.001 68.1995L184.145 67.8095L184.14 68.2253L152.502 67.8269L152.507 67.4111L152.512 66.9961L184.222 67.3944L184.289 67.4194C184.289 67.4194 192.348 70.4044 200.656 73.4884C208.967 76.5741 217.512 79.7537 218.524 80.1579C218.735 80.2527 218.819 80.3767 218.928 80.5197C219.125 80.7992 219.329 81.2092 219.571 81.7689C220.47 83.8549 221.825 87.9785 223.367 93.0453C225.679 100.641 228.399 110.332 230.542 118.262C231.613 122.228 232.54 125.752 233.2 128.356C233.53 129.657 233.793 130.729 233.974 131.511C234.065 131.903 234.135 132.222 234.183 132.465C234.231 132.716 234.259 132.858 234.262 133.006C234.259 133.298 234.173 133.676 234.029 134.213C233.521 136.063 232.228 139.561 230.659 142.865C229.875 144.516 229.023 146.116 228.16 147.435C227.294 148.755 226.436 149.796 225.551 150.344C224.717 150.849 223.63 151.028 222.421 151.03C220.043 151.027 217.156 150.312 214.816 149.5C213.646 149.092 212.617 148.66 211.856 148.273C211.474 148.079 211.161 147.897 210.921 147.724C210.801 147.637 210.699 147.553 210.611 147.459C210.526 147.364 210.441 147.265 210.4 147.085C210.399 147.074 210.355 146.92 210.284 146.712C209.751 145.108 207.64 139.435 205.67 134.18C204.685 131.551 203.733 129.024 203.028 127.153C202.322 125.283 201.864 124.072 201.863 124.069L202.252 123.922L202.665 123.969L199.084 155.209L198.67 155.162L199.085 155.189C199.085 155.19 198.787 159.768 198.413 164.473C198.226 166.825 198.022 169.209 197.825 171.072C197.726 172.003 197.631 172.803 197.539 173.411C197.494 173.714 197.449 173.969 197.404 174.172C197.381 174.274 197.359 174.363 197.335 174.443C197.308 174.524 197.285 174.593 197.236 174.677C197.169 174.785 197.098 174.842 197.025 174.898C196.883 175 196.715 175.082 196.499 175.175C195.695 175.514 194.213 175.937 192.201 176.4C186.172 177.782 175.472 179.462 165.579 179.463C165.198 179.463 164.818 179.46 164.44 179.455C157.002 179.353 147.878 177.104 140.596 174.886C133.315 172.667 127.884 170.475 127.877 170.471L127.58 170.351L128.217 165.259L128.629 165.31L128.213 165.334C128.213 165.332 128.186 164.833 128.134 163.929C127.767 157.604 126.199 131.482 124.635 118.799C124.001 113.653 123.79 107.387 123.79 101.396C123.79 95.8906 123.968 90.6192 124.163 86.6736C124.26 84.7008 124.362 83.0598 124.447 81.8854C124.489 81.2982 124.528 80.8283 124.561 80.4898C124.576 80.3201 124.591 80.1837 124.604 80.0789L124.624 79.9433L124.653 79.8161C124.71 79.6697 124.759 79.6447 124.795 79.6048C124.868 79.5391 124.936 79.4967 125.026 79.4393C125.368 79.2297 126.024 78.8954 126.944 78.4496C133.363 75.3415 152.336 67.0318 152.34 67.031L152.422 66.9944L152.512 66.9961L152.507 67.4111Z" fill="#232D34"/>
<path d="M136.987 74.5744L134.997 112.182L143.025 113.277L144.15 70.7942L136.987 74.5744Z" fill="#232D34"/>
<path d="M136.987 74.5749L137.402 74.5974L135.432 111.822L142.622 112.803L143.715 71.4943L137.181 74.9425L136.987 74.5749L136.793 74.2073L144.584 70.0953L143.428 113.752L134.561 112.543L136.584 74.3171L136.793 74.2073L136.987 74.5749Z" fill="#232D34"/>
<path d="M185.935 68.8047L168.191 116.699L176.385 117.953L195.089 71.7897L185.935 68.8047Z" fill="#232D34"/>
<path d="M185.936 68.8043L186.326 68.9491L168.759 116.364L176.123 117.492L194.537 72.0464L185.807 69.2002L185.936 68.8043L186.065 68.4093L195.642 71.5324L176.647 118.414L167.625 117.032L185.685 68.2854L186.065 68.4093L185.936 68.8043Z" fill="#232D34"/>
<path d="M198.606 156.123C194.836 154.485 184.916 150.156 183.15 149.193C180.961 147.999 176.385 117.953 176.385 117.953L134.997 112.182C133.192 116.447 129.224 143.699 127.887 153.139C128.343 160.198 128.629 165.311 128.629 165.311L128.032 170.086C128.032 170.086 149.721 178.841 164.445 179.04C179.17 179.239 196.283 175.458 196.88 174.464C197.394 173.606 198.352 159.89 198.606 156.123Z" fill="url(#paint1_linear_298_514)"/>
<path d="M198.607 156.122L198.441 156.503C196.556 155.684 193.133 154.193 189.959 152.785C188.372 152.08 186.847 151.398 185.607 150.829C184.366 150.261 183.417 149.811 182.952 149.558C182.675 149.396 182.523 149.156 182.348 148.843C182.032 148.253 181.717 147.359 181.381 146.213C180.213 142.212 178.865 135.177 177.805 129.124C176.745 123.074 175.974 118.018 175.974 118.015L176.385 117.953L176.328 118.364L134.939 112.594L134.998 112.182L135.38 112.344C135.172 112.833 134.913 113.717 134.632 114.877C132.656 123.034 129.467 144.946 128.299 153.197L127.887 153.139L128.302 153.113C128.759 160.173 129.045 165.286 129.045 165.287L129.047 165.325L128.445 170.137L128.033 170.085L128.188 169.7C128.189 169.7 128.523 169.835 129.143 170.074C131.311 170.91 136.944 173.008 143.635 174.915C150.324 176.824 158.078 178.54 164.452 178.624C164.826 178.629 165.202 178.631 165.58 178.631C172.772 178.632 180.435 177.731 186.362 176.709C189.325 176.198 191.855 175.657 193.672 175.186C194.581 174.951 195.311 174.732 195.819 174.547C196.073 174.456 196.272 174.372 196.401 174.305L196.535 174.226L196.549 174.214L196.672 174.338L196.524 174.249L196.549 174.214L196.672 174.338L196.524 174.249L196.613 174.303L196.519 174.257L196.524 174.249L196.613 174.303L196.519 174.257C196.522 174.256 196.558 174.154 196.588 174.012C196.712 173.465 196.867 172.261 197.023 170.747C197.495 166.191 198.015 158.721 198.192 156.094L198.607 156.122L199.022 156.15C198.895 158.035 198.591 162.408 198.255 166.419C198.087 168.424 197.912 170.34 197.745 171.812C197.661 172.549 197.58 173.174 197.502 173.651C197.463 173.889 197.425 174.09 197.386 174.254C197.344 174.421 197.316 174.537 197.236 174.677C197.17 174.785 197.098 174.842 197.026 174.898C196.884 175 196.716 175.082 196.499 175.175C195.695 175.514 194.214 175.937 192.201 176.4C186.173 177.782 175.473 179.462 165.58 179.463C165.199 179.463 164.819 179.46 164.441 179.455C157.002 179.353 147.879 177.104 140.597 174.886C133.316 172.667 127.885 170.475 127.877 170.471L127.58 170.351L128.217 165.259L128.63 165.31L128.214 165.334C128.214 165.33 128.143 164.056 128.014 161.896C127.886 159.737 127.7 156.695 127.472 153.167L127.469 153.123L127.476 153.081C128.144 148.359 129.471 139.185 130.856 130.654C131.549 126.388 132.257 122.283 132.905 118.974C133.229 117.319 133.538 115.863 133.824 114.682C134.112 113.499 134.37 112.598 134.614 112.02L134.739 111.726L176.75 117.583L176.796 117.89C176.796 117.891 176.868 118.359 176.997 119.181C177.449 122.062 178.611 129.285 179.898 135.911C180.541 139.224 181.216 142.388 181.846 144.778C182.161 145.972 182.466 146.974 182.744 147.692C182.882 148.052 183.015 148.34 183.13 148.538C183.188 148.637 183.241 148.714 183.283 148.762L183.333 148.815L183.35 148.828C183.768 149.055 184.721 149.509 185.953 150.073C189.659 151.771 195.946 154.513 198.773 155.741L199.042 155.857L199.022 156.15L198.607 156.122Z" fill="#232D34"/>
<path d="M165.997 135.942C167.4 136.001 168.81 136.034 170.218 136.034C172.467 136.034 174.713 135.951 176.92 135.767L176.989 136.597C174.755 136.782 172.488 136.865 170.218 136.865C168.797 136.865 167.375 136.833 165.961 136.773L165.997 135.942Z" fill="#232D34"/>
<path d="M132.185 130.216C132.186 130.216 132.399 130.281 132.808 130.398C135.672 131.222 148.039 134.594 161.864 135.688L161.799 136.517C145.892 135.258 131.96 131.016 131.943 131.011L132.185 130.216Z" fill="#232D34"/>
<path d="M145.333 73.8555L144.082 84.0132L148.395 81.0914L145.333 73.8555Z" fill="#9C9C9C"/>
<path d="M145.334 73.8555L145.747 73.9063L144.607 83.1558L147.879 80.9384L144.951 74.0177L145.334 73.8555L145.717 73.6934L148.912 81.2445L143.557 84.8716L145.112 72.2628L145.717 73.6934L145.334 73.8555Z" fill="#232D34"/>
<path d="M152.682 66.1354C152.682 66.1354 144.917 73.0203 145.334 73.8553C145.752 74.6904 151.875 88.3271 151.875 88.3271L154.658 67.3156C154.658 67.3156 153.491 65.2338 152.682 66.1354Z" fill="#9C9C9C"/>
<path d="M152.682 66.1353L152.958 66.4464C152.957 66.4472 152.501 66.8523 151.812 67.4802C150.779 68.4217 149.229 69.8614 147.944 71.163C147.302 71.8126 146.725 72.4297 146.319 72.9238C146.116 73.17 145.955 73.3862 145.854 73.5509C145.803 73.6324 145.768 73.7006 145.75 73.7455L145.733 73.7904V73.7929L145.621 73.7779H145.734L145.733 73.7929L145.621 73.7779H145.734H145.49L145.707 73.6698L145.734 73.7779H145.49L145.707 73.6698C145.82 73.8994 146.276 74.8974 146.911 76.2972C148.81 80.4857 152.254 88.1566 152.254 88.1566L151.874 88.3271L151.462 88.2722L154.245 67.2606L154.657 67.3155L154.294 67.5185L154.265 67.4686C154.192 67.3471 153.991 67.0277 153.75 66.7583C153.63 66.6235 153.5 66.5029 153.386 66.4264C153.271 66.3474 153.179 66.3225 153.14 66.325C153.1 66.3299 153.08 66.3225 152.992 66.4131L152.977 66.4306L152.958 66.4464L152.682 66.1353L152.373 65.8575C152.572 65.6272 152.863 65.4882 153.14 65.4932C153.46 65.4966 153.717 65.6363 153.933 65.7952C154.257 66.0397 154.515 66.3624 154.707 66.6285C154.898 66.8939 155.015 67.1034 155.02 67.1126L155.087 67.2332L152.094 89.8325L151.494 88.4976C151.494 88.4951 151.112 87.6451 150.531 86.3535C149.661 84.4164 148.345 81.4913 147.208 78.972C146.64 77.7128 146.116 76.555 145.714 75.6734C145.315 74.7943 145.032 74.1797 144.962 74.0416V74.0408C144.916 73.9493 144.902 73.8561 144.902 73.7779C144.906 73.5941 144.961 73.4644 145.028 73.3238C145.157 73.0668 145.359 72.7874 145.623 72.4605C146.543 71.3285 148.229 69.6826 149.697 68.3036C151.163 66.9263 152.404 65.8259 152.407 65.8243L152.682 66.1353Z" fill="#232D34"/>
<path d="M152.681 66.1355C152.681 66.1355 151.965 88.655 151.965 90.8042C151.965 92.9541 152.681 96.0248 153.194 95.3079C153.705 94.5918 164.043 74.7338 164.043 74.7338L178.886 63.3717C178.886 63.3717 177.555 53.9551 177.964 49.2459C178.374 44.5376 178.092 45.153 178.092 45.153C178.092 45.153 175.61 40.75 174.894 46.0729C174.177 51.3959 171.721 58.5611 168.855 61.2226C165.989 63.8841 152.681 66.1355 152.681 66.1355Z" fill="white"/>
<path d="M152.682 66.1354L153.098 66.1487C153.098 66.152 153.053 67.556 152.987 69.701C152.785 76.1301 152.382 89.2146 152.382 90.804C152.381 91.7297 152.524 92.8642 152.722 93.7425C152.821 94.1808 152.936 94.5584 153.043 94.7987C153.094 94.9185 153.146 95.0034 153.171 95.0325L153.181 95.0441L153.093 95.1372L153.148 95.0233L153.181 95.0441L153.093 95.1372L153.148 95.0233L153.034 95.2554V94.9984L153.148 95.0233L153.034 95.2554V94.9984V95.2637L152.888 95.0399L153.034 94.9984V95.2637L152.888 95.0399L152.983 95.1847L152.86 95.0632L152.888 95.0399L152.983 95.1847L152.86 95.0632L152.911 95.114L152.856 95.0674L152.86 95.0632L152.911 95.114L152.856 95.0674L152.856 95.0666C152.861 95.0607 152.939 94.9335 153.038 94.7555C153.809 93.3832 156.473 88.3214 158.939 83.6139C160.171 81.2593 161.356 78.9912 162.232 77.312C163.108 75.6319 163.674 74.544 163.676 74.5415L163.719 74.46L178.634 63.0414L178.887 63.3716L178.475 63.4298C178.475 63.4207 177.473 56.3478 177.472 51.3467C177.472 50.5765 177.495 49.8546 177.552 49.21C177.723 47.2372 177.772 46.2042 177.772 45.6894C177.772 45.4632 177.761 45.3351 177.755 45.296L177.753 45.2868L177.971 45.2411L177.781 45.3517L177.753 45.2868L177.971 45.2411L177.781 45.3517L178.106 45.1612L177.881 45.4623L177.781 45.3517L178.106 45.1612L177.881 45.4623L178.12 45.1429V45.5422C178.03 45.5438 177.935 45.5056 177.881 45.4623L178.12 45.1429V45.5422V45.1454L178.358 45.464C178.317 45.4947 178.238 45.5413 178.12 45.5422V45.1454L178.358 45.464L178.144 45.1762L178.471 45.3259C178.451 45.3509 178.471 45.3658 178.358 45.464L178.144 45.1762L178.471 45.3259L178.13 46.067L177.73 45.3575L177.693 45.2935C177.603 45.1438 177.354 44.7512 177.052 44.4168C176.902 44.2497 176.738 44.0975 176.588 43.9985C176.437 43.897 176.308 43.8571 176.229 43.8588L176.066 43.9137C175.97 43.9777 175.82 44.1532 175.679 44.5125C175.537 44.8693 175.405 45.3991 175.307 46.1285C174.943 48.8266 174.144 51.9721 173.07 54.7933C171.992 57.6153 170.658 60.1096 169.139 61.5269C168.328 62.2721 166.933 62.9067 165.259 63.5047C160.249 65.2796 152.764 66.5421 152.752 66.5454L152.682 66.1354L152.613 65.7254C152.614 65.7254 152.819 65.6904 153.187 65.6247C154.473 65.3918 157.738 64.7722 160.982 63.9239C162.604 63.4989 164.221 63.0173 165.577 62.5016C166.931 61.9901 168.029 61.4279 168.572 60.9172C169.92 59.6738 171.247 57.2543 172.293 54.4972C173.343 51.7409 174.13 48.642 174.483 46.0171C174.623 44.9849 174.824 44.2863 175.098 43.7997C175.236 43.5577 175.397 43.3656 175.592 43.23C175.785 43.0944 176.014 43.0254 176.229 43.0271C176.589 43.0296 176.89 43.1876 177.147 43.3755C177.532 43.6625 177.846 44.0492 178.078 44.3686C178.308 44.6871 178.45 44.94 178.455 44.9491L178.093 45.1529L177.715 44.9799L177.769 44.8893L177.861 44.7969C177.909 44.762 177.996 44.7113 178.12 44.7104C178.233 44.7088 178.345 44.762 178.405 44.8177C178.511 44.9175 178.527 44.9891 178.548 45.0448C178.594 45.207 178.6 45.3559 178.604 45.6894C178.604 46.2524 178.552 47.2962 178.38 49.2824C178.327 49.8937 178.303 50.594 178.303 51.3467C178.303 53.7961 178.551 56.7936 178.801 59.1731C178.926 60.3625 179.049 61.3988 179.143 62.1374C179.237 62.8751 179.298 63.3126 179.299 63.3134L179.332 63.5537L164.297 75.0638L164.045 74.7337L164.414 74.9258C164.414 74.9258 161.829 79.8903 159.18 84.9454C157.856 87.4722 156.515 90.0222 155.473 91.9859C154.952 92.9681 154.506 93.8032 154.173 94.4162C154.007 94.7231 153.869 94.9751 153.764 95.1622C153.655 95.3543 153.592 95.4658 153.533 95.5498C153.485 95.6163 153.427 95.6812 153.343 95.7361C153.261 95.791 153.148 95.8309 153.034 95.8301C152.907 95.8301 152.796 95.7852 152.717 95.7328C152.566 95.6321 152.485 95.514 152.407 95.3851C152.276 95.1589 152.17 94.8753 152.07 94.5376C151.773 93.5295 151.552 92.0441 151.551 90.804C151.551 88.6308 152.267 66.1279 152.267 66.1221L152.278 65.7819L152.613 65.7254L152.682 66.1354Z" fill="#232D34"/>
<path d="M161.337 75.247L165.928 88.8838L186.105 66.2021L180.957 59.1059L161.337 75.247Z" fill="#9C9C9C"/>
<path d="M161.336 75.2468L161.731 75.1145L166.094 88.0718L185.572 66.1761L180.879 59.7079L161.601 75.5678L161.336 75.2468L161.072 74.9258L181.034 58.5035L186.638 66.2285L165.763 89.6953L160.851 75.1079L161.072 74.9258L161.336 75.2468Z" fill="#232D34"/>
<path d="M145.198 32.9821C145.198 32.9821 146.377 38.4831 146.246 39.3996C146.115 40.3162 144.805 43.46 145.46 45.556C146.115 47.651 146.77 52.104 146.77 55.5091C146.77 58.9149 146.508 64.2845 148.734 66.511C150.961 68.7375 159.343 70.0474 163.796 67.4275C168.249 64.8085 174.928 58.2596 175.846 54.7239C176.762 51.1875 177.81 45.6865 177.81 45.6865C177.81 45.6865 182.001 43.984 182.787 41.4955C183.572 39.007 183.31 34.2921 181.87 33.3755C180.429 32.4581 176.893 30.625 175.452 31.411C174.012 32.1961 145.067 31.0176 145.067 31.0176L145.198 32.9821Z" fill="white"/>
<path d="M145.199 32.9822L145.606 32.8948C145.607 32.8973 145.871 34.1332 146.136 35.5355C146.269 36.2375 146.402 36.9794 146.503 37.6331C146.603 38.2885 146.672 38.8432 146.673 39.2183C146.673 39.3032 146.669 39.3805 146.659 39.4587C146.59 39.907 146.351 40.6056 146.126 41.4715C145.9 42.3281 145.694 43.3195 145.695 44.2128C145.695 44.6536 145.745 45.0686 145.858 45.4312C146.532 47.5995 147.183 52.0492 147.187 55.5091C147.187 56.162 147.177 56.8815 147.177 57.6342C147.177 59.2327 147.221 60.9818 147.483 62.5321C147.742 64.0849 148.227 65.4223 149.029 66.2166C149.61 66.8055 150.808 67.3935 152.298 67.801C153.787 68.2136 155.571 68.4631 157.35 68.4622C159.648 68.4647 161.938 68.0422 163.587 67.0691C165.764 65.7899 168.533 63.5127 170.85 61.1298C172.008 59.938 173.056 58.7195 173.865 57.5901C174.674 56.4631 175.24 55.4176 175.444 54.6192C175.899 52.8643 176.39 50.6087 176.765 48.7947C176.953 47.8881 177.113 47.0905 177.225 46.5208C177.337 45.9511 177.402 45.6092 177.402 45.6084L177.445 45.3863L177.654 45.3015C177.655 45.3015 177.712 45.2782 177.825 45.2283C178.216 45.0553 179.222 44.5804 180.198 43.8934C181.178 43.2097 182.105 42.3048 182.392 41.37C182.661 40.5191 182.808 39.3373 182.807 38.1579C182.808 37.1382 182.699 36.1161 182.487 35.3026C182.382 34.8959 182.249 34.5416 182.102 34.2713C181.955 33.9993 181.793 33.8164 181.648 33.7265C181.069 33.3573 180.122 32.8258 179.126 32.3933C178.134 31.9591 177.078 31.6314 176.346 31.6356C176.047 31.6348 175.812 31.688 175.653 31.7762C175.54 31.8352 175.444 31.8585 175.327 31.8851C174.928 31.9691 174.28 32.0157 173.386 32.0498C172.497 32.0822 171.377 32.0964 170.098 32.0964C161.333 32.0964 145.054 31.4335 145.051 31.4335L145.068 31.0176L145.483 30.9902L145.614 32.9547L145.199 32.9822L144.784 33.0104L144.623 30.5835L145.085 30.6018C145.088 30.6026 146.101 30.6434 147.764 30.7058C152.751 30.8921 163.55 31.2647 170.098 31.2647C171.552 31.2647 172.797 31.2464 173.715 31.2039C174.173 31.1832 174.551 31.1557 174.825 31.1224C174.963 31.1066 175.074 31.0884 175.152 31.0725L175.241 31.0501L175.259 31.0434L175.275 31.0834L175.255 31.0459L175.259 31.0434L175.275 31.0834L175.255 31.0459C175.583 30.8671 175.956 30.8047 176.346 30.8039C177.299 30.808 178.409 31.1773 179.458 31.6306C180.504 32.0856 181.477 32.632 182.095 33.0246C182.407 33.2242 182.641 33.5228 182.832 33.8738C183.399 34.9275 183.634 36.5386 183.639 38.1579C183.638 39.4063 183.49 40.6472 183.184 41.6203C182.724 43.0401 181.406 44.1097 180.23 44.874C179.048 45.6334 177.982 46.065 177.968 46.0717L177.811 45.6866L178.22 45.7639C178.219 45.7689 177.172 51.2682 176.249 54.828C175.995 55.7977 175.382 56.8973 174.541 58.0741C172.016 61.5948 167.418 65.775 164.008 67.7861C162.162 68.8689 159.747 69.2923 157.35 69.2939C155.494 69.2939 153.646 69.0361 152.076 68.6028C150.505 68.1653 149.214 67.5698 148.441 66.8046C147.44 65.7974 146.94 64.302 146.662 62.6702C146.388 61.0359 146.346 59.2485 146.345 57.6342C146.345 56.8748 146.355 56.1545 146.355 55.5091C146.358 52.159 145.7 47.7035 145.064 45.6799C144.919 45.2125 144.863 44.7152 144.863 44.2128C144.864 43.1956 145.089 42.1485 145.321 41.2602C145.553 40.3803 145.798 39.6276 145.835 39.3414V39.3406L145.841 39.2183C145.842 38.9439 145.779 38.3941 145.681 37.7587C145.533 36.8022 145.311 35.627 145.126 34.6938C144.94 33.7606 144.793 33.0712 144.792 33.0695L144.786 33.0404L144.784 33.0104L145.199 32.9822Z" fill="#232D34"/>
<path d="M151.747 39.2692C151.747 40.209 151.278 40.9717 150.699 40.9717C150.12 40.9717 149.651 40.209 149.651 39.2692C149.651 38.3285 150.12 37.5666 150.699 37.5666C151.278 37.5666 151.747 38.3285 151.747 39.2692Z" fill="#232D34"/>
<path d="M163.666 40.5791C163.666 41.5189 163.196 42.2808 162.618 42.2808C162.039 42.2808 161.57 41.5189 161.57 40.5791C161.57 39.6384 162.039 38.8757 162.618 38.8757C163.196 38.8757 163.666 39.6384 163.666 40.5791Z" fill="#232D34"/>
<path d="M152.529 36.7644L154.025 40.7083L153.971 40.8547C153.97 40.8556 153.801 41.313 153.545 42.0291C153.161 43.1045 152.585 44.7613 152.107 46.3116C151.868 47.0859 151.653 47.8353 151.5 48.4666C151.346 49.0953 151.257 49.621 151.259 49.8871C151.258 49.967 151.268 50.0202 151.271 50.0235L151.144 50.061L151.252 49.9878L151.271 50.0235L151.144 50.061L151.252 49.9878L151.025 50.1425L151.148 49.8988L151.252 49.9878L151.025 50.1425L151.148 49.8988C151.653 50.1558 153.025 50.6357 154.297 50.6307C154.781 50.6307 155.251 50.5633 155.658 50.407C156.437 50.1075 157.048 49.621 157.461 49.2076C157.667 49.0005 157.825 48.8134 157.928 48.6795L158.043 48.5248L158.07 48.4849L158.076 48.4766L158.778 48.9223C158.751 48.9556 157.803 50.4652 155.957 51.1829C155.425 51.3875 154.856 51.4616 154.297 51.4624C152.824 51.4574 151.407 50.955 150.775 50.6432C150.585 50.5442 150.509 50.3803 150.473 50.2606C150.437 50.1342 150.428 50.0161 150.427 49.8871C150.432 49.3424 150.611 48.5448 150.87 47.5816C151.648 44.7147 153.189 40.5711 153.191 40.5653L153.58 40.71L153.192 40.8572L151.752 37.0596L152.529 36.7644Z" fill="#232D34"/>
<path d="M151.943 54.4441C151.943 54.4441 152.083 54.4665 152.338 54.5006C153.103 54.6038 154.884 54.8109 156.786 54.8109C158.233 54.8117 159.753 54.6878 160.923 54.3268C162.557 53.822 163.314 53.125 163.682 52.5902C163.865 52.3215 163.953 52.0887 163.995 51.9282C164.017 51.8483 164.027 51.7867 164.031 51.7485L164.034 51.7102L164.057 51.7119H164.035L164.034 51.7102L164.057 51.7119H164.035H164.866C164.867 51.7701 164.853 52.3515 164.368 53.0593C163.885 53.7687 162.939 54.5788 161.167 55.1211C159.861 55.522 158.28 55.6409 156.786 55.6426C154.172 55.6417 151.825 55.2675 151.812 55.2658L151.943 54.4441Z" fill="#232D34"/>
<path d="M163.137 50.7921L166.412 51.8392L166.158 52.6318L162.884 51.5839" fill="#232D34"/>
<path d="M157.379 4.692C157.379 4.692 153.973 4.29942 149.389 10.7169C144.806 17.1344 143.626 23.4213 143.365 25.9098C143.103 28.3983 143.496 30.6248 143.496 30.6248L141.531 33.7679C141.531 33.7679 156.855 36.2563 159.998 36.2563C163.141 36.2563 171.654 34.0299 177.548 33.6373C183.442 33.2439 186.716 32.3273 186.978 31.4108C187.24 30.4934 185.275 29.5768 185.275 29.5768C185.275 29.5768 186.233 18.8594 181.87 12.2889C178.306 6.92098 171.392 3.77545 167.856 3.38205C164.32 2.98948 159.081 0.500988 157.379 4.692Z" fill="url(#paint2_linear_298_514)"/>
<path d="M157.379 4.69264L157.332 5.10598L157.348 4.96461L157.335 5.10683L157.332 5.10598L157.348 4.96461L157.335 5.10683L157.26 5.1035C156.765 5.11099 153.767 5.31806 149.728 10.9596C145.199 17.2972 144.034 23.5176 143.779 25.9537C143.715 26.5584 143.691 27.1506 143.691 27.697C143.691 28.5162 143.745 29.2348 143.799 29.7455C143.826 30.0017 143.853 30.2054 143.873 30.3435C143.893 30.4832 143.906 30.5531 143.905 30.5531L143.934 30.7103L141.884 33.9889L141.532 33.7685L141.598 33.3585C141.601 33.3585 142.555 33.5132 144.039 33.7461C146.267 34.0962 149.682 34.621 152.831 35.0577C155.974 35.4952 158.881 35.8428 159.998 35.8411C161.487 35.8445 164.414 35.2922 167.667 34.6859C170.927 34.0804 174.537 33.4225 177.521 33.2229C180.451 33.0275 182.725 32.7014 184.276 32.3172C185.05 32.1259 185.644 31.9188 186.036 31.7192C186.23 31.621 186.374 31.5246 186.462 31.4447C186.551 31.3649 186.576 31.3083 186.579 31.2967L186.587 31.2393C186.59 31.1702 186.542 31.0388 186.413 30.8833C186.223 30.6513 185.888 30.4042 185.604 30.2321C185.463 30.1447 185.335 30.074 185.242 30.0258L185.135 29.9709L185.1 29.9543L184.836 29.8312L184.861 29.5401C184.861 29.5401 184.867 29.4827 184.876 29.3679C184.9 29.0211 184.95 28.1744 184.95 27.0058C184.955 23.4594 184.474 16.9454 181.525 12.519C179.791 9.90746 177.22 7.81238 174.646 6.33109C172.075 4.84815 169.493 3.98069 167.811 3.79689C165.767 3.56318 163.277 2.70232 161.258 2.70815C160.461 2.70815 159.753 2.83957 159.171 3.16145C158.591 3.48581 158.114 3.99564 157.764 4.84981L157.645 5.14257L157.332 5.10598L157.379 4.69264L156.994 4.53625C157.397 3.53736 158.018 2.84706 158.769 2.4337C159.518 2.0195 160.373 1.87643 161.258 1.87643C163.486 1.88308 166.001 2.76471 167.903 2.96931C169.757 3.17807 172.399 4.08048 175.061 5.61C177.719 7.14202 180.386 9.30365 182.217 12.0591C185.331 16.7658 185.775 23.3871 185.781 27.0058C185.781 28.5952 185.691 29.6049 185.691 29.6141L185.276 29.5775L185.452 29.2007C185.465 29.2074 185.913 29.4153 186.381 29.7488C186.616 29.9168 186.856 30.1156 187.054 30.3535C187.248 30.5905 187.416 30.88 187.419 31.2393C187.419 31.3341 187.406 31.4306 187.378 31.5254C187.315 31.7425 187.181 31.9155 187.018 32.0627C186.729 32.3197 186.33 32.5259 185.802 32.7247C184.225 33.3119 181.469 33.791 177.576 34.0521C174.666 34.2459 171.074 34.898 167.818 35.5035C164.555 36.1081 161.653 36.6695 159.998 36.6729C159.166 36.672 157.623 36.5148 155.736 36.2811C150.087 35.5792 141.468 34.1794 141.465 34.1794L140.847 34.0787L143.143 30.4051L143.496 30.6255L143.087 30.697C143.084 30.682 142.86 29.4095 142.859 27.697C142.859 27.1256 142.884 26.506 142.951 25.8664C143.22 23.3255 144.413 16.9729 149.051 10.4755C153.181 4.68181 156.479 4.26597 157.26 4.27179C157.355 4.27179 157.412 4.27843 157.427 4.27926L157.379 4.69264Z" fill="#232D34"/>
<path d="M157.79 4.7568L156.48 13.1396L155.659 13.0107L156.969 4.62871" fill="#232D34"/>
<path d="M154.51 7.23207L154.497 7.24373C154.171 7.54564 148.078 13.2645 147.447 26.7158L146.616 26.6767C147.275 12.5334 153.901 6.65488 153.96 6.60747L154.51 7.23207Z" fill="#232D34"/>
<path d="M159.596 24.5741C159.362 25.8059 159.206 26.8863 159.109 27.6814C159.06 28.0789 159.026 28.405 159.004 28.6428C158.982 28.8766 158.972 29.0404 158.973 29.0537H158.142C158.142 28.9655 158.153 28.8192 158.176 28.5672C158.244 27.8261 158.423 26.2982 158.779 24.4194L159.596 24.5741Z" fill="#232D34"/>
<path d="M176.653 7.59591L176.575 7.60176C176.17 7.63004 174.245 7.79803 171.89 8.50166C169.534 9.20363 166.752 10.4429 164.615 12.5829C162.548 14.6405 161.158 18.1795 160.299 21.4531L159.495 21.241C160.381 17.9017 161.771 14.2588 164.026 11.9949C166.461 9.56293 169.604 8.26628 172.134 7.56598C174.664 6.86734 176.59 6.7667 176.611 6.76586L176.653 7.59591Z" fill="#232D34"/>
<path d="M185.276 29.9931C185.276 29.9931 185.196 29.9931 185.041 29.9965C183.955 30.0181 179.298 30.2269 175.616 31.7938C171.285 33.6311 167.743 34.9427 167.739 34.9443L167.451 34.1642C167.451 34.1642 167.67 34.0827 168.068 33.9321C169.261 33.4789 172.057 32.4001 175.291 31.0278C179.726 29.1523 185.25 29.1656 185.276 29.1614V29.9931Z" fill="#232D34"/>
<path d="M157.902 33.3762C157.902 33.3762 157.64 34.1621 158.688 34.4233C159.736 34.6853 160.783 34.0307 162.748 34.9473C164.712 35.8638 165.236 37.0432 165.63 36.5192C166.022 35.9952 165.106 33.8993 162.617 33.1142C160.129 32.3282 158.033 32.0662 157.902 33.3762Z" fill="#232D34"/>
<path d="M157.903 33.3756L158.297 33.5062L158.163 33.4621L158.299 33.4987L158.297 33.5062L158.163 33.4621L158.299 33.4987L158.289 33.5885L158.352 33.7856C158.403 33.8513 158.506 33.947 158.789 34.0194C158.949 34.0593 159.116 34.0742 159.304 34.0742C159.643 34.0751 160.049 34.0218 160.542 34.021C161.187 34.0194 161.973 34.1241 162.925 34.5699C163.78 34.9683 164.38 35.4191 164.803 35.7576C165.013 35.9265 165.18 36.067 165.298 36.1502L165.426 36.2292L165.44 36.235L165.411 36.3457V36.2317L165.44 36.235L165.411 36.3457V36.2317V36.4197L165.317 36.2575L165.411 36.2317V36.4197L165.317 36.2575L165.377 36.3623L165.294 36.2733L165.317 36.2575L165.377 36.3623L165.294 36.2733L165.306 36.2858L165.292 36.275L165.294 36.2733L165.306 36.2858L165.292 36.275L165.297 36.2691L165.342 36.3024L165.291 36.2791L165.297 36.2691L165.342 36.3024L165.291 36.2791L165.302 36.1926C165.311 35.9606 165.113 35.4058 164.649 34.881C164.187 34.3495 163.478 33.8214 162.492 33.5095C161.269 33.1219 160.145 32.8724 159.376 32.8741C158.992 32.8724 158.707 32.9389 158.553 33.0313C158.403 33.1277 158.347 33.2009 158.316 33.4164L158.312 33.4629L158.297 33.5062L157.903 33.3756L157.488 33.334C157.524 32.8949 157.779 32.509 158.136 32.3118C158.49 32.1089 158.909 32.044 159.376 32.0424C160.31 32.0449 161.477 32.3185 162.742 32.7169C163.879 33.0753 164.719 33.6925 165.277 34.3354C165.832 34.9858 166.124 35.6354 166.133 36.1926C166.132 36.3872 166.095 36.5877 165.963 36.7682C165.905 36.8447 165.832 36.9195 165.735 36.9761C165.639 37.0335 165.519 37.0651 165.411 37.0634C165.141 37.0551 164.981 36.9387 164.817 36.8281C164.573 36.6534 164.312 36.4188 163.954 36.1527C163.598 35.8882 163.153 35.5946 162.573 35.3235C161.729 34.9317 161.101 34.8544 160.542 34.8527C160.114 34.8519 159.722 34.9051 159.304 34.906C159.074 34.906 158.834 34.8877 158.587 34.8269C158.171 34.7246 157.869 34.5292 157.686 34.2847C157.503 34.0401 157.457 33.7765 157.458 33.5885C157.459 33.3989 157.499 33.2725 157.508 33.2434L157.903 33.3756Z" fill="#232D34"/>
<path d="M151.616 34.0306C151.616 34.0306 149.521 31.8041 147.687 31.9347C145.853 32.0661 145.33 34.5546 145.984 34.8166C146.639 35.0785 147.032 33.5066 148.211 33.8992C149.39 34.2926 152.14 35.7331 151.616 34.0306Z" fill="#232D34"/>
<path d="M151.616 34.0304L151.313 34.3157L151.295 34.2966C151.195 34.1926 150.693 33.6886 150.026 33.222C149.364 32.7513 148.532 32.3379 147.845 32.3454L147.717 32.3495C147.19 32.3895 146.814 32.6598 146.537 33.0349C146.264 33.4067 146.126 33.8857 146.13 34.1951C146.129 34.3107 146.149 34.3981 146.166 34.4347L146.175 34.453L146.176 34.4546L146.106 34.512L146.139 34.4305L146.176 34.4546L146.106 34.512L146.139 34.4305H146.14L146.132 34.4671V34.4305H146.14L146.132 34.4671V34.4305V34.4496L146.128 34.4305H146.132V34.4496L146.128 34.4305C146.131 34.4322 146.198 34.4014 146.29 34.319C146.429 34.1984 146.612 33.9897 146.855 33.7967C147.095 33.6046 147.428 33.4191 147.842 33.42C148.004 33.42 148.172 33.4482 148.342 33.5048C148.753 33.642 149.292 33.8774 149.826 34.077C150.352 34.2783 150.887 34.4322 151.154 34.4272L151.27 34.4155L151.289 34.4097L151.325 34.4687L151.264 34.438L151.289 34.4097L151.325 34.4687L151.264 34.438L151.266 34.4397L151.262 34.4388L151.264 34.438L151.266 34.4397L151.262 34.4388L151.266 34.4006C151.266 34.3548 151.255 34.27 151.218 34.1527L151.616 34.0304L152.013 33.9082C152.067 34.082 152.097 34.2417 152.097 34.4006C152.104 34.6451 151.999 34.9195 151.79 35.0726C151.586 35.2256 151.363 35.2572 151.154 35.2589C150.653 35.2531 150.097 35.0626 149.534 34.8555C148.978 34.6467 148.429 34.4097 148.079 34.2941C147.985 34.2625 147.909 34.2517 147.842 34.2517C147.723 34.2525 147.625 34.2849 147.511 34.3515C147.341 34.4496 147.161 34.6359 146.966 34.8264C146.867 34.9204 146.762 35.0177 146.631 35.1025C146.503 35.1857 146.334 35.2614 146.132 35.2622C146.031 35.2622 145.926 35.2414 145.83 35.2023C145.61 35.1142 145.47 34.9312 145.399 34.7565C145.325 34.5777 145.299 34.3914 145.298 34.1951C145.301 33.6778 145.484 33.0756 145.864 32.5467C146.241 32.0219 146.852 31.5761 147.657 31.5203L147.845 31.5137C148.905 31.5212 149.895 32.0992 150.649 32.644C151.4 33.1937 151.908 33.7343 151.919 33.7452L151.985 33.8159L152.013 33.9082L151.616 34.0304Z" fill="#232D34"/>
<path d="M201.879 124.106L193.574 107.176L194.32 106.81L202.626 123.739" fill="#232D34"/>
<path d="M188.1 109.877C188.1 109.877 188.188 109.975 188.353 110.154C188.934 110.779 190.454 112.375 192.29 113.988C194.123 115.601 196.289 117.231 198.09 117.92L197.792 118.696C195.526 117.82 192.979 115.759 190.962 113.914C188.95 112.068 187.486 110.438 187.48 110.432L188.1 109.877Z" fill="#232D34"/>
<path d="M186.17 114.789L190.664 117.451L190.24 118.167L185.747 115.504" fill="#232D34"/>
<path d="M191.516 96.4615L191.497 96.5289C191.406 96.8566 191.028 98.332 191.029 99.9905C191.027 101.362 191.29 102.839 192.115 103.911L191.453 104.416C190.463 103.115 190.199 101.458 190.197 99.9905C190.199 97.9553 190.714 96.2453 190.72 96.2228L191.516 96.4615Z" fill="#232D34"/>
<path d="M106.419 122.009C106.435 122.011 109.917 122.314 114.021 123.481C118.123 124.654 122.867 126.665 125.391 130.217L124.712 130.697C122.41 127.425 117.82 125.42 113.794 124.281C111.782 123.709 109.917 123.347 108.555 123.13C107.875 123.021 107.321 122.947 106.937 122.902C106.555 122.856 106.347 122.838 106.347 122.838L106.419 122.009Z" fill="#232D34"/>
<path d="M112.151 121.663C112.161 121.666 113.674 122.018 115.654 122.708C117.634 123.399 120.078 124.421 121.968 125.793L121.478 126.466C119.707 125.176 117.318 124.167 115.38 123.494C114.411 123.156 113.554 122.9 112.941 122.729C112.634 122.644 112.388 122.58 112.22 122.537C112.051 122.494 111.963 122.474 111.963 122.473L112.151 121.663Z" fill="#232D34"/>
<path d="M100.089 133.453C100.089 133.453 106.913 146.932 108.244 147.099C109.575 147.265 127.049 139.278 127.049 139.278L126.217 131.955C126.217 131.955 115.899 127.961 110.074 128.46C104.25 128.959 100.089 133.453 100.089 133.453Z" fill="#9C9C9C"/>
<path d="M100.09 133.453L100.461 133.265C100.462 133.267 100.886 134.105 101.546 135.369C102.535 137.265 104.05 140.115 105.438 142.499C106.132 143.69 106.795 144.765 107.338 145.538C107.608 145.924 107.85 146.235 108.04 146.44C108.134 146.541 108.216 146.616 108.27 146.656L108.325 146.692L108.322 146.697L108.324 146.692H108.325L108.322 146.697L108.324 146.692L108.277 146.835L108.296 146.685L108.324 146.692L108.277 146.835L108.296 146.685L108.284 146.784L108.289 146.685H108.296L108.284 146.784L108.289 146.685H108.29C108.316 146.687 108.468 146.665 108.665 146.611C109.427 146.41 110.978 145.82 112.835 145.057C115.624 143.912 119.137 142.371 121.95 141.118C123.356 140.492 124.588 139.937 125.468 139.538C126.349 139.14 126.875 138.9 126.876 138.899L127.049 139.277L126.636 139.324L125.804 132.001L126.217 131.955L126.067 132.342C126.067 132.342 125.928 132.288 125.668 132.193C124.761 131.857 122.401 131.014 119.63 130.257C116.86 129.499 113.672 128.831 111.146 128.833C110.786 128.833 110.44 128.846 110.11 128.874C107.296 129.115 104.86 130.327 103.13 131.489C102.265 132.069 101.577 132.634 101.108 133.053C100.873 133.262 100.694 133.435 100.573 133.554L100.437 133.691L100.395 133.735L100.09 133.453L99.7853 133.17C99.8185 133.145 104.017 128.575 110.039 128.046C110.395 128.015 110.766 128.001 111.146 128.001C114.191 128.003 117.977 128.898 121.022 129.787C124.066 130.677 126.36 131.564 126.367 131.566L126.601 131.658L127.496 139.529L127.222 139.655C127.221 139.656 122.941 141.612 118.452 143.57C116.208 144.549 113.912 145.528 112.069 146.265C111.147 146.633 110.34 146.941 109.703 147.158C109.385 147.267 109.109 147.354 108.879 147.415C108.646 147.476 108.471 147.515 108.29 147.517L108.193 147.511C107.951 147.472 107.814 147.359 107.659 147.23C107.38 146.983 107.079 146.607 106.728 146.116C105.51 144.403 103.768 141.298 102.318 138.604C100.869 135.912 99.7196 133.642 99.7187 133.64L99.5882 133.382L99.7853 133.17L100.09 133.453Z" fill="#232D34"/>
<path d="M127.881 162.574C127.881 162.574 140.694 172.726 164.825 173.059C182.137 173.297 198.107 169.231 198.107 169.231C198.107 169.231 199.605 169.065 199.772 170.396C199.938 171.727 202.767 177.718 202.933 179.05C203.099 180.381 204.431 184.874 204.431 184.874C204.431 184.874 209.923 204.677 209.424 206.009C208.924 207.34 177.472 212.665 176.64 212.332C175.808 212 175.142 210.169 175.142 210.169H171.98L169.65 198.853C169.65 198.853 161.496 198.853 153.508 197.355C145.521 195.858 142.192 194.859 142.192 194.859L139.53 206.009L136.035 207.673L134.537 211.167C134.537 211.167 122.555 208.505 116.565 205.343C110.574 202.181 109.575 200.351 109.575 200.351L113.569 177.219C113.569 177.219 114.9 175.887 115.399 175.721C115.899 175.555 116.232 173.059 116.232 173.059L124.552 169.564L127.881 162.574Z" fill="white"/>
<path d="M127.882 162.574L128.14 162.249L128.173 162.274C128.9 162.832 141.569 172.321 164.831 172.642C165.323 172.649 165.814 172.652 166.304 172.652C174.638 172.652 182.569 171.696 188.413 170.74C191.336 170.26 193.736 169.782 195.404 169.424C196.239 169.244 196.89 169.095 197.332 168.991C197.775 168.886 198.005 168.828 198.005 168.827L198.033 168.821L198.063 168.817C198.074 168.816 198.149 168.808 198.265 168.808C198.497 168.81 198.898 168.835 199.304 169.04C199.712 169.238 200.111 169.682 200.185 170.344C200.212 170.587 200.414 171.22 200.702 171.975C201.134 173.118 201.758 174.599 202.29 175.922C202.556 176.583 202.8 177.205 202.986 177.731C203.173 178.261 203.304 178.677 203.346 178.998C203.42 179.603 203.795 181.072 204.147 182.35C204.498 183.636 204.83 184.753 204.83 184.756L204.832 184.759L204.833 184.762C204.833 184.764 206.089 189.295 207.347 194.171C207.976 196.61 208.605 199.135 209.077 201.226C209.313 202.271 209.51 203.209 209.65 203.976C209.788 204.746 209.871 205.333 209.872 205.733C209.87 205.883 209.867 206.003 209.814 206.154C209.733 206.344 209.628 206.411 209.528 206.485C209.331 206.615 209.079 206.721 208.738 206.843C207.475 207.292 205.026 207.874 201.988 208.51C197.436 209.463 191.59 210.525 186.662 211.348C184.198 211.76 181.964 212.113 180.234 212.363C179.369 212.487 178.63 212.587 178.051 212.655C177.468 212.724 177.056 212.762 176.798 212.763L176.66 212.757C176.613 212.751 176.569 212.749 176.487 212.719L176.472 212.712L176.486 212.718C176.174 212.591 175.94 212.365 175.734 212.117C175.131 211.375 174.763 210.331 174.752 210.311L175.143 210.169V210.584H171.642L169.244 198.936L169.651 198.852V199.268C169.637 199.267 161.469 199.269 153.433 197.764C145.433 196.263 142.09 195.262 142.073 195.257L142.193 194.858L142.597 194.955L139.888 206.298L136.356 207.98L134.784 211.647L134.448 211.573C134.443 211.572 131.441 210.905 127.685 209.841C123.927 208.775 119.422 207.319 116.371 205.711C110.341 202.526 109.275 200.66 109.211 200.549L109.142 200.422L113.183 177.018L113.276 176.924C113.279 176.922 113.615 176.585 114.02 176.222C114.223 176.041 114.443 175.853 114.652 175.694C114.866 175.535 115.048 175.405 115.269 175.326L115.318 175.474L115.211 175.357L115.269 175.326L115.318 175.474L115.211 175.357L115.232 175.33C115.287 175.255 115.376 175.049 115.448 174.807C115.562 174.442 115.656 173.986 115.72 173.626C115.753 173.445 115.778 173.289 115.795 173.177C115.812 173.067 115.82 173.003 115.82 173.003L115.852 172.767L124.245 169.242L127.73 161.924L128.14 162.249L127.882 162.574L128.257 162.753L124.86 169.885L116.393 173.442L116.233 173.058L116.644 173.113C116.644 173.12 116.56 173.752 116.409 174.419C116.333 174.753 116.243 175.095 116.128 175.387C116.07 175.534 116.007 175.667 115.924 175.791C115.839 175.911 115.738 176.041 115.532 176.116C115.503 176.121 115.331 176.219 115.156 176.356C114.884 176.562 114.555 176.855 114.301 177.093C114.173 177.212 114.064 177.318 113.986 177.392C113.908 177.468 113.864 177.512 113.864 177.513L113.57 177.219L113.98 177.289L109.986 200.421L109.576 200.35L109.941 200.151L109.771 200.244L109.938 200.146L109.941 200.151L109.771 200.244L109.938 200.146C109.94 200.154 110.994 201.934 116.759 204.975C119.699 206.528 124.181 207.984 127.912 209.041C129.778 209.569 131.458 210 132.672 210.297C133.278 210.446 133.768 210.563 134.105 210.641C134.444 210.72 134.628 210.761 134.629 210.761L134.538 211.167L134.156 211.003L135.716 207.364L139.172 205.718L141.891 194.334L142.313 194.46C142.313 194.46 142.36 194.474 142.465 194.504C143.198 194.712 146.607 195.638 153.586 196.946C157.555 197.69 161.576 198.064 164.601 198.25C166.114 198.343 167.378 198.39 168.263 198.413C169.148 198.436 169.65 198.436 169.651 198.436H169.991L172.32 209.753H175.434L175.534 210.026L175.561 210.096C175.625 210.262 175.804 210.694 176.045 211.103C176.164 211.307 176.3 211.505 176.435 211.657C176.569 211.81 176.704 211.911 176.795 211.946V211.945L176.689 212.21L176.743 211.93L176.795 211.945L176.689 212.21L176.743 211.93L176.727 212.016L176.737 211.929L176.743 211.93L176.727 212.016L176.737 211.929L176.798 211.931C177.062 211.933 177.812 211.855 178.856 211.716C182.529 211.226 190.052 209.978 196.698 208.714C200.02 208.082 203.126 207.446 205.419 206.898C206.564 206.625 207.508 206.373 208.165 206.16C208.493 206.053 208.75 205.955 208.913 205.877C208.995 205.839 209.051 205.805 209.074 205.787L209.085 205.779L209.148 205.85L209.074 205.792L209.085 205.779L209.148 205.85L209.074 205.792L209.279 205.953L209.035 205.862L209.074 205.792L209.279 205.953L209.035 205.862L209.094 205.884L209.032 205.871L209.035 205.862L209.094 205.884L209.032 205.871C209.035 205.862 209.041 205.809 209.04 205.733C209.042 205.448 208.967 204.87 208.832 204.124C208.356 201.5 207.154 196.704 206.074 192.578C205.533 190.514 205.022 188.616 204.646 187.233C204.271 185.85 204.032 184.987 204.031 184.985L204.432 184.874L204.033 184.992C204.033 184.99 203.699 183.865 203.344 182.571C202.989 181.27 202.614 179.827 202.521 179.101C202.495 178.858 202.293 178.224 202.004 177.47C201.572 176.327 200.949 174.845 200.416 173.523C200.15 172.861 199.906 172.239 199.719 171.713C199.533 171.184 199.402 170.768 199.359 170.448C199.3 170.043 199.14 169.902 198.925 169.781C198.709 169.667 198.422 169.638 198.265 169.64L198.176 169.642L198.155 169.644H198.154L198.108 169.231L198.211 169.633C198.191 169.638 183.098 173.483 166.304 173.484C165.81 173.484 165.315 173.481 164.82 173.474C140.571 173.139 127.67 162.937 127.623 162.9L127.882 162.574Z" fill="#232D34"/>
<path d="M144.957 180.489L145.01 180.507C145.609 180.703 151.335 182.425 168.413 183.202L168.375 184.033C150.108 183.2 144.739 181.293 144.677 181.272L144.957 180.489Z" fill="#232D34"/>
<path d="M164.658 183.629L165.074 183.647L164.915 187.395L165.925 187.443V184.181L164.615 184.043L164.658 183.629L164.702 183.216L166.757 183.432V188.316L164.049 188.187L164.262 183.169L164.702 183.216L164.658 183.629Z" fill="#232D34"/>
<path d="M146.264 171.291L142.603 194.923L141.781 194.795L145.443 171.164" fill="#232D34"/>
<path d="M168.568 174.531L170.066 198.827L169.236 198.879L167.738 174.582" fill="#232D34"/>
<path d="M127.885 170.993L123.589 169.439L128.45 155.26C128.927 153.941 130.383 153.26 131.701 153.737C133.02 154.214 133.702 155.67 133.224 156.988L127.885 170.993Z" fill="white"/>
<path d="M127.885 170.993L127.744 171.385L123.063 169.69L128.058 155.121L128.059 155.118C128.495 153.916 129.628 153.168 130.837 153.168C131.171 153.168 131.511 153.226 131.842 153.345C133.044 153.781 133.793 154.915 133.792 156.124C133.793 156.458 133.735 156.798 133.615 157.129L133.614 157.132L128.129 171.523L127.744 171.385L127.885 170.993L127.496 170.845L132.835 156.84L133.224 156.988L132.833 156.846C132.92 156.607 132.96 156.364 132.96 156.124C132.96 155.256 132.424 154.44 131.559 154.127C131.32 154.041 131.076 154 130.837 154C129.969 154.001 129.153 154.537 128.841 155.401L128.45 155.26L128.843 155.395L124.115 169.186L128.027 170.602L127.885 170.993Z" fill="#232D34"/>
<path d="M127.737 174.074L122.039 172.012L123.321 168.47L129.019 170.532L127.737 174.074Z" fill="white"/>
<path d="M127.737 174.074L127.595 174.466L121.506 172.262L123.071 167.938L129.552 170.283L127.986 174.607L127.595 174.466L127.737 174.074L127.346 173.933L128.486 170.782L123.57 169.003L122.571 171.763L127.878 173.683L127.737 174.074Z" fill="#232D34"/>
<path d="M124.171 176.509L122.939 176.063L124.195 172.793L125.427 173.238L124.171 176.509Z" fill="white"/>
<path d="M124.17 176.509L124.029 176.9L122.398 176.309L123.952 172.263L125.967 172.992L124.412 177.039L124.029 176.9L124.17 176.509L123.783 176.36L124.886 173.485L124.436 173.322L123.479 175.816L124.313 176.118L124.17 176.509Z" fill="#232D34"/>
<path d="M128.35 178.594L133.35 161.885C133.629 160.952 134.631 160.442 135.548 160.767L142.197 163.113C143.054 163.416 143.522 164.336 143.261 165.207L138.215 182.075L128.35 178.594Z" fill="#232D34"/>
<path d="M128.35 178.594L127.952 178.475L132.951 161.765C133.228 160.844 134.071 160.253 134.981 160.253C135.215 160.253 135.454 160.292 135.686 160.374L142.334 162.722C143.201 163.028 143.749 163.842 143.748 164.718C143.748 164.921 143.72 165.125 143.659 165.326L138.487 182.613L127.838 178.854L127.952 178.475L128.35 178.594L128.488 178.202L137.94 181.538L142.863 165.088C142.899 164.965 142.917 164.841 142.917 164.718C142.917 164.187 142.585 163.69 142.058 163.506L135.41 161.159C135.266 161.109 135.123 161.085 134.981 161.085C134.43 161.086 133.915 161.443 133.748 162.004L128.748 178.714L128.35 178.594Z" fill="#232D34"/>
<path d="M116.397 172.677L140.861 183.328L140.694 183.709L140.339 183.493C140.339 183.493 140.388 183.412 140.48 183.254C141.125 182.154 143.787 177.414 144.783 173.13L145.593 173.32C144.401 178.408 141.059 183.905 141.05 183.924L140.861 184.235L116.066 173.44L116.397 172.677Z" fill="#232D34"/>
<path d="M170.713 174.933L174.104 185.913L202.517 182.015V179.05H203.349V182.741L173.518 186.833L169.919 175.179L170.713 174.933Z" fill="#232D34"/>
<path d="M125.018 167.727C125.018 167.727 121.053 170.648 120.474 173.568C119.895 176.489 120.079 177.685 120.079 177.685L122.285 178.501L126.039 168.355L125.018 167.727Z" fill="white"/>
<path d="M125.017 167.726L125.264 168.061C125.264 168.062 125.208 168.102 125.102 168.185C124.73 168.475 123.78 169.252 122.87 170.258C121.959 171.261 121.103 172.503 120.881 173.649C120.532 175.411 120.467 176.525 120.467 177.111C120.467 177.298 120.473 177.431 120.479 177.515L120.488 177.604L120.489 177.621L120.078 177.684L120.223 177.294L122.039 177.966L125.53 168.531L124.799 168.081L125.017 167.726L125.235 167.372L126.547 168.18L122.53 179.035L119.705 177.99L119.668 177.748C119.664 177.725 119.635 177.523 119.635 177.111C119.635 176.463 119.707 175.295 120.066 173.487C120.393 171.877 121.579 170.388 122.664 169.263C123.753 168.141 124.759 167.4 124.771 167.391L124.996 167.225L125.235 167.372L125.017 167.726Z" fill="#232D34"/>
<path d="M127.223 168.543C127.223 168.543 128.332 173.341 126.871 175.935C125.409 178.529 124.49 179.317 124.49 179.317L122.284 178.501L126.039 168.355L127.223 168.543Z" fill="white"/>
<path d="M127.223 168.542L127.628 168.449C127.631 168.467 128.04 170.23 128.041 172.238C128.039 173.562 127.87 174.999 127.232 176.139C125.752 178.766 124.805 179.594 124.761 179.632L124.575 179.792L121.75 178.747L125.766 167.891L127.564 168.175L127.628 168.449L127.223 168.542L127.158 168.953L126.31 168.819L122.819 178.255L124.634 178.927L124.49 179.317L124.218 179.001L124.312 179.109L124.218 179.003L124.218 179.001L124.312 179.109L124.218 179.003C124.231 178.991 125.11 178.211 126.507 175.731C127.031 174.809 127.212 173.488 127.209 172.238C127.209 171.29 127.111 170.384 127.012 169.719C126.963 169.386 126.914 169.113 126.877 168.925C126.841 168.736 126.818 168.636 126.818 168.636L127.223 168.542Z" fill="#232D34"/>
<path d="M125.477 174.277C125.137 175.197 124.229 175.71 123.45 175.422C122.67 175.133 122.314 174.153 122.654 173.233C122.995 172.312 123.904 171.799 124.683 172.088C125.462 172.377 125.818 173.356 125.477 174.277Z" fill="white"/>
<path d="M125.477 174.277L125.867 174.421C125.537 175.309 124.759 175.912 123.9 175.917C123.701 175.917 123.5 175.883 123.305 175.812C122.922 175.67 122.617 175.4 122.416 175.07C122.214 174.739 122.11 174.349 122.11 173.943C122.11 173.661 122.16 173.372 122.264 173.088C122.595 172.201 123.373 171.598 124.232 171.592C124.431 171.592 124.633 171.626 124.827 171.698C125.21 171.84 125.516 172.11 125.717 172.44C125.919 172.77 126.022 173.161 126.023 173.567C126.023 173.848 125.972 174.138 125.867 174.421L125.477 174.277L125.087 174.133C125.158 173.941 125.191 173.749 125.191 173.567C125.191 173.303 125.122 173.061 125.007 172.874C124.891 172.685 124.735 172.551 124.538 172.478C124.439 172.441 124.336 172.423 124.232 172.423C123.788 172.418 123.267 172.772 123.045 173.377C122.974 173.568 122.941 173.76 122.941 173.943C122.941 174.206 123.01 174.448 123.125 174.636C123.242 174.825 123.398 174.959 123.594 175.032C123.694 175.068 123.796 175.086 123.9 175.086C124.344 175.092 124.865 174.738 125.087 174.133L125.477 174.277Z" fill="#232D34"/>
<path d="M120.079 177.685L116.336 184.074L118.32 184.809L121.223 181.369L120.857 185.747L123.173 186.604L124.49 179.318L120.079 177.685Z" fill="#232D34"/>
<path d="M120.079 177.684L120.439 177.895L116.946 183.856L118.192 184.316L121.747 180.104L121.299 185.466L122.853 186.041L124.02 179.586L119.936 178.074L120.079 177.684L120.224 177.294L124.962 179.048L123.495 187.165L120.417 186.026L120.702 182.633L118.451 185.299L115.727 184.291L119.897 177.174L120.224 177.294L120.079 177.684Z" fill="#232D34"/>
<path d="M132.409 175.467C132.409 175.467 129.693 177.468 129.297 179.468C128.9 181.469 129.026 182.289 129.026 182.289L130.538 182.848L133.108 175.898L132.409 175.467Z" fill="white"/>
<path d="M132.409 175.467L132.656 175.802L132.548 175.884C132.297 176.08 131.65 176.609 131.036 177.289C130.418 177.967 129.847 178.805 129.705 179.549C129.467 180.749 129.423 181.503 129.423 181.895C129.423 182.02 129.428 182.108 129.431 182.162L129.436 182.218L129.438 182.228L129.316 182.244L129.437 182.225L129.438 182.228L129.316 182.244L129.437 182.225L129.026 182.288L129.171 181.898L130.291 182.313L132.6 176.073L132.191 175.821L132.409 175.467L132.627 175.112L133.617 175.722L130.783 183.381L128.653 182.594L128.615 182.352C128.612 182.329 128.591 182.184 128.591 181.895C128.591 181.442 128.642 180.633 128.889 179.387C129.124 178.238 129.953 177.208 130.704 176.427C131.457 175.651 132.151 175.141 132.163 175.132L132.388 174.966L132.627 175.112L132.409 175.467Z" fill="#232D34"/>
<path d="M133.92 176.026C133.92 176.026 134.68 179.313 133.678 181.089C132.678 182.866 132.048 183.406 132.048 183.406L130.538 182.847L133.109 175.898L133.92 176.026Z" fill="white"/>
<path d="M133.921 176.025L134.326 175.932C134.329 175.95 134.611 177.164 134.613 178.557C134.609 179.476 134.496 180.478 134.041 181.293C133.021 183.103 132.364 183.684 132.32 183.721L132.134 183.881L130.003 183.092L132.838 175.433L134.262 175.659L134.326 175.932L133.921 176.025L133.856 176.436L133.381 176.361L131.072 182.601L132.193 183.016L132.048 183.406L131.777 183.091C131.81 183.062 132.396 182.519 133.317 180.885C133.657 180.288 133.783 179.401 133.781 178.557C133.781 177.917 133.714 177.302 133.647 176.85C133.614 176.625 133.58 176.44 133.555 176.312C133.53 176.185 133.516 176.119 133.516 176.119L133.921 176.025Z" fill="#232D34"/>
<path d="M132.724 179.954C132.491 180.584 131.869 180.935 131.335 180.738C130.801 180.54 130.557 179.869 130.791 179.239C131.024 178.608 131.646 178.257 132.18 178.454C132.714 178.652 132.957 179.323 132.724 179.954Z" fill="white"/>
<path d="M132.725 179.954L133.115 180.099C132.872 180.752 132.298 181.203 131.644 181.209C131.493 181.209 131.339 181.182 131.192 181.127C130.9 181.02 130.667 180.814 130.516 180.565C130.363 180.317 130.287 180.025 130.287 179.725C130.287 179.516 130.324 179.303 130.402 179.094C130.645 178.441 131.218 177.989 131.872 177.984C132.023 177.984 132.177 178.009 132.325 178.064C132.617 178.172 132.849 178.379 133.001 178.627C133.152 178.876 133.229 179.167 133.229 179.467C133.229 179.676 133.192 179.89 133.115 180.099L132.725 179.954L132.335 179.809C132.378 179.694 132.398 179.577 132.398 179.467C132.398 179.309 132.356 179.167 132.291 179.061C132.225 178.954 132.141 178.884 132.036 178.844L131.872 178.815C131.633 178.809 131.317 179.012 131.181 179.383C131.139 179.499 131.119 179.615 131.119 179.725C131.119 179.882 131.16 180.025 131.225 180.131C131.292 180.238 131.376 180.308 131.48 180.348L131.644 180.377C131.883 180.383 132.2 180.179 132.335 179.81L132.725 179.954Z" fill="#232D34"/>
<path d="M129.026 182.289L126.462 186.664L127.822 187.167L129.811 184.811L129.559 187.81L131.146 188.397L132.048 183.406L129.026 182.289Z" fill="#232D34"/>
<path d="M129.026 182.288L129.385 182.498L127.072 186.446L127.693 186.676L130.334 183.547L130 187.53L130.825 187.835L131.577 183.675L128.882 182.678L129.026 182.288L129.171 181.898L132.519 183.137L131.466 188.959L129.118 188.09L129.287 186.076L127.952 187.659L125.852 186.882L128.844 181.777L129.171 181.898L129.026 182.288Z" fill="#232D34"/>
<path d="M136.036 207.673L140.363 188.202L114.901 177.884L109.576 200.35" fill="white"/>
<path d="M135.63 207.582L139.88 188.455L115.194 178.451L109.98 200.446L109.171 200.255L114.608 177.317L140.844 187.949L136.441 207.763L135.63 207.582Z" fill="#232D34"/>
<path d="M208.869 102.75C208.869 102.75 207.433 106.65 208.152 107.984C208.869 109.318 211.641 111.063 211.641 111.063L207.125 129.331C207.125 129.331 197.478 128.099 196.965 128.715C196.452 129.331 191.012 143.904 191.012 143.904L220.056 155.398L223.897 145.815C223.897 145.815 226.009 140.312 226.009 139.491C226.009 138.67 220.672 132.718 220.672 132.718L228.164 111.679L208.869 102.75Z" fill="url(#paint3_linear_298_514)"/>
<path d="M208.87 102.749L209.261 102.893L209.223 102.998C209.137 103.241 208.921 103.88 208.727 104.633C208.533 105.384 208.365 106.256 208.366 106.927C208.364 107.31 208.426 107.621 208.518 107.786C208.806 108.338 209.655 109.111 210.42 109.694C210.803 109.988 211.165 110.244 211.431 110.425C211.564 110.516 211.673 110.587 211.747 110.636C211.823 110.685 211.862 110.71 211.863 110.71L212.117 110.87L207.44 129.789L207.072 129.743C207.072 129.743 206.689 129.693 206.069 129.62C204.213 129.398 200.22 128.957 198.219 128.957C197.888 128.957 197.612 128.971 197.428 128.994C197.335 129.006 197.266 129.021 197.235 129.031L197.219 129.037H197.218L197.119 128.843L197.285 128.981L197.218 129.037L197.119 128.843L197.285 128.981L197.174 128.888L197.291 128.972L197.285 128.981L197.174 128.888L197.291 128.972C197.288 128.974 197.231 129.075 197.165 129.216C196.908 129.756 196.411 130.97 195.822 132.465C194.936 134.71 193.831 137.607 192.947 139.942C192.506 141.11 192.12 142.136 191.844 142.871C191.568 143.606 191.403 144.047 191.403 144.049L191.013 143.903L191.166 143.517L219.824 154.859L223.511 145.66L223.897 145.815L223.509 145.666C223.51 145.665 223.64 145.323 223.838 144.796C224.134 144.005 224.578 142.799 224.948 141.718C225.131 141.178 225.297 140.669 225.415 140.263C225.473 140.061 225.521 139.884 225.551 139.746C225.582 139.61 225.595 139.504 225.593 139.49H225.753L225.595 139.517L225.593 139.49H225.753L225.595 139.517L225.594 139.513C225.584 139.464 225.485 139.264 225.327 139.024C224.771 138.164 223.519 136.639 222.42 135.352C221.869 134.706 221.355 134.117 220.978 133.688C220.601 133.26 220.363 132.995 220.363 132.995L220.198 132.81L227.645 111.896L208.696 103.127L208.87 102.749L209.044 102.372L228.684 111.46L221.064 132.856L220.673 132.717L220.982 132.439C220.984 132.441 222.319 133.931 223.659 135.529C224.33 136.327 225 137.152 225.509 137.838C225.763 138.181 225.978 138.488 226.135 138.748C226.214 138.879 226.279 138.998 226.33 139.111C226.378 139.227 226.42 139.329 226.425 139.49C226.422 139.673 226.381 139.854 226.322 140.099C226.109 140.937 225.604 142.389 225.147 143.649C224.691 144.907 224.286 145.962 224.285 145.963L224.285 145.967L220.288 155.937L190.48 144.14L190.624 143.758C190.624 143.757 191.983 140.113 193.408 136.391C194.121 134.53 194.849 132.649 195.432 131.193C195.724 130.464 195.98 129.842 196.18 129.379C196.281 129.147 196.367 128.955 196.44 128.805C196.475 128.73 196.509 128.666 196.54 128.61L196.646 128.448C196.767 128.312 196.878 128.276 196.982 128.239C197.291 128.146 197.686 128.129 198.219 128.126C201.009 128.128 207.168 128.917 207.178 128.917L207.126 129.33L206.721 129.23L211.238 110.962L211.641 111.062L211.42 111.414C211.412 111.41 210.711 110.968 209.912 110.353C209.112 109.729 208.216 108.964 207.786 108.18C207.59 107.812 207.537 107.384 207.535 106.927C207.536 106.014 207.776 104.951 208.01 104.097C208.244 103.246 208.477 102.613 208.48 102.605L208.636 102.183L209.044 102.372L208.87 102.749Z" fill="#232D34"/>
<path d="M191.012 143.904L220.056 155.398L223.659 146.41L194.584 134.492C192.921 138.79 191.012 143.904 191.012 143.904Z" fill="#232D34"/>
<path d="M191.012 143.903L191.165 143.517L219.824 154.859L223.119 146.637L194.426 134.877L194.584 134.492L194.972 134.642C194.141 136.789 193.249 139.141 192.563 140.956C191.879 142.771 191.403 144.046 191.402 144.049L191.012 143.903L190.623 143.758C190.623 143.757 192.532 138.643 194.196 134.342L194.349 133.946L224.198 146.181L220.288 155.937L190.48 144.14L190.623 143.758L191.012 143.903Z" fill="#232D34"/>
<path d="M185.7 85.4769C184.763 87.3499 185.442 89.6272 187.25 90.6818L227.15 113.956C230.809 116.091 235.507 114.823 237.594 111.137C239.876 107.106 238.053 101.988 233.737 100.308L190.691 83.5532C188.78 82.8088 186.617 83.643 185.7 85.4769Z" fill="url(#paint4_linear_298_514)"/>
<path d="M185.7 85.4766L186.072 85.6629C185.817 86.1728 185.696 86.7142 185.696 87.2498C185.697 88.4774 186.333 89.6651 187.46 90.3222L227.36 113.598C228.5 114.262 229.744 114.577 230.973 114.577C233.477 114.577 235.909 113.269 237.233 110.931L237.352 110.721H237.594V111.137L237.233 110.931C237.87 109.805 238.168 108.594 238.168 107.401C238.167 104.549 236.464 101.815 233.586 100.695L190.54 83.9404C190.118 83.7758 189.682 83.6976 189.253 83.6976C187.942 83.6976 186.69 84.4262 186.072 85.6629L185.7 85.4766L185.329 85.2911C186.091 83.765 187.635 82.865 189.253 82.8659C189.783 82.8659 190.321 82.9623 190.842 83.1653L233.888 99.9202C237.097 101.17 239.001 104.221 239 107.401C239 108.732 238.666 110.089 237.956 111.341L237.837 111.553H237.594V111.137L237.956 111.341C236.48 113.948 233.764 115.41 230.973 115.409C229.602 115.409 228.211 115.057 226.941 114.315L187.041 91.0408C185.651 90.2299 184.865 88.7627 184.865 87.2498C184.865 86.5895 185.014 85.9183 185.329 85.2911L185.7 85.4766Z" fill="#232D34"/>
<path d="M211.052 91.4782L190.691 83.5536C188.78 82.8092 186.617 83.6434 185.7 85.4774C184.764 87.3504 185.442 89.6276 187.251 90.6822L206.963 102.083L211.052 91.4782Z" fill="#232D34"/>
<path d="M211.052 91.4774L210.901 91.865L190.541 83.9404C190.118 83.7757 189.682 83.6975 189.253 83.6975C187.942 83.6975 186.691 84.4261 186.073 85.6629C185.817 86.1727 185.697 86.7142 185.697 87.2498C185.698 88.4774 186.333 89.6651 187.461 90.3221L187.459 90.3213L206.751 101.478L210.664 91.3277L211.052 91.4774L211.44 91.6271L207.177 102.686L187.043 91.0416L187.042 91.0407C185.651 90.2298 184.865 88.7627 184.865 87.2498C184.865 86.5894 185.015 85.9182 185.329 85.2911C186.092 83.7649 187.636 82.865 189.253 82.8658C189.783 82.8658 190.322 82.9623 190.843 83.1652L211.589 91.2403L211.44 91.6271L211.052 91.4774Z" fill="#232D34"/>
<path d="M185.384 86.2461L169.571 79.7479L170.203 78.2101L186.015 84.7083L185.384 86.2461Z" fill="white"/>
<path d="M185.384 86.2464L185.226 86.6315L169.029 79.9753L169.976 77.6673L186.559 84.4815L185.611 86.7896L185.226 86.6315L185.384 86.2464L184.999 86.0884L185.473 84.9348L170.429 78.7527L170.113 79.522L185.542 85.8622L185.384 86.2464Z" fill="#232D34"/>
<path d="M173.987 79.5786L174.825 81.6404L174.055 81.9531L173.217 79.8913" fill="#232D34"/>
<path d="M178.937 81.5459L180.032 83.7366L179.288 84.1084L178.192 81.9177" fill="#232D34"/>
<path d="M183.634 83.4693L184.664 85.4022L183.93 85.7939L182.899 83.861" fill="#232D34"/>
<path d="M195.074 85.2591L190.691 83.5532C188.78 82.8088 186.617 83.643 185.7 85.4769C184.764 87.35 185.442 89.6272 187.251 90.6818L191.692 93.251L195.074 85.2591Z" fill="white"/>
<path d="M195.074 85.2587L194.922 85.6463L190.54 83.9405C190.118 83.7758 189.682 83.6976 189.253 83.6976C187.942 83.6976 186.69 84.4262 186.072 85.6629C185.817 86.1728 185.696 86.7142 185.696 87.2499C185.697 88.4775 186.332 89.6652 187.46 90.3222L187.459 90.3214L191.492 92.6543L194.69 85.0965L195.074 85.2587L195.456 85.4201L191.892 93.8462L187.043 91.0416L187.041 91.0408C185.65 90.2299 184.864 88.7628 184.864 87.2499C184.864 86.5895 185.014 85.9183 185.329 85.2912C186.091 83.765 187.635 82.8651 189.253 82.8659C189.782 82.8659 190.321 82.9624 190.842 83.1653L195.624 85.0259L195.456 85.4201L195.074 85.2587Z" fill="#232D34"/>
<path d="M237.859 140.35C236.97 135.757 231.193 128.351 231.193 128.351L222.845 135.209C224.322 136.945 226.008 139.029 226.008 139.491C226.008 140.312 223.897 145.815 223.897 145.815L220.74 153.692C223.449 154.585 226.872 154.881 230.008 153.681C235.045 151.756 238.748 144.942 237.859 140.35Z" fill="white"/>
<path d="M237.858 140.35L237.45 140.429C237.034 138.247 235.387 135.256 233.842 132.853C233.07 131.648 232.324 130.585 231.772 129.824C231.496 129.444 231.269 129.138 231.111 128.929C230.952 128.719 230.865 128.607 230.865 128.607L231.192 128.351L231.456 128.673L223.107 135.53L222.844 135.209L223.16 134.939C223.902 135.811 224.696 136.769 225.31 137.576C225.617 137.979 225.88 138.344 226.072 138.649C226.169 138.802 226.248 138.94 226.309 139.069C226.367 139.201 226.418 139.311 226.423 139.491C226.421 139.674 226.38 139.854 226.32 140.099C226.108 140.938 225.602 142.389 225.146 143.649C224.689 144.908 224.285 145.962 224.284 145.964L224.283 145.966L221.125 153.847L220.739 153.692L220.869 153.297C222.276 153.761 223.883 154.059 225.533 154.059C226.976 154.059 228.45 153.832 229.859 153.293C232.015 152.471 233.959 150.676 235.35 148.535C236.742 146.398 237.577 143.919 237.575 141.792C237.575 141.317 237.534 140.86 237.45 140.429L237.858 140.35L238.267 140.271C238.361 140.76 238.406 141.27 238.406 141.792C238.404 144.132 237.512 146.732 236.047 148.989C234.579 151.243 232.531 153.159 230.156 154.07C228.639 154.649 227.062 154.891 225.533 154.891C223.783 154.891 222.093 154.576 220.609 154.087L220.188 153.948L223.51 145.66L223.896 145.815L223.507 145.666C223.508 145.665 223.639 145.323 223.837 144.796C224.133 144.005 224.577 142.799 224.946 141.718C225.13 141.178 225.296 140.669 225.414 140.263C225.472 140.061 225.519 139.884 225.549 139.746C225.581 139.611 225.593 139.505 225.592 139.491H225.743L225.594 139.518L225.592 139.491H225.743L225.594 139.518L225.58 139.477C225.538 139.368 225.404 139.133 225.211 138.853C224.63 137.999 223.528 136.655 222.527 135.478L222.252 135.157L231.258 127.758L231.52 128.095C231.525 128.102 232.976 129.961 234.542 132.404C236.108 134.852 237.794 137.86 238.267 140.271L237.858 140.35Z" fill="#232D34"/>
<path d="M217.957 108.717C217.957 108.717 210.946 106.088 209.485 106.185C208.025 106.282 205.883 108.521 206.856 109.593C207.83 110.664 211.725 110.372 211.725 110.372L218.152 113.196L219.807 116.019C219.807 116.019 210.459 112.709 209.875 113.196C209.291 113.682 208.999 117.285 208.999 117.285C208.999 117.285 207.441 121.18 207.928 122.349C208.414 123.517 206.37 126.633 207.148 128.191C207.928 129.749 212.212 131.015 212.212 131.015L218.736 135.688L223.215 138.026C223.215 138.026 224.676 140.947 224.773 141.629C224.87 142.31 223.896 145.815 223.896 145.815C223.896 145.815 227.402 144.647 229.252 142.992C231.102 141.336 233.244 136.273 232.952 135.202C232.66 134.131 228.668 116.409 227.305 114.851C225.942 113.293 217.957 108.717 217.957 108.717Z" fill="white"/>
<path d="M217.958 108.717L217.811 109.106C217.811 109.105 217.392 108.949 216.735 108.712C215.75 108.357 214.232 107.823 212.816 107.381C212.108 107.16 211.425 106.961 210.85 106.82C210.279 106.677 209.802 106.596 209.572 106.597L209.514 106.599L209.513 106.6C209.071 106.621 208.396 106.976 207.882 107.469C207.358 107.953 207.013 108.576 207.027 108.941C207.031 109.098 207.067 109.202 207.165 109.313C207.256 109.416 207.435 109.531 207.68 109.625C208.417 109.915 209.672 109.996 210.57 109.993C210.897 109.993 211.181 109.983 211.381 109.974C211.581 109.966 211.694 109.957 211.695 109.957L211.798 109.949L218.443 112.869L220.742 116.792L219.669 116.411C219.668 116.411 219.164 116.233 218.38 115.963C217.206 115.561 215.404 114.955 213.755 114.453C212.931 114.202 212.143 113.976 211.495 113.815C210.852 113.653 210.327 113.559 210.113 113.562L210.048 113.566L210.004 113.35L210.142 113.515L210.048 113.566L210.004 113.35L210.142 113.515L210.12 113.488L210.145 113.512L210.142 113.515L210.12 113.488L210.145 113.512C210.139 113.515 210.083 113.594 210.034 113.718C209.848 114.162 209.678 115.09 209.574 115.873C209.521 116.267 209.48 116.63 209.453 116.893C209.427 117.157 209.414 117.318 209.414 117.319L209.409 117.382L209.385 117.44C209.385 117.44 209.315 117.615 209.207 117.908C209.046 118.347 208.803 119.043 208.603 119.764C208.402 120.484 208.247 121.238 208.25 121.741C208.248 121.95 208.278 122.111 208.312 122.189C208.393 122.384 208.42 122.588 208.42 122.793C208.414 123.478 208.139 124.255 207.883 125.067C207.625 125.872 207.382 126.698 207.386 127.319C207.386 127.597 207.432 127.827 207.521 128.005C207.654 128.28 208.015 128.627 208.498 128.942C209.22 129.42 210.186 129.846 210.965 130.143C211.354 130.293 211.697 130.412 211.943 130.493C212.187 130.573 212.33 130.616 212.33 130.616L212.398 130.636L218.955 135.333L223.528 137.719L223.588 137.839C223.588 137.842 223.955 138.574 224.335 139.397C224.526 139.808 224.72 140.241 224.874 140.62C225.029 141.007 225.145 141.311 225.185 141.569L225.196 141.744C225.194 142.029 225.135 142.399 225.051 142.836C224.797 144.133 224.299 145.921 224.298 145.927L223.897 145.815L223.766 145.421C223.766 145.421 223.815 145.404 223.913 145.37C224.251 145.25 225.135 144.924 226.128 144.452C227.119 143.981 228.219 143.36 228.975 142.681C229.761 141.985 230.695 140.482 231.391 139C231.742 138.258 232.039 137.519 232.246 136.886C232.454 136.256 232.567 135.717 232.564 135.445L232.552 135.311C232.473 135.02 232.172 133.725 231.734 131.885C231.08 129.132 230.127 125.192 229.212 121.8C228.755 120.105 228.308 118.545 227.913 117.346C227.715 116.746 227.532 116.235 227.369 115.849C227.211 115.464 227.057 115.192 226.993 115.124C226.712 114.799 225.961 114.214 225.033 113.577C223.637 112.614 221.813 111.487 220.341 110.603C219.605 110.161 218.957 109.779 218.493 109.508C218.029 109.237 217.751 109.078 217.751 109.077L217.958 108.717L218.164 108.356C218.166 108.357 220.165 109.503 222.338 110.846C223.425 111.517 224.556 112.238 225.506 112.893C226.459 113.552 227.217 114.124 227.618 114.577C227.749 114.728 227.85 114.91 227.965 115.143C228.38 116.008 228.89 117.591 229.449 119.539C230.284 122.455 231.209 126.157 231.952 129.226C232.323 130.76 232.649 132.137 232.894 133.176C233.14 134.212 233.308 134.924 233.354 135.092C233.386 135.209 233.395 135.325 233.396 135.445C233.393 135.896 233.256 136.467 233.037 137.145C232.706 138.156 232.176 139.375 231.559 140.502C230.939 141.629 230.245 142.658 229.53 143.301C228.545 144.18 227.18 144.894 226.052 145.404C224.925 145.911 224.038 146.207 224.028 146.21L223.287 146.457L223.496 145.704C223.497 145.703 223.551 145.508 223.633 145.198C223.756 144.733 223.942 144.014 224.095 143.333C224.25 142.659 224.368 141.993 224.364 141.744L224.362 141.687C224.354 141.604 224.25 141.288 224.104 140.935C223.884 140.394 223.568 139.71 223.307 139.165C223.047 138.618 222.844 138.213 222.843 138.212L223.216 138.025L223.023 138.394L218.518 136.043L211.97 131.353L212.212 131.015L212.095 131.413C212.085 131.41 211.002 131.091 209.806 130.568C209.208 130.305 208.582 129.994 208.04 129.636C207.5 129.276 207.034 128.88 206.777 128.377C206.612 128.047 206.554 127.685 206.554 127.319C206.557 126.503 206.833 125.631 207.091 124.815C207.353 124.005 207.595 123.238 207.588 122.793C207.589 122.663 207.569 122.566 207.544 122.508C207.447 122.269 207.419 122.016 207.418 121.741C207.422 120.874 207.725 119.751 208.02 118.81C208.316 117.872 208.611 117.137 208.613 117.13L208.999 117.285L208.584 117.252C208.585 117.246 208.658 116.339 208.807 115.36C208.882 114.871 208.974 114.363 209.091 113.932C209.149 113.715 209.213 113.518 209.29 113.344C209.369 113.169 209.449 113.014 209.609 112.876C209.713 112.792 209.804 112.768 209.883 112.751C209.963 112.735 210.036 112.731 210.113 112.731C210.37 112.732 210.682 112.782 211.069 112.863C212.414 113.146 214.619 113.835 216.506 114.456C218.39 115.076 219.945 115.627 219.946 115.627L219.807 116.019L219.449 116.23L217.861 113.522L211.559 110.753L211.726 110.372L211.756 110.786C211.75 110.787 211.256 110.824 210.57 110.824C209.941 110.823 209.152 110.793 208.42 110.67C208.053 110.608 207.699 110.523 207.38 110.4C207.062 110.276 206.773 110.116 206.549 109.873C206.306 109.608 206.193 109.267 206.196 108.941C206.21 108.169 206.7 107.454 207.311 106.864C207.935 106.283 208.697 105.829 209.458 105.77L209.572 105.766C210.073 105.77 210.798 105.937 211.679 106.177C214.297 106.899 218.097 108.325 218.103 108.327L218.135 108.339L218.164 108.356L217.958 108.717Z" fill="#232D34"/>
<path d="M223.294 137.617L223.279 137.692L223.292 137.616L223.294 137.617L223.279 137.692L223.292 137.616C223.305 137.618 223.43 137.639 223.653 137.639C224.477 137.635 226.619 137.374 229.321 134.826L229.893 135.431C227.053 138.117 224.664 138.474 223.653 138.471C223.341 138.471 223.16 138.437 223.137 138.433L223.294 137.617Z" fill="#232D34"/>
<path d="M224.618 141.242L224.638 141.234C224.865 141.137 227.01 140.185 229.727 137.647L230.295 138.255C227.307 141.046 224.967 141.998 224.93 142.013L224.618 141.242Z" fill="#232D34"/>
<path d="M209.159 116.901L220.106 121.453L219.786 122.221L208.839 117.67" fill="#232D34"/>
<path d="M208.496 122.8L218.069 127.433L217.706 128.181L208.133 123.549" fill="#232D34"/>
<path d="M219.96 115.632L223.147 116.887L222.841 117.661L219.655 116.406" fill="#232D34"/>
<path d="M196.367 176.756L191.827 177.278L189.86 162.42C189.7 161.027 190.699 159.767 192.092 159.607C193.484 159.446 194.743 160.446 194.904 161.838L196.367 176.756Z" fill="white"/>
<path d="M196.367 176.756L196.415 177.169L191.468 177.738L189.447 162.471V162.467C189.434 162.352 189.427 162.238 189.427 162.126C189.427 160.644 190.538 159.368 192.044 159.194C192.159 159.181 192.273 159.174 192.386 159.174C193.868 159.174 195.143 160.285 195.318 161.791V161.794L196.821 177.122L196.415 177.169L196.367 176.756L195.953 176.796L194.491 161.879L194.904 161.838L194.491 161.886C194.368 160.804 193.448 160.006 192.386 160.006C192.304 160.006 192.222 160.01 192.14 160.02C191.058 160.144 190.259 161.064 190.259 162.126C190.259 162.207 190.264 162.289 190.273 162.372L189.861 162.42L190.272 162.365L192.186 176.818L196.319 176.343L196.367 176.756Z" fill="#232D34"/>
<path d="M197.608 179.581L191.588 180.274L191.157 176.532L197.178 175.838L197.608 179.581Z" fill="white"/>
<path d="M197.608 179.58L197.655 179.994L191.222 180.734L190.696 176.166L197.542 175.377L198.069 179.945L197.655 179.994L197.608 179.58L197.195 179.628L196.811 176.298L191.617 176.897L191.953 179.813L197.561 179.167L197.608 179.58Z" fill="#232D34"/>
<path d="M195.5 183.348L194.198 183.499L193.865 180.011L195.167 179.861L195.5 183.348Z" fill="white"/>
<path d="M195.5 183.348L195.547 183.761L193.825 183.96L193.412 179.644L195.541 179.4L195.952 183.715L195.547 183.761L195.5 183.348L195.086 183.388L194.793 180.323L194.318 180.378L194.572 183.037L195.453 182.935L195.5 183.348Z" fill="#232D34"/>
<path d="M188.884 178.179L184.345 178.702L182.377 163.844C182.217 162.45 183.216 161.191 184.609 161.031C186.001 160.87 187.261 161.869 187.421 163.262L188.884 178.179Z" fill="white"/>
<path d="M188.884 178.179L188.931 178.592L183.985 179.162L181.964 163.894V163.891C181.951 163.776 181.944 163.662 181.944 163.55C181.944 162.068 183.054 160.792 184.561 160.617C184.675 160.604 184.789 160.598 184.902 160.598C186.385 160.598 187.66 161.709 187.834 163.215V163.218L189.337 178.546L188.931 178.592L188.884 178.179L188.47 178.22L187.007 163.303L187.421 163.262L187.008 163.31C186.884 162.228 185.965 161.43 184.902 161.43C184.821 161.43 184.739 161.434 184.656 161.444C183.574 161.568 182.776 162.488 182.776 163.55C182.776 163.631 182.781 163.713 182.79 163.795L182.377 163.844L182.789 163.789L184.703 178.242L188.836 177.767L188.884 178.179Z" fill="#232D34"/>
<path d="M190.124 181.004L184.104 181.697L183.672 177.955L189.693 177.262L190.124 181.004Z" fill="white"/>
<path d="M190.124 181.005L190.172 181.417L183.738 182.158L183.212 177.59L190.058 176.801L190.585 181.37L190.172 181.417L190.124 181.005L189.711 181.052L189.327 177.723L184.133 178.321L184.469 181.237L190.077 180.591L190.124 181.005Z" fill="#232D34"/>
<path d="M187.938 184.298L186.637 184.448L186.381 181.435L187.684 181.286L187.938 184.298Z" fill="white"/>
<path d="M187.938 184.298L187.986 184.711L186.258 184.91L185.933 181.068L188.062 180.823L188.387 184.665L187.986 184.711L187.938 184.298L187.523 184.333L187.305 181.747L186.831 181.802L187.015 183.986L187.89 183.885L187.938 184.298Z" fill="#232D34"/>
<path d="M175.837 175.053C175.837 175.053 173.901 179.581 174.882 182.392C175.863 185.202 176.628 186.141 176.628 186.141L178.943 185.726L177.037 175.077L175.837 175.053Z" fill="white"/>
<path d="M175.837 175.054L176.22 175.218C176.22 175.218 176.203 175.257 176.171 175.337C175.941 175.9 175.016 178.371 175.021 180.529C175.02 181.153 175.096 181.747 175.274 182.256C175.759 183.643 176.188 184.56 176.489 185.124C176.641 185.407 176.761 185.601 176.84 185.721L176.929 185.849L176.949 185.876L176.952 185.88L176.84 185.969L176.951 185.878L176.952 185.88L176.84 185.969L176.951 185.878L176.628 186.141L176.555 185.732L178.461 185.391L176.687 175.487L175.829 175.47L175.837 175.054L175.846 174.638L177.386 174.669L179.426 186.063L176.461 186.594L176.307 186.404C176.269 186.358 175.483 185.376 174.489 182.529C174.27 181.902 174.189 181.219 174.189 180.529C174.195 177.813 175.449 174.916 175.456 174.89L175.565 174.632L175.846 174.638L175.837 175.054Z" fill="#232D34"/>
<path d="M178.153 174.639C178.153 174.639 181.54 178.213 181.595 181.19C181.65 184.166 181.258 185.312 181.258 185.312L178.943 185.727L177.036 175.077L178.153 174.639Z" fill="white"/>
<path d="M178.152 174.639L178.454 174.353C178.463 174.363 179.323 175.269 180.197 176.565C181.067 177.864 181.972 179.54 182.011 181.182C182.014 181.38 182.016 181.571 182.016 181.753C182.016 184.348 181.669 185.395 181.651 185.446L181.572 185.678L178.606 186.209L176.566 174.815L178.261 174.149L178.454 174.353L178.152 174.639L178.304 175.026L177.505 175.339L179.279 185.243L181.185 184.902L181.258 185.312L180.864 185.177L181.017 185.229L180.864 185.178L180.864 185.177L181.017 185.229L180.864 185.178C180.868 185.168 181.185 184.196 181.185 181.753C181.185 181.576 181.182 181.39 181.179 181.197C181.162 179.862 180.345 178.263 179.508 177.03C179.091 176.413 178.675 175.883 178.363 175.51C178.207 175.324 178.077 175.175 177.988 175.076C177.898 174.975 177.85 174.925 177.85 174.924L178.152 174.639Z" fill="#232D34"/>
<path d="M179.554 180.467C179.727 181.432 179.204 182.335 178.386 182.481C177.568 182.628 176.764 181.963 176.591 180.997C176.418 180.031 176.941 179.129 177.759 178.982C178.577 178.836 179.381 179.5 179.554 180.467Z" fill="white"/>
<path d="M179.555 180.467L179.964 180.393C179.991 180.542 180.004 180.691 180.004 180.837C180.004 181.327 179.858 181.791 179.592 182.161C179.327 182.53 178.932 182.807 178.46 182.891C178.359 182.909 178.259 182.917 178.159 182.917C177.672 182.917 177.218 182.71 176.872 182.379C176.525 182.049 176.277 181.594 176.183 181.071C176.156 180.922 176.143 180.773 176.143 180.628C176.144 180.137 176.289 179.674 176.555 179.304C176.819 178.934 177.215 178.657 177.686 178.573C177.787 178.555 177.888 178.547 177.988 178.547C178.476 178.547 178.928 178.755 179.274 179.085C179.622 179.415 179.871 179.87 179.964 180.393L179.555 180.467L179.145 180.54C179.082 180.187 178.915 179.89 178.701 179.688C178.487 179.484 178.235 179.379 177.988 179.379L177.834 179.392C177.593 179.436 177.388 179.572 177.23 179.79C177.074 180.006 176.975 180.303 176.975 180.628C176.975 180.724 176.984 180.824 177.001 180.924C177.064 181.277 177.232 181.574 177.445 181.777C177.66 181.98 177.912 182.086 178.159 182.086L178.314 182.072C178.554 182.028 178.759 181.892 178.917 181.674C179.074 181.458 179.172 181.162 179.172 180.837C179.172 180.74 179.164 180.641 179.145 180.54L179.555 180.467Z" fill="#232D34"/>
<path d="M176.628 186.141L176.64 193.545L178.723 193.172L179.482 188.736L181.385 192.695L183.816 192.26L181.258 185.311L176.628 186.141Z" fill="#232D34"/>
<path d="M176.628 186.141L177.044 186.14L177.055 193.048L178.363 192.814L179.292 187.38L181.624 192.231L183.255 191.938L180.988 185.782L176.701 186.55L176.628 186.141L176.555 185.731L181.528 184.841L184.378 192.582L181.148 193.16L179.672 190.091L179.084 193.53L176.225 194.042L176.212 185.793L176.555 185.731L176.628 186.141Z" fill="#232D34"/>
<path d="M175.143 210.169L173.312 189.7L203.266 185.373L208.093 206.175" fill="white"/>
<path d="M174.728 210.206L172.863 189.345L203.585 184.907L208.497 206.081L207.687 206.269L202.947 185.84L173.761 190.056L175.556 210.132L174.728 210.206Z" fill="#232D34"/>
</g>
<defs>
<linearGradient id="paint0_linear_298_514" x1="165.11" y1="188.103" x2="165.11" y2="346.285" gradientUnits="userSpaceOnUse">
<stop stop-color="#004426"/>
<stop offset="1" stop-color="#048F43"/>
</linearGradient>
<linearGradient id="paint1_linear_298_514" x1="163.247" y1="114.272" x2="163.247" y2="179.047" gradientUnits="userSpaceOnUse">
<stop stop-color="#004426"/>
<stop offset="1" stop-color="#048F43"/>
</linearGradient>
<linearGradient id="paint2_linear_298_514" x1="164.267" y1="3.35315" x2="164.267" y2="36.2563" gradientUnits="userSpaceOnUse">
<stop stop-color="#004426"/>
<stop offset="1" stop-color="#048F43"/>
</linearGradient>
<linearGradient id="paint3_linear_298_514" x1="209.588" y1="104.395" x2="209.588" y2="155.398" gradientUnits="userSpaceOnUse">
<stop stop-color="#004426"/>
<stop offset="1" stop-color="#048F43"/>
</linearGradient>
<linearGradient id="paint4_linear_298_514" x1="211.932" y1="84.2728" x2="211.932" y2="114.994" gradientUnits="userSpaceOnUse">
<stop stop-color="#004426"/>
<stop offset="1" stop-color="#048F43"/>
</linearGradient>
</defs>
</svg>
