<svg width="30" height="30" viewBox="0 0 30 30" fill="none" xmlns="http://www.w3.org/2000/svg">
<g clip-path="url(#clip0_304_14081)">
<path d="M30 0H0V30H30V0Z" fill="white" fill-opacity="0.01"/>
<path d="M15 27.5C21.9036 27.5 27.5 21.9036 27.5 15C27.5 8.09644 21.9036 2.5 15 2.5C8.09644 2.5 2.5 8.09644 2.5 15C2.5 21.9036 8.09644 27.5 15 27.5Z" stroke="#004705" stroke-linecap="round" stroke-linejoin="round"/>
<path d="M23.75 23.75L21.875 21.875" stroke="#004705" stroke-linecap="round" stroke-linejoin="round"/>
<path d="M6.25 6.25L8.125 8.125" stroke="#004705" stroke-linecap="round" stroke-linejoin="round"/>
<path d="M13.2143 17.5H9.28569M8.75 19.375L9.28569 17.5L8.75 19.375ZM13.75 19.375L13.2143 17.5L13.75 19.375ZM13.2143 17.5L11.25 10.625L9.28569 17.5H13.2143Z" stroke="#FFC100" stroke-linecap="round" stroke-linejoin="round"/>
<path d="M21.875 15C21.875 18.125 19.6364 19.375 16.875 19.375V10.625C19.6364 10.625 21.875 11.875 21.875 15Z" stroke="#FFC100" stroke-linecap="round" stroke-linejoin="round"/>
</g>
<defs>
<clipPath id="clip0_304_14081">
<rect width="30" height="30" fill="white"/>
</clipPath>
</defs>
</svg>
