<svg width="30" height="30" viewBox="0 0 30 30" fill="none" xmlns="http://www.w3.org/2000/svg">
<path d="M22.7191 17.4175L22.3566 17.7619L22.7191 17.4175ZM7.28092 17.4175L6.91843 17.0731L7.28092 17.4175ZM9.25 11.25C9.25 8.07436 11.8244 5.5 15 5.5V4.5C11.2721 4.5 8.25 7.52208 8.25 11.25H9.25ZM9.25 14.6954V11.25H8.25V14.6954H9.25ZM6.75 20C6.75 19.1324 7.08928 18.3452 7.64341 17.7619L6.91843 17.0731C6.1948 17.8348 5.75 18.866 5.75 20H6.75ZM8.75 20.75H7.5V21.75H8.75V20.75ZM21.25 20.75H8.75V21.75H21.25V20.75ZM22.5 20.75H21.25V21.75H22.5V20.75ZM22.3566 17.7619C22.9107 18.3452 23.25 19.1324 23.25 20H24.25C24.25 18.866 23.8052 17.8348 23.0816 17.0731L22.3566 17.7619ZM20.75 11.25V14.6954H21.75V11.25H20.75ZM15 5.5C18.1756 5.5 20.75 8.07436 20.75 11.25H21.75C21.75 7.52208 18.7279 4.5 15 4.5V5.5ZM23.0816 17.0731C22.3397 16.2923 21.75 15.532 21.75 14.6954H20.75C20.75 15.978 21.6388 17.0064 22.3566 17.7619L23.0816 17.0731ZM5.75 20C5.75 20.9665 6.5335 21.75 7.5 21.75V20.75C7.08579 20.75 6.75 20.4142 6.75 20H5.75ZM22.5 21.75C23.4665 21.75 24.25 20.9665 24.25 20H23.25C23.25 20.4142 22.9142 20.75 22.5 20.75V21.75ZM8.25 14.6954C8.25 15.532 7.66026 16.2923 6.91843 17.0731L7.64341 17.7619C8.36116 17.0064 9.25 15.978 9.25 14.6954H8.25Z" fill="#004705"/>
<path d="M17.247 24.8459C17.039 25.2723 16.714 25.6307 16.31 25.8793C15.9059 26.1279 15.4395 26.2564 14.9651 26.2498C14.4907 26.2431 14.0281 26.1017 13.6311 25.8419C13.2341 25.5821 12.9193 25.2148 12.7233 24.7828" stroke="#FFC100" stroke-linecap="round" stroke-linejoin="round"/>
<path d="M15 3.75V5" stroke="#004705" stroke-linecap="round" stroke-linejoin="round"/>
<circle cx="20" cy="6" r="4" fill="#FFC100"/>
</svg>
