<svg width="30" height="30" viewBox="0 0 30 30" fill="none" xmlns="http://www.w3.org/2000/svg">
<path d="M2.61807 13.8583C2.55457 13.1279 3.13029 12.5 3.86337 12.5H6.24996C6.94034 12.5 7.49996 13.0596 7.49996 13.75V25.625C7.49996 26.3154 6.94034 26.875 6.24996 26.875H4.89598C4.2476 26.875 3.70685 26.3793 3.65068 25.7333L2.61807 13.8583Z" stroke="#FFC100" stroke-linecap="round" stroke-linejoin="round"/>
<path d="M11.25 13.3591C11.25 12.8368 11.5746 12.3693 12.0471 12.1466C13.0774 11.6609 14.8331 10.6836 15.625 9.36281C16.6457 7.66056 16.8382 4.58497 16.8695 3.88049C16.8739 3.78187 16.8711 3.68313 16.8846 3.58535C17.0538 2.36529 19.4089 3.79058 20.3125 5.29758C20.8029 6.11544 20.8658 7.19 20.8142 8.02894C20.759 8.92656 20.4958 9.79369 20.2376 10.6552L19.6875 12.4903H26.4731C27.302 12.4903 27.9013 13.2824 27.676 14.0801L24.3196 25.9647C24.1675 26.5032 23.6761 26.875 23.1166 26.875H12.5C11.8096 26.875 11.25 26.3154 11.25 25.625V13.3591Z" stroke="#004705" stroke-linecap="round" stroke-linejoin="round"/>
</svg>
