<svg width="30" height="30" viewBox="0 0 30 30" fill="none" xmlns="http://www.w3.org/2000/svg">
<path d="M15 15C18.4518 15 21.25 12.2018 21.25 8.75C21.25 5.29822 18.4518 2.5 15 2.5C11.5482 2.5 8.75 5.29822 8.75 8.75C8.75 12.2018 11.5482 15 15 15Z" stroke="#CCCCCC" stroke-linecap="round" stroke-linejoin="round"/>
<path d="M4.26245 27.5C4.26245 22.6625 9.07495 18.75 14.9999 18.75C16.1999 18.75 17.3625 18.9125 18.45 19.2125" stroke="#CCCCCC" stroke-linecap="round" stroke-linejoin="round"/>
<g clip-path="url(#clip0_298_450)">
<path d="M15.7288 27.798C16.7066 28.7758 18.1289 28.7876 19.1245 27.6616C20.1913 26.4408 21.4358 24.1177 23.1367 22.4168C24.4583 21.0893 25.9576 22.3813 27.777 20.6389C28.5059 19.9455 28.9089 18.9499 28.7608 18.2269L26.4851 18.8492C26.0999 18.9499 25.8331 18.7069 25.7146 18.298L25.5428 17.6995C25.4242 17.2906 25.5665 16.9468 25.9458 16.8461L28.2156 16.2297C28.1504 16.0223 27.9548 15.7379 27.7118 15.4889C26.3428 14.0844 24.0493 14.1081 22.7278 15.3586C20.7483 17.2372 22.2477 19.2225 20.9499 20.5204C19.3972 22.0672 17.074 23.3354 15.8591 24.4021C14.7272 25.3919 14.745 26.8142 15.7288 27.798ZM16.2918 27.229C15.6517 26.5771 15.6576 25.6111 16.4044 24.9533C17.6311 23.8806 20.1142 22.488 21.5188 21.0834C23.0478 19.5544 21.4299 17.6461 23.3026 15.9216C24.3279 14.9793 26.1413 14.9793 27.2258 16.0519L27.4214 15.6964L25.7858 16.1231C24.9205 16.3542 24.5412 17.0179 24.802 17.9187L24.9679 18.4936C25.2524 19.4952 25.8391 19.7737 26.6332 19.5603L28.3222 19.104L27.9666 18.9144C27.8422 19.3411 27.617 19.7737 27.2436 20.1471C25.768 21.5871 24.079 20.3485 22.5677 21.8479C21.0269 23.3887 19.6461 25.8837 18.5734 27.1164C17.9037 27.8868 16.9318 27.8868 16.2918 27.229ZM23.3797 20.2419L24.6657 19.8982C24.7724 19.8685 24.8375 19.75 24.8079 19.6374C24.7842 19.5307 24.6716 19.4596 24.5531 19.4952L23.273 19.8389C23.1604 19.8685 23.1011 19.9811 23.1248 20.0878C23.1426 20.2182 23.267 20.2715 23.3797 20.2419ZM23.2256 19.59L24.4938 19.2522C24.6064 19.2225 24.6775 19.1099 24.642 18.9855C24.6123 18.8729 24.4938 18.8136 24.3871 18.8373L23.107 19.187C22.9944 19.2107 22.9292 19.3292 22.9589 19.4359C22.9944 19.5603 23.1011 19.6255 23.2256 19.59ZM23.0656 18.9381L24.3397 18.6003C24.4523 18.5706 24.5175 18.458 24.4819 18.3336C24.4583 18.221 24.3397 18.1558 24.2331 18.1854L22.947 18.5292C22.8344 18.5588 22.7751 18.6773 22.8048 18.784C22.8344 18.9084 22.9411 18.9736 23.0656 18.9381ZM25.7087 21.196L26.2421 21.0775L25.5013 18.3869L24.9679 18.4936L25.7087 21.196ZM17.4059 26.8557C17.8089 26.8557 18.1349 26.5297 18.1349 26.1267C18.1349 25.7237 17.8089 25.3919 17.4059 25.3919C17.0029 25.3919 16.671 25.7237 16.671 26.1267C16.671 26.5297 17.0029 26.8557 17.4059 26.8557Z" fill="#FFBE00"/>
</g>
<defs>
<clipPath id="clip0_298_450">
<rect width="13.7912" height="14.1194" fill="white" transform="translate(15 14.4004)"/>
</clipPath>
</defs>
</svg>
