<svg width="34" height="34" viewBox="0 0 34 34" fill="none" xmlns="http://www.w3.org/2000/svg">
<path d="M14.2222 23.8749H8.95831C4.27775 23.8749 3.11108 22.7083 3.11108 18.0277V9.69439C3.11108 5.01383 4.27775 3.84717 8.95831 3.84717H23.5833C28.2639 3.84717 29.4305 5.01383 29.4305 9.69439" stroke="#004705" stroke-width="1.33333" stroke-linecap="round" stroke-linejoin="round"/>
<path d="M14.2222 30.1523V23.8745" stroke="#004705" stroke-width="1.33333" stroke-linecap="round" stroke-linejoin="round"/>
<path d="M3.11108 18.3188H14.2222" stroke="#004705" stroke-width="1.33333" stroke-linecap="round" stroke-linejoin="round"/>
<path d="M9.69434 30.1523H14.2221" stroke="#004705" stroke-width="1.33333" stroke-linecap="round" stroke-linejoin="round"/>
<path d="M30.8889 18.1106V26.0412C30.8889 29.3328 30.0694 30.1523 26.7778 30.1523H21.8472C18.5555 30.1523 17.7361 29.3328 17.7361 26.0412V18.1106C17.7361 14.819 18.5555 13.9995 21.8472 13.9995H26.7778C30.0694 13.9995 30.8889 14.819 30.8889 18.1106Z" stroke="#FFC100" stroke-width="1.33333" stroke-linecap="round" stroke-linejoin="round"/>
<path d="M24.284 25.6803H24.2965" stroke="#FFC100" stroke-width="1.33333" stroke-linecap="round" stroke-linejoin="round"/>
</svg>
