<svg width="30" height="30" viewBox="0 0 30 30" fill="none" xmlns="http://www.w3.org/2000/svg">
<g clip-path="url(#clip0_0_1)">
<path d="M14.375 26.25H10C9.33696 26.25 8.70107 25.9866 8.23223 25.5178C7.76339 25.0489 7.5 24.413 7.5 23.75V6.25C7.5 5.58696 7.76339 4.95107 8.23223 4.48223C8.70107 4.01339 9.33696 3.75 10 3.75H20C20.663 3.75 21.2989 4.01339 21.7678 4.48223C22.2366 4.95107 22.5 5.58696 22.5 6.25V13.75" stroke="#004705" stroke-linecap="round" stroke-linejoin="round"/>
<path d="M13.75 5H16.25" stroke="#004705" stroke-linecap="round" stroke-linejoin="round"/>
</g>
<g clip-path="url(#clip1_0_1)">
<path d="M17.875 21.5833C17.875 22.4809 19.3299 23.2083 21.125 23.2083C22.9201 23.2083 24.375 22.4809 24.375 21.5833C24.375 20.6858 22.9201 19.9583 21.125 19.9583C19.3299 19.9583 17.875 20.6858 17.875 21.5833Z" stroke="#FFC100" stroke-linecap="round" stroke-linejoin="round"/>
<path d="M17.875 21.5833V23.75C17.875 24.647 19.3299 25.375 21.125 25.375C22.9201 25.375 24.375 24.647 24.375 23.75V21.5833" stroke="#FFC100" stroke-linecap="round" stroke-linejoin="round"/>
<path d="M14.625 17.25C14.625 17.8307 15.2447 18.3669 16.25 18.6572C17.2553 18.9476 18.4947 18.9476 19.5 18.6572C20.5053 18.3669 21.125 17.8307 21.125 17.25C21.125 16.6693 20.5053 16.1331 19.5 15.8428C18.4947 15.5524 17.2553 15.5524 16.25 15.8428C15.2447 16.1331 14.625 16.6693 14.625 17.25Z" stroke="#FFC100" stroke-linecap="round" stroke-linejoin="round"/>
<path d="M14.625 17.25V22.6667C14.625 23.1477 15.0432 23.4521 15.7083 23.75" stroke="#FFC100" stroke-linecap="round" stroke-linejoin="round"/>
<path d="M14.625 19.9583C14.625 20.4393 15.0432 20.7438 15.7083 21.0417" stroke="#FFC100" stroke-linecap="round" stroke-linejoin="round"/>
</g>
<defs>
<clipPath id="clip0_0_1">
<rect width="30" height="30" fill="white"/>
</clipPath>
<clipPath id="clip1_0_1">
<rect width="13" height="13" fill="white" transform="translate(13 14)"/>
</clipPath>
</defs>
</svg>
