<svg width="35" height="34" viewBox="0 0 35 34" fill="none" xmlns="http://www.w3.org/2000/svg">
<path d="M17 16.9997C20.8353 16.9997 23.9444 13.8906 23.9444 10.0553C23.9444 6.21997 20.8353 3.11084 17 3.11084C13.1647 3.11084 10.0555 6.21997 10.0555 10.0553C10.0555 13.8906 13.1647 16.9997 17 16.9997Z" stroke="#004705" stroke-width="1.33333" stroke-linecap="round" stroke-linejoin="round"/>
<path d="M5.06934 30.8887C5.06934 25.5137 10.4166 21.1665 16.9999 21.1665C18.3332 21.1665 19.6249 21.3471 20.8332 21.6804" stroke="#004705" stroke-width="1.33333" stroke-linecap="round" stroke-linejoin="round"/>
<path d="M24.0442 18.9995C29.5646 19.7045 33.6154 23.7672 34.3323 29.2877" stroke="#FFC100" stroke-width="1.33333" stroke-linecap="round" stroke-linejoin="round"/>
<path d="M22.7656 23.0146C26.8163 23.5285 29.7917 26.5157 30.3174 30.5665" stroke="#FFC100" stroke-width="1.33333" stroke-linecap="round" stroke-linejoin="round"/>
<path d="M22.0009 27.5435C24.0202 27.8063 25.5139 29.288 25.7768 31.3194" stroke="#FFC100" stroke-width="1.33333" stroke-linecap="round" stroke-linejoin="round"/>
</svg>
