<svg width="25" height="23" viewBox="0 0 25 23" fill="none" xmlns="http://www.w3.org/2000/svg">
<path d="M19.8192 22.3288C19.8192 19.9372 16.6097 17.9984 12.6504 17.9984C8.69124 17.9984 5.48166 19.9372 5.48166 22.3288M24.1778 18.6918C24.1778 16.9161 22.4084 15.39 19.8766 14.7218M1.12305 18.6918C1.12305 16.9161 2.89244 15.39 5.42431 14.7218M19.8766 8.92793C20.7565 8.13502 21.3103 6.98273 21.3103 5.70023C21.3103 3.30864 19.3846 1.36987 17.0091 1.36987C15.9074 1.36987 14.9025 1.78682 14.1415 2.47252M5.42431 8.92793C4.54435 8.13502 3.99056 6.98273 3.99056 5.70023C3.99056 3.30864 5.9163 1.36987 8.29183 1.36987C9.39346 1.36987 10.3984 1.78682 11.1593 2.47252M12.6504 13.6681C10.2749 13.6681 8.34918 11.7293 8.34918 9.33772C8.34918 6.94613 10.2749 5.00737 12.6504 5.00737C15.026 5.00737 16.9517 6.94613 16.9517 9.33772C16.9517 11.7293 15.026 13.6681 12.6504 13.6681Z" stroke="#CCCCCC" stroke-width="1.04795" stroke-linecap="round" stroke-linejoin="round"/>
<path d="M19.819 22.3287C19.819 19.9371 16.6094 17.9984 12.6502 17.9984C8.69102 17.9984 5.48145 19.9371 5.48145 22.3287M12.6502 13.668C10.2747 13.668 8.34896 11.7293 8.34896 9.33768C8.34896 6.94609 10.2747 5.00732 12.6502 5.00732C15.0258 5.00732 16.9515 6.94609 16.9515 9.33768C16.9515 11.7293 15.0258 13.668 12.6502 13.668Z" stroke="#FFBE00" stroke-width="1.04795" stroke-linecap="round" stroke-linejoin="round"/>
</svg>
