<svg width="71" height="82" viewBox="0 0 71 82" fill="none" xmlns="http://www.w3.org/2000/svg">
<path d="M70.9997 22.8988C71.0147 21.1393 70.3749 20.2595 68.9203 19.4348C58.3535 13.4316 47.8216 7.36838 37.3148 1.2602C36.0202 0.505426 35.0505 0.445443 33.7209 1.22021C23.074 7.41837 12.3922 13.5515 1.68036 19.6397C0.425731 20.3495 -0.00912268 21.1493 0.0108714 22.5639C0.0808505 28.687 0.0408917 34.8152 0.0408917 40.9384C0.0408917 47.0616 0.0958363 53.1897 0.000864584 59.3129C-0.024128 60.8475 0.490768 61.6772 1.80038 62.422C12.4422 68.4652 23.059 74.5484 33.6409 80.6865C34.9405 81.4413 35.9102 81.5063 37.2348 80.7365C47.8166 74.5934 58.4285 68.4952 69.0703 62.462C70.4799 61.6622 70.9997 60.7875 70.9897 59.153C70.9148 47.0716 70.9098 34.9852 70.9947 22.9038L70.9997 22.8988ZM7.94351 58.5631C7.08876 58.0583 7.49863 57.2235 7.49863 56.5537C7.46864 46.3868 7.52862 36.2198 7.43365 26.0528C7.41366 24.1634 7.96354 23.6685 9.798 23.7285C13.8768 23.8635 17.9605 23.7685 22.0893 23.9784C18.1755 25.1981 14.8315 27.1825 12.1972 30.2766C8.75327 34.3204 7.90851 39.0889 8.36837 44.2074C10.1778 51.6052 14.8115 56.2638 22.0893 58.5581H7.94851L7.94351 58.5631ZM14.5515 41.3383C14.5015 34.8052 19.775 29.4718 26.328 29.4318C32.8861 29.3918 38.1995 34.6403 38.2395 41.1933C38.2745 47.7314 32.9961 53.0848 26.473 53.1248C19.955 53.1647 14.6015 47.8713 14.5515 41.3333V41.3383ZM52.8452 58.6381C51.9654 58.6231 51.7855 57.6834 51.4106 57.0736C49.3112 53.6196 47.2318 50.1556 44.5026 46.7267C44.5026 49.9507 44.3976 53.1747 44.5426 56.3938C44.6276 58.2532 44.0578 58.8281 42.1833 58.7581C38.3195 58.6181 34.4456 58.7131 30.5518 58.5481C32.4262 57.6884 34.3907 57.1286 36.0952 55.9989C42.2983 51.8901 45.2674 46.2318 44.3227 38.719C44.2627 38.2292 44.2777 37.7343 44.2577 37.2395C40.6788 29.0569 38.5244 26.9675 30.6717 23.7785C34.8855 23.7785 39.0992 23.7885 43.313 23.7735C44.5776 23.7685 44.4926 24.6382 44.5026 25.468C44.5426 28.4421 44.5476 31.4112 44.6426 34.3853C44.6676 35.1401 44.2477 36.0648 45.1724 36.6347C47.3718 32.6658 49.5711 28.702 51.7605 24.7282C52.1104 24.0984 52.5753 23.7635 53.34 23.7735C56.629 23.7985 59.918 23.7835 63.227 23.7835C63.357 25.0181 62.5322 25.598 62.0474 26.3027C59.0233 30.6415 56.0742 35.0401 52.8502 39.2289C51.5506 40.9184 51.8555 41.9731 52.9651 43.4826C56.5241 48.3312 59.9531 53.2747 63.7769 58.6631C59.8181 58.6631 56.3241 58.6981 52.8352 58.6381H52.8452Z" fill="white"/>
<path d="M45.1825 36.6348C45.0525 36.7197 44.9226 36.8047 44.7926 36.8897C44.9426 36.8397 45.0925 36.7797 45.1825 36.6348Z" fill="white"/>
<path d="M34.8254 41.3932C34.8354 46.0568 31.1965 49.7607 26.5329 49.8307C21.8143 49.9007 17.9405 46.1218 17.9205 41.4182C17.9005 36.8546 21.6643 33.0257 26.258 32.9457C30.9666 32.8608 34.8154 36.6546 34.8254 41.3932Z" fill="#FCFEFD"/>
</svg>
