<svg width="129" height="48" viewBox="0 0 129 48" fill="none" xmlns="http://www.w3.org/2000/svg">
<path d="M38.771 38.0153L27.8452 36.2222L36.6162 48L43.0806 42.8535L38.771 38.0153Z" fill="white"/>
<path d="M22.0762 43.7217C22.9137 43.8376 23.7582 43.8964 24.6038 43.8979C27.2576 43.9019 29.8786 43.315 32.2752 42.1803L27.8518 36.2222L22.0762 43.7217Z" fill="white"/>
<path d="M42.0385 24.7636L41.7541 24.4993L41.4003 24.1659C39.5303 22.5012 37.4219 21.1229 35.1443 20.0763C34.355 19.7118 33.5472 19.3884 32.7241 19.1074C34.3969 21.0402 35.3143 23.5083 35.3086 26.0596C35.3086 26.3742 35.296 26.6825 35.2707 26.9845V27.1544C35.2707 27.4186 35.2075 27.6766 35.1633 27.9282C35.1663 27.9722 35.1663 28.0164 35.1633 28.0603C35.1085 28.3623 35.039 28.658 34.9547 28.9475C34.8789 29.2243 34.7841 29.4885 34.6893 29.7591C34.671 29.8105 34.6499 29.8609 34.6262 29.9101C34.5314 30.168 34.4176 30.4134 34.3039 30.6588V30.7091C34.1712 30.9796 34.0322 31.2376 33.8742 31.4956L33.8236 31.5836C33.6846 31.7975 33.5456 32.0115 33.3939 32.2128L33.2991 32.3386C33.1285 32.5714 32.9516 32.7979 32.762 33.0118C32.0072 33.8775 31.1175 34.6168 30.127 35.2013L39.0748 36.6421C41.3344 33.5739 42.5439 29.8641 42.5251 26.0596C42.5251 25.7765 42.5251 25.4997 42.5251 25.2166L42.0385 24.7636Z" fill="white"/>
<path d="M13.9107 26.0595C13.9214 23.5149 14.8498 21.0588 16.5269 19.1387C13.3258 20.2219 10.3756 21.9334 7.85072 24.172L7.49053 24.5054L7.20616 24.776L6.74487 25.229C6.74487 25.5121 6.74487 25.7889 6.74487 26.072C6.74674 30.3653 8.30277 34.5141 11.1277 37.7578C13.9527 41.0014 17.8572 43.1227 22.1256 43.7325L27.895 36.233C26.8447 36.5463 25.7559 36.7136 24.6596 36.73C23.2488 36.7366 21.8507 36.4654 20.5456 35.9319C19.2406 35.3984 18.0544 34.6132 17.0553 33.6214C16.0563 32.6296 15.2641 31.4509 14.7245 30.1531C14.1848 28.8553 13.9082 27.4641 13.9107 26.0595Z" fill="white"/>
<path d="M44.0664 22.2345V22.1904C44.0696 22.1422 44.0696 22.0939 44.0664 22.0457C44.0235 21.8007 43.8961 21.5782 43.7062 21.4165L43.662 21.3788C43.484 21.2203 43.3288 21.0383 43.2007 20.8377C43.1819 20.8048 43.1607 20.7733 43.1375 20.7433C43.0415 20.5735 42.9632 20.3943 42.9037 20.2086C42.8902 20.1695 42.8797 20.1296 42.8721 20.089C42.765 19.6761 42.6911 19.2553 42.651 18.8307C42.5321 18.0112 42.3611 17.2001 42.1391 16.4022C41.9443 15.722 41.7036 15.0556 41.4187 14.4077C41.3618 14.2756 41.2986 14.1372 41.2354 14.0051C41.0206 13.5458 40.7868 13.1054 40.5467 12.6712L40.4898 12.5706C40.2707 12.1805 40.0369 11.803 39.7884 11.4381C39.7505 11.3815 39.7125 11.3186 39.6683 11.2619C39.4282 10.9033 39.1691 10.551 38.9037 10.2175L38.8279 10.1169C37.9159 8.98444 36.8675 7.96805 35.7062 7.09062L35.6304 7.03398C35.4534 6.89557 35.2765 6.75716 35.0869 6.63132C34.8974 6.50549 34.6888 6.36708 34.455 6.23496L34.3919 6.19092C34.0001 5.94764 33.5956 5.70856 33.1786 5.47367L33.0964 5.42964C33.0648 5.61839 33.0269 5.80084 32.989 5.98329C32.4118 8.89 31.8094 11.7862 31.1817 14.672C31.1817 14.7915 31.1375 14.911 31.1122 15.0369C30.88 14.8391 30.5837 14.7318 30.2781 14.7349C30.2087 14.7287 30.1389 14.7287 30.0696 14.7349C30.1075 14.1435 30.1644 13.5709 30.2465 12.9984C30.6678 10.2133 31.049 7.41778 31.3903 4.61173C31.4345 4.22794 31.485 3.83786 31.5356 3.44778C31.643 2.54809 31.8832 1.56031 30.594 1.10103C28.7758 0.450632 26.8688 0.0793772 24.9384 0H24.1928C24.0095 0 23.8326 0 23.6493 0H23.4787L22.9479 0.0440409H22.7457L22.2339 0.106956H22.0127L21.5071 0.195038L21.2797 0.232785L20.7804 0.346034L20.5466 0.402661L20.0158 0.547365C19.9526 0.547365 19.8831 0.547367 19.8199 0.603991C19.5735 0.673199 19.3333 0.754991 19.0869 0.836782C17.9937 1.22057 17.5514 1.88118 17.7473 3.15208C17.8168 3.59878 17.88 4.03919 17.9495 4.4859C18.0695 5.32897 18.1896 6.17205 18.3033 7.00253C18.3006 7.04233 18.3006 7.08227 18.3033 7.12207C18.6003 9.34299 18.8721 11.5702 19.1501 13.7974L19.207 14.2379C19.207 14.37 19.207 14.5084 19.2512 14.6405H19.0743C18.7856 14.6375 18.5047 14.733 18.2781 14.911C17.5788 11.7149 16.8836 8.5188 16.1927 5.32267C12.576 7.15437 9.69255 10.1562 8.01582 13.8352C7.66345 14.6314 7.36781 15.4513 7.13112 16.2889C6.89347 17.1304 6.70776 17.9855 6.57504 18.8496C6.54195 19.3857 6.43565 19.9149 6.25908 20.4225C6.1132 20.7434 5.87589 21.0147 5.5766 21.2026C5.35914 21.3912 5.21299 21.6482 5.16241 21.9308C5.11184 22.2135 5.15987 22.5049 5.29856 22.7567C5.33172 22.8467 5.37408 22.9332 5.42495 23.0146C5.57681 23.2563 5.78991 23.4539 6.04282 23.5875C6.29574 23.7212 6.57959 23.7861 6.86573 23.7759L7.01738 23.6312C11.7807 19.1832 18.0667 16.7086 24.5972 16.7104C24.8879 16.7104 25.1786 16.7104 25.4629 16.7104L26.1391 16.7419L26.7014 16.7796L27.3713 16.8426L27.9274 16.9118L28.5593 16.9999L29.109 17.0942L29.7409 17.2138L30.2844 17.3333L30.9163 17.4843L31.4534 17.629L32.0854 17.8052L32.6225 17.9813L33.2165 18.1764L33.7536 18.3777L34.3223 18.5979L34.8595 18.8307L35.4092 19.0698L35.94 19.3277L36.4645 19.5857L36.9953 19.8751L37.4945 20.1519L38.019 20.4728L38.493 20.7622C38.6699 20.8755 38.8468 21.0013 39.0237 21.1208C39.2007 21.2404 39.3207 21.3159 39.4598 21.4165C39.5988 21.5172 39.8326 21.6871 40.0095 21.8192L40.4013 22.1086L40.989 22.5868L41.305 22.8447C41.6041 23.0964 41.8948 23.3544 42.177 23.6186L42.3287 23.7633C42.4606 23.7593 42.5918 23.7425 42.7205 23.713C42.7939 23.6987 42.8658 23.6776 42.9353 23.6501H42.9922L43.1438 23.5746C43.385 23.44 43.5895 23.2486 43.7393 23.0172C43.8891 22.7858 43.9797 22.5214 44.0032 22.247C44.0247 22.245 44.0459 22.2408 44.0664 22.2345Z" fill="white"/>
<path d="M55.612 28.1666H50.9485V18.6789C50.9498 18.1123 51.0091 17.5473 51.1254 16.9927C51.2435 16.4524 51.4326 15.9299 51.6879 15.4387C51.947 14.9399 52.2816 14.4836 52.68 14.086C53.1065 13.6563 53.5993 13.2974 54.1397 13.0228C54.766 12.7075 55.4309 12.4749 56.1176 12.3307C56.9482 12.154 57.7959 12.0696 58.6452 12.079C59.4946 12.0687 60.3424 12.1531 61.1729 12.3307C61.8558 12.4738 62.5167 12.7065 63.1381 13.0228C63.6741 13.2985 64.1625 13.6574 64.5852 14.086C65.3584 14.8931 65.8883 15.9003 66.1144 16.9927C66.2339 17.5469 66.2932 18.1122 66.2913 18.6789V28.1666H61.5836V18.5656C61.5826 18.2162 61.5423 17.868 61.4635 17.5275C61.3854 17.2048 61.2317 16.9051 61.0149 16.653C60.7676 16.3873 60.4599 16.1844 60.1175 16.0616C59.6469 15.8979 59.1497 15.8232 58.6515 15.8414C58.1493 15.8249 57.6483 15.8996 57.1729 16.0616C56.8188 16.1828 56.4984 16.3854 56.2376 16.653C56.0053 16.9009 55.8362 17.2009 55.7447 17.5275C55.6502 17.8655 55.6034 18.2148 55.6057 18.5656V19.6855C56.1423 19.2235 56.7619 18.867 57.4319 18.6348C58.2016 18.3869 59.0053 18.2596 59.8142 18.2574V21.6548C59.1162 21.6623 58.4242 21.7856 57.7669 22.0197C57.2776 22.2084 56.8433 22.5155 56.503 22.9131C56.1766 23.3113 55.9454 23.7782 55.8269 24.2784C55.6893 24.8661 55.6235 25.4681 55.631 26.0715L55.612 28.1666Z" fill="white"/>
<path d="M51.1829 10.5837L52.731 7.20508H66.2982V10.5837H51.1829Z" fill="white"/>
<path d="M77.0973 20.2908C77.1051 19.5855 77.0566 18.8807 76.9519 18.1831C76.8851 17.7 76.7354 17.2318 76.5096 16.799C76.3415 16.4778 76.0822 16.2131 75.7639 16.0377C75.4363 15.8761 75.0742 15.7962 74.7087 15.8049C74.4607 15.7999 74.2148 15.8498 73.9885 15.951C73.7623 16.0522 73.5615 16.2022 73.4006 16.3901C72.9916 16.9402 72.7483 17.5948 72.6992 18.2775H67.8777C67.943 17.4032 68.1746 16.5492 68.5602 15.7609C68.924 15.0157 69.4256 14.3455 70.0388 13.7853C70.6494 13.225 71.3614 12.7852 72.1368 12.4893C72.9574 12.1757 73.8297 12.0178 74.7087 12.0237C75.7776 12.0046 76.8387 12.2082 77.824 12.6214C78.7023 12.9991 79.4809 13.574 80.0989 14.3012C80.7352 15.0631 81.2063 15.9478 81.4827 16.8997C82.1148 19.106 82.1148 21.4442 81.4827 23.6505C81.205 24.6019 80.734 25.4863 80.0989 26.249C79.4841 26.9842 78.7051 27.566 77.824 27.9477C76.8368 28.3534 75.7764 28.5526 74.7087 28.5328C73.8301 28.5409 72.9578 28.3851 72.1368 28.0735C71.363 27.7917 70.6507 27.3645 70.0388 26.8152C69.4256 26.2527 68.924 25.5804 68.5602 24.8334C68.1758 24.0447 67.9442 23.1909 67.8777 22.3167H72.6992C72.7426 22.7094 72.8317 23.0958 72.9646 23.4681C73.0699 23.7253 73.2172 23.9634 73.4006 24.1727C73.5633 24.3573 73.7637 24.5053 73.9883 24.6069C74.2175 24.6971 74.4622 24.742 74.7087 24.739C75.0673 24.7466 75.4226 24.6689 75.745 24.5125C76.0643 24.345 76.3261 24.0865 76.497 23.7701C76.7243 23.3419 76.8761 22.8779 76.9456 22.3985C77.0562 21.7015 77.1069 20.9964 77.0973 20.2908Z" fill="white"/>
<path d="M90.834 16.0372C91.1328 15.9561 91.4107 15.8123 91.6492 15.6156C91.8805 15.4161 92.0658 15.1693 92.1926 14.8921C92.348 14.5587 92.4544 14.2049 92.5086 13.8414C92.5764 13.3726 92.6081 12.8994 92.6034 12.4258H96.9636C96.9636 13.0549 96.9636 13.5897 96.8877 14.093C96.8473 14.5609 96.7475 15.0217 96.5908 15.4646C96.4459 15.8711 96.2322 16.2499 95.9588 16.5845C95.6627 16.9429 95.308 17.2492 94.9098 17.4905C95.2685 17.7065 95.5749 17.9987 95.8072 18.3462C96.0244 18.6787 96.1965 19.0383 96.319 19.4157C96.4348 19.7716 96.5131 20.1385 96.5528 20.5105C96.5844 20.8628 96.6034 21.1774 96.6034 21.4479V23.2536C96.6117 23.8307 96.5219 24.405 96.338 24.9523C96.1736 25.4374 95.9302 25.8923 95.6176 26.2987C95.3138 26.6893 94.9515 27.0309 94.5434 27.3117C94.1247 27.5957 93.6753 27.8321 93.2037 28.0163C92.7213 28.1997 92.2217 28.3346 91.7124 28.419C90.667 28.6 89.5982 28.6 88.5528 28.419C88.0276 28.3262 87.5131 28.1807 87.0173 27.9849C86.5312 27.7982 86.0689 27.5553 85.6397 27.2613C85.2216 26.9766 84.8488 26.6309 84.5339 26.2358C84.2179 25.8354 83.9683 25.3872 83.7945 24.9083C83.6119 24.378 83.5222 23.8204 83.5291 23.2599V21.838C83.5268 21.4803 83.5501 21.1228 83.5986 20.7684C83.6369 20.4894 83.7047 20.2153 83.8009 19.9505C83.8842 19.7294 83.9923 19.5184 84.1231 19.3213C84.2493 19.1255 84.3886 18.9385 84.5402 18.7614C84.6918 18.5789 84.8624 18.3902 85.0394 18.2014C85.2163 18.0127 85.4059 17.7988 85.6081 17.5723C85.8103 17.3458 86.101 16.9431 86.2779 16.7166C86.4401 16.5092 86.5408 16.2608 86.5686 15.9994C86.5813 15.9256 86.5771 15.85 86.5563 15.7781C86.5355 15.7062 86.4987 15.6399 86.4486 15.5842C86.4008 15.5194 86.3392 15.466 86.2681 15.4279C86.1971 15.3898 86.1184 15.368 86.0378 15.3639C85.8812 15.365 85.7249 15.3776 85.5702 15.4017C85.4059 15.4017 85.21 15.4709 84.9889 15.5275L84.199 15.7666L83.1121 16.1315V12.9417C83.4659 12.8117 83.8135 12.6984 84.1547 12.6019C84.496 12.5013 84.7866 12.4258 85.1026 12.3629C85.4186 12.2999 85.6587 12.2496 85.8925 12.2182C86.1263 12.1867 86.3158 12.1741 86.4612 12.1741C87.0711 12.169 87.6789 12.2452 88.2685 12.4006C88.7895 12.5322 89.2792 12.7653 89.7092 13.0864C90.105 13.3967 90.4158 13.8013 90.6129 14.2629C90.8233 14.7943 90.8951 15.37 90.8214 15.9365L90.834 16.0372ZM91.9083 21.4479C91.9403 20.7229 91.7556 20.0047 91.3775 19.3843C91.1882 19.1119 90.9413 18.884 90.6542 18.7166C90.3671 18.5493 90.0468 18.4464 89.7155 18.4154L88.8309 19.6737C88.7014 19.8345 88.5912 20.0098 88.5023 20.1959C88.4299 20.3428 88.3727 20.4967 88.3317 20.6552C88.3005 20.811 88.2794 20.9686 88.2685 21.127C88.2685 21.2843 88.2685 21.4668 88.2685 21.6681V23.046C88.2685 24.6063 88.9004 25.3927 90.2021 25.3927C90.4589 25.3956 90.7146 25.3596 90.9604 25.2858C91.1702 25.2232 91.357 25.1007 91.4975 24.9335C91.6523 24.7504 91.7645 24.5356 91.8261 24.3043C91.904 23.966 91.9401 23.6195 91.9336 23.2725L91.9083 21.4479Z" fill="white"/>
<path d="M92.0676 4.55566H96.6174V10.1614H92.0676V4.55566Z" fill="white"/>
<path d="M98.0445 17.9493C98.0263 17.06 98.2031 16.1776 98.5627 15.3634C98.886 14.6643 99.3532 14.0406 99.9339 13.5326C100.506 13.0446 101.17 12.6746 101.887 12.4441C102.613 12.1994 103.375 12.0761 104.142 12.0792C104.689 12.0794 105.235 12.1278 105.773 12.2239C106.286 12.3183 106.788 12.466 107.27 12.6643C107.72 12.8609 108.144 13.1102 108.534 13.4067C108.926 13.7008 109.267 14.0556 109.545 14.4574C109.826 14.8791 110.04 15.3419 110.177 15.829C110.339 16.3806 110.418 16.9531 110.411 17.5277V28.1668H105.703V18.031C105.756 17.4402 105.614 16.8483 105.299 16.3449C105.151 16.172 104.963 16.0363 104.753 15.9489C104.542 15.8614 104.313 15.8247 104.086 15.8416C103.871 15.8342 103.657 15.8751 103.46 15.9611C103.263 16.0472 103.088 16.1762 102.948 16.3386C102.607 16.8072 102.424 17.3708 102.424 17.9493H98.0445Z" fill="white"/>
<path d="M118.676 24.8319C118.697 24.9171 118.741 24.9953 118.802 25.0583C118.822 25.0838 118.847 25.1048 118.875 25.1199C118.903 25.1351 118.935 25.1441 118.967 25.1464C118.998 25.1443 119.028 25.1346 119.054 25.1182C119.081 25.1017 119.103 25.079 119.118 25.0521C119.163 24.9557 119.183 24.8497 119.175 24.7438V15.6147H117.058V12.4248H123.883V24.058C123.89 24.5718 123.827 25.0841 123.694 25.5806C123.585 25.9948 123.407 26.3881 123.169 26.7445C122.948 27.0681 122.675 27.3529 122.36 27.5876C122.04 27.8206 121.689 28.009 121.318 28.1475C120.924 28.2949 120.515 28.3983 120.098 28.4558C119.652 28.5199 119.202 28.5514 118.752 28.5502C118.189 28.5577 117.627 28.4857 117.084 28.3363C116.61 28.199 116.162 27.9866 115.757 27.7071C115.371 27.4376 115.034 27.1059 114.758 26.7256C114.477 26.3248 114.25 25.8891 114.082 25.4296L111.504 18.3641H116.37L118.676 24.8319Z" fill="white"/>
<path d="M57.7215 43.4308L56.7547 41.8453C56.5061 41.8855 56.2545 41.9044 56.0027 41.902C55.0873 41.9097 54.1856 41.6798 53.3866 41.2351C52.6013 40.7993 51.9469 40.163 51.4908 39.3916C51.0353 38.5813 50.7961 37.6683 50.7961 36.7397C50.7961 35.8112 51.0353 34.8981 51.4908 34.0878C51.9456 33.317 52.6004 32.6824 53.3866 32.2507C54.1876 31.8173 55.0848 31.5903 55.9964 31.5903C56.908 31.5903 57.8052 31.8173 58.6062 32.2507C59.3952 32.6786 60.051 33.3141 60.5019 34.0878C60.917 34.8263 61.1531 35.6512 61.1915 36.4966C61.2299 37.342 61.0695 38.1847 60.7231 38.9575C60.4327 39.6168 60.0014 40.2051 59.4593 40.6814L61.513 43.4308H57.7215ZM54.5303 38.3598C54.7113 38.5696 54.938 38.7353 55.1932 38.8444C55.4484 38.9534 55.7253 39.0029 56.0027 38.989C56.2762 39.0014 56.5489 38.9511 56.7997 38.842C57.0506 38.7329 57.273 38.568 57.4498 38.3598C57.8147 37.8993 57.9989 37.3223 57.968 36.7366C57.9979 36.1471 57.814 35.5665 57.4498 35.1008C57.273 34.8926 57.0506 34.7276 56.7997 34.6185C56.5489 34.5095 56.2762 34.4592 56.0027 34.4716C55.7253 34.4577 55.4484 34.5071 55.1932 34.6162C54.938 34.7252 54.7113 34.891 54.5303 35.1008C54.1684 35.5673 53.9867 36.1479 54.0185 36.7366C53.9852 37.3216 54.1672 37.8987 54.5303 38.3598Z" fill="white"/>
<path d="M68.7981 35.6616V38.26H62.5928V35.6616H68.7981Z" fill="white"/>
<path d="M70.9723 34.1143C71.3625 33.3587 71.9638 32.7316 72.7038 32.3086C73.5149 31.8694 74.4286 31.6523 75.3515 31.6795C76.1573 31.6668 76.9558 31.8322 77.6896 32.1639C78.36 32.4739 78.9389 32.9506 79.3705 33.5481C79.8134 34.1682 80.1094 34.8802 80.2362 35.6306H76.8997C76.7655 35.3208 76.5465 35.0548 76.2678 34.863C75.9837 34.6748 75.6484 34.5781 75.3073 34.5862C75.0644 34.5767 74.8229 34.6255 74.6029 34.7284C74.383 34.8314 74.1911 34.9854 74.0434 35.1776C73.7421 35.6589 73.5823 36.2147 73.5823 36.7819C73.5823 37.3491 73.7421 37.905 74.0434 38.3863C74.1911 38.5785 74.383 38.7325 74.6029 38.8355C74.8229 38.9384 75.0644 38.9872 75.3073 38.9777C75.6484 38.9858 75.9837 38.8891 76.2678 38.7009C76.5481 38.5081 76.7674 38.2396 76.8997 37.927H80.2362C80.1104 38.6796 79.8143 39.3939 79.3705 40.0158C78.9385 40.6114 78.3595 41.0859 77.6896 41.3937C76.9572 41.7304 76.158 41.8981 75.3515 41.8844C74.4286 41.9116 73.5149 41.6945 72.7038 41.2553C71.9611 40.8329 71.3591 40.2029 70.9723 39.4433C70.5729 38.6158 70.3655 37.7095 70.3655 36.7914C70.3655 35.8733 70.5729 34.967 70.9723 34.1395V34.1143Z" fill="white"/>
<path d="M90.7013 31.7604V41.8269H87.5417V37.8884H84.5338V41.7892H81.3743V31.7227H84.5338V35.3403H87.5417V31.7227L90.7013 31.7604Z" fill="white"/>
<path d="M98.5877 40.2851H95.2323L94.7331 41.8014H91.4155L95.0996 31.7349H98.7457L102.423 41.8014H99.087L98.5877 40.2851ZM97.8231 37.9132L96.9132 35.1197L95.9969 37.9132H97.8231Z" fill="white"/>
<path d="M112.806 41.7892H109.647L106.304 36.7559V41.7892H103.144V31.7227H106.304L109.647 36.8566V31.7227H112.806V41.7892Z" fill="white"/>
<path d="M120.408 35.1946C120.283 34.9934 120.1 34.8336 119.884 34.7353C119.624 34.6196 119.341 34.5637 119.056 34.5718C118.792 34.5565 118.528 34.6013 118.284 34.7026C118.039 34.804 117.822 34.9594 117.647 35.1569C117.29 35.6162 117.113 36.1883 117.147 36.7675C117.096 37.4025 117.295 38.0324 117.704 38.5229C117.931 38.7334 118.201 38.8941 118.495 38.9949C118.788 39.0956 119.1 39.1342 119.41 39.108C119.754 39.1152 120.095 39.0388 120.404 38.8853C120.712 38.7318 120.978 38.506 121.179 38.2272H118.651V36H123.789V39.1458C123.335 39.9095 122.718 40.5645 121.982 41.0647C121.115 41.6259 120.095 41.9051 119.062 41.8637C118.115 41.8906 117.177 41.6739 116.339 41.2346C115.577 40.8197 114.957 40.189 114.557 39.4226C114.149 38.5975 113.937 37.6902 113.937 36.7707C113.937 35.8511 114.149 34.9439 114.557 34.1188C114.957 33.358 115.572 32.7303 116.326 32.3131C117.16 31.8745 118.094 31.6578 119.037 31.6839C120.188 31.6324 121.323 31.9669 122.26 32.634C122.667 32.9426 123.008 33.3303 123.261 33.7737C123.514 34.217 123.674 34.7068 123.732 35.2135L120.408 35.1946Z" fill="white"/>
</svg>
