<svg width="175" height="26" viewBox="0 0 175 26" fill="none" xmlns="http://www.w3.org/2000/svg">
<path fill-rule="evenodd" clip-rule="evenodd" d="M95.9635 11.8983C95.9635 11.8983 94.2609 10.8455 93.2081 10.4381C93.2081 10.4381 89.9492 8.92772 89.3027 8.20911C89.3027 8.20911 88.0326 7.01215 88.7763 5.62188C88.7763 5.62188 89.0876 4.71215 90.4298 4.71215C90.4298 4.71215 92.1772 4.80826 92.1772 6.24439V8.27027H98.4394L98.4284 5.2866C98.4284 5.2866 98.9101 0.400477 91.0523 0.18533C91.0523 0.18533 84.872 -0.220943 83.0995 3.10783C83.0995 3.10783 82.4038 3.85047 82.4038 6.43661V8.30522C82.4038 8.30522 82.3328 10.4611 83.4337 11.8502C83.4337 11.8502 84.0562 12.7611 85.5895 13.7658C85.5895 13.7658 88.7031 15.4422 90.5718 16.4022C90.5718 16.4022 92.4578 17.479 92.2099 19.1925C92.2099 19.1925 92.0559 20.9519 90.2343 20.8798C90.2343 20.8798 88.5688 20.8056 88.5688 19.08V17.0553H81.896V19.9963C81.896 19.9963 81.7092 25.6207 90.2834 25.6207C90.2834 25.6207 98.4765 25.7867 98.8587 19.8489V17.4539C98.8576 17.4539 99.1481 13.8149 95.9635 11.8983ZM63.9034 0.885376L61.8065 14.0257H61.3161L59.3132 1.00333H48.8529L48.3287 24.7995H54.5221L54.5963 6.87018H55.0834L58.3663 24.7962H64.8819L68.1244 6.87673H68.5558L68.7054 24.7995H74.9316L74.261 0.885376H63.9034ZM27.0357 0.984762L22.9151 24.7722H29.5825L32.0234 6.32849H32.5716L35.0114 24.7722H41.6777L37.5582 0.984762H27.0357ZM166.938 11.5706V15.0796H168.648V18.8463C168.648 20.6876 167.075 20.7215 167.075 20.7215C165.161 20.7215 165.233 18.9719 165.233 18.9719V5.94296C165.233 4.60075 166.931 4.52868 166.931 4.52868C168.561 4.52868 168.572 6.12972 168.572 6.12972V8.11082H174.849C175.055 4.24363 174.284 3.30769 174.284 3.30769C172.726 -0.189264 166.835 0.00185564 166.835 0.00185564C157.783 0.00185564 158.788 6.94772 158.788 6.94772V19.5453C158.982 26.0598 167.902 25.3979 168.053 25.3925C172.021 24.9534 173.219 23.6921 173.219 23.6921C174.322 22.873 174.606 21.7383 174.606 21.7383C174.921 21.0775 175 18.9719 175 18.9719V11.5706H166.938ZM146.13 15.4422H145.857L139.487 0.891925H131.865V24.8016H138.068L137.697 10.2536H137.974L144.574 24.8016H151.964V0.889742H145.682L146.13 15.4422ZM116.722 18.8441C116.722 18.8441 116.812 20.8067 114.993 20.8067C114.993 20.8067 113.079 20.9093 113.079 18.8933L113.06 0.906123H106.256V18.7502C106.256 18.7502 105.558 25.5039 115.089 25.5039C115.089 25.5039 123.371 25.6022 123.371 19.0604V0.907215H116.722V18.8441ZM14.0646 11.8983C14.0646 11.8983 12.3642 10.8455 11.3103 10.4392C11.3103 10.4392 8.0536 8.92991 7.40706 8.2102C7.40706 8.2102 6.13693 7.01105 6.88175 5.62407C6.88175 5.62407 7.19191 4.71433 8.53303 4.71433C8.53303 4.71433 10.2815 4.80935 10.2815 6.24548V8.27136H16.5459L16.5339 5.2866C16.5339 5.2866 17.0122 0.400477 9.15772 0.186422C9.15772 0.186422 8.5658 0.148195 7.69756 0.19188C7.69756 0.19188 2.93921 0.447435 1.23769 3.05759C1.22787 3.07725 1.21367 3.09146 1.20384 3.10893C1.20384 3.10893 0.509253 3.85047 0.509253 6.4377V8.30631C0.509253 8.30631 0.437173 10.4621 1.53912 11.8513C1.53912 11.8513 2.16163 12.7621 3.69496 13.7669C3.69496 13.7669 6.80749 15.4433 8.6761 16.4033C8.6761 16.4033 10.5644 17.4779 10.3143 19.1936C10.3143 19.1936 10.1603 20.953 8.33973 20.8809C8.33973 20.8809 6.67425 20.8067 6.67425 19.0811V17.0553H0.000325408V19.9985C0.000325408 19.9985 -0.186426 25.6229 8.38778 25.6229C8.38778 25.6229 16.5787 25.7889 16.9642 19.8511V17.4583C16.9642 17.4561 17.2503 13.8149 14.0646 11.8983Z" fill="white"/>
</svg>
