<svg width="162" height="38" viewBox="0 0 162 38" fill="none" xmlns="http://www.w3.org/2000/svg">
<g clip-path="url(#clip0_298_287)">
<path d="M36.5859 11.642C35.7505 9.6477 34.5916 7.84202 33.1363 6.25195L33.0554 6.65621L32.3817 9.89025C34.1604 12.4775 35.2115 15.6307 35.2115 19.0264C35.2115 27.92 28.0157 35.1158 19.1221 35.1158C17.3434 35.1158 15.6455 34.8193 14.0554 34.3073C14.0015 34.4151 13.9746 34.5229 13.9207 34.6037C13.8668 34.7115 13.8129 34.8193 13.759 34.9002C13.4895 35.3583 13.193 35.7895 12.8157 36.1668C12.7349 36.2477 12.654 36.3285 12.6001 36.3824C12.5732 36.3824 12.5732 36.4094 12.5462 36.4094C12.4384 36.4903 12.3576 36.5711 12.2498 36.652C14.4327 37.4874 16.7505 37.9186 19.0951 37.9186C21.6554 37.9186 24.1349 37.4066 26.4795 36.4363C28.7434 35.4931 30.7646 34.1186 32.5164 32.3668C34.2682 30.6151 35.6157 28.5938 36.5859 26.33C37.5831 23.9853 38.0682 21.5059 38.0682 18.9456C38.0682 16.4661 37.5831 13.9867 36.5859 11.642Z" fill="white"/>
<path d="M19.1219 2.9373C20.8467 2.9373 22.5176 3.20681 24.0807 3.71886C24.1077 3.61106 24.1346 3.50326 24.1616 3.39546C24.1885 3.28766 24.2424 3.17986 24.2694 3.07206C24.458 2.58695 24.7006 2.12879 24.997 1.69759C25.0779 1.58979 25.1318 1.50894 25.2126 1.42808C25.2665 1.34723 25.3474 1.26638 25.4013 1.21248C25.4282 1.18553 25.4282 1.18553 25.4552 1.15858C23.4339 0.430921 21.3048 0.0805664 19.1219 0.0805664C16.5616 0.0805664 14.0821 0.592623 11.7375 1.56284C9.47363 2.5061 7.45235 3.88057 5.70058 5.63234C3.9488 7.38411 2.60129 9.40539 1.63107 11.6692C0.66086 13.9869 0.148804 16.4664 0.148804 19.0267C0.148804 21.587 0.66086 24.0664 1.63107 26.4111C2.46653 28.3515 3.59845 30.1302 4.99987 31.6933L5.78143 28.082C4.02965 25.4948 3.00554 22.3955 3.00554 19.0267C3.00554 10.133 10.2282 2.9373 19.1219 2.9373Z" fill="white"/>
<path d="M12.4923 33.3914L15.0795 21.6949H22.1944L20.227 30.8311H22.6256C22.6526 30.8311 22.7065 30.8311 22.7334 30.8311C25.3207 30.8311 26.3987 28.9446 26.776 28.0013L30.9263 8.085L31.0072 7.68074L31.5192 5.14741L32.4086 0.862305H30.1717C30.1717 0.862305 28.5547 0.862305 27.2611 1.88642C27.1533 1.96727 27.0724 2.04812 26.9916 2.12897C26.9107 2.20982 26.8299 2.29067 26.749 2.37152C26.4256 2.72188 26.1561 3.15308 25.9675 3.69209C25.9405 3.79989 25.8866 3.90769 25.8597 4.0155C25.8327 4.1233 25.8058 4.2311 25.7788 4.3389C25.7788 4.36585 25.7788 4.3928 25.7519 4.41975V4.3389L23.3533 16.1701H16.2384L17.9902 7.89635H15.5377C12.115 7.89635 11.3334 11.2112 11.3334 11.2382L5.80859 36.3829H8.07242C8.07242 36.3829 9.17739 36.3829 10.3093 35.8169C10.4171 35.763 10.5519 35.6822 10.6597 35.6283C10.7675 35.5744 10.8753 35.4935 10.9831 35.4127C11.3873 35.1162 11.7646 34.7389 12.088 34.2538C12.1419 34.1729 12.1958 34.0651 12.2497 33.9573C12.3036 33.8495 12.3575 33.7687 12.3845 33.6609C12.4384 33.58 12.4653 33.4722 12.4923 33.3914Z" fill="white"/>
<path d="M56.7178 11.9125C56.5561 12.1011 56.4214 12.2628 56.2597 12.3706C56.1249 12.4784 55.9363 12.5323 55.7207 12.5323C55.532 12.5323 55.3164 12.4784 55.1278 12.3437C54.9391 12.2089 54.6966 12.0742 54.454 11.9125C54.2115 11.7508 53.915 11.616 53.5916 11.4813C53.2682 11.3465 52.8909 11.2926 52.4597 11.2926C52.0554 11.2926 51.7051 11.3465 51.4086 11.4543C51.1122 11.5621 50.8696 11.7238 50.654 11.9125C50.4654 12.1011 50.3037 12.3437 50.1959 12.6132C50.0881 12.8827 50.0342 13.1791 50.0342 13.5026C50.0342 13.8529 50.142 14.1494 50.3306 14.365C50.5193 14.6075 50.7888 14.7962 51.1122 14.9848C51.4356 15.1735 51.8129 15.3352 52.2171 15.4699C52.6214 15.6047 53.0526 15.7664 53.4568 15.955C53.8881 16.1167 54.2923 16.3323 54.7235 16.5479C55.1278 16.7635 55.5051 17.06 55.8285 17.3834C56.1519 17.7338 56.4214 18.138 56.61 18.5962C56.7987 19.0813 56.9065 19.6472 56.9065 20.321C56.9065 21.2643 56.7448 22.1806 56.4214 23.016C56.098 23.8515 55.6129 24.5791 55.02 25.226C54.4001 25.8458 53.6725 26.3579 52.7831 26.7082C51.8937 27.0855 50.9235 27.2472 49.8186 27.2472C49.2795 27.2472 48.7136 27.1933 48.1746 27.0586C47.6356 26.9508 47.0966 26.7621 46.5845 26.5465C46.0725 26.3309 45.6143 26.0614 45.1831 25.765C44.7519 25.4685 44.3746 25.1182 44.0781 24.7409L45.5873 22.7735C45.6951 22.6387 45.8568 22.504 46.0455 22.4231C46.2342 22.3153 46.3959 22.2884 46.5845 22.2884C46.8271 22.2884 47.0696 22.3692 47.2852 22.5309C47.5278 22.6926 47.7703 22.8813 48.0398 23.0969C48.3093 23.3125 48.6327 23.4742 49.01 23.6628C49.3873 23.8245 49.8186 23.9054 50.3576 23.9054C51.1391 23.9054 51.759 23.6898 52.1902 23.2586C52.6214 22.8274 52.837 22.2075 52.837 21.3451C52.837 20.9678 52.7292 20.6444 52.5405 20.3749C52.3519 20.1323 52.0824 19.9167 51.7859 19.7281C51.4625 19.5664 51.1122 19.4047 50.7079 19.2699C50.3037 19.1352 49.8725 19.0004 49.4682 18.8387C49.037 18.677 48.6327 18.4884 48.2285 18.2997C47.8242 18.0841 47.4739 17.8146 47.1505 17.4643C46.8271 17.1139 46.5845 16.7096 46.3959 16.1976C46.2072 15.7125 46.0994 15.0926 46.0994 14.365C46.0994 13.5295 46.2611 12.721 46.5845 11.9394C46.9079 11.1579 47.3391 10.4841 47.932 9.8912C48.5249 9.2983 49.2256 8.81319 50.0611 8.46284C50.8966 8.11248 51.8398 7.92383 52.8909 7.92383C53.4299 7.92383 53.942 7.97773 54.454 8.08553C54.9661 8.19333 55.4242 8.35503 55.8824 8.54369C56.3136 8.73234 56.7178 8.97489 57.0951 9.2444C57.4455 9.5139 57.7689 9.81035 58.0115 10.1338L56.7178 11.9125Z" fill="white"/>
<path d="M64.8569 16.1164C64.1831 16.1164 63.6171 16.3859 63.1051 16.9249C62.593 17.4639 62.2157 18.1916 61.9732 19.1079C62.8086 18.9732 63.4824 18.8384 64.0214 18.7037C64.5335 18.5689 64.9377 18.4072 65.2342 18.2455C65.5306 18.0838 65.7193 17.8951 65.8001 17.7065C65.881 17.5178 65.9618 17.3022 65.9618 17.0866C65.9618 16.871 65.881 16.6554 65.6923 16.4398C65.5037 16.2242 65.2342 16.1164 64.8569 16.1164ZM69.5732 16.898C69.5732 17.5178 69.4654 18.0838 69.2228 18.5959C68.9803 19.1079 68.5491 19.5661 67.9562 19.9434C67.3632 20.3476 66.5547 20.671 65.5306 20.9405C64.5065 21.21 63.2398 21.4256 61.7037 21.5873C61.7306 22.5037 61.9193 23.1774 62.2966 23.6086C62.6739 24.0398 63.2398 24.2554 63.9945 24.2554C64.3448 24.2554 64.6682 24.2285 64.9108 24.1746C65.1803 24.1207 65.3959 24.0398 65.5845 23.932C65.7732 23.8242 65.9618 23.7434 66.0966 23.6356C66.2583 23.5278 66.393 23.42 66.5547 23.3391C66.6895 23.2313 66.8512 23.1774 67.0129 23.0966C67.1746 23.0427 67.3363 23.0157 67.5519 23.0157C67.6867 23.0157 67.7945 23.0427 67.9292 23.1235C68.037 23.1774 68.1718 23.2852 68.2526 23.3661L69.3037 24.5788C68.8186 25.037 68.3604 25.4412 67.9023 25.7916C67.4441 26.142 66.9859 26.4115 66.5008 26.6271C66.0157 26.8427 65.5037 27.0044 64.9647 27.1122C64.4257 27.22 63.8327 27.2739 63.1859 27.2739C62.3774 27.2739 61.6498 27.1391 61.003 26.8696C60.3292 26.6001 59.7632 26.2228 59.2781 25.7107C58.793 25.2256 58.4157 24.6058 58.1732 23.9051C57.9306 23.2044 57.7689 22.4228 57.7689 21.5604C57.7689 20.8327 57.8498 20.132 58.0115 19.4583C58.1732 18.7845 58.3888 18.1377 58.7122 17.5448C59.0086 16.9519 59.3859 16.3859 59.8171 15.8739C60.2484 15.3618 60.7335 14.9306 61.2725 14.5803C61.8115 14.2299 62.4044 13.9334 63.0512 13.7178C63.698 13.5022 64.3718 13.4214 65.0994 13.4214C65.8271 13.4214 66.4469 13.5292 67.0129 13.7448C67.5789 13.9604 68.037 14.2299 68.4143 14.5533C68.7916 14.8767 69.0881 15.254 69.2767 15.6852C69.4654 16.0625 69.5732 16.4668 69.5732 16.898Z" fill="white"/>
<path d="M70.0044 27.0311L71.6484 13.5829H73.7235C74.1278 13.5829 74.4512 13.6907 74.6938 13.8793C74.9363 14.068 75.0441 14.3914 75.0441 14.8226V16.3588C75.3675 15.7659 75.7179 15.2808 76.0952 14.8765C76.4725 14.4722 76.8498 14.1488 77.254 13.9063C77.6583 13.6907 78.0625 13.5559 78.4668 13.529C78.8711 13.502 79.3023 13.5829 79.7065 13.7715L78.9789 17.4907C78.4938 17.2751 78.0356 17.1942 77.6044 17.1942C77.1732 17.2212 76.7959 17.3559 76.4186 17.6254C76.0682 17.8949 75.7448 18.3261 75.4484 18.8651C75.1519 19.4311 74.9094 20.1318 74.6938 20.9673L73.9661 27.0042L70.0044 27.0311Z" fill="white"/>
<path d="M80.2457 13.583H83.5606C83.8301 13.583 84.0457 13.6369 84.2074 13.7717C84.3691 13.9064 84.4769 14.0681 84.5039 14.2837L85.3932 20.3206C85.4741 20.8327 85.528 21.3178 85.5819 21.8298C85.6358 22.3149 85.6897 22.8 85.7166 23.3121C85.8783 22.827 86.04 22.3419 86.2287 21.8568C86.4174 21.3717 86.606 20.8596 86.8216 20.3475L89.1932 14.3107C89.301 14.122 89.4358 13.9334 89.6244 13.7986C89.8131 13.6639 90.0287 13.61 90.2713 13.61H93.4514L86.9294 27.0312H83.5337L80.2457 13.583Z" fill="white"/>
<path d="M98.9492 9.89067C98.9492 10.2141 98.8683 10.5105 98.7336 10.78C98.5988 11.0495 98.4102 11.319 98.1946 11.5077C97.979 11.7233 97.7095 11.885 97.413 12.0198C97.1166 12.1545 96.8201 12.2084 96.5236 12.2084C96.2272 12.2084 95.9307 12.1545 95.6612 12.0198C95.3917 11.885 95.1492 11.7233 94.9336 11.5077C94.718 11.2921 94.5563 11.0495 94.4215 10.78C94.2868 10.5105 94.2329 10.1871 94.2329 9.89067C94.2329 9.56727 94.2868 9.27082 94.4215 8.97436C94.5563 8.67791 94.718 8.43536 94.9336 8.21975C95.1492 8.00415 95.3917 7.84245 95.6882 7.7077C95.9577 7.57294 96.2541 7.51904 96.5506 7.51904C96.874 7.51904 97.1705 7.57294 97.44 7.7077C97.7364 7.8155 97.979 8.00415 98.1946 8.21975C98.4102 8.43536 98.5988 8.67791 98.7336 8.97436C98.8683 9.27082 98.9492 9.56727 98.9492 9.89067ZM98.1946 13.5829L96.5775 27.0311H92.6158L94.2329 13.5829H98.1946Z" fill="white"/>
<path d="M107.924 16.4129C107.816 16.5746 107.681 16.6824 107.573 16.7632C107.466 16.8441 107.331 16.871 107.169 16.871C107.007 16.871 106.819 16.8441 106.657 16.7632C106.495 16.6824 106.307 16.6015 106.118 16.4937C105.929 16.3859 105.714 16.3051 105.444 16.2242C105.202 16.1434 104.905 16.1164 104.582 16.1164C103.989 16.1164 103.558 16.2242 103.315 16.4668C103.073 16.6824 102.938 16.9788 102.938 17.3561C102.938 17.5987 103.019 17.7873 103.153 17.949C103.288 18.1107 103.477 18.2725 103.719 18.3803C103.962 18.515 104.231 18.6228 104.528 18.7306C104.824 18.8384 105.121 18.9462 105.444 19.081C105.768 19.2157 106.064 19.3774 106.361 19.5391C106.657 19.7008 106.927 19.9164 107.169 20.1859C107.412 20.4285 107.6 20.7249 107.735 21.0753C107.87 21.4256 107.951 21.8299 107.951 22.315C107.951 22.9888 107.816 23.6356 107.546 24.2285C107.277 24.8214 106.9 25.3604 106.388 25.7916C105.875 26.2498 105.283 26.6001 104.555 26.8427C103.854 27.1122 103.046 27.2469 102.156 27.2469C101.725 27.2469 101.321 27.193 100.89 27.1122C100.485 27.0313 100.081 26.8966 99.7038 26.7618C99.3265 26.6271 99.0031 26.4384 98.7067 26.2498C98.4102 26.0342 98.1677 25.8186 97.979 25.6029L98.9762 24.1207C99.084 23.959 99.2457 23.8242 99.4074 23.7164C99.5691 23.6086 99.7577 23.5547 100 23.5547C100.216 23.5547 100.405 23.6086 100.566 23.7164C100.728 23.8242 100.89 23.932 101.078 24.0668C101.267 24.2015 101.483 24.3093 101.725 24.4171C101.968 24.5249 102.291 24.5788 102.722 24.5788C103.288 24.5788 103.719 24.4441 103.989 24.2015C104.258 23.959 104.393 23.6356 104.393 23.3122C104.393 23.0427 104.312 22.8271 104.178 22.6384C104.043 22.4767 103.854 22.315 103.612 22.1803C103.369 22.0455 103.127 21.9377 102.83 21.8299C102.534 21.7221 102.237 21.6143 101.914 21.5065C101.59 21.3987 101.294 21.237 100.997 21.0753C100.701 20.9136 100.431 20.7249 100.216 20.4824C99.9733 20.2398 99.7847 19.9434 99.6499 19.593C99.5152 19.2427 99.4343 18.8115 99.4343 18.2994C99.4343 17.6795 99.5421 17.0597 99.7847 16.4937C100 15.9008 100.351 15.3888 100.809 14.9306C101.267 14.4725 101.833 14.1221 102.507 13.8256C103.18 13.5561 103.962 13.4214 104.878 13.4214C105.768 13.4214 106.576 13.5831 107.277 13.8795C107.978 14.2029 108.57 14.5803 109.029 15.0115L107.924 16.4129Z" fill="white"/>
<path d="M134.146 16.1164C133.472 16.1164 132.906 16.3859 132.394 16.9249C131.882 17.4639 131.505 18.1916 131.262 19.1079C132.098 18.9732 132.772 18.8384 133.311 18.7037C133.823 18.5689 134.227 18.4072 134.523 18.2455C134.82 18.0838 135.009 17.8951 135.089 17.7065C135.197 17.5178 135.251 17.3022 135.251 17.0866C135.251 16.871 135.17 16.6554 134.982 16.4398C134.82 16.2242 134.523 16.1164 134.146 16.1164ZM138.862 16.898C138.862 17.5178 138.755 18.0838 138.512 18.5959C138.27 19.1079 137.838 19.5661 137.245 19.9434C136.653 20.3476 135.844 20.671 134.82 20.9405C133.796 21.21 132.529 21.4256 130.993 21.5873C131.02 22.5037 131.209 23.1774 131.586 23.6086C131.963 24.0398 132.529 24.2554 133.284 24.2554C133.634 24.2554 133.958 24.2285 134.2 24.1746C134.47 24.1207 134.685 24.0398 134.874 23.932C135.062 23.8242 135.251 23.7434 135.386 23.6356C135.521 23.5278 135.682 23.42 135.844 23.3391C135.979 23.2313 136.141 23.1774 136.302 23.0966C136.464 23.0427 136.626 23.0157 136.841 23.0157C136.976 23.0157 137.084 23.0427 137.219 23.1235C137.326 23.1774 137.461 23.2852 137.542 23.3661L138.593 24.5788C138.108 25.037 137.65 25.4412 137.192 25.7916C136.733 26.142 136.275 26.4115 135.79 26.6271C135.305 26.8427 134.793 27.0044 134.254 27.1122C133.715 27.22 133.122 27.2739 132.475 27.2739C131.667 27.2739 130.939 27.1391 130.292 26.8696C129.619 26.6001 129.053 26.2228 128.567 25.7107C128.082 25.2256 127.705 24.6058 127.462 23.9051C127.193 23.2044 127.058 22.4228 127.058 21.5604C127.058 20.8327 127.139 20.132 127.301 19.4583C127.462 18.7845 127.678 18.1377 128.001 17.5448C128.298 16.9519 128.675 16.3859 129.106 15.8739C129.538 15.3618 130.023 14.9306 130.562 14.5803C131.101 14.2299 131.694 13.9334 132.34 13.7178C132.987 13.5022 133.661 13.4214 134.389 13.4214C135.116 13.4214 135.736 13.5292 136.302 13.7448C136.868 13.9604 137.326 14.2299 137.704 14.5533C138.081 14.8767 138.377 15.254 138.566 15.6852C138.782 16.0625 138.862 16.4668 138.862 16.898Z" fill="white"/>
<path d="M139.833 27.0311L141.477 13.5829H143.552C143.956 13.5829 144.28 13.6907 144.522 13.8793C144.765 14.068 144.872 14.3914 144.872 14.8226V16.3588C145.196 15.7659 145.546 15.2808 145.924 14.8765C146.301 14.4722 146.678 14.1488 147.082 13.9063C147.487 13.6907 147.891 13.5559 148.295 13.529C148.699 13.502 149.131 13.5829 149.535 13.7715L148.807 17.4907C148.322 17.2751 147.864 17.1942 147.433 17.1942C147.002 17.2212 146.624 17.3559 146.247 17.6254C145.897 17.8949 145.573 18.3261 145.277 18.8651C144.98 19.4311 144.738 20.1318 144.522 20.9673L143.794 27.0042L139.833 27.0311Z" fill="white"/>
<path d="M154.871 24.2551C155.329 24.2551 155.734 24.1204 156.084 23.8509C156.434 23.5814 156.731 23.2041 156.973 22.7459C157.216 22.2878 157.404 21.7218 157.539 21.1019C157.674 20.4821 157.728 19.8083 157.728 19.1076C157.728 18.1374 157.593 17.4367 157.324 17.0055C157.054 16.5743 156.623 16.3856 156.03 16.3856C155.572 16.3856 155.168 16.5204 154.817 16.7899C154.467 17.0594 154.17 17.4367 153.928 17.8948C153.685 18.353 153.497 18.919 153.362 19.5388C153.227 20.1587 153.173 20.8324 153.173 21.5601C153.173 22.5303 153.308 23.2041 153.577 23.6353C153.847 24.0395 154.278 24.2551 154.871 24.2551ZM154.521 27.2466C153.766 27.2466 153.065 27.1119 152.419 26.8693C151.772 26.6268 151.206 26.2495 150.721 25.7643C150.236 25.2792 149.858 24.6863 149.589 23.9856C149.319 23.2849 149.185 22.4764 149.185 21.5601C149.185 20.3743 149.373 19.2693 149.777 18.2722C150.182 17.275 150.694 16.4126 151.368 15.6849C152.041 14.9573 152.796 14.3913 153.685 13.987C154.575 13.5828 155.491 13.3672 156.461 13.3672C157.216 13.3672 157.916 13.5019 158.563 13.7445C159.21 13.987 159.776 14.3644 160.261 14.8495C160.746 15.3346 161.124 15.9275 161.393 16.6282C161.663 17.3289 161.797 18.1374 161.797 19.0537C161.797 20.2395 161.609 21.3175 161.204 22.3147C160.8 23.3119 160.288 24.1743 159.614 24.9019C158.941 25.6296 158.186 26.1956 157.297 26.6268C156.407 27.031 155.491 27.2466 154.521 27.2466Z" fill="white"/>
<path d="M125.118 8.13916C125.118 8.13916 122.935 8.13916 122.692 10.2143L122.018 15.5775H115.2L116.116 8.13916H114.041C114.041 8.13916 111.912 8.16611 111.616 10.1604L109.54 27.0314H111.858C112.37 26.9775 113.664 26.681 114.014 25.2796L114.715 19.4853H121.533L120.617 27.0314H122.935C123.447 26.9775 124.74 26.681 125.091 25.3065L127.22 8.13916H125.118Z" fill="white"/>
</g>
<defs>
<clipPath id="clip0_298_287">
<rect width="161.702" height="38" fill="white" transform="translate(0.148682)"/>
</clipPath>
</defs>
</svg>
