<svg width="141" height="38" viewBox="0 0 141 38" fill="none" xmlns="http://www.w3.org/2000/svg">
<g clip-path="url(#clip0_298_264)">
<mask id="mask0_298_264" style="mask-type:luminance" maskUnits="userSpaceOnUse" x="0" y="0" width="141" height="38">
<path d="M140.247 0H0V38H140.247V0Z" fill="white"/>
</mask>
<g mask="url(#mask0_298_264)">
<path d="M116.3 7.10388H115.647V2.4458H116.3V7.10388Z" fill="white"/>
<path d="M121.302 4.77182C121.302 5.60559 121.106 6.2271 120.714 6.63629C120.361 6.99317 119.885 7.17162 119.284 7.17162C118.747 7.17162 118.312 7.03012 117.981 6.74704C117.65 6.464 117.438 6.08251 117.346 5.60253H118.033C118.19 6.27016 118.606 6.60244 119.287 6.60244C120.198 6.60244 120.652 5.99327 120.652 4.77182C120.652 3.55039 120.195 2.94736 119.287 2.94736C118.606 2.94736 118.19 3.27964 118.033 3.94726H117.346C117.438 3.46732 117.65 3.07966 117.981 2.79352C118.312 2.50432 118.747 2.36279 119.284 2.36279C119.885 2.36279 120.361 2.54432 120.714 2.90429C121.106 3.32272 121.302 3.9442 121.302 4.77492V4.77182Z" fill="white"/>
<path d="M126.378 4.77182C126.378 5.57793 126.16 6.19326 125.725 6.61474C125.339 6.98702 124.817 7.17162 124.161 7.17162C123.504 7.17162 122.986 6.98702 122.59 6.61474C122.161 6.18711 121.943 5.57178 121.943 4.77182C121.943 4.54723 121.965 4.31034 122.011 4.0611H123.529V4.65798H122.587V4.77182C122.587 5.37794 122.735 5.83942 123.029 6.15941C123.302 6.45475 123.676 6.60244 124.158 6.60244C124.639 6.60244 125.02 6.4486 125.299 6.14096C125.578 5.83327 125.722 5.37794 125.722 4.77182C125.722 4.16574 125.578 3.7073 125.286 3.3904C125.013 3.09504 124.639 2.94736 124.158 2.94736C123.501 2.94736 123.05 3.21196 122.808 3.73806H122.087C122.213 3.35041 122.434 3.03658 122.75 2.79352C123.121 2.50432 123.59 2.36279 124.155 2.36279C124.811 2.36279 125.332 2.55355 125.719 2.93813C126.154 3.35656 126.372 3.96881 126.372 4.77492L126.378 4.77182Z" fill="white"/>
<path d="M130.81 5.63651C130.81 6.66106 130.163 7.17179 128.872 7.17179C127.581 7.17179 126.973 6.59646 126.955 5.44886H127.617C127.617 6.21803 128.035 6.60261 128.869 6.60261C129.703 6.60261 130.16 6.28568 130.16 5.64575C130.16 5.35652 130.047 5.14733 129.819 5.01503C129.663 4.93194 129.402 4.85814 129.031 4.7935C128.265 4.6735 127.82 4.58736 127.7 4.53815C127.28 4.37507 127.071 4.07357 127.071 3.6336C127.071 3.25825 127.252 2.95058 127.614 2.71368C127.955 2.47985 128.366 2.35986 128.844 2.35986C129.323 2.35986 129.774 2.47062 130.126 2.68906C130.519 2.9352 130.724 3.28286 130.74 3.73513H130.086C130.065 3.47977 129.918 3.27979 129.651 3.13211C129.418 3.00597 129.142 2.94443 128.823 2.94443C128.535 2.94443 128.28 3.00289 128.056 3.11673C127.832 3.23364 127.722 3.39362 127.722 3.59668C127.722 3.79975 127.866 3.94433 128.157 4.03358C128.305 4.08278 128.623 4.13817 129.111 4.19972C129.648 4.26126 130.034 4.37201 130.273 4.53506C130.629 4.76274 130.807 5.12888 130.807 5.63345L130.81 5.63651Z" fill="white"/>
<path d="M131.055 1.3813H130.488C130.215 1.3813 130.08 1.50129 130.08 1.74434V1.85818H129.427V1.59051C129.427 1.34438 129.51 1.15054 129.672 1.00902C129.835 0.867492 130.037 0.799805 130.28 0.799805H131.055V1.3813Z" fill="white"/>
<path d="M134.248 0.602997L132.819 0.581458C132.525 0.575308 132.378 0.624531 132.378 0.735292C132.378 0.812212 132.467 0.926048 132.648 1.08296C132.829 1.23987 132.917 1.43062 132.917 1.6583V7.10708H132.264V1.70137C132.264 1.51677 132.175 1.33525 131.997 1.1568C131.819 0.981426 131.73 0.806058 131.73 0.63684C131.73 0.452239 131.813 0.295329 131.979 0.172262C132.145 0.0491954 132.387 -0.00926162 132.706 -3.16095e-05L134.248 0.0215051V0.602997Z" fill="white"/>
<path d="M138.076 7.10388H137.429V6.44855C136.963 6.92238 136.423 7.15927 135.803 7.15927C134.764 7.15927 134.245 6.67929 134.245 5.71629V2.4458H134.899V5.67014C134.899 6.28551 135.221 6.59009 135.862 6.59009C136.288 6.59009 136.665 6.42701 136.991 6.10087C137.285 5.80553 137.432 5.51019 137.432 5.21481V2.4458H138.079V7.10388H138.076Z" fill="white"/>
<path d="M138.383 1.86136H137.73V0.756836H138.383V1.86136Z" fill="white"/>
<path d="M19.1018 38.0001C18.2583 38.0001 17.7093 37.6339 17.4026 37.3263C17.1327 37.0586 16.9149 36.7294 16.7279 36.3172L0.00012207 2.49219H5.85208L19.1048 29.1854L32.3515 2.49219H38.0746L21.4818 36.3664C20.7764 37.8401 19.5802 38.0001 19.1018 38.0001Z" fill="white"/>
<path d="M40.8962 37.7018C39.835 37.7018 38.8136 37.4957 37.8536 37.0895C36.9059 36.6896 36.0624 36.1327 35.3356 35.4312C34.6087 34.7297 34.0229 33.8929 33.5904 32.9453C33.1395 31.9669 32.9095 30.9147 32.9095 29.8132V19.3956C32.9095 18.2972 33.1273 17.2512 33.5659 16.2789C33.9861 15.3313 34.5658 14.4914 35.2804 13.7868C35.998 13.0761 36.8507 12.5162 37.8137 12.1131C38.7768 11.71 39.8166 11.5039 40.8931 11.5039H54.02C55.0938 11.5039 56.1335 11.71 57.0995 12.1131C58.0656 12.5162 58.9212 13.0761 59.6389 13.7868C60.3534 14.4883 60.9269 15.3313 61.3567 16.2789C61.7861 17.2542 62.0066 18.3034 62.0066 19.3956C62.0066 20.4878 61.7982 21.4939 61.3747 22.4569C60.9579 23.3983 60.3875 24.2383 59.6726 24.9428C58.9521 25.6535 58.0993 26.2166 57.1395 26.6165C56.1703 27.0165 55.1243 27.2257 54.0231 27.2257H38.1941V29.8163C38.1941 30.1824 38.2616 30.5208 38.3996 30.8347C38.5406 31.1577 38.7369 31.4469 38.9854 31.6869C39.2399 31.9423 39.5435 32.1453 39.8808 32.2899C40.1938 32.4253 40.5343 32.4961 40.8962 32.4961H62.2428L58.4918 37.708H40.8962V37.7018ZM54.0231 21.9831C54.4188 21.9831 54.7839 21.9092 55.1212 21.7646C55.471 21.62 55.7746 21.42 56.0289 21.1739C56.2804 20.9247 56.4798 20.6386 56.6239 20.3278C56.756 20.0325 56.8202 19.7371 56.8202 19.3925C56.8202 19.0141 56.7528 18.6787 56.6149 18.368C56.4614 18.0388 56.262 17.7557 56.0167 17.5188C55.7621 17.2788 55.4616 17.085 55.1243 16.9466C54.7929 16.8112 54.425 16.7435 54.0262 16.7435H40.8994C40.519 16.7435 40.166 16.8143 39.8534 16.9466C39.5192 17.0943 39.2215 17.2911 38.9762 17.5342C38.7339 17.768 38.5437 18.0511 38.4026 18.3741C38.2646 18.691 38.1971 19.0264 38.1971 19.3956V21.9861H54.0262L54.0231 21.9831Z" fill="white"/>
<path d="M65.3777 37.7014V16.3247L70.6652 10.0298V12.0696C71.5118 11.6912 72.4132 11.5035 73.3671 11.5035H81.8477L77.4554 16.7431H73.3671C72.9961 16.7431 72.6463 16.8108 72.3242 16.9431C71.9932 17.0846 71.6955 17.2754 71.4412 17.5215C71.1987 17.7522 71.0087 18.0291 70.8705 18.343C70.7326 18.6568 70.6652 19.0106 70.6652 19.3952V37.7045H65.3777V37.7014Z" fill="white"/>
<path d="M102.468 37.7017V19.3924C102.468 19.0139 102.403 18.6755 102.256 18.3679C102.106 18.0417 101.913 17.7556 101.664 17.5156C101.403 17.2726 101.115 17.0849 100.771 16.9434C100.437 16.808 100.069 16.7403 99.6764 16.7403H88.3101C87.9234 16.7403 87.5767 16.8111 87.261 16.9434C86.9237 17.091 86.626 17.2879 86.3807 17.5341C86.1414 17.7679 85.9514 18.051 85.8103 18.3709C85.6783 18.6878 85.6047 19.0232 85.6047 19.3924V37.7017H80.3203V16.5372L85.6047 9.95312V12.073C86.4481 11.6945 87.3499 11.5069 88.3101 11.5069H99.6764C100.753 11.5069 101.784 11.713 102.759 12.116C103.722 12.5191 104.571 13.079 105.298 13.7898C106.01 14.4912 106.587 15.3342 107.013 16.2818C107.442 17.2572 107.669 18.3063 107.669 19.3985V37.7078H102.474L102.468 37.7017Z" fill="white"/>
<path d="M119.131 37.7018C118.076 37.7018 117.048 37.4957 116.085 37.0895C115.14 36.6896 114.297 36.1327 113.57 35.4312C112.843 34.7297 112.254 33.8929 111.822 32.9453C111.371 31.9669 111.144 30.9147 111.144 29.8132V19.3956C111.144 18.2972 111.368 17.2512 111.798 16.2789C112.218 15.3313 112.797 14.4914 113.512 13.7868C114.236 13.0761 115.085 12.5162 116.049 12.1131C117.02 11.71 118.054 11.5039 119.128 11.5039H132.261C133.334 11.5039 134.374 11.71 135.34 12.1131C136.303 12.5162 137.153 13.0761 137.873 13.7868C138.585 14.4883 139.165 15.3313 139.591 16.2789C140.024 17.2542 140.247 18.3034 140.247 19.3956V29.8132C140.247 30.9239 140.033 31.9731 139.607 32.936C139.198 33.8775 138.622 34.7143 137.904 35.422C137.184 36.1296 136.331 36.6927 135.368 37.0926C134.402 37.4957 133.359 37.7018 132.261 37.7018H119.128H119.131ZM119.131 16.7435C118.75 16.7435 118.398 16.8143 118.088 16.9466C117.748 17.0943 117.453 17.2912 117.205 17.5373C116.962 17.7711 116.775 18.0542 116.631 18.3742C116.496 18.691 116.429 19.0264 116.429 19.3956V29.8132C116.429 30.1793 116.496 30.5178 116.631 30.8316C116.775 31.1546 116.968 31.4438 117.217 31.6838C117.481 31.9392 117.778 32.1423 118.115 32.2869C118.432 32.4253 118.76 32.493 119.131 32.493H132.264C132.653 32.493 133.022 32.4191 133.362 32.2776C133.708 32.13 134.015 31.9331 134.264 31.6838C134.512 31.4408 134.712 31.1516 134.85 30.8285C134.984 30.5178 135.055 30.1762 135.055 29.8102V19.3925C135.055 19.0141 134.987 18.6756 134.846 18.368C134.696 18.0388 134.5 17.7557 134.251 17.5188C134 17.2788 133.699 17.085 133.365 16.9466C133.031 16.8112 132.666 16.7435 132.267 16.7435H119.134H119.131Z" fill="white"/>
</g>
</g>
<defs>
<clipPath id="clip0_298_264">
<rect width="140.247" height="38" fill="white"/>
</clipPath>
</defs>
</svg>
