<svg width="98" height="68" viewBox="0 0 98 68" fill="none" xmlns="http://www.w3.org/2000/svg">
<path fill-rule="evenodd" clip-rule="evenodd" d="M34.1145 47.3345C34.0325 47.2382 33.9571 47.1516 33.8866 47.0706L33.8866 47.0706C33.7625 46.928 33.6536 46.8031 33.5513 46.6738C32.6424 45.529 31.7334 44.3843 30.8243 43.2396L30.7882 43.1942L30.7689 43.1698C27.1234 38.5793 23.4776 33.9884 19.8436 29.3892C19.6894 29.1946 19.4994 29.0038 19.3085 28.812L19.3084 28.812C18.8281 28.3295 18.3417 27.8411 18.4039 27.2704C18.4607 26.7554 18.9275 26.2812 19.3878 25.8136C19.5674 25.6312 19.746 25.4498 19.8989 25.2674C24.3865 19.9086 28.8768 14.5524 33.3697 9.19617C34.2251 8.17494 34.2409 8.16967 35.0778 9.22512C36.3665 10.8483 37.6524 12.4734 38.9382 14.0983L38.9396 14.1001L38.9403 14.1009L38.941 14.1018L38.9416 14.1026L38.9423 14.1035L38.9429 14.1043C40.7309 16.3638 42.5187 18.6232 44.3137 20.8772C45.077 21.8379 45.1059 21.8247 45.8929 20.8903C49.3827 16.7391 52.8709 12.5848 56.3588 8.43096L59.6348 4.52956C59.9682 4.13263 60.3058 3.73874 60.6434 3.34483L60.6434 3.34479L60.6435 3.34472L60.6437 3.34454L60.6438 3.34433L60.6441 3.34405C61.4391 2.41652 62.2342 1.48883 62.9749 0.520963C63.5644 -0.252858 63.8776 -0.102832 64.4014 0.565707C67.6686 4.73189 70.9538 8.88187 74.2392 13.032L74.2506 13.0465L74.2567 13.0541L74.2572 13.0548L74.2578 13.0556C74.9389 13.9159 75.62 14.7763 76.3009 15.6368C76.5552 15.9581 76.8093 16.2795 77.0634 16.6009L77.0708 16.6102C78.4422 18.3447 79.8132 20.0788 81.2123 21.7905C81.6334 22.3064 81.5992 22.6485 81.186 23.1381C76.074 29.2056 70.9713 35.2796 65.8685 41.3537L65.8631 41.3602C63.7293 43.9001 61.5955 46.44 59.4611 48.9795C59.3983 49.054 59.3412 49.1232 59.2887 49.1867C58.7185 49.8769 58.6974 49.9023 57.9503 48.9479C55.9417 46.3822 53.9163 43.8295 51.8911 41.277L51.8908 41.2766L51.8905 41.2762C50.0599 38.969 48.2294 36.6619 46.4114 34.3453C45.9087 33.7031 45.6665 33.5768 45.0849 34.2822C42.4306 37.5034 39.7475 40.7022 37.0644 43.901L37.0642 43.9013L37.064 43.9015L37.0638 43.9017L37.063 43.9027L37.0628 43.9029L37.0602 43.9061C36.3071 44.8039 35.554 45.7018 34.8015 46.6001C34.6711 46.7559 34.5287 46.903 34.3765 47.0602L34.3764 47.0604L34.3757 47.061L34.3757 47.0611L34.3756 47.0611C34.2915 47.1481 34.2043 47.2381 34.1145 47.3345ZM72.1056 21.3298C72.052 21.406 72.002 21.48 71.9535 21.5517C71.8447 21.7126 71.7439 21.8617 71.6292 21.9983C70.2866 23.5969 68.9433 25.1948 67.6 26.7926L67.5751 26.8222L67.567 26.8318C64.6129 30.3455 61.659 33.859 58.7137 37.38C58.2663 37.9143 57.9847 38.0722 57.4662 37.4115C55.2026 34.5137 52.9075 31.6395 50.5807 28.789C50.1782 28.2943 50.4057 28.0297 50.6724 27.7194C50.6952 27.6929 50.7183 27.6661 50.7413 27.6388C52.3462 25.73 53.9505 23.8205 55.5547 21.9111C57.1602 20.0001 58.7658 18.0891 60.3719 16.1789C60.7721 15.7025 61.1757 15.2289 61.5793 14.7554C62.3464 13.8553 63.1134 12.9553 63.8568 12.036C64.2358 11.5701 64.4569 11.5649 64.8227 12.0307C66.3651 13.9907 67.9168 15.9437 69.4686 17.8967L69.478 17.9086C70.2507 18.8811 71.0234 19.8536 71.795 20.827C71.8775 20.9316 71.9435 21.0477 72.0124 21.169L72.0125 21.1691C72.0424 21.2218 72.0729 21.2756 72.1056 21.3298ZM40.5727 27.1242L40.5736 27.1231V27.1257L40.5727 27.1242ZM40.4542 26.9147C40.4919 26.9833 40.5305 27.0535 40.5727 27.1242C40.5222 27.1929 40.4744 27.2606 40.4276 27.327L40.427 27.3278L40.4267 27.3282C40.3377 27.4543 40.2522 27.5756 40.1577 27.6889C39.5368 28.4289 38.9143 29.1679 38.2919 29.9068C36.7402 31.7489 35.1883 33.5911 33.6592 35.4508C33.2223 35.9851 32.9959 35.8825 32.6354 35.4219C30.8982 33.2031 29.1479 30.9948 27.3844 28.7944C27.1028 28.4417 27.1186 28.1943 27.4028 27.86C29.6269 25.2333 31.8405 22.6012 34.0435 19.956C34.4172 19.5086 34.6489 19.5059 35.0147 19.9771C36.1588 21.4405 37.3168 22.8921 38.4749 24.3438L38.4772 24.3467C39.0555 25.0716 39.6338 25.7966 40.2104 26.523C40.3038 26.6411 40.3772 26.7746 40.4542 26.9147ZM26.8288 60.0129C26.8288 60.6637 26.8264 61.2952 26.8241 61.913C26.8183 63.4392 26.8128 64.8819 26.8446 66.3245C26.8604 67.051 26.7288 67.3668 25.8997 67.3194L25.7371 67.3105C24.5361 67.2456 24.5337 67.2455 24.5337 65.9007C24.5337 65.1458 24.5363 64.3909 24.5389 63.6359C24.5458 61.6614 24.5526 59.687 24.5126 57.7125C24.4969 56.9413 24.739 56.8465 25.4365 56.8044C26.4735 56.7412 27.2184 57.1071 27.9817 57.7598C29.7245 59.2514 31.5 60.7088 33.2747 62.1654L33.2747 62.1655L33.2748 62.1656L33.2749 62.1657L33.275 62.1657L33.2752 62.1659L33.2761 62.1667L33.277 62.1674L33.2779 62.1682L33.2789 62.1689L33.2798 62.1697C33.8646 62.6498 34.4494 63.1297 35.0329 63.6109C35.1104 63.6746 35.1968 63.7293 35.3203 63.8073L35.3204 63.8074L35.3214 63.808C35.3865 63.8492 35.4618 63.8968 35.5514 63.9557C35.5514 63.3433 35.5533 62.7413 35.5552 62.1469L35.5553 62.1447V62.1446V62.1446V62.1446V62.1445V62.1445C35.56 60.6501 35.5646 59.2036 35.5383 57.7598C35.5251 57.0913 35.5935 56.7649 36.4121 56.8123L36.5854 56.822C37.7944 56.8885 37.7992 56.8888 37.7992 58.2178C37.7992 58.9535 37.7977 59.6894 37.7962 60.4253V60.4256V60.4258V60.4261V60.4263V60.4266V60.427C37.7921 62.4526 37.788 64.4787 37.815 66.5035C37.8229 67.151 37.636 67.2878 37.007 67.3221C36.0542 67.3721 35.3356 67.0825 34.6171 66.4693C32.7796 64.9048 30.9165 63.3703 28.9701 61.7671C28.2706 61.191 27.5604 60.606 26.8367 60.0076L26.8288 60.0129ZM9.12432 62.1763C9.40021 61.5687 9.68066 60.9511 9.96542 60.3183H9.96805C10.2409 60.9335 10.5083 61.532 10.7705 62.119L10.7705 62.1191C11.4518 63.6442 12.0982 65.0914 12.7159 66.551C12.9554 67.1169 13.2449 67.3616 13.8766 67.3169C13.9142 67.3143 13.9511 67.3119 13.9874 67.3096L13.9889 67.3095C14.501 67.2771 14.8866 67.2526 15.169 66.6141C15.917 64.9168 16.7085 63.2401 17.5001 61.5631L17.5003 61.5628C17.9398 60.6316 18.3795 59.7004 18.8117 58.7654C18.8823 58.613 18.9595 58.4626 19.0373 58.3111L19.0373 58.311L19.0374 58.3109L19.0374 58.3109L19.0374 58.3108L19.0375 58.3107L19.0375 58.3107C19.2699 57.8579 19.5073 57.3954 19.5882 56.8414C19.3994 56.8414 19.2148 56.8462 19.0333 56.851C18.6329 56.8616 18.248 56.8717 17.8694 56.8282C17.1641 56.7466 16.8508 57.0309 16.585 57.6784C16.0072 59.0781 15.3859 60.4607 14.7378 61.9027L14.7378 61.9028C14.4707 62.4971 14.199 63.1016 13.924 63.7215C13.6547 63.1147 13.3893 62.521 13.1279 61.9363L13.127 61.9341C12.4308 60.3766 11.7632 58.8831 11.1261 57.3757C10.913 56.8677 10.5997 56.7835 10.147 56.8414C10.0279 56.8566 9.90432 56.8502 9.78146 56.8438C9.41561 56.8249 9.0563 56.8062 8.84153 57.3599C8.46056 58.3429 8.0174 59.3038 7.57424 60.2646C7.4265 60.5849 7.27877 60.9052 7.13334 61.2264C6.88519 61.7723 6.63063 62.3143 6.35261 62.9063L6.35259 62.9064C6.23251 63.1621 6.10807 63.4271 5.97787 63.7057C5.60851 62.8696 5.25177 62.0611 4.90256 61.2696L4.90114 61.2664C4.33511 59.9835 3.78884 58.7454 3.24055 57.5073C3.21694 57.4533 3.19646 57.3969 3.17607 57.3409C3.07829 57.072 2.98265 56.8091 2.55358 56.8308C2.04193 56.8583 1.529 56.8527 0.979578 56.8467C0.73763 56.8441 0.488605 56.8414 0.229492 56.8414C0.295455 56.995 0.353977 57.1337 0.408171 57.2622L0.408235 57.2624C0.518359 57.5235 0.61062 57.7422 0.711154 57.9574C1.09644 58.7789 1.4848 59.5995 1.87326 60.4203C2.83022 62.4424 3.78774 64.4656 4.70133 66.5062C4.99612 67.1695 5.35934 67.2985 6.01472 67.3274C6.72011 67.3564 6.96489 67.0458 7.2123 66.4668C7.82054 65.0475 8.45902 63.6414 9.12401 62.177L9.12403 62.1769L9.12427 62.1764L9.12432 62.1763ZM57.9813 67.293H57.9816H57.9819H57.9822H57.9824H57.9827H57.983C58.41 67.2958 58.8369 67.2987 59.2635 67.2987V67.2961C59.7149 67.2961 60.1664 67.2988 60.6181 67.3015H60.6184H60.6187H60.6189H60.6192H60.6195H60.6198H60.6202H60.6207H60.6211H60.6216H60.6221H60.6225C61.6497 67.3076 62.6774 67.3137 63.7038 67.2882C64.9145 67.2566 65.9752 66.8828 66.5095 65.6642C67.5808 63.2243 66.1331 60.9949 63.4801 60.9844C61.4086 60.9791 59.3346 60.9739 57.2632 60.9897C56.5709 60.9949 55.9314 60.9028 55.9603 60.05C55.9866 59.2552 56.6236 59.2025 57.2605 59.2025C58.9993 59.2082 60.7366 59.2071 62.4746 59.206C63.1702 59.2056 63.8659 59.2051 64.5618 59.2051C65.4438 59.2051 65.8814 59.2051 66.0927 58.9865C66.3007 58.7711 66.2892 58.3437 66.2664 57.4955L66.2647 57.4338C66.2516 56.9627 66.1384 56.8232 65.6567 56.8258C64.2814 56.8354 62.9066 56.834 61.5318 56.8327H61.5304C59.8801 56.8312 58.2299 56.8296 56.5788 56.8468C55.1286 56.86 54.1231 57.5733 53.7494 58.713C52.9229 61.2239 54.3021 63.1453 56.9394 63.1506C59.0108 63.1558 61.0849 63.1585 63.1563 63.1479C63.8064 63.1453 64.3986 63.2322 64.3828 64.0481C64.3697 64.8535 63.7722 64.9325 63.1274 64.9325C61.342 64.9268 59.5579 64.9279 57.7733 64.929H57.773H57.7728H57.7725H57.7722H57.7719H57.7717C57.0575 64.9294 56.3432 64.9298 55.6287 64.9298C54.091 64.9298 54.0909 64.9324 54.0717 66.4571L54.0705 66.5512C54.0626 67.1513 54.2047 67.3355 54.8233 67.3145C55.8752 67.2789 56.9286 67.2859 57.9813 67.293ZM20.4261 60.7044C20.423 61.1266 20.4198 61.5489 20.4198 61.9712L20.4225 61.966V65.714C20.4225 66.5412 20.4225 66.9538 20.6286 67.1526C20.8338 67.3503 21.2432 67.3363 22.06 67.3083L22.1149 67.3064C22.5702 67.2906 22.7387 67.1906 22.736 66.701C22.715 63.611 22.715 60.521 22.736 57.431C22.7387 56.9467 22.5781 56.7861 22.1149 56.8308C21.8201 56.8624 21.5174 56.8703 21.2279 56.8308C20.5909 56.7466 20.3803 56.9677 20.404 57.631C20.4413 58.6545 20.4337 59.6793 20.4261 60.7044ZM93.5906 63.8215C93.8243 64.0043 94.0532 64.1839 94.279 64.361L94.2805 64.3622C94.7664 64.7434 95.238 65.1134 95.712 65.4797L95.8807 65.6092C96.5202 66.0999 97.1631 66.5932 97.7703 67.1932C97.3378 67.1717 96.8971 67.2118 96.4576 67.2518C95.2787 67.3591 94.1075 67.4657 93.1221 66.3825C93.0259 66.2772 92.9014 66.1969 92.7769 66.1166L92.7769 66.1166C92.6494 66.0344 92.5218 65.9521 92.4246 65.8429C90.8059 64.0347 88.7424 63.682 86.4578 63.9242C85.9919 63.9742 85.8208 64.0716 85.8682 64.5427C85.8951 64.8087 85.8878 65.0783 85.8803 65.3483C85.8769 65.4737 85.8735 65.5992 85.8735 65.7245C85.8735 67.3932 85.6471 67.5643 83.9731 67.309C83.6073 67.2537 83.5678 67.0905 83.5678 66.7957C83.5731 63.6425 83.5731 60.4894 83.5678 57.3362C83.5678 57.0387 83.602 56.8256 83.9784 56.8361C85.1671 56.8686 86.3573 56.8459 87.5471 56.8232H87.5471C89.6344 56.7835 91.7205 56.7437 93.7959 57.0019C95.5067 57.2151 96.3385 58.3363 96.3911 60.0419C96.4595 62.1423 95.7805 63.2004 94.0354 63.7031C93.9424 63.7288 93.8494 63.7516 93.7227 63.7825L93.5854 63.8163L93.5906 63.8215ZM90.5632 59.2038H90.5635C91.3016 59.1994 92.0401 59.195 92.7774 59.2154C93.5249 59.2364 94.0408 59.5865 94.0223 60.4156C94.0039 61.2368 93.4933 61.5658 92.7353 61.5684C91.9661 61.5713 91.1969 61.5703 90.4278 61.5693H90.427C89.0987 61.5676 87.7704 61.5659 86.4421 61.5842C85.9288 61.5921 85.8735 61.3973 85.8656 60.9552L85.8645 60.9011C85.8467 60.0579 85.8377 59.6332 86.0456 59.4193C86.2566 59.2022 86.6909 59.2022 87.5659 59.2022H89.6321V59.2075C89.9421 59.2075 90.2523 59.2056 90.5626 59.2038H90.5629H90.5632ZM73.9728 67.4966C74.2532 67.4945 74.5336 67.4924 74.8136 67.4961V67.4987C75.0723 67.4979 75.3313 67.5027 75.5902 67.5075L75.591 67.5075C76.122 67.5173 76.6527 67.5271 77.1798 67.4882C79.8435 67.2908 81.5806 66.2617 82.1255 63.5007C82.3413 62.411 82.315 61.2845 82.0149 60.1817C81.4859 58.234 80.2093 57.1285 78.2537 56.7995C76.4009 56.4878 74.5251 56.5743 72.6671 56.6599L72.6669 56.66L72.6668 56.66C72.5322 56.6662 72.3976 56.6724 72.2632 56.6784C70.3076 56.7679 68.6178 57.5575 67.8756 59.5658C67.2413 61.2845 67.2386 63.0348 67.9466 64.7483C68.4546 65.9748 69.389 66.7355 70.6392 67.1513C71.732 67.5135 72.8518 67.5051 73.9728 67.4966ZM74.1539 65.1284L74.1556 65.1284C74.3891 65.1251 74.6226 65.1219 74.8558 65.1219H74.8532V65.1061C75.1001 65.1061 75.3479 65.1118 75.5957 65.1175H75.5961H75.5965C76.1383 65.13 76.6806 65.1425 77.2168 65.0956C78.9276 64.9455 79.8672 63.8138 79.8462 62.024C79.8278 60.2789 78.9013 59.1498 77.2273 59.0524C75.656 58.9603 74.0715 58.9603 72.5001 59.0419C70.8051 59.1287 69.8049 60.321 69.8049 62.0687C69.8049 63.848 70.8551 65.0166 72.5896 65.114C73.1094 65.1431 73.6317 65.1357 74.1539 65.1284ZM39.5653 62.016V57.4836C39.5653 57.4505 39.5647 57.4174 39.564 57.3846C39.5581 57.0909 39.5527 56.8219 40.0286 56.8361C41.1251 56.8723 42.2231 56.8525 43.321 56.8326H43.3212C45.1749 56.7991 47.0285 56.7655 48.8749 57.0019C50.8542 57.2572 52.2334 58.6917 52.5861 60.6526C52.7808 61.7396 52.7782 62.8214 52.5045 63.8768C51.9596 65.9851 50.2277 67.2511 47.8036 67.2879C46.3781 67.3102 44.9517 67.3065 43.525 67.3029H43.5248H43.5229C42.4188 67.3 41.3145 67.2972 40.2102 67.3064C39.7048 67.3116 39.539 67.1774 39.5522 66.6484C39.5787 65.5377 39.5739 64.4271 39.5691 63.3174C39.5672 62.8834 39.5653 62.4496 39.5653 62.016ZM45.077 64.9296C44.8191 64.9296 44.5611 64.9281 44.3029 64.9265H44.3025C43.6754 64.9227 43.0477 64.9189 42.4213 64.9375C42.0028 64.9507 41.8475 64.8375 41.8554 64.3927C41.8791 62.853 41.8843 61.3106 41.8501 59.7708C41.8396 59.2576 42.0528 59.1918 42.4844 59.1971C43.2272 59.2052 43.9701 59.203 44.7129 59.2008C45.6414 59.1981 46.5699 59.1953 47.4985 59.2128C49.2593 59.2444 50.3174 60.3288 50.3332 62.0502C50.349 63.7558 49.2777 64.8691 47.5327 64.9244C46.966 64.9426 46.3981 64.9381 45.8306 64.9336H45.8303L45.8271 64.9336C45.5761 64.9316 45.3251 64.9296 45.0744 64.9296H45.077Z" fill="white"/>
</svg>
