<svg width="173" height="50" viewBox="0 0 173 50" fill="none" xmlns="http://www.w3.org/2000/svg">
<path d="M172.039 44.2337C172.039 46.8982 169.836 49.0566 167.112 49.0566H5.8939C3.17113 49.0566 0.96106 46.8982 0.96106 44.2337V5.77256C0.96106 3.10926 3.17113 0.943359 5.8939 0.943359H167.111C169.836 0.943359 172.038 3.10926 172.038 5.77256L172.039 44.2337Z" fill="black"/>
<path d="M166.593 1.00157C169.559 1.00157 171.973 3.35626 171.973 6.25001V43.75C171.973 46.6438 169.559 48.9984 166.593 48.9984H6.40741C3.44078 48.9984 1.02679 46.6438 1.02679 43.75V6.25001C1.02679 3.35626 3.44078 1.00157 6.40741 1.00157H166.593ZM166.593 7.36664e-06H6.40741C2.88494 7.36664e-06 0 2.81407 0 6.25001V43.75C0 47.1859 2.88494 50 6.40741 50H166.593C170.115 50 173 47.1859 173 43.75V6.25001C173 2.81407 170.115 7.36664e-06 166.593 7.36664e-06Z" fill="#A6A6A6"/>
<path d="M38.6085 24.73C38.5713 20.7012 41.9903 18.7412 42.1466 18.65C40.2103 15.8962 37.2091 15.52 36.1544 15.49C33.6338 15.2312 31.1887 16.9612 29.9046 16.9612C28.595 16.9612 26.6176 15.515 24.4865 15.5575C21.7442 15.5987 19.1786 17.1475 17.7716 19.5525C14.8677 24.4562 17.0334 31.6625 19.8155 35.6262C21.2072 37.5675 22.8334 39.735 24.962 39.6587C27.0444 39.575 27.8222 38.3637 30.3352 38.3637C32.8251 38.3637 33.5556 39.6587 35.7264 39.61C37.9613 39.575 39.3684 37.66 40.7114 35.7012C42.3196 33.4762 42.9655 31.285 42.9911 31.1725C42.9386 31.155 38.6508 29.5587 38.6085 24.73Z" fill="white"/>
<path d="M34.5077 12.8825C35.6277 11.5162 36.3941 9.65749 36.1813 7.77124C34.5603 7.84124 32.533 8.86499 31.3655 10.2012C30.3327 11.3787 29.41 13.3087 29.6483 15.1237C31.4693 15.2562 33.339 14.2275 34.5077 12.8825Z" fill="white"/>
<path d="M68.7451 39.38H65.8349L64.2407 34.4937H58.6996L57.181 39.38H54.3477L59.8375 22.745H63.2283L68.7451 39.38ZM63.7601 32.4437L62.3185 28.1C62.166 27.6562 61.8802 26.6112 61.4586 24.9662H61.4073C61.2395 25.6737 60.9691 26.7187 60.5974 28.1L59.1814 32.4437H63.7601Z" fill="white"/>
<path d="M82.8632 33.235C82.8632 35.275 82.298 36.8875 81.1678 38.0713C80.1554 39.125 78.8983 39.6513 77.3976 39.6513C75.7779 39.6513 74.6143 39.0838 73.9056 37.9488H73.8543V44.2675H71.1222V31.3338C71.1222 30.0513 71.0876 28.735 71.021 27.385H73.4238L73.5763 29.2863H73.6275C74.5387 27.8538 75.9214 27.1388 77.777 27.1388C79.2276 27.1388 80.4386 27.6975 81.4074 28.8163C82.3788 29.9363 82.8632 31.4088 82.8632 33.235ZM80.0798 33.3325C80.0798 32.165 79.8107 31.2025 79.2699 30.445C78.6791 29.655 77.8859 29.26 76.8915 29.26C76.2174 29.26 75.6049 29.48 75.0577 29.9138C74.5092 30.3513 74.1504 30.9225 73.9825 31.63C73.8979 31.96 73.8556 32.23 73.8556 32.4425V34.4425C73.8556 35.315 74.1299 36.0513 74.6783 36.6525C75.2268 37.2538 75.9393 37.5538 76.8159 37.5538C77.8449 37.5538 78.6458 37.1663 79.2186 36.3938C79.7927 35.62 80.0798 34.6 80.0798 33.3325Z" fill="white"/>
<path d="M97.0069 33.235C97.0069 35.275 96.4418 36.8875 95.3102 38.0713C94.2991 39.125 93.042 39.6513 91.5414 39.6513C89.9216 39.6513 88.758 39.0838 88.0506 37.9488H87.9994V44.2675H85.2673V31.3338C85.2673 30.0513 85.2327 28.735 85.166 27.385H87.5688L87.7213 29.2863H87.7725C88.6824 27.8538 90.0651 27.1388 91.922 27.1388C93.3713 27.1388 94.5823 27.6975 95.5537 28.8163C96.5212 29.9363 97.0069 31.4088 97.0069 33.235ZM94.2235 33.3325C94.2235 32.165 93.9531 31.2025 93.4123 30.445C92.8216 29.655 92.0309 29.26 91.0352 29.26C90.3599 29.26 89.7486 29.48 89.2001 29.9138C88.6516 30.3513 88.2941 30.9225 88.1262 31.63C88.0429 31.96 87.9994 32.23 87.9994 32.4425V34.4425C87.9994 35.315 88.2736 36.0513 88.8195 36.6525C89.368 37.2525 90.0805 37.5538 90.9596 37.5538C91.9886 37.5538 92.7896 37.1663 93.3624 36.3938C93.9365 35.62 94.2235 34.6 94.2235 33.3325Z" fill="white"/>
<path d="M112.82 34.715C112.82 36.13 112.317 37.2812 111.306 38.17C110.195 39.1412 108.648 39.6262 106.66 39.6262C104.825 39.6262 103.354 39.2812 102.24 38.59L102.874 36.3687C104.073 37.0762 105.389 37.4312 106.823 37.4312C107.852 37.4312 108.653 37.2037 109.228 36.7512C109.801 36.2987 110.087 35.6912 110.087 34.9337C110.087 34.2587 109.851 33.69 109.378 33.2287C108.908 32.7675 108.122 32.3387 107.026 31.9425C104.04 30.8562 102.548 29.265 102.548 27.1725C102.548 25.805 103.071 24.6837 104.118 23.8112C105.161 22.9375 106.553 22.5012 108.293 22.5012C109.845 22.5012 111.134 22.765 112.163 23.2912L111.48 25.4637C110.519 24.9537 109.432 24.6987 108.216 24.6987C107.255 24.6987 106.504 24.93 105.966 25.39C105.511 25.8012 105.283 26.3025 105.283 26.8962C105.283 27.5537 105.543 28.0975 106.066 28.525C106.521 28.92 107.347 29.3475 108.547 29.8087C110.014 30.385 111.092 31.0587 111.785 31.8312C112.476 32.6012 112.82 33.565 112.82 34.715Z" fill="white"/>
<path d="M121.853 29.385H118.842V35.2087C118.842 36.69 119.373 37.43 120.436 37.43C120.924 37.43 121.329 37.3887 121.65 37.3062L121.725 39.33C121.187 39.5262 120.478 39.625 119.601 39.625C118.522 39.625 117.678 39.3037 117.07 38.6625C116.464 38.02 116.159 36.9425 116.159 35.4287V29.3825H114.365V27.3825H116.159V25.1862L118.842 24.3962V27.3825H121.853V29.385Z" fill="white"/>
<path d="M135.441 33.2838C135.441 35.1275 134.9 36.6413 133.821 37.825C132.69 39.0438 131.188 39.6513 129.316 39.6513C127.511 39.6513 126.075 39.0675 125.003 37.9C123.932 36.7325 123.396 35.2588 123.396 33.4825C123.396 31.6238 123.948 30.1013 125.053 28.9175C126.157 27.7325 127.646 27.14 129.518 27.14C131.322 27.14 132.774 27.7238 133.87 28.8925C134.918 30.0263 135.441 31.49 135.441 33.2838ZM132.606 33.37C132.606 32.2638 132.364 31.315 131.873 30.5238C131.301 29.5663 130.482 29.0888 129.421 29.0888C128.322 29.0888 127.488 29.5675 126.915 30.5238C126.425 31.3163 126.182 32.28 126.182 33.42C126.182 34.5263 126.425 35.475 126.915 36.265C127.506 37.2225 128.331 37.7 129.396 37.7C130.44 37.7 131.258 37.2125 131.849 36.24C132.353 35.4338 132.606 34.475 132.606 33.37Z" fill="white"/>
<path d="M144.322 29.7288C144.051 29.68 143.763 29.655 143.461 29.655C142.5 29.655 141.756 30.0088 141.233 30.7175C140.779 31.3425 140.55 32.1325 140.55 33.0863V39.38H137.82L137.845 31.1625C137.845 29.78 137.811 28.5213 137.743 27.3863H140.122L140.222 29.6813H140.298C140.586 28.8925 141.041 28.2575 141.664 27.7813C142.273 27.3525 142.93 27.1388 143.639 27.1388C143.891 27.1388 144.119 27.1563 144.322 27.1875V29.7288Z" fill="white"/>
<path d="M156.541 32.815C156.541 33.2925 156.509 33.695 156.441 34.0237H148.244C148.277 35.2087 148.672 36.115 149.434 36.74C150.124 37.2987 151.018 37.5787 152.115 37.5787C153.328 37.5787 154.435 37.39 155.431 37.0112L155.859 38.8612C154.695 39.3562 153.322 39.6025 151.736 39.6025C149.83 39.6025 148.333 39.055 147.244 37.9612C146.157 36.8675 145.612 35.3987 145.612 33.5562C145.612 31.7475 146.118 30.2412 147.132 29.04C148.193 27.7575 149.627 27.1162 151.432 27.1162C153.204 27.1162 154.545 27.7575 155.457 29.04C156.178 30.0587 156.541 31.3187 156.541 32.815ZM153.936 32.1237C153.953 31.3337 153.775 30.6512 153.405 30.075C152.932 29.3337 152.206 28.9637 151.228 28.9637C150.335 28.9637 149.608 29.325 149.053 30.05C148.598 30.6262 148.328 31.3175 148.244 32.1225H153.936V32.1237Z" fill="white"/>
<path d="M62.8567 12.5114C62.8567 13.9826 62.4043 15.0901 61.5009 15.8339C60.664 16.5201 59.4748 16.8639 57.9345 16.8639C57.1707 16.8639 56.5172 16.8314 55.97 16.7664V8.72762C56.6838 8.61512 57.4526 8.55762 58.283 8.55762C59.7503 8.55762 60.8563 8.86887 61.6021 9.49137C62.4376 10.1951 62.8567 11.2014 62.8567 12.5114ZM61.4406 12.5476C61.4406 11.5939 61.1818 10.8626 60.664 10.3526C60.1463 9.84387 59.3903 9.58887 58.3945 9.58887C57.9716 9.58887 57.6116 9.61637 57.313 9.67387V15.7851C57.4783 15.8101 57.7807 15.8214 58.2203 15.8214C59.248 15.8214 60.0412 15.5426 60.6 14.9851C61.1587 14.4276 61.4406 13.6151 61.4406 12.5476Z" fill="white"/>
<path d="M70.3648 13.7963C70.3648 14.7026 70.0996 15.4451 69.569 16.0276C69.0129 16.6263 68.276 16.9251 67.3559 16.9251C66.4691 16.9251 65.763 16.6388 65.2364 16.0638C64.7109 15.4901 64.4482 14.7663 64.4482 13.8938C64.4482 12.9813 64.7186 12.2326 65.262 11.6513C65.8053 11.0701 66.5358 10.7788 67.4559 10.7788C68.3427 10.7788 69.0552 11.0651 69.5947 11.6388C70.1073 12.1963 70.3648 12.9163 70.3648 13.7963ZM68.9719 13.8388C68.9719 13.2951 68.8514 12.8288 68.6118 12.4401C68.3299 11.9701 67.9288 11.7351 67.4072 11.7351C66.8677 11.7351 66.4576 11.9701 66.1757 12.4401C65.9348 12.8288 65.8156 13.3026 65.8156 13.8626C65.8156 14.4063 65.936 14.8726 66.1757 15.2613C66.4666 15.7313 66.8715 15.9663 67.3944 15.9663C67.907 15.9663 68.3093 15.7276 68.599 15.2488C68.8476 14.8526 68.9719 14.3826 68.9719 13.8388Z" fill="white"/>
<path d="M80.4322 10.8988L78.542 16.7913H77.3118L76.5288 14.2326C76.3302 13.5938 76.1687 12.9588 76.0431 12.3288H76.0188C75.9022 12.9763 75.7407 13.6101 75.5331 14.2326L74.7014 16.7913H73.4571L71.6797 10.8988H73.0598L73.7429 13.7001C73.9082 14.3626 74.044 14.9938 74.1529 15.5913H74.1773C74.2772 15.0988 74.4426 14.4713 74.6758 13.7126L75.5331 10.9001H76.6275L77.4489 13.6526C77.6475 14.3238 77.809 14.9701 77.9333 15.5926H77.9705C78.0615 14.9863 78.1986 14.3401 78.3805 13.6526L79.1136 10.9001H80.4322V10.8988Z" fill="white"/>
<path d="M87.3944 16.7914H86.0514V13.4164C86.0514 12.3764 85.6465 11.8564 84.834 11.8564C84.4355 11.8564 84.1138 11.9989 83.864 12.2851C83.6166 12.5714 83.491 12.9089 83.491 13.2951V16.7901H82.1481V12.5826C82.1481 12.0651 82.1314 11.5039 82.0994 10.8964H83.2796L83.3424 11.8176H83.3796C83.5359 11.5314 83.7691 11.2951 84.0754 11.1064C84.4393 10.8864 84.8469 10.7751 85.2928 10.7751C85.8567 10.7751 86.3257 10.9526 86.6986 11.3089C87.1625 11.7451 87.3944 12.3964 87.3944 13.2614V16.7914Z" fill="white"/>
<path d="M91.0986 16.7913H89.7563V8.19507H91.0986V16.7913Z" fill="white"/>
<path d="M99.0047 13.7963C99.0047 14.7026 98.7395 15.4451 98.2089 16.0276C97.6528 16.6263 96.9146 16.9251 95.9958 16.9251C95.1078 16.9251 94.4017 16.6388 93.8762 16.0638C93.3508 15.4901 93.0881 14.7663 93.0881 13.8938C93.0881 12.9813 93.3585 12.2326 93.9019 11.6513C94.4452 11.0701 95.1757 10.7788 96.0945 10.7788C96.9826 10.7788 97.6938 11.0651 98.2346 11.6388C98.7472 12.1963 99.0047 12.9163 99.0047 13.7963ZM97.6105 13.8388C97.6105 13.2951 97.49 12.8288 97.2504 12.4401C96.9697 11.9701 96.5674 11.7351 96.0471 11.7351C95.5063 11.7351 95.0962 11.9701 94.8156 12.4401C94.5747 12.8288 94.4555 13.3026 94.4555 13.8626C94.4555 14.4063 94.5759 14.8726 94.8156 15.2613C95.1065 15.7313 95.5114 15.9663 96.0343 15.9663C96.5469 15.9663 96.948 15.7276 97.2376 15.2488C97.4875 14.8526 97.6105 14.3826 97.6105 13.8388Z" fill="white"/>
<path d="M105.504 16.7913H104.298L104.198 16.1126H104.161C103.749 16.6538 103.16 16.9251 102.397 16.9251C101.826 16.9251 101.365 16.7463 101.018 16.3913C100.703 16.0688 100.545 15.6676 100.545 15.1913C100.545 14.4713 100.852 13.9226 101.471 13.5426C102.089 13.1626 102.958 12.9763 104.077 12.9851V12.8751C104.077 12.0988 103.659 11.7113 102.822 11.7113C102.226 11.7113 101.701 11.8576 101.247 12.1476L100.974 11.2876C101.536 10.9488 102.229 10.7788 103.046 10.7788C104.625 10.7788 105.417 11.5913 105.417 13.2163V15.3863C105.417 15.9751 105.447 16.4438 105.504 16.7913ZM104.11 14.7663V13.8576C102.629 13.8326 101.888 14.2288 101.888 15.0451C101.888 15.3526 101.972 15.5826 102.145 15.7363C102.318 15.8901 102.539 15.9663 102.802 15.9663C103.096 15.9663 103.372 15.8751 103.623 15.6938C103.875 15.5113 104.031 15.2801 104.088 14.9963C104.102 14.9326 104.11 14.8551 104.11 14.7663Z" fill="white"/>
<path d="M113.136 16.7913H111.944L111.881 15.8451H111.844C111.463 16.5651 110.815 16.9251 109.904 16.9251C109.176 16.9251 108.57 16.6463 108.089 16.0888C107.609 15.5313 107.369 14.8076 107.369 13.9188C107.369 12.9651 107.629 12.1926 108.152 11.6026C108.658 11.0526 109.278 10.7776 110.016 10.7776C110.828 10.7776 111.395 11.0438 111.718 11.5776H111.744V8.19507H113.088V15.2038C113.088 15.7776 113.104 16.3063 113.136 16.7913ZM111.744 14.3063V13.3238C111.744 13.1538 111.731 13.0163 111.707 12.9113C111.631 12.5963 111.468 12.3313 111.221 12.1176C110.971 11.9038 110.67 11.7963 110.323 11.7963C109.822 11.7963 109.43 11.9901 109.141 12.3788C108.855 12.7676 108.711 13.2638 108.711 13.8701C108.711 14.4526 108.848 14.9251 109.123 15.2888C109.414 15.6763 109.806 15.8701 110.297 15.8701C110.738 15.8701 111.09 15.7088 111.358 15.3851C111.617 15.0863 111.744 14.7263 111.744 14.3063Z" fill="white"/>
<path d="M124.621 13.7963C124.621 14.7026 124.356 15.4451 123.826 16.0276C123.269 16.6263 122.534 16.9251 121.613 16.9251C120.727 16.9251 120.021 16.6388 119.493 16.0638C118.968 15.4901 118.705 14.7663 118.705 13.8938C118.705 12.9813 118.975 12.2326 119.519 11.6513C120.062 11.0701 120.792 10.7788 121.714 10.7788C122.599 10.7788 123.313 11.0651 123.851 11.6388C124.364 12.1963 124.621 12.9163 124.621 13.7963ZM123.23 13.8388C123.23 13.2951 123.109 12.8288 122.87 12.4401C122.586 11.9701 122.187 11.7351 121.664 11.7351C121.126 11.7351 120.715 11.9701 120.432 12.4401C120.191 12.8288 120.072 13.3026 120.072 13.8626C120.072 14.4063 120.193 14.8726 120.432 15.2613C120.723 15.7313 121.128 15.9663 121.651 15.9663C122.164 15.9663 122.567 15.7276 122.857 15.2488C123.104 14.8526 123.23 14.3826 123.23 13.8388Z" fill="white"/>
<path d="M131.843 16.7914H130.501V13.4164C130.501 12.3764 130.096 11.8564 129.282 11.8564C128.884 11.8564 128.562 11.9989 128.313 12.2851C128.065 12.5714 127.941 12.9089 127.941 13.2951V16.7901H126.596V12.5826C126.596 12.0651 126.581 11.5039 126.549 10.8964H127.728L127.791 11.8176H127.828C127.985 11.5314 128.219 11.2951 128.524 11.1064C128.889 10.8864 129.295 10.7751 129.742 10.7751C130.305 10.7751 130.774 10.9526 131.147 11.3089C131.612 11.7451 131.843 12.3964 131.843 13.2614V16.7914Z" fill="white"/>
<path d="M140.881 11.88H139.402V14.7425C139.402 15.47 139.665 15.8338 140.185 15.8338C140.426 15.8338 140.626 15.8138 140.784 15.7725L140.818 16.7663C140.553 16.8638 140.204 16.9125 139.775 16.9125C139.245 16.9125 138.832 16.755 138.533 16.44C138.233 16.125 138.085 15.595 138.085 14.8513V11.88H137.202V10.8988H138.085V9.81877L139.401 9.43127V10.8975H140.88V11.88H140.881Z" fill="white"/>
<path d="M147.991 16.7913H146.646V13.4413C146.646 12.3851 146.241 11.8563 145.43 11.8563C144.807 11.8563 144.382 12.1626 144.149 12.7751C144.109 12.9038 144.086 13.0613 144.086 13.2463V16.7901H142.744V8.19507H144.086V11.7463H144.111C144.534 11.1001 145.141 10.7776 145.926 10.7776C146.482 10.7776 146.942 10.9551 147.308 11.3113C147.762 11.7551 147.991 12.4151 147.991 13.2876V16.7913Z" fill="white"/>
<path d="M155.325 13.5663C155.325 13.8013 155.307 13.9988 155.275 14.1601H151.247C151.265 14.7426 151.457 15.1863 151.83 15.4938C152.171 15.7688 152.61 15.9063 153.149 15.9063C153.744 15.9063 154.288 15.8138 154.777 15.6276L154.988 16.5376C154.415 16.7801 153.741 16.9013 152.96 16.9013C152.025 16.9013 151.288 16.6326 150.755 16.0951C150.219 15.5576 149.954 14.8363 149.954 13.9313C149.954 13.0426 150.201 12.3026 150.7 11.7126C151.22 11.0826 151.923 10.7676 152.812 10.7676C153.68 10.7676 154.34 11.0826 154.786 11.7126C155.146 12.2126 155.325 12.8313 155.325 13.5663ZM154.043 13.2276C154.053 12.8388 153.965 12.5038 153.783 12.2213C153.55 11.8576 153.195 11.6751 152.714 11.6751C152.276 11.6751 151.918 11.8526 151.645 12.2088C151.422 12.4926 151.29 12.8313 151.247 13.2276H154.043Z" fill="white"/>
</svg>
