<svg width="172" height="50" viewBox="0 0 172 50" fill="none" xmlns="http://www.w3.org/2000/svg">
<path d="M165.63 50H6.37037C2.86826 50 0 47.1859 0 43.75V6.25C0 2.81407 2.86826 2.64247e-06 6.37037 2.64247e-06H165.63C169.132 2.64247e-06 172 2.81407 172 6.25V43.75C172 47.1859 169.132 50 165.63 50Z" fill="black"/>
<path d="M165.63 1.00156C168.579 1.00156 170.979 3.35625 170.979 6.25V43.75C170.979 46.6438 168.579 48.9984 165.63 48.9984H6.37037C3.42089 48.9984 1.02085 46.6438 1.02085 43.75V6.25C1.02085 3.35625 3.42089 1.00156 6.37037 1.00156H165.63ZM165.63 2.64247e-06H6.37037C2.86826 2.64247e-06 0 2.81407 0 6.25V43.75C0 47.1859 2.86826 50 6.37037 50H165.63C169.132 50 172 47.1859 172 43.75V6.25C172 2.81407 169.132 2.64247e-06 165.63 2.64247e-06Z" fill="#A6A6A6"/>
<path d="M60.4133 12.8047C60.4133 13.8485 60.0948 14.6844 59.4673 15.3079C58.7459 16.0469 57.8062 16.4188 56.6548 16.4188C55.5543 16.4188 54.6147 16.0407 53.8438 15.2954C53.0714 14.5391 52.686 13.611 52.686 12.5C52.686 11.3891 53.0714 10.461 53.8438 9.71099C54.6147 8.95942 55.5543 8.5813 56.6548 8.5813C57.2026 8.5813 57.725 8.69224 58.2235 8.89849C58.7204 9.1063 59.1249 9.38755 59.4179 9.73442L58.7522 10.3938C58.241 9.80161 57.545 9.50942 56.6548 9.50942C55.8521 9.50942 55.1561 9.78442 54.5653 10.3391C53.9808 10.8954 53.6878 11.6157 53.6878 12.5C53.6878 13.3844 53.9808 14.111 54.5653 14.6672C55.1561 15.2157 55.8521 15.4969 56.6548 15.4969C57.5068 15.4969 58.2235 15.2157 58.7889 14.661C59.1615 14.2938 59.3733 13.7875 59.4291 13.1407H56.6548V12.2375H60.356C60.4006 12.4329 60.4133 12.6219 60.4133 12.8047Z" fill="white" stroke="white" stroke-width="0.135593" stroke-miterlimit="10"/>
<path d="M66.2853 9.67349H62.8087V12.0485H65.9429V12.9516H62.8087V15.3266H66.2853V16.2469H61.8245V8.75317H66.2853V9.67349Z" fill="white" stroke="white" stroke-width="0.135593" stroke-miterlimit="10"/>
<path d="M70.4292 16.2469H69.445V9.67349H67.3125V8.75317H72.5633V9.67349H70.4292V16.2469Z" fill="white" stroke="white" stroke-width="0.135593" stroke-miterlimit="10"/>
<path d="M76.3633 16.2469V8.75317H77.3459V16.2469H76.3633Z" fill="white" stroke="white" stroke-width="0.135593" stroke-miterlimit="10"/>
<path d="M81.7014 16.2469H80.7252V9.67349H78.5847V8.75317H83.8419V9.67349H81.7014V16.2469Z" fill="white" stroke="white" stroke-width="0.135593" stroke-miterlimit="10"/>
<path d="M93.7829 15.2829C93.0296 16.0407 92.0964 16.4188 90.9831 16.4188C89.8635 16.4188 88.9303 16.0407 88.177 15.2829C87.4253 14.5266 87.051 13.5985 87.051 12.5C87.051 11.4016 87.4253 10.4735 88.177 9.71724C88.9303 8.95942 89.8635 8.5813 90.9831 8.5813C92.09 8.5813 93.0233 8.95942 93.7766 9.72349C94.5346 10.486 94.9089 11.4079 94.9089 12.5C94.9089 13.5985 94.5346 14.5266 93.7829 15.2829ZM88.9048 14.6547C89.4718 15.2157 90.1614 15.4969 90.9831 15.4969C91.7985 15.4969 92.4945 15.2157 93.0551 14.6547C93.6205 14.0938 93.9071 13.3735 93.9071 12.5C93.9071 11.6266 93.6205 10.9063 93.0551 10.3454C92.4945 9.78442 91.7985 9.50317 90.9831 9.50317C90.1614 9.50317 89.4718 9.78442 88.9048 10.3454C88.3394 10.9063 88.0528 11.6266 88.0528 12.5C88.0528 13.3735 88.3394 14.0938 88.9048 14.6547Z" fill="white" stroke="white" stroke-width="0.135593" stroke-miterlimit="10"/>
<path d="M96.2898 16.2469V8.75317H97.4842L101.198 14.5813H101.241L101.198 13.1407V8.75317H102.181V16.2469H101.155L97.2661 10.1313H97.2231L97.2661 11.5782V16.2469H96.2898Z" fill="white" stroke="white" stroke-width="0.135593" stroke-miterlimit="10"/>
<path d="M86.8091 27.1907C83.8166 27.1907 81.372 29.4251 81.372 32.5079C81.372 35.5657 83.8166 37.8235 86.8091 37.8235C89.808 37.8235 92.2526 35.5657 92.2526 32.5079C92.2526 29.4251 89.808 27.1907 86.8091 27.1907ZM86.8091 35.7297C85.1671 35.7297 83.7545 34.4001 83.7545 32.5079C83.7545 30.5907 85.1671 29.2844 86.8091 29.2844C88.4511 29.2844 89.8701 30.5907 89.8701 32.5079C89.8701 34.4001 88.4511 35.7297 86.8091 35.7297ZM74.9459 27.1907C71.947 27.1907 69.5088 29.4251 69.5088 32.5079C69.5088 35.5657 71.947 37.8235 74.9459 37.8235C77.9431 37.8235 80.383 35.5657 80.383 32.5079C80.383 29.4251 77.9431 27.1907 74.9459 27.1907ZM74.9459 35.7297C73.3023 35.7297 71.8849 34.4001 71.8849 32.5079C71.8849 30.5907 73.3023 29.2844 74.9459 29.2844C76.5879 29.2844 78.0005 30.5907 78.0005 32.5079C78.0005 34.4001 76.5879 35.7297 74.9459 35.7297ZM60.8292 28.8204V31.0797H66.3284C66.1675 32.3422 65.7375 33.2704 65.0782 33.9172C64.2755 34.6985 63.0253 35.5657 60.8292 35.5657C57.4449 35.5657 54.7948 32.886 54.7948 29.5657C54.7948 26.2454 57.4449 23.5657 60.8292 23.5657C62.659 23.5657 63.9905 24.2672 64.9731 25.1766L66.5959 23.5844C65.2215 22.2969 63.3932 21.3079 60.8292 21.3079C56.1883 21.3079 52.2881 25.0126 52.2881 29.5657C52.2881 34.1188 56.1883 37.8235 60.8292 37.8235C63.3375 37.8235 65.2215 37.0172 66.7026 35.5047C68.2204 34.0157 68.6934 31.9219 68.6934 30.2313C68.6934 29.7063 68.6488 29.2235 68.5692 28.8204H60.8292ZM118.554 30.5719C118.107 29.3829 116.726 27.1907 113.913 27.1907C111.126 27.1907 108.806 29.3454 108.806 32.5079C108.806 35.486 111.103 37.8235 114.181 37.8235C116.67 37.8235 118.107 36.3344 118.698 35.4672L116.85 34.2594C116.234 35.1438 115.395 35.7297 114.181 35.7297C112.975 35.7297 112.111 35.1876 111.556 34.1188L118.804 31.1766L118.554 30.5719ZM111.165 32.3422C111.103 30.2922 112.787 29.2422 113.995 29.2422C114.941 29.2422 115.743 29.7063 116.011 30.3704L111.165 32.3422ZM105.274 37.5001H107.656V21.8751H105.274V37.5001ZM101.372 28.3751H101.292C100.757 27.7532 99.7362 27.1907 98.443 27.1907C95.7292 27.1907 93.248 29.5282 93.248 32.5251C93.248 35.5047 95.7292 37.8235 98.443 37.8235C99.7362 37.8235 100.757 37.2563 101.292 36.6157H101.372V37.3782C101.372 39.411 100.265 40.5032 98.4796 40.5032C97.024 40.5032 96.121 39.4719 95.7483 38.6047L93.6764 39.4532C94.2736 40.8625 95.855 42.5969 98.4796 42.5969C101.273 42.5969 103.63 40.9844 103.63 37.061V27.5141H101.372V28.3751ZM98.6469 35.7297C97.0049 35.7297 95.6305 34.3813 95.6305 32.5251C95.6305 30.6516 97.0049 29.2844 98.6469 29.2844C100.265 29.2844 101.541 30.6516 101.541 32.5251C101.541 34.3813 100.265 35.7297 98.6469 35.7297ZM129.709 21.8751H124.01V37.5001H126.387V31.5797H129.709C132.348 31.5797 134.936 29.7063 134.936 26.7266C134.936 23.7485 132.341 21.8751 129.709 21.8751ZM129.771 29.4063H126.387V24.0485H129.771C131.545 24.0485 132.558 25.4938 132.558 26.7266C132.558 27.936 131.545 29.4063 129.771 29.4063ZM144.459 27.161C142.743 27.161 140.957 27.9047 140.223 29.5532L142.332 30.4204C142.786 29.5532 143.62 29.2719 144.502 29.2719C145.735 29.2719 146.985 29.9985 147.004 31.2813V31.4454C146.574 31.2016 145.654 30.8407 144.521 30.8407C142.25 30.8407 139.936 32.0672 139.936 34.3563C139.936 36.4501 141.797 37.7985 143.888 37.7985C145.487 37.7985 146.369 37.0907 146.923 36.2672H147.004V37.475H149.299V31.4813C149.299 28.711 147.191 27.161 144.459 27.161ZM144.173 35.7235C143.395 35.7235 142.313 35.3454 142.313 34.4001C142.313 33.1907 143.663 32.7266 144.832 32.7266C145.878 32.7266 146.369 32.9532 147.004 33.2516C146.818 34.6985 145.549 35.7235 144.173 35.7235ZM157.66 27.5032L154.929 34.2766H154.848L152.024 27.5032H149.462L153.704 36.9688L151.284 42.236H153.766L160.304 27.5032H157.66ZM136.242 37.5001H138.624V21.8751H136.242V37.5001Z" fill="white"/>
<path d="M13.295 9.42336C12.9207 9.80774 12.7041 10.4062 12.7041 11.1812V38.8249C12.7041 39.5999 12.9207 40.1984 13.295 40.5827L13.3873 40.6671L29.1763 25.1827V24.8171L13.3873 9.33274L13.295 9.42336Z" fill="url(#paint0_linear_298_1569)"/>
<path d="M34.4334 30.3468L29.1763 25.1827V24.8171L34.4398 19.6531L34.5576 19.7202L40.791 23.1999C42.57 24.1874 42.57 25.8124 40.791 26.8062L34.5576 30.2796L34.4334 30.3468Z" fill="url(#paint1_linear_298_1569)"/>
<path d="M34.5576 30.2797L29.1763 25L13.2949 40.5828C13.8858 41.1922 14.8493 41.2657 15.945 40.6563L34.5576 30.2797Z" fill="url(#paint2_linear_298_1569)"/>
<path d="M34.5576 19.7203L15.945 9.34375C14.8493 8.74063 13.8858 8.81406 13.2949 9.42344L29.1763 25L34.5576 19.7203Z" fill="url(#paint3_linear_298_1569)"/>
<defs>
<linearGradient id="paint0_linear_298_1569" x1="27.7744" y1="39.1128" x2="6.80023" y2="17.7347" gradientUnits="userSpaceOnUse">
<stop stop-color="#00A0FF"/>
<stop offset="0.0066" stop-color="#00A1FF"/>
<stop offset="0.2601" stop-color="#00BEFF"/>
<stop offset="0.5122" stop-color="#00D2FF"/>
<stop offset="0.7604" stop-color="#00DFFF"/>
<stop offset="1" stop-color="#00E3FF"/>
</linearGradient>
<linearGradient id="paint1_linear_298_1569" x1="43.1075" y1="24.9982" x2="12.2789" y2="24.9982" gradientUnits="userSpaceOnUse">
<stop stop-color="#FFE000"/>
<stop offset="0.4087" stop-color="#FFBD00"/>
<stop offset="0.7754" stop-color="#FFA500"/>
<stop offset="1" stop-color="#FF9C00"/>
</linearGradient>
<linearGradient id="paint2_linear_298_1569" x1="31.6314" y1="22.1299" x2="3.1887" y2="-6.86058" gradientUnits="userSpaceOnUse">
<stop stop-color="#FF3A44"/>
<stop offset="1" stop-color="#C31162"/>
</linearGradient>
<linearGradient id="paint3_linear_298_1569" x1="9.29726" y1="49.7798" x2="21.9982" y2="36.8343" gradientUnits="userSpaceOnUse">
<stop stop-color="#32A071"/>
<stop offset="0.0685" stop-color="#2DA771"/>
<stop offset="0.4762" stop-color="#15CF74"/>
<stop offset="0.8009" stop-color="#06E775"/>
<stop offset="1" stop-color="#00F076"/>
</linearGradient>
</defs>
</svg>
