<svg width="60" height="60" viewBox="0 0 60 60" fill="none" xmlns="http://www.w3.org/2000/svg">
<rect width="60" height="60" rx="14.4375" fill="url(#paint0_linear_0_1)"/>
<path d="M20.7872 36.7488C20.6625 36.6898 20.5661 36.6075 20.4979 36.5037C20.4298 36.3993 20.3954 36.2808 20.3954 36.1487V35.1827H20.8529V36.1186C20.8529 36.2353 20.8836 36.325 20.945 36.3883C21.0065 36.4515 21.0992 36.4828 21.2233 36.4828C21.3473 36.4828 21.4401 36.4515 21.5002 36.3883C21.5604 36.325 21.5905 36.2353 21.5905 36.1186V35.1827H22.0481V36.1487C22.0481 36.2814 22.0137 36.3993 21.9455 36.5037C21.8773 36.6081 21.7809 36.6898 21.6568 36.7488C21.5322 36.8077 21.3879 36.8378 21.2233 36.8378C21.0587 36.8378 20.9113 36.8083 20.7866 36.7488H20.7872Z" fill="#004705"/>
<path d="M22.6005 36.8028C22.4789 36.7795 22.3837 36.7451 22.3131 36.699V36.3502C22.4015 36.4024 22.5004 36.4423 22.6097 36.4706C22.719 36.4988 22.8179 36.513 22.9063 36.513C23.0126 36.513 23.0906 36.5025 23.1397 36.4816C23.1889 36.4608 23.2134 36.4227 23.2134 36.3686C23.2134 36.3207 23.1901 36.2833 23.1428 36.2575C23.0955 36.2311 23.0077 36.1985 22.8793 36.158L22.8044 36.134C22.6318 36.08 22.5047 36.0149 22.4224 35.9387C22.3401 35.8626 22.299 35.7582 22.299 35.6255C22.299 35.4714 22.361 35.351 22.4857 35.2656C22.6103 35.1803 22.7774 35.1379 22.988 35.1379C23.1023 35.1379 23.2128 35.1502 23.3191 35.1741C23.4253 35.1981 23.5107 35.2294 23.5745 35.2675V35.6255C23.5101 35.5813 23.4308 35.5457 23.3356 35.5187C23.2404 35.4916 23.1465 35.4781 23.0544 35.4781C22.8597 35.4781 22.7626 35.5272 22.7626 35.6255C22.7626 35.6734 22.786 35.7109 22.832 35.7367C22.8781 35.7625 22.9604 35.7938 23.0789 35.83L23.187 35.8632C23.3135 35.9031 23.4124 35.9473 23.4836 35.9958C23.5549 36.0444 23.6046 36.0984 23.6329 36.1586C23.6611 36.2188 23.6753 36.2919 23.6753 36.3785C23.6753 36.5166 23.6157 36.6284 23.4959 36.7126C23.3768 36.7967 23.1981 36.8391 22.9616 36.8391C22.8431 36.8391 22.7233 36.8274 22.6017 36.8047L22.6005 36.8028Z" fill="#004705"/>
<path d="M22.2166 34.6944H23.6101V34.983H22.2166V34.6944Z" fill="#004705"/>
<path d="M24.0108 35.8325L23.8604 35.577C24.095 35.284 24.3971 35.1379 24.7662 35.1379C25.0254 35.1379 25.2244 35.195 25.3638 35.3092C25.5032 35.4235 25.5732 35.5831 25.5732 35.7876V36.793H25.1157V35.8239C25.1157 35.6034 24.9996 35.4929 24.7662 35.4929C24.6802 35.4929 24.6035 35.5051 24.5359 35.5291C24.4684 35.553 24.4057 35.5923 24.348 35.6464L24.4653 35.8392V36.793H24.0108V35.8331V35.8325Z" fill="#004705"/>
<path d="M26.3708 35.7901C26.3708 35.6857 26.3487 35.6102 26.3044 35.5629C26.2602 35.5156 26.1828 35.4922 26.0729 35.4922C25.963 35.4922 25.8592 35.5193 25.7511 35.5733V35.2269C25.799 35.203 25.8641 35.1821 25.9452 35.1637C26.0262 35.1453 26.1055 35.1367 26.1816 35.1367C26.3923 35.1367 26.5526 35.1932 26.6631 35.3049C26.7737 35.4173 26.8289 35.5801 26.8289 35.7926V36.7918H26.3714V35.7895L26.3708 35.7901Z" fill="#004705"/>
<path d="M27.3831 36.8028C27.2615 36.7795 27.1663 36.7451 27.0957 36.699V36.3502C27.1841 36.4024 27.283 36.4423 27.3923 36.4706C27.5016 36.4988 27.6005 36.513 27.6889 36.513C27.7952 36.513 27.8732 36.5025 27.9223 36.4816C27.9714 36.4608 27.996 36.4227 27.996 36.3686C27.996 36.3207 27.9727 36.2833 27.9254 36.2575C27.8781 36.2311 27.7903 36.1985 27.6619 36.158L27.587 36.134C27.4144 36.08 27.2873 36.0149 27.205 35.9387C27.1227 35.8626 27.0815 35.7582 27.0815 35.6255C27.0815 35.4714 27.1436 35.351 27.2682 35.2656C27.3929 35.1803 27.56 35.1379 27.7706 35.1379C27.8849 35.1379 27.9954 35.1502 28.1016 35.1741C28.2079 35.1981 28.2933 35.2294 28.3571 35.2675V35.6255C28.2926 35.5813 28.2134 35.5457 28.1182 35.5187C28.023 35.4916 27.9291 35.4781 27.8369 35.4781C27.6423 35.4781 27.5452 35.5272 27.5452 35.6255C27.5452 35.6734 27.5686 35.7109 27.6146 35.7367C27.6607 35.7625 27.743 35.7938 27.8615 35.83L27.9696 35.8632C28.0961 35.9031 28.195 35.9473 28.2662 35.9958C28.3375 36.0444 28.3872 36.0984 28.4155 36.1586C28.4437 36.2188 28.4579 36.2919 28.4579 36.3785C28.4579 36.5166 28.3983 36.6284 28.2785 36.7126C28.1594 36.7967 27.9807 36.8391 27.7442 36.8391C27.6257 36.8391 27.5059 36.8274 27.3843 36.8047L27.3831 36.8028Z" fill="#004705"/>
<path d="M28.7085 35.8263C28.7085 35.6033 28.7834 35.4332 28.9327 35.3147C29.0819 35.1962 29.2833 35.1372 29.5364 35.1372C29.7894 35.1372 29.9896 35.1962 30.1382 35.3147C30.2869 35.4332 30.3612 35.6033 30.3612 35.8263V36.7923H29.9036V35.8232C29.9036 35.7127 29.8723 35.6304 29.8091 35.5751C29.7458 35.5198 29.6549 35.4922 29.5364 35.4922C29.4178 35.4922 29.3245 35.5198 29.2612 35.5751C29.198 35.6304 29.166 35.7133 29.166 35.8232V36.0517C29.19 36.0154 29.2256 35.9872 29.2729 35.9657C29.3202 35.9442 29.3724 35.9344 29.4307 35.9344H29.6653V36.2838H29.4068C29.3368 36.2838 29.279 36.3059 29.2336 36.3502C29.1881 36.3944 29.166 36.4515 29.166 36.5215V36.7923H28.7085V35.8263Z" fill="#004705"/>
<path d="M30.9156 36.8028C30.794 36.7795 30.6988 36.7451 30.6281 36.699V36.3502C30.7166 36.4024 30.8155 36.4423 30.9248 36.4706C31.0341 36.4988 31.133 36.513 31.2214 36.513C31.3277 36.513 31.4057 36.5025 31.4548 36.4816C31.5039 36.4608 31.5285 36.4227 31.5285 36.3686C31.5285 36.3207 31.5051 36.2833 31.4579 36.2575C31.4106 36.2311 31.3227 36.1985 31.1944 36.158L31.1195 36.134C30.9469 36.08 30.8198 36.0149 30.7375 35.9387C30.6552 35.8626 30.614 35.7582 30.614 35.6255C30.614 35.4714 30.676 35.351 30.8007 35.2656C30.9254 35.1803 31.0924 35.1379 31.3031 35.1379C31.4173 35.1379 31.5279 35.1502 31.6341 35.1741C31.7404 35.1981 31.8257 35.2294 31.8896 35.2675V35.6255C31.8251 35.5813 31.7459 35.5457 31.6507 35.5187C31.5555 35.4916 31.4615 35.4781 31.3694 35.4781C31.1747 35.4781 31.0777 35.5272 31.0777 35.6255C31.0777 35.6734 31.101 35.7109 31.1471 35.7367C31.1932 35.7625 31.2755 35.7938 31.394 35.83L31.5021 35.8632C31.6286 35.9031 31.7275 35.9473 31.7987 35.9958C31.87 36.0444 31.9197 36.0984 31.9479 36.1586C31.9762 36.2188 31.9903 36.2919 31.9903 36.3785C31.9903 36.5166 31.9307 36.6284 31.811 36.7126C31.6918 36.7967 31.5131 36.8391 31.2767 36.8391C31.1582 36.8391 31.0384 36.8274 30.9168 36.8047L30.9156 36.8028Z" fill="#004705"/>
<path d="M32.6357 36.7488C32.5111 36.6898 32.4146 36.6075 32.3465 36.5037C32.2783 36.3993 32.2439 36.2808 32.2439 36.1487V35.1827H32.7014V36.1186C32.7014 36.2353 32.7321 36.325 32.7936 36.3883C32.855 36.4515 32.9477 36.4828 33.0718 36.4828C33.1958 36.4828 33.2886 36.4515 33.3488 36.3883C33.4089 36.325 33.439 36.2353 33.439 36.1186V35.1827H33.8966V36.1487C33.8966 36.2814 33.8622 36.3993 33.794 36.5037C33.7258 36.6081 33.6294 36.6898 33.5054 36.7488C33.3807 36.8077 33.2364 36.8378 33.0718 36.8378C32.9072 36.8378 32.7598 36.8083 32.6351 36.7488H32.6357Z" fill="#004705"/>
<path d="M35.2479 35.9074H35.6993L35.835 36.4521C35.9732 36.4521 36.088 36.4097 36.1795 36.3244C36.271 36.239 36.3165 36.1223 36.3165 35.9737C36.3165 35.8134 36.2741 35.693 36.1887 35.6126C36.1034 35.5321 35.9578 35.4922 35.7508 35.4922C35.6544 35.4922 35.5549 35.502 35.453 35.5223C35.3504 35.5425 35.2663 35.5683 35.2 35.6003V35.2484C35.2804 35.214 35.3762 35.187 35.4874 35.1673C35.5985 35.1476 35.7115 35.1372 35.8258 35.1372C36.1365 35.1372 36.3742 35.2078 36.5376 35.3491C36.7009 35.4903 36.7826 35.6967 36.7826 35.9675C36.7826 36.1321 36.7421 36.2765 36.6604 36.4011C36.5793 36.5258 36.47 36.6216 36.3324 36.6898C36.1949 36.7579 36.0438 36.7923 35.8792 36.7923H35.4671L35.2472 35.9074H35.2479Z" fill="#004705"/>
<path d="M37.4327 36.7488C37.308 36.6898 37.2116 36.6075 37.1435 36.5037C37.0753 36.3993 37.0409 36.2808 37.0409 36.1487V35.1827H37.4984V36.1186C37.4984 36.2353 37.5291 36.325 37.5906 36.3883C37.652 36.4515 37.7447 36.4828 37.8688 36.4828C37.9928 36.4828 38.0856 36.4515 38.1457 36.3883C38.2059 36.325 38.236 36.2353 38.236 36.1186V35.1827H38.6936V36.1487C38.6936 36.2814 38.6592 36.3993 38.591 36.5037C38.5228 36.6081 38.4264 36.6898 38.3024 36.7488C38.1777 36.8077 38.0334 36.8378 37.8688 36.8378C37.7042 36.8378 37.5568 36.8083 37.4321 36.7488H37.4327Z" fill="#004705"/>
<path d="M39.0927 36.6978C39.0331 36.6345 39.0037 36.5467 39.0037 36.4343V35.1827H39.4612V36.3115C39.4612 36.3594 39.471 36.3938 39.4913 36.414C39.5116 36.4343 39.5441 36.4441 39.5908 36.4441H39.6964V36.793H39.347C39.2364 36.793 39.1517 36.7617 39.0927 36.6984V36.6978Z" fill="#004705"/>
<path d="M40.185 36.8028C40.0634 36.7795 39.9682 36.7451 39.8975 36.699V36.3502C39.986 36.4024 40.0849 36.4423 40.1942 36.4706C40.3035 36.4988 40.4024 36.513 40.4908 36.513C40.5971 36.513 40.6751 36.5025 40.7242 36.4816C40.7733 36.4608 40.7979 36.4227 40.7979 36.3686C40.7979 36.3207 40.7746 36.2833 40.7273 36.2575C40.68 36.2311 40.5921 36.1985 40.4638 36.158L40.3889 36.134C40.2163 36.08 40.0892 36.0149 40.0069 35.9387C39.9246 35.8626 39.8834 35.7582 39.8834 35.6255C39.8834 35.4714 39.9455 35.351 40.0701 35.2656C40.1948 35.1803 40.3618 35.1379 40.5725 35.1379C40.6867 35.1379 40.7973 35.1502 40.9035 35.1741C41.0098 35.1981 41.0951 35.2294 41.159 35.2675V35.6255C41.0945 35.5813 41.0153 35.5457 40.9201 35.5187C40.8249 35.4916 40.7309 35.4781 40.6388 35.4781C40.4441 35.4781 40.3471 35.5272 40.3471 35.6255C40.3471 35.6734 40.3704 35.7109 40.4165 35.7367C40.4626 35.7625 40.5449 35.7938 40.6634 35.83L40.7715 35.8632C40.898 35.9031 40.9969 35.9473 41.0681 35.9958C41.1394 36.0444 41.1891 36.0984 41.2174 36.1586C41.2456 36.2188 41.2597 36.2919 41.2597 36.3785C41.2597 36.5166 41.2002 36.6284 41.0804 36.7126C40.9613 36.7967 40.7825 36.8391 40.5461 36.8391C40.4276 36.8391 40.3078 36.8274 40.1862 36.8047L40.185 36.8028Z" fill="#004705"/>
<path d="M39.8075 34.6944H40.367V34.3757H40.6833V34.6944H40.8847V34.3757H41.1979V34.9837H39.8075V34.695V34.6944Z" fill="#004705"/>
<path d="M40.7859 33.7738H41.1949V34.1982H40.7859V33.7738Z" fill="#004705"/>
<path d="M41.7761 36.7967C41.6459 36.7697 41.5372 36.7322 41.4512 36.6837V35.838H42.2127V36.1721H41.8995V36.4307C41.9615 36.4651 42.053 36.4816 42.1734 36.4816C42.4922 36.4816 42.6518 36.3152 42.6518 35.9823C42.6518 35.8116 42.6058 35.6876 42.5136 35.6089C42.4215 35.5309 42.2655 35.4916 42.0469 35.4916C41.9468 35.4916 41.8436 35.5021 41.7386 35.523C41.633 35.5438 41.5445 35.5739 41.4721 35.612V35.257C41.5544 35.219 41.6538 35.1895 41.7699 35.168C41.886 35.1471 42.0076 35.1367 42.1341 35.1367C42.4571 35.1367 42.7022 35.2104 42.8699 35.3578C43.0375 35.5051 43.121 35.7133 43.121 35.9823C43.121 36.2513 43.0388 36.4559 42.8742 36.6082C42.7096 36.7605 42.4756 36.8366 42.1728 36.8366C42.0383 36.8366 41.9056 36.8231 41.7754 36.7961L41.7761 36.7967Z" fill="#004705"/>
<path d="M43.3134 35.3842H43.7678L44.1105 36.4528C44.2591 36.4528 44.3734 36.4079 44.4538 36.3189C44.5343 36.2298 44.5742 36.1027 44.5742 35.9381C44.5742 35.7895 44.546 35.6783 44.4901 35.604C44.4336 35.5297 44.3476 35.4929 44.2315 35.4929C44.167 35.4929 44.1032 35.5027 44.0387 35.5229V35.1796C44.1228 35.1514 44.218 35.1379 44.3249 35.1379C44.5638 35.1379 44.7425 35.2079 44.8622 35.3467C44.9814 35.4861 45.0416 35.6832 45.0416 35.9381C45.0416 36.1168 45.0023 36.2704 44.9243 36.3987C44.8463 36.5271 44.74 36.6247 44.6068 36.6923C44.4735 36.7592 44.3273 36.793 44.1689 36.793H43.7654L43.314 35.3848L43.3134 35.3842Z" fill="#004705"/>
<path d="M45.6915 36.7488C45.5668 36.6898 45.4704 36.6075 45.4022 36.5037C45.3341 36.3993 45.2997 36.2808 45.2997 36.1487V35.1827H45.7572V36.1186C45.7572 36.2353 45.7879 36.325 45.8493 36.3883C45.9108 36.4515 46.0035 36.4828 46.1276 36.4828C46.2516 36.4828 46.3444 36.4515 46.4045 36.3883C46.4647 36.325 46.4948 36.2353 46.4948 36.1186V35.1827H46.9524V36.1487C46.9524 36.2814 46.918 36.3993 46.8498 36.5037C46.7816 36.6081 46.6852 36.6898 46.5611 36.7488C46.4365 36.8077 46.2921 36.8378 46.1276 36.8378C45.963 36.8378 45.8156 36.8083 45.6909 36.7488H45.6915Z" fill="#004705"/>
<path d="M46.2118 34.7908C46.2118 34.7687 46.2075 34.7533 46.1983 34.7441C46.1891 34.7349 46.1737 34.7306 46.1516 34.7306H46.0104V34.4205H46.2935C46.3678 34.4205 46.4212 34.4377 46.4544 34.4714C46.4876 34.5058 46.5042 34.5488 46.5042 34.601V34.6913H47.1091V34.983H46.2124V34.7902L46.2118 34.7908Z" fill="#004705"/>
<path d="M47.7465 35.7901C47.7465 35.6857 47.7244 35.6102 47.6802 35.5629C47.636 35.5156 47.5586 35.4922 47.4486 35.4922C47.3387 35.4922 47.2349 35.5193 47.1268 35.5733V35.2269C47.1747 35.203 47.2398 35.1821 47.3209 35.1637C47.402 35.1453 47.4812 35.1367 47.5573 35.1367C47.768 35.1367 47.9283 35.1932 48.0388 35.3049C48.1494 35.4173 48.2047 35.5801 48.2047 35.7926V36.7918H47.7471V35.7895L47.7465 35.7901Z" fill="#004705"/>
<path d="M48.8057 36.7561C48.7112 36.7021 48.6399 36.6278 48.5908 36.5332C48.5417 36.4386 48.5171 36.3336 48.5171 36.2169V35.1815H48.9746V36.1899C48.9746 36.3846 49.0778 36.4816 49.2848 36.4816C49.3689 36.4816 49.442 36.4644 49.5028 36.4288C49.5636 36.3932 49.6176 36.3391 49.6637 36.2648V35.1815H50.1182V36.7918H49.6846V36.6112C49.6146 36.6855 49.5317 36.7414 49.4365 36.7795C49.3413 36.8176 49.2436 36.8366 49.1429 36.8366C49.0127 36.8366 48.9003 36.8096 48.8057 36.7555V36.7561Z" fill="#004705"/>
<path d="M11.282 31.3196C10.8042 31.3196 10.3626 31.249 9.95852 31.1078C9.5538 30.9665 9.20619 30.7565 8.9157 30.477C8.6252 30.1976 8.39981 29.8494 8.23952 29.4317C8.07984 29.0141 8 28.532 8 27.9848C8 27.4751 8.07615 27.0132 8.22908 26.5987C8.382 26.1841 8.60371 25.8285 8.8942 25.5319C9.17364 25.2469 9.52002 25.0265 9.93273 24.8711C10.3461 24.7157 10.7968 24.6377 11.2863 24.6377C11.5565 24.6377 11.801 24.653 12.0184 24.6831C12.2358 24.7132 12.4366 24.7532 12.6209 24.8017C12.8137 24.8563 12.9887 24.9177 13.1453 24.9853C13.302 25.0529 13.4395 25.1155 13.5574 25.1732V26.7326H13.3677C13.2872 26.6638 13.1853 26.5821 13.063 26.4875C12.9408 26.3929 12.802 26.3002 12.646 26.2081C12.4876 26.1166 12.3162 26.0392 12.132 25.9759C11.9478 25.9127 11.7506 25.8813 11.54 25.8813C11.3066 25.8813 11.0849 25.9182 10.8748 25.9913C10.6648 26.0644 10.4701 26.186 10.292 26.3555C10.1225 26.5194 9.98493 26.7362 9.87991 27.0065C9.77489 27.2767 9.72208 27.604 9.72208 27.9891C9.72208 28.3742 9.77919 28.7273 9.89281 28.9975C10.0064 29.2678 10.1495 29.4803 10.3227 29.6356C10.4984 29.7935 10.6943 29.9065 10.9098 29.974C11.1254 30.0416 11.3391 30.0754 11.5492 30.0754C11.7592 30.0754 11.9502 30.0453 12.1474 29.9851C12.3445 29.9249 12.5269 29.8432 12.6939 29.7401C12.8352 29.6571 12.966 29.5681 13.087 29.4735C13.208 29.3789 13.3075 29.2972 13.3849 29.2285H13.5574V30.7657C13.3959 30.8375 13.2424 30.9051 13.0956 30.9683C12.9488 31.0316 12.7947 31.0863 12.6338 31.1323C12.4237 31.1925 12.2266 31.2386 12.0417 31.2705C11.8575 31.3024 11.6044 31.3178 11.282 31.3178V31.3196Z" fill="#004705"/>
<path d="M20.5415 31.1944H18.8833V28.3614H16.4347V31.1944H14.7765V24.7643H16.4347V27.1177H18.8833V24.7643H20.5415V31.195V31.1944Z" fill="#004705"/>
<path d="M37.1001 31.1944H35.5021L32.7728 26.7805V31.1944H31.2528V24.7643H33.2353L35.5801 28.448V24.7643H37.1001V31.195V31.1944Z" fill="#004705"/>
<path d="M44.4285 30.8278C44.1405 30.9402 43.7591 31.0514 43.2843 31.1625C42.8096 31.2731 42.3355 31.329 41.8638 31.329C40.77 31.329 39.9133 31.0317 39.2942 30.4372C38.6751 29.8427 38.3656 29.0216 38.3656 27.9733C38.3656 26.9249 38.6782 26.1689 39.3028 25.5572C39.9274 24.9455 40.7982 24.6396 41.916 24.6396C42.3391 24.6396 42.742 24.6777 43.1253 24.7539C43.5079 24.83 43.9341 24.9823 44.4033 25.2096V26.7167H44.2178C44.1374 26.6565 44.0195 26.5705 43.8635 26.46C43.7081 26.3494 43.5582 26.2549 43.4145 26.1769C43.2475 26.0847 43.0522 26.0055 42.8292 25.9392C42.6063 25.8729 42.3692 25.8397 42.1187 25.8397C41.8251 25.8397 41.5586 25.8827 41.3197 25.9693C41.0808 26.0559 40.8664 26.1879 40.676 26.3666C40.4949 26.5392 40.3511 26.7591 40.2461 27.025C40.1411 27.2915 40.0883 27.5986 40.0883 27.9468C40.0883 28.658 40.2768 29.2022 40.6539 29.5793C41.031 29.9563 41.588 30.1449 42.325 30.1449C42.3883 30.1449 42.4583 30.1437 42.5344 30.1406C42.6106 30.1375 42.6806 30.1332 42.7439 30.1277V28.8668H41.4615V27.6533H44.4285V30.8278Z" fill="#004705"/>
<path d="M52.0765 27.181C52.2534 27.8449 52.2061 28.4529 51.9948 29.0474C51.5496 30.3027 50.3624 31.1643 49.0291 31.1871C48.0741 31.2036 47.1185 31.1871 46.1628 31.1944C45.9749 31.1957 45.9258 31.125 45.9264 30.9482C45.9319 29.8151 45.9319 28.6813 45.9264 27.5482C45.9258 27.3763 45.9639 27.2964 46.1598 27.302C46.6413 27.3155 47.1234 27.3173 47.6043 27.302C47.8211 27.2946 47.864 27.3793 47.8604 27.5728C47.8499 28.1231 47.8567 28.674 47.8567 29.212C47.8837 29.2347 47.8954 29.2531 47.907 29.2531C48.7742 29.2642 49.6475 29.3452 50.4822 29.0093C51.2658 28.6936 51.8075 28.1618 52.0095 27.3216C52.0175 27.2872 52.0403 27.2565 52.0765 27.1822V27.181Z" fill="#004705"/>
<path d="M50.2606 28.3485C50.2471 28.1028 50.2643 27.875 50.2176 27.6612C50.0911 27.0809 49.5856 26.6823 48.9905 26.6786C48.0669 26.6724 47.1426 26.6706 46.2189 26.681C46.0021 26.6835 45.9161 26.6319 45.9241 26.3998C45.9413 25.9195 45.9345 25.438 45.9315 24.9571C45.9308 24.8294 45.953 24.7471 46.1053 24.7489C47.1917 24.7631 48.2794 24.7385 49.3633 24.7987C50.0831 24.8386 50.6782 25.2046 51.0903 25.8126C51.6946 26.7056 51.3403 27.8928 50.3484 28.3276C50.3214 28.3393 50.2907 28.3423 50.2612 28.3491L50.2606 28.3485Z" fill="#004705"/>
<path d="M8.84164 36.8821C8.65555 36.8035 8.51368 36.6929 8.41603 36.5511C8.31838 36.4092 8.26925 36.2483 8.26925 36.0683V35.9498C8.26925 35.8362 8.29136 35.7336 8.33558 35.6421C8.37979 35.5506 8.44121 35.448 8.51982 35.3344C8.57018 35.265 8.60642 35.2091 8.62853 35.1661C8.65063 35.1238 8.66169 35.0851 8.66169 35.0501C8.66169 34.9616 8.60826 34.9174 8.50078 34.9174H8.23608V34.3972H8.92209C9.06396 34.3972 9.17758 34.4384 9.26294 34.5201C9.34831 34.6024 9.39069 34.7092 9.39069 34.8419C9.39069 34.9365 9.37349 35.0243 9.33848 35.1047C9.30348 35.1852 9.25189 35.2773 9.18249 35.3817C9.11616 35.4855 9.06641 35.5739 9.03325 35.6464C9.00009 35.7189 8.9835 35.7975 8.9835 35.8829V35.9824C8.9835 36.1304 9.02772 36.244 9.11616 36.3232C9.2046 36.4018 9.3305 36.4411 9.49448 36.4411C9.66767 36.4411 9.79971 36.3932 9.88937 36.2968C9.97904 36.2004 10.0245 36.061 10.0245 35.8779C10.0245 35.4929 9.87463 35.3006 9.57493 35.3006V34.9555L10.0337 34.326H10.7952L10.2794 35.031C10.4464 35.1164 10.5656 35.2276 10.6368 35.3645C10.7074 35.5015 10.7437 35.6759 10.7437 35.8872C10.7437 36.0984 10.6939 36.2974 10.5944 36.4645C10.4949 36.6315 10.3506 36.7623 10.1614 36.8575C9.97228 36.9521 9.74996 36.9994 9.49448 36.9994C9.23899 36.9994 9.02772 36.9601 8.84164 36.8815V36.8821Z" fill="white"/>
<path d="M9.98633 33.2439H10.7055V34.0859H9.98633V33.2439Z" fill="white"/>
<path d="M11.9601 35.3541C11.9601 35.1901 11.9251 35.0709 11.8557 34.9966C11.7863 34.9223 11.6647 34.8855 11.4915 34.8855C11.3183 34.8855 11.1556 34.9278 10.9855 35.0132V34.4691C11.061 34.431 11.163 34.3978 11.2907 34.3696C11.4184 34.3413 11.5425 34.3272 11.6623 34.3272C11.9933 34.3272 12.2457 34.4156 12.4195 34.5919C12.5927 34.7688 12.6793 35.0243 12.6793 35.3584V36.9294H11.9601V35.3541Z" fill="white"/>
<path d="M13.0764 34.7153H13.7907L14.3299 36.395C14.5633 36.395 14.7432 36.325 14.8691 36.1844C14.995 36.0444 15.0583 35.8448 15.0583 35.5862C15.0583 35.3528 15.0141 35.1778 14.9256 35.0611C14.8372 34.9444 14.7015 34.8861 14.5184 34.8861C14.4177 34.8861 14.3164 34.902 14.2157 34.9334V34.3941C14.3483 34.3499 14.4976 34.3278 14.6652 34.3278C15.0405 34.3278 15.3224 34.4371 15.5097 34.6564C15.6976 34.8756 15.7916 35.1858 15.7916 35.5862C15.7916 35.8669 15.7302 36.1082 15.6073 36.3103C15.4845 36.5123 15.3181 36.6659 15.108 36.7715C14.8986 36.8772 14.6689 36.93 14.4196 36.93H13.7858L13.0764 34.716V34.7153Z" fill="white"/>
<path d="M16.4403 36.6739C16.2131 36.4565 16.0995 36.1377 16.0995 35.7183C16.0995 35.2988 16.2303 34.9383 16.4919 34.6939C16.7536 34.4494 17.1147 34.3272 17.5753 34.3272C18.0359 34.3272 18.4025 34.4378 18.6279 34.6582C18.8533 34.8787 18.9663 35.1692 18.9663 35.5285V36.9287H18.2521V35.5236C18.2521 35.3154 18.1993 35.1569 18.0936 35.0482C17.988 34.9395 17.8154 34.8849 17.5753 34.8849C17.3481 34.8849 17.1687 34.9555 17.0361 35.098C16.9034 35.2398 16.8377 35.4468 16.8377 35.7176C16.8377 35.967 16.8917 36.15 17.0011 36.2667C17.1104 36.3834 17.2762 36.4417 17.5004 36.4417C17.6201 36.4417 17.7276 36.4245 17.8222 36.3895V36.9386C17.6993 36.9797 17.5477 37 17.3677 37C16.9765 37 16.6676 36.8913 16.4403 36.6739Z" fill="white"/>
<path d="M16.781 33.6314H18.3238V33.1296H18.9717V34.0853H16.781V33.6308V33.6314Z" fill="white"/>
<path d="M30.1273 25.489C30.0776 25.2476 29.9283 25.0229 29.6636 24.8791L26.397 23.111C26.1237 22.963 25.7945 22.963 25.5212 23.111L22.2545 24.8791C22.0955 24.9651 21.9788 25.0806 21.8996 25.2108C21.7866 25.3477 21.7172 25.5215 21.7172 25.7119V30.4679C21.7172 30.9021 22.0728 31.2577 22.507 31.2577H29.375C29.8092 31.2577 30.1648 30.9021 30.1648 30.4679V25.7119C30.1648 25.6339 30.1501 25.5602 30.1286 25.4884L30.1273 25.489Z" fill="white"/>
<path d="M27.309 26.4674C27.2746 26.4625 27.2389 26.4778 27.2064 26.5079C27.1351 25.6764 26.5818 25.2956 25.8768 25.2956C25.8559 25.2956 25.835 25.2956 25.8147 25.2968C25.1336 25.3189 24.5569 25.7046 24.4851 26.5196C24.4513 26.4698 24.4114 26.4416 24.3709 26.4453C24.28 26.4539 24.2216 26.6222 24.2407 26.8199C24.2597 27.0183 24.3494 27.1718 24.4403 27.1626C24.4697 27.1595 24.4955 27.1405 24.5164 27.1086C24.6601 27.8578 25.1846 28.4173 25.8147 28.4351C25.8252 28.4351 25.8356 28.4364 25.846 28.4364C26.4706 28.4364 26.997 27.9045 27.1609 27.1773C27.1738 27.1866 27.1874 27.1921 27.2027 27.1939C27.3016 27.2087 27.406 27.0576 27.4355 26.8568C27.4649 26.6559 27.4084 26.4815 27.309 26.4668V26.4674Z" stroke="black" stroke-width="0.0436046" stroke-miterlimit="10"/>
<path d="M24.6684 29.7941H24.8422C24.8999 29.7941 24.9466 29.8408 24.9466 29.8985V29.9157C24.9466 29.9735 24.8999 30.0201 24.8422 30.0201H24.6684C24.6106 30.0201 24.564 29.9735 24.564 29.9157V29.8985C24.564 29.8408 24.6106 29.7941 24.6684 29.7941Z" fill="black"/>
<path d="M26.894 29.7769H27.0678C27.1255 29.7769 27.1722 29.8236 27.1722 29.8813V29.8985C27.1722 29.9562 27.1255 30.0029 27.0678 30.0029H26.894C26.8362 30.0029 26.7896 29.9562 26.7896 29.8985V29.8813C26.7896 29.8236 26.8362 29.7769 26.894 29.7769Z" fill="black"/>
<path d="M27.4024 25.9189L27.3919 25.9275C27.3502 25.7715 27.134 25.0659 26.5714 24.7023L26.3577 25.3926C26.3276 25.0143 26.3816 24.7004 26.4277 24.5616C26.2471 24.4738 26.0365 24.421 25.7908 24.4253C25.5452 24.421 25.3345 24.4738 25.154 24.5616C25.1994 24.7004 25.2541 25.0143 25.224 25.3926L25.0102 24.7023C24.4471 25.0659 24.2315 25.7715 24.1897 25.9275L24.1799 25.9189C24.1799 25.9189 23.9643 25.93 23.9263 26.2856L24.6117 26.6301H26.9725L27.6578 26.2856C27.6198 25.93 27.4042 25.9189 27.4042 25.9189H27.4024Z" fill="black"/>
<path d="M27.223 28.9159V29.5466H26.7477V28.6518C26.6986 28.6359 26.6476 28.6217 26.5948 28.6107L26.4971 28.5008C26.3215 28.5886 26.0992 28.6408 25.8578 28.6408C25.6164 28.6408 25.3732 28.5837 25.1939 28.4879L25.0852 28.6101L25.1067 28.6328C25.0698 28.6402 25.0097 28.6549 24.9341 28.6801V29.546H24.4588V28.919C24.1216 29.1554 23.7697 29.5755 23.6862 30.3131C23.7291 30.345 23.7721 30.3757 23.8164 30.4058C23.8188 30.4077 23.8219 30.4095 23.8243 30.4114C23.8606 30.4359 23.898 30.4593 23.9349 30.4826C23.9588 30.4974 23.984 30.5127 24.011 30.5287C24.0387 30.5446 24.0663 30.5612 24.0946 30.5766C24.1081 30.5839 24.1216 30.5919 24.1357 30.5993C24.2088 30.6386 24.2831 30.6748 24.3586 30.7092V29.6302H27.3803V30.7148C27.5952 30.6183 27.7991 30.5023 27.9895 30.3684C27.992 30.3665 27.9944 30.3647 27.9963 30.3629C27.9963 30.3629 27.8525 29.4343 27.2237 28.9159H27.223Z" fill="black"/>
<defs>
<linearGradient id="paint0_linear_0_1" x1="30" y1="27" x2="30" y2="60" gradientUnits="userSpaceOnUse">
<stop stop-color="#FFBE00"/>
<stop offset="1" stop-color="#D6A20D"/>
</linearGradient>
</defs>
</svg>
