<svg width="190" height="60" viewBox="0 0 190 60" fill="none" xmlns="http://www.w3.org/2000/svg">
<path d="M54.8047 58.9235C54.2704 58.6708 53.8572 58.3181 53.565 57.8733C53.2729 57.4258 53.1255 56.9178 53.1255 56.3519V52.2117H55.0864V56.223C55.0864 56.7231 55.218 57.1074 55.4812 57.3785C55.7444 57.6496 56.1418 57.7838 56.6735 57.7838C57.2052 57.7838 57.6026 57.6496 57.8606 57.3785C58.1185 57.1074 58.2475 56.7231 58.2475 56.223V52.2117H60.2084V56.3519C60.2084 56.9205 60.061 57.4258 59.7688 57.8733C59.4767 58.3207 59.0634 58.6708 58.5318 58.9235C57.9975 59.1762 57.3789 59.3051 56.6735 59.3051C55.9681 59.3051 55.3364 59.1788 54.8021 58.9235H54.8047Z" fill="white"/>
<path d="M62.5746 59.1551C62.0534 59.0551 61.6455 58.9077 61.3428 58.7103V57.2153C61.7218 57.439 62.1455 57.6101 62.6141 57.7312C63.0826 57.8522 63.5063 57.9128 63.8853 57.9128C64.3407 57.9128 64.675 57.868 64.8855 57.7785C65.0961 57.689 65.2014 57.5258 65.2014 57.2942C65.2014 57.0889 65.1014 56.9284 64.8987 56.8178C64.696 56.7046 64.3196 56.5651 63.7695 56.3914L63.4484 56.2888C62.7088 56.0572 62.164 55.7782 61.8113 55.4518C61.4586 55.1254 61.2822 54.6779 61.2822 54.1094C61.2822 53.4488 61.5481 52.9329 62.0824 52.567C62.6167 52.2012 63.3326 52.0196 64.2354 52.0196C64.725 52.0196 65.1987 52.0722 65.6541 52.1749C66.1094 52.2775 66.4753 52.4117 66.749 52.5749V54.1094C66.4727 53.9199 66.1331 53.7673 65.7252 53.6514C65.3172 53.5356 64.9145 53.4777 64.5197 53.4777C63.6853 53.4777 63.2694 53.6883 63.2694 54.1094C63.2694 54.3147 63.3695 54.4753 63.5669 54.5858C63.7643 54.6964 64.117 54.8306 64.625 54.9859L65.0882 55.128C65.6304 55.2991 66.0542 55.4886 66.3595 55.6966C66.6648 55.9045 66.878 56.1361 66.9991 56.3941C67.1202 56.652 67.1807 56.9652 67.1807 57.3363C67.1807 57.9286 66.9254 58.4076 66.4121 58.7682C65.9015 59.1288 65.1356 59.3104 64.1222 59.3104C63.6142 59.3104 63.101 59.2604 62.5798 59.163L62.5746 59.1551Z" fill="white"/>
<path d="M60.9296 50.1192H66.9017V51.3563H60.9296V50.1192Z" fill="white"/>
<path d="M68.6179 54.9964L67.973 53.9015C68.9785 52.646 70.2735 52.0196 71.8553 52.0196C72.9661 52.0196 73.8189 52.2643 74.4163 52.7539C75.0138 53.2435 75.3139 53.9278 75.3139 54.8043V59.113H73.353V54.9596C73.353 54.0147 72.8555 53.5409 71.8553 53.5409C71.4868 53.5409 71.1578 53.5935 70.8683 53.6962C70.5788 53.7988 70.3103 53.9673 70.0629 54.1989L70.5656 55.0254V59.113H68.6179V54.9991V54.9964Z" fill="white"/>
<path d="M78.7302 54.8148C78.7302 54.3674 78.6355 54.0436 78.446 53.841C78.2565 53.6383 77.9248 53.5383 77.4537 53.5383C76.9825 53.5383 76.5377 53.6541 76.0745 53.8857V52.4012C76.2798 52.2986 76.5588 52.2091 76.9062 52.1301C77.2536 52.0511 77.5932 52.0143 77.9195 52.0143C78.8223 52.0143 79.5093 52.2564 79.9831 52.7355C80.4569 53.2172 80.6937 53.9146 80.6937 54.8253V59.1077H78.7329V54.8122L78.7302 54.8148Z" fill="white"/>
<path d="M83.0705 59.1551C82.5494 59.0551 82.1414 58.9077 81.8387 58.7103V57.2153C82.2177 57.439 82.6415 57.6101 83.11 57.7312C83.5785 57.8522 84.0023 57.9128 84.3813 57.9128C84.8367 57.9128 85.1709 57.868 85.3815 57.7785C85.5921 57.689 85.6973 57.5258 85.6973 57.2942C85.6973 57.0889 85.5973 56.9284 85.3947 56.8178C85.192 56.7046 84.8156 56.5651 84.2655 56.3914L83.9444 56.2888C83.2048 56.0572 82.6599 55.7782 82.3072 55.4518C81.9545 55.1254 81.7782 54.6779 81.7782 54.1094C81.7782 53.4488 82.044 52.9329 82.5783 52.567C83.1127 52.2012 83.8286 52.0196 84.7314 52.0196C85.2209 52.0196 85.6947 52.0722 86.1501 52.1749C86.6054 52.2775 86.9713 52.4117 87.245 52.5749V54.1094C86.9686 53.9199 86.6291 53.7673 86.2211 53.6514C85.8132 53.5356 85.4105 53.4777 85.0156 53.4777C84.1813 53.4777 83.7654 53.6883 83.7654 54.1094C83.7654 54.3147 83.8654 54.4753 84.0628 54.5858C84.2602 54.6964 84.6129 54.8306 85.1209 54.9859L85.5842 55.128C86.1264 55.2991 86.5501 55.4886 86.8555 55.6966C87.1608 55.9045 87.374 56.1361 87.4951 56.3941C87.6161 56.652 87.6767 56.9652 87.6767 57.3363C87.6767 57.9286 87.4214 58.4076 86.9081 58.7682C86.3975 59.1288 85.6315 59.3104 84.6182 59.3104C84.1102 59.3104 83.597 59.2604 83.0758 59.163L83.0705 59.1551Z" fill="white"/>
<path d="M88.7505 54.9701C88.7505 54.0147 89.0716 53.2856 89.7112 52.7776C90.3508 52.2696 91.2141 52.0169 92.2985 52.0169C93.3829 52.0169 94.241 52.2696 94.8779 52.7776C95.5149 53.2856 95.8334 54.0147 95.8334 54.9701V59.1104H93.8725V54.957C93.8725 54.4832 93.7383 54.1305 93.4672 53.8936C93.196 53.6567 92.8065 53.5383 92.2985 53.5383C91.7905 53.5383 91.3905 53.6567 91.1194 53.8936C90.8482 54.1305 90.7114 54.4858 90.7114 54.957V55.9361C90.814 55.7808 90.9667 55.6597 91.1694 55.5676C91.372 55.4755 91.5958 55.4334 91.8458 55.4334H92.8512V56.931H91.7432C91.4431 56.931 91.1957 57.0258 91.0009 57.2153C90.8061 57.4048 90.7114 57.6496 90.7114 57.9496V59.1104H88.7505V54.9701Z" fill="white"/>
<path d="M98.2102 59.1551C97.689 59.0551 97.2811 58.9077 96.9784 58.7103V57.2153C97.3574 57.439 97.7812 57.6101 98.2497 57.7312C98.7182 57.8522 99.1419 57.9128 99.521 57.9128C99.9763 57.9128 100.311 57.868 100.521 57.7785C100.732 57.689 100.837 57.5258 100.837 57.2942C100.837 57.0889 100.737 56.9284 100.534 56.8178C100.332 56.7046 99.9553 56.5651 99.4052 56.3914L99.084 56.2888C98.3444 56.0572 97.7996 55.7782 97.4469 55.4518C97.0942 55.1254 96.9178 54.6779 96.9178 54.1094C96.9178 53.4488 97.1837 52.9329 97.718 52.567C98.2523 52.2012 98.9682 52.0196 99.871 52.0196C100.361 52.0196 100.834 52.0722 101.29 52.1749C101.745 52.2775 102.111 52.4117 102.385 52.5749V54.1094C102.108 53.9199 101.769 53.7673 101.361 53.6514C100.953 53.5356 100.55 53.4777 100.155 53.4777C99.3209 53.4777 98.9051 53.6883 98.9051 54.1094C98.9051 54.3147 99.0051 54.4753 99.2025 54.5858C99.3999 54.6964 99.7526 54.8306 100.261 54.9859L100.724 55.128C101.266 55.2991 101.69 55.4886 101.995 55.6966C102.3 55.9045 102.514 56.1361 102.635 56.3941C102.756 56.652 102.816 56.9652 102.816 57.3363C102.816 57.9286 102.561 58.4076 102.048 58.7682C101.537 59.1288 100.771 59.3104 99.7579 59.3104C99.2499 59.3104 98.7366 59.2604 98.2155 59.163L98.2102 59.1551Z" fill="white"/>
<path d="M105.583 58.9235C105.048 58.6708 104.635 58.3181 104.343 57.8733C104.051 57.4258 103.903 56.9178 103.903 56.3519V52.2117H105.864V56.223C105.864 56.7231 105.996 57.1074 106.259 57.3785C106.522 57.6496 106.92 57.7838 107.451 57.7838C107.983 57.7838 108.38 57.6496 108.638 57.3785C108.896 57.1074 109.025 56.7231 109.025 56.223V52.2117H110.986V56.3519C110.986 56.9205 110.839 57.4258 110.547 57.8733C110.255 58.3207 109.841 58.6708 109.31 58.9235C108.775 59.1762 108.157 59.3051 107.451 59.3051C106.746 59.3051 106.114 59.1788 105.58 58.9235H105.583Z" fill="white"/>
<path d="M116.777 55.3175H118.711L119.293 57.6522C119.885 57.6522 120.378 57.4706 120.77 57.1047C121.162 56.7389 121.357 56.2388 121.357 55.6018C121.357 54.9148 121.175 54.399 120.809 54.0542C120.443 53.7094 119.819 53.5383 118.932 53.5383C118.519 53.5383 118.093 53.5804 117.656 53.6672C117.216 53.7541 116.856 53.8646 116.572 54.0015V52.4933C116.916 52.3459 117.327 52.2301 117.803 52.1459C118.28 52.0617 118.764 52.0169 119.254 52.0169C120.585 52.0169 121.604 52.3196 122.304 52.925C123.004 53.5304 123.354 54.4147 123.354 55.5755C123.354 56.2809 123.181 56.8994 122.831 57.4337C122.483 57.968 122.015 58.3786 121.425 58.6708C120.835 58.963 120.188 59.1104 119.483 59.1104H117.716L116.774 55.3175H116.777Z" fill="white"/>
<path d="M126.142 58.9235C125.607 58.6708 125.194 58.3181 124.902 57.8733C124.61 57.4258 124.463 56.9178 124.463 56.3519V52.2117H126.423V56.223C126.423 56.7231 126.555 57.1074 126.818 57.3785C127.081 57.6496 127.479 57.7838 128.011 57.7838C128.542 57.7838 128.94 57.6496 129.198 57.3785C129.456 57.1074 129.585 56.7231 129.585 56.223V52.2117H131.545V56.3519C131.545 56.9205 131.398 57.4258 131.106 57.8733C130.814 58.3207 130.4 58.6708 129.869 58.9235C129.334 59.1762 128.716 59.3051 128.011 59.3051C127.305 59.3051 126.673 59.1788 126.139 58.9235H126.142Z" fill="white"/>
<path d="M133.256 58.705C133.001 58.4339 132.875 58.0575 132.875 57.5759V52.2117H134.835V57.0494C134.835 57.2547 134.878 57.4021 134.964 57.489C135.051 57.5759 135.191 57.618 135.391 57.618H135.843V59.113H134.346C133.872 59.113 133.509 58.9787 133.256 58.7076V58.705Z" fill="white"/>
<path d="M137.936 59.1551C137.415 59.0551 137.007 58.9077 136.704 58.7103V57.2153C137.083 57.439 137.507 57.6101 137.976 57.7312C138.444 57.8522 138.868 57.9128 139.247 57.9128C139.702 57.9128 140.036 57.868 140.247 57.7785C140.458 57.689 140.563 57.5258 140.563 57.2942C140.563 57.0889 140.463 56.9284 140.26 56.8178C140.057 56.7046 139.681 56.5651 139.131 56.3914L138.81 56.2888C138.07 56.0572 137.525 55.7782 137.173 55.4518C136.82 55.1254 136.644 54.6779 136.644 54.1094C136.644 53.4488 136.91 52.9329 137.444 52.567C137.978 52.2012 138.694 52.0196 139.597 52.0196C140.086 52.0196 140.56 52.0722 141.016 52.1749C141.471 52.2775 141.837 52.4117 142.11 52.5749V54.1094C141.834 53.9199 141.495 53.7673 141.087 53.6514C140.679 53.5356 140.276 53.4777 139.881 53.4777C139.047 53.4777 138.631 53.6883 138.631 54.1094C138.631 54.3147 138.731 54.4753 138.928 54.5858C139.126 54.6964 139.478 54.8306 139.986 54.9859L140.45 55.128C140.992 55.2991 141.416 55.4886 141.721 55.6966C142.026 55.9045 142.239 56.1361 142.361 56.3941C142.482 56.652 142.542 56.9652 142.542 57.3363C142.542 57.9286 142.287 58.4076 141.774 58.7682C141.263 59.1288 140.497 59.3104 139.484 59.3104C138.976 59.3104 138.462 59.2604 137.941 59.163L137.936 59.1551Z" fill="white"/>
<path d="M136.317 50.1192H138.715V48.7532H140.071V50.1192H140.934V48.7532H142.276V51.3589H136.317V50.1218V50.1192Z" fill="white"/>
<path d="M140.51 46.1737H142.263V47.9925H140.51V46.1737Z" fill="white"/>
<path d="M144.753 59.1288C144.195 59.013 143.729 58.8524 143.361 58.6445V55.0201H146.624V56.452H145.282V57.5601C145.548 57.7075 145.94 57.7785 146.456 57.7785C147.822 57.7785 148.506 57.0652 148.506 55.6387C148.506 54.9069 148.309 54.3753 147.914 54.0384C147.519 53.7041 146.851 53.5356 145.914 53.5356C145.485 53.5356 145.043 53.5804 144.593 53.6699C144.14 53.7594 143.761 53.8883 143.45 54.0515V52.5302C143.803 52.367 144.229 52.2407 144.727 52.1485C145.224 52.059 145.745 52.0143 146.288 52.0143C147.672 52.0143 148.722 52.3301 149.441 52.9618C150.159 53.5935 150.517 54.4858 150.517 55.6387C150.517 56.7915 150.165 57.668 149.459 58.3207C148.754 58.9735 147.751 59.2999 146.453 59.2999C145.877 59.2999 145.308 59.242 144.75 59.1262L144.753 59.1288Z" fill="white"/>
<path d="M151.344 53.075H153.291L154.76 57.6548C155.397 57.6548 155.887 57.4627 156.232 57.081C156.576 56.6994 156.747 56.1545 156.747 55.4491C156.747 54.8122 156.626 54.3358 156.387 54.0173C156.145 53.6988 155.776 53.5409 155.279 53.5409C155.002 53.5409 154.729 53.583 154.452 53.6699V52.1985C154.813 52.0775 155.221 52.0196 155.679 52.0196C156.703 52.0196 157.469 52.3196 157.982 52.9145C158.492 53.5119 158.75 54.3568 158.75 55.4491C158.75 56.2151 158.582 56.8731 158.248 57.4232C157.913 57.9733 157.458 58.3918 156.887 58.6813C156.316 58.9682 155.689 59.113 155.01 59.113H153.281L151.346 53.0777L151.344 53.075Z" fill="white"/>
<path d="M161.535 58.9235C161.001 58.6708 160.588 58.3181 160.296 57.8733C160.003 57.4258 159.856 56.9178 159.856 56.3519V52.2117H161.817V56.223C161.817 56.7231 161.948 57.1074 162.212 57.3785C162.475 57.6496 162.872 57.7838 163.404 57.7838C163.936 57.7838 164.333 57.6496 164.591 57.3785C164.849 57.1074 164.978 56.7231 164.978 56.223V52.2117H166.939V56.3519C166.939 56.9205 166.791 57.4258 166.499 57.8733C166.207 58.3207 165.794 58.6708 165.262 58.9235C164.728 59.1762 164.109 59.3051 163.404 59.3051C162.699 59.3051 162.067 59.1788 161.533 58.9235H161.535Z" fill="white"/>
<path d="M163.765 50.5324C163.765 50.4377 163.746 50.3719 163.707 50.3324C163.667 50.2929 163.601 50.2745 163.507 50.2745H162.901V48.9453H164.115C164.433 48.9453 164.662 49.019 164.804 49.1638C164.946 49.3112 165.017 49.4954 165.017 49.7191V50.106H167.61V51.3563H163.767V50.5298L163.765 50.5324Z" fill="white"/>
<path d="M170.342 54.8148C170.342 54.3674 170.247 54.0436 170.058 53.841C169.868 53.6383 169.537 53.5383 169.065 53.5383C168.594 53.5383 168.15 53.6541 167.686 53.8857V52.4012C167.892 52.2986 168.171 52.2091 168.518 52.1301C168.865 52.0511 169.205 52.0143 169.531 52.0143C170.434 52.0143 171.121 52.2564 171.595 52.7355C172.069 53.2172 172.306 53.9146 172.306 54.8253V59.1077H170.345V54.8122L170.342 54.8148Z" fill="white"/>
<path d="M174.882 58.9551C174.477 58.7234 174.172 58.405 173.961 57.9996C173.751 57.5943 173.645 57.1442 173.645 56.6441V52.2064H175.606V56.5283C175.606 57.3627 176.048 57.7785 176.935 57.7785C177.296 57.7785 177.609 57.7048 177.87 57.5522C178.13 57.3995 178.362 57.1679 178.559 56.8494V52.2064H180.507V59.1077H178.649V58.3339C178.349 58.6524 177.993 58.8919 177.585 59.0551C177.178 59.2183 176.759 59.2999 176.327 59.2999C175.769 59.2999 175.288 59.1841 174.882 58.9524V58.9551Z" fill="white"/>
<path d="M14.0658 35.656C12.018 35.656 10.1256 35.3533 8.39367 34.7479C6.65914 34.1425 5.16938 33.2424 3.92442 32.0448C2.67945 30.8472 1.71348 29.3548 1.02651 27.565C0.342169 25.7752 0 23.709 0 21.3638C0 19.1792 0.326377 17.1999 0.981762 15.4233C1.63715 13.6466 2.58732 12.1226 3.83229 10.8514C5.02989 9.63007 6.51437 8.68516 8.28312 8.01924C10.0545 7.35333 11.9864 7.01906 14.0842 7.01906C15.2423 7.01906 16.2899 7.08486 17.2216 7.21383C18.1534 7.3428 19.0141 7.51389 19.8037 7.72182C20.6302 7.95607 21.3803 8.21928 22.0515 8.50881C22.7227 8.79834 23.3122 9.06681 23.8176 9.31422V15.997H23.0043C22.6595 15.7023 22.2226 15.3522 21.6988 14.9469C21.175 14.5415 20.5802 14.1441 19.9116 13.7493C19.2325 13.3571 18.4982 13.0254 17.7086 12.7543C16.9189 12.4832 16.074 12.349 15.1712 12.349C14.1711 12.349 13.2209 12.5069 12.3207 12.8201C11.4206 13.1334 10.5862 13.6545 9.82288 14.381C9.09643 15.0837 8.50685 16.0128 8.05677 17.1709C7.60668 18.3291 7.38032 19.732 7.38032 21.3823C7.38032 23.0326 7.62511 24.546 8.11204 25.7041C8.59897 26.8622 9.21224 27.7729 9.95449 28.4388C10.7073 29.1153 11.5469 29.5996 12.4707 29.8891C13.3946 30.1786 14.3106 30.3234 15.2107 30.3234C16.1109 30.3234 16.9295 30.1944 17.7744 29.9365C18.6193 29.6785 19.401 29.3285 20.1169 28.8863C20.7223 28.531 21.2829 28.1493 21.8014 27.744C22.32 27.3386 22.7463 26.9886 23.078 26.6938H23.8176V33.2818C23.1254 33.5898 22.4673 33.8793 21.8383 34.1504C21.2092 34.4215 20.5486 34.6558 19.859 34.8532C18.9588 35.1111 18.1139 35.3085 17.3216 35.4454C16.532 35.5823 15.4476 35.6481 14.0658 35.6481V35.656Z" fill="white"/>
<path d="M53.7495 35.119H46.6429V22.9773H36.1488V35.119H29.0422V7.56126H36.1488V17.6474H46.6429V7.56126H53.7495V35.1217V35.119Z" fill="white"/>
<path d="M124.713 35.119H117.864L106.167 16.2023V35.119H99.6528V7.56126H108.149L118.198 23.3484V7.56126H124.713V35.1217V35.119Z" fill="white"/>
<path d="M156.121 33.5477C154.887 34.0293 153.252 34.5058 151.218 34.9822C149.183 35.4559 147.151 35.6954 145.13 35.6954C140.442 35.6954 136.77 34.4215 134.117 31.8737C131.464 29.3258 130.137 25.8068 130.137 21.3138C130.137 16.8209 131.477 13.5808 134.154 10.9593C136.831 8.33772 140.563 7.02695 145.353 7.02695C147.167 7.02695 148.894 7.19014 150.536 7.51651C152.176 7.84289 154.002 8.49564 156.013 9.46951V15.9286H155.218C154.874 15.6707 154.368 15.3022 153.7 14.8284C153.034 14.3546 152.392 13.9493 151.776 13.615C151.06 13.2202 150.223 12.8807 149.267 12.5964C148.312 12.3121 147.296 12.17 146.222 12.17C144.964 12.17 143.822 12.3543 142.798 12.7254C141.774 13.0965 140.855 13.6624 140.039 14.4283C139.263 15.1679 138.647 16.1102 138.197 17.2499C137.747 18.3922 137.52 19.7083 137.52 21.2006C137.52 24.2486 138.328 26.5806 139.945 28.1967C141.561 29.8128 143.948 30.6208 147.106 30.6208C147.378 30.6208 147.678 30.6156 148.004 30.6024C148.33 30.5892 148.63 30.5708 148.901 30.5471V25.1435H143.406V19.9425H156.121V33.5477Z" fill="white"/>
<path d="M188.901 17.9185C189.659 20.7638 189.456 23.3695 188.551 25.9173C186.642 31.2973 181.555 34.9901 175.84 35.0875C171.748 35.1585 167.652 35.0875 163.557 35.1191C162.751 35.1243 162.541 34.8216 162.543 34.0636C162.567 29.2074 162.567 24.3486 162.543 19.4925C162.541 18.7555 162.704 18.4133 163.543 18.437C165.607 18.4949 167.673 18.5028 169.734 18.437C170.663 18.4054 170.847 18.7686 170.832 19.5977C170.787 21.9561 170.816 24.317 170.816 26.6227C170.932 26.7201 170.982 26.7991 171.032 26.7991C174.748 26.8465 178.491 27.1939 182.068 25.7542C185.426 24.4013 187.748 22.1219 188.614 18.5212C188.648 18.3738 188.746 18.2422 188.901 17.9238V17.9185Z" fill="white"/>
<path d="M181.118 22.9221C181.06 21.8692 181.134 20.8927 180.933 19.9768C180.391 17.4895 178.225 15.7812 175.675 15.7655C171.716 15.7391 167.755 15.7312 163.796 15.776C162.867 15.7865 162.498 15.5654 162.533 14.5705C162.606 12.5122 162.577 10.4487 162.564 8.38776C162.562 7.84029 162.656 7.4876 163.309 7.49549C167.965 7.55603 172.627 7.45075 177.272 7.70869C180.357 7.87977 182.908 9.44849 184.674 12.0542C187.264 15.8813 185.745 20.9691 181.494 22.8326C181.378 22.8826 181.247 22.8957 181.12 22.9247L181.118 22.9221Z" fill="white"/>
<path d="M3.60828 59.4946C2.81077 59.1577 2.20276 58.684 1.78426 58.076C1.36576 57.4679 1.15519 56.7783 1.15519 56.0072V55.4992C1.15519 55.0122 1.24995 54.5727 1.43946 54.1805C1.62897 53.7883 1.89217 53.3488 2.22908 52.8618C2.44491 52.5644 2.6002 52.3249 2.69495 52.1406C2.78971 51.959 2.83709 51.7932 2.83709 51.6432C2.83709 51.2642 2.6081 51.0747 2.14748 51.0747H1.01306V48.8453H3.95308C4.56109 48.8453 5.04802 49.0216 5.41388 49.3717C5.77974 49.7244 5.96135 50.1824 5.96135 50.7509C5.96135 51.1562 5.88765 51.5326 5.73763 51.8774C5.5876 52.2222 5.3665 52.617 5.06908 53.0645C4.78482 53.5093 4.57162 53.8883 4.42949 54.1989C4.28736 54.5095 4.21629 54.8464 4.21629 55.2123V55.6387C4.21629 56.273 4.4058 56.7599 4.78482 57.0995C5.16384 57.4364 5.70341 57.6048 6.40617 57.6048C7.14842 57.6048 7.71431 57.3995 8.09859 56.9863C8.48287 56.573 8.67765 55.9756 8.67765 55.1912C8.67765 53.5409 8.03542 52.7171 6.75097 52.7171V51.2378L8.71713 48.54H11.9809L9.76996 51.5616C10.4859 51.9274 10.9965 52.4038 11.3018 52.9908C11.6045 53.5777 11.7598 54.3253 11.7598 55.2307C11.7598 56.1361 11.5466 56.9889 11.1202 57.7048C10.6938 58.4208 10.0753 58.9814 9.2646 59.3894C8.45392 59.7947 7.50111 59.9974 6.40617 59.9974C5.31123 59.9974 4.4058 59.8289 3.60828 59.492V59.4946Z" fill="#FFC100"/>
<path d="M8.5144 43.9023H11.5966V47.5108H8.5144V43.9023Z" fill="#FFC100"/>
<path d="M16.9713 52.946C16.9713 52.2433 16.8213 51.7327 16.5238 51.4142C16.2264 51.0957 15.7053 50.9378 14.963 50.9378C14.2208 50.9378 13.5233 51.1194 12.7942 51.4853V49.1532C13.1179 48.9901 13.5549 48.8479 14.1023 48.7268C14.6498 48.6058 15.1815 48.5452 15.6947 48.5452C17.1134 48.5452 18.1952 48.9242 18.9401 49.6797C19.6823 50.4377 20.0534 51.5326 20.0534 52.9645V59.6973H16.9713V52.946Z" fill="#FFC100"/>
<path d="M21.7563 50.2087H24.8174L27.1284 57.4074C28.1286 57.4074 28.8998 57.1074 29.4394 56.5046C29.9789 55.9045 30.25 55.0491 30.25 53.941C30.25 52.9408 30.0605 52.1907 29.6815 51.6906C29.3025 51.1905 28.7208 50.9404 27.9364 50.9404C27.5048 50.9404 27.0705 51.0089 26.6388 51.1431V48.8321C27.2074 48.6426 27.847 48.5479 28.5655 48.5479C30.1737 48.5479 31.3818 49.0164 32.1846 49.956C32.99 50.8957 33.3927 52.2249 33.3927 53.941C33.3927 55.1438 33.1295 56.1782 32.6031 57.0442C32.0767 57.9101 31.3634 58.5682 30.4632 59.0209C29.5657 59.4736 28.5813 59.6999 27.5127 59.6999H24.7964L21.7563 50.2113V50.2087Z" fill="#FFC100"/>
<path d="M36.1722 58.6024C35.1984 57.6706 34.7114 56.3046 34.7114 54.5069C34.7114 52.7092 35.2721 51.1641 36.3933 50.1166C37.5146 49.069 39.0622 48.5452 41.0363 48.5452C43.0103 48.5452 44.5817 49.019 45.5477 49.9639C46.5136 50.9088 46.9979 52.1538 46.9979 53.6936V59.6947H43.9368V53.6725C43.9368 52.7802 43.7105 52.1012 43.2578 51.6353C42.805 51.1694 42.0654 50.9351 41.0363 50.9351C40.0624 50.9351 39.2939 51.2378 38.7253 51.8485C38.1568 52.4565 37.8752 53.3435 37.8752 54.5042C37.8752 55.5729 38.1068 56.3572 38.5753 56.8573C39.0438 57.3574 39.7545 57.6074 40.7152 57.6074C41.2284 57.6074 41.689 57.5337 42.0944 57.3837V59.7368C41.568 59.9131 40.9178 60 40.1466 60C38.47 60 37.1461 59.5341 36.1722 58.6024Z" fill="#FFC100"/>
<path d="M37.6331 45.5631H44.2448V43.4127H47.0216V47.5082H37.6331V45.5605V45.5631Z" fill="#FFC100"/>
<path d="M94.8307 10.6671C94.6175 9.63272 93.9779 8.66938 92.8435 8.05347L78.8435 0.475747C77.6722 -0.158582 76.2614 -0.158582 75.0901 0.475747L61.0902 8.05347C60.4085 8.42196 59.9084 8.91679 59.5688 9.47479C59.0845 10.0617 58.7871 10.8066 58.7871 11.6226V32.0053C58.7871 33.8662 60.3111 35.3901 62.172 35.3901H91.6064C93.4673 35.3901 94.9912 33.8662 94.9912 32.0053V11.6226C94.9912 11.2883 94.9281 10.9724 94.8359 10.6645L94.8307 10.6671Z" fill="#FFC100"/>
<path d="M82.752 14.86C82.6046 14.8389 82.452 14.9047 82.3125 15.0337C82.0072 11.4699 79.6357 9.83801 76.6141 9.83801C76.5246 9.83801 76.4351 9.83801 76.3482 9.84328C73.4293 9.93803 70.9577 11.591 70.6498 15.0837C70.505 14.8705 70.3339 14.7495 70.1602 14.7652C69.7707 14.8021 69.5206 15.5233 69.6022 16.3708C69.6838 17.221 70.0681 17.879 70.4576 17.8395C70.584 17.8263 70.6945 17.7447 70.784 17.6079C71.3999 20.819 73.6477 23.2168 76.3482 23.2932C76.393 23.2932 76.4377 23.2984 76.4825 23.2984C79.1593 23.2984 81.415 21.019 82.1177 17.9027C82.173 17.9422 82.2309 17.9658 82.2967 17.9737C82.7205 18.0369 83.1679 17.3894 83.2942 16.5287C83.4206 15.668 83.1784 14.9205 82.752 14.8574V14.86Z" stroke="black" stroke-width="0.186877" stroke-miterlimit="10"/>
<path d="M71.4368 29.1179H72.1817C72.4291 29.1179 72.6292 29.318 72.6292 29.5654V29.6391C72.6292 29.8865 72.4291 30.0865 72.1817 30.0865H71.4368C71.1894 30.0865 70.9894 29.8865 70.9894 29.6391V29.5654C70.9894 29.318 71.1894 29.1179 71.4368 29.1179Z" fill="black"/>
<path d="M80.9728 29.0442H81.7177C81.9651 29.0442 82.1652 29.2443 82.1652 29.4917V29.5654C82.1652 29.8128 81.9651 30.0128 81.7177 30.0128H80.9728C80.7254 30.0128 80.5254 29.8128 80.5254 29.5654V29.4917C80.5254 29.2443 80.7254 29.0442 80.9728 29.0442Z" fill="black"/>
<path d="M83.1523 12.5096L83.1075 12.5464C82.9285 11.8779 82.0021 8.85362 79.5911 7.29544L78.6751 10.2539C78.5462 8.63253 78.7778 7.28754 78.9752 6.6927C78.2013 6.31631 77.2985 6.08995 76.2457 6.10838C75.1929 6.08995 74.2901 6.31631 73.5163 6.6927C73.711 7.28754 73.9453 8.63253 73.8163 10.2539L72.9004 7.29544C70.4868 8.85362 69.5629 11.8779 69.3839 12.5464L69.3418 12.5096C69.3418 12.5096 68.4179 12.5569 68.2548 14.0809L71.1922 15.5575H81.3098L84.2472 14.0809C84.084 12.5569 83.1602 12.5096 83.1602 12.5096H83.1523Z" fill="black"/>
<path d="M82.3836 25.3541V28.0572H80.3463V24.2223C80.1358 24.1538 79.9173 24.0933 79.6909 24.0459L79.2724 23.5748C78.5197 23.9512 77.5669 24.1749 76.5325 24.1749C75.4981 24.1749 74.4558 23.9301 73.6872 23.5195L73.2213 24.0433L73.3134 24.1407C73.1555 24.1723 72.8976 24.2354 72.5738 24.3434V28.0546H70.5366V25.3672C69.0916 26.3806 67.5834 28.1809 67.2255 31.342C67.4097 31.4789 67.594 31.6105 67.7835 31.7395C67.794 31.7474 67.8072 31.7553 67.8177 31.7632C67.973 31.8684 68.1335 31.9685 68.2914 32.0685C68.3941 32.1316 68.502 32.1974 68.6178 32.2659C68.7363 32.3343 68.8547 32.4054 68.9758 32.4712C69.0337 32.5028 69.0916 32.537 69.1521 32.5686C69.4654 32.737 69.7838 32.8923 70.1076 33.0397V28.4152H83.0574V33.0634C83.9786 32.6502 84.8524 32.1527 85.6684 31.5789C85.6789 31.571 85.6894 31.5631 85.6973 31.5552C85.6973 31.5552 85.0814 27.5755 82.3862 25.3541H82.3836Z" fill="black"/>
</svg>
