<svg width="158" height="50" viewBox="0 0 158 50" fill="none" xmlns="http://www.w3.org/2000/svg">
<path d="M45.6706 49.1029C45.2254 48.8923 44.881 48.5984 44.6375 48.2277C44.3941 47.8549 44.2712 47.4315 44.2712 46.96V43.5098H45.9053V46.8525C45.9053 47.2692 46.015 47.5895 46.2343 47.8154C46.4537 48.0413 46.7849 48.1532 47.2279 48.1532C47.671 48.1532 48.0022 48.0413 48.2172 47.8154C48.4321 47.5895 48.5396 47.2692 48.5396 46.8525V43.5098H50.1737V46.96C50.1737 47.4337 50.0508 47.8549 49.8074 48.2277C49.5639 48.6006 49.2195 48.8923 48.7765 49.1029C48.3312 49.3135 47.8158 49.421 47.2279 49.421C46.6401 49.421 46.1137 49.3157 45.6684 49.1029H45.6706Z" fill="#004705"/>
<path d="M52.1456 49.2959C51.7113 49.2126 51.3713 49.0897 51.1191 48.9252V47.6794C51.4349 47.8658 51.788 48.0084 52.1785 48.1093C52.5689 48.2102 52.922 48.2606 53.2379 48.2606C53.6173 48.2606 53.8959 48.2234 54.0714 48.1488C54.2468 48.0742 54.3346 47.9382 54.3346 47.7452C54.3346 47.5741 54.2512 47.4403 54.0823 47.3482C53.9134 47.2539 53.5998 47.1376 53.1414 46.9929L52.8738 46.9073C52.2574 46.7143 51.8034 46.4818 51.5095 46.2098C51.2156 45.9378 51.0686 45.565 51.0686 45.0912C51.0686 44.5406 51.2901 44.1107 51.7354 43.8059C52.1807 43.501 52.7773 43.3496 53.5296 43.3496C53.9376 43.3496 54.3324 43.3935 54.7118 43.479C55.0913 43.5646 55.3962 43.6765 55.6243 43.8124V45.0912C55.394 44.9333 55.111 44.8061 54.771 44.7095C54.4311 44.613 54.0955 44.5648 53.7665 44.5648C53.0712 44.5648 52.7246 44.7402 52.7246 45.0912C52.7246 45.2623 52.808 45.3961 52.9725 45.4882C53.137 45.5803 53.4309 45.6922 53.8542 45.8216L54.2402 45.94C54.6921 46.0826 55.0452 46.2405 55.2997 46.4138C55.5541 46.5871 55.7318 46.7801 55.8327 46.9951C55.9335 47.21 55.984 47.471 55.984 47.7803C55.984 48.2738 55.7712 48.673 55.3435 48.9735C54.918 49.274 54.2797 49.4253 53.4353 49.4253C53.0119 49.4253 52.5842 49.3837 52.1499 49.3025L52.1456 49.2959Z" fill="#004705"/>
<path d="M50.7747 41.766H55.7515V42.7969H50.7747V41.766Z" fill="#004705"/>
<path d="M57.1814 45.8304L56.644 44.9179C57.4819 43.8717 58.5611 43.3496 59.8793 43.3496C60.8049 43.3496 61.5156 43.5536 62.0135 43.9616C62.5114 44.3696 62.7614 44.9398 62.7614 45.6702V49.2608H61.1273V45.7997C61.1273 45.0122 60.7128 44.6174 59.8793 44.6174C59.5722 44.6174 59.298 44.6613 59.0568 44.7468C58.8155 44.8324 58.5918 44.9727 58.3856 45.1658L58.8045 45.8545V49.2608H57.1814V45.8326V45.8304Z" fill="#004705"/>
<path d="M65.6086 45.679C65.6086 45.3061 65.5297 45.0364 65.3718 44.8675C65.2138 44.6986 64.9375 44.6152 64.5448 44.6152C64.1522 44.6152 63.7815 44.7117 63.3955 44.9048V43.6677C63.5666 43.5821 63.7991 43.5076 64.0886 43.4418C64.3781 43.376 64.6611 43.3453 64.9331 43.3453C65.6854 43.3453 66.2579 43.547 66.6527 43.9462C67.0475 44.3476 67.2449 44.9289 67.2449 45.6878V49.2564H65.6108V45.6768L65.6086 45.679Z" fill="#004705"/>
<path d="M69.2254 49.2959C68.7911 49.2126 68.4511 49.0897 68.1989 48.9252V47.6794C68.5147 47.8658 68.8679 48.0084 69.2583 48.1093C69.6487 48.2102 70.0018 48.2606 70.3177 48.2606C70.6972 48.2606 70.9757 48.2234 71.1512 48.1488C71.3267 48.0742 71.4144 47.9382 71.4144 47.7452C71.4144 47.5741 71.331 47.4403 71.1622 47.3482C70.9933 47.2539 70.6796 47.1376 70.2212 46.9929L69.9536 46.9073C69.3373 46.7143 68.8832 46.4818 68.5893 46.2098C68.2954 45.9378 68.1484 45.565 68.1484 45.0912C68.1484 44.5406 68.37 44.1107 68.8152 43.8059C69.2605 43.501 69.8571 43.3496 70.6094 43.3496C71.0174 43.3496 71.4122 43.3935 71.7917 43.479C72.1711 43.5646 72.476 43.6765 72.7041 43.8124V45.0912C72.4738 44.9333 72.1909 44.8061 71.8509 44.7095C71.5109 44.613 71.1753 44.5648 70.8463 44.5648C70.151 44.5648 69.8044 44.7402 69.8044 45.0912C69.8044 45.2623 69.8878 45.3961 70.0523 45.4882C70.2168 45.5803 70.5107 45.6922 70.934 45.8216L71.3201 45.94C71.7719 46.0826 72.1251 46.2405 72.3795 46.4138C72.6339 46.5871 72.8116 46.7801 72.9125 46.9951C73.0134 47.21 73.0638 47.471 73.0638 47.7803C73.0638 48.2738 72.8511 48.673 72.4234 48.9735C71.9978 49.274 71.3596 49.4253 70.5151 49.4253C70.0918 49.4253 69.6641 49.3837 69.2298 49.3025L69.2254 49.2959Z" fill="#004705"/>
<path d="M73.9587 45.8084C73.9587 45.0122 74.2263 44.4047 74.7593 43.9813C75.2923 43.558 76.0118 43.3474 76.9154 43.3474C77.8191 43.3474 78.5342 43.558 79.065 43.9813C79.5958 44.4047 79.8612 45.0122 79.8612 45.8084V49.2586H78.2271V45.7975C78.2271 45.4026 78.1152 45.1087 77.8893 44.9113C77.6634 44.7139 77.3388 44.6152 76.9154 44.6152C76.4921 44.6152 76.1587 44.7139 75.9328 44.9113C75.7069 45.1087 75.5928 45.4048 75.5928 45.7975V46.6134C75.6784 46.484 75.8056 46.3831 75.9745 46.3063C76.1434 46.2296 76.3298 46.1945 76.5382 46.1945H77.376V47.4425H76.4526C76.2026 47.4425 75.9964 47.5215 75.8341 47.6794C75.6718 47.8373 75.5928 48.0413 75.5928 48.2913V49.2586H73.9587V45.8084Z" fill="#004705"/>
<path d="M81.8418 49.2959C81.4076 49.2126 81.0676 49.0897 80.8153 48.9252V47.6794C81.1312 47.8658 81.4843 48.0084 81.8747 48.1093C82.2652 48.2102 82.6183 48.2606 82.9342 48.2606C83.3136 48.2606 83.5922 48.2234 83.7676 48.1488C83.9431 48.0742 84.0308 47.9382 84.0308 47.7452C84.0308 47.5741 83.9475 47.4403 83.7786 47.3482C83.6097 47.2539 83.2961 47.1376 82.8377 46.9929L82.5701 46.9073C81.9537 46.7143 81.4997 46.4818 81.2058 46.2098C80.9119 45.9378 80.7649 45.565 80.7649 45.0912C80.7649 44.5406 80.9864 44.1107 81.4317 43.8059C81.8769 43.501 82.4735 43.3496 83.2259 43.3496C83.6338 43.3496 84.0287 43.3935 84.4081 43.479C84.7876 43.5646 85.0925 43.6765 85.3206 43.8124V45.0912C85.0903 44.9333 84.8073 44.8061 84.4673 44.7095C84.1274 44.613 83.7918 44.5648 83.4628 44.5648C82.7675 44.5648 82.4209 44.7402 82.4209 45.0912C82.4209 45.2623 82.5043 45.3961 82.6688 45.4882C82.8333 45.5803 83.1272 45.6922 83.5505 45.8216L83.9365 45.94C84.3884 46.0826 84.7415 46.2405 84.9959 46.4138C85.2504 46.5871 85.428 46.7801 85.5289 46.9951C85.6298 47.21 85.6803 47.471 85.6803 47.7803C85.6803 48.2738 85.4675 48.673 85.0398 48.9735C84.6143 49.274 83.976 49.4253 83.1316 49.4253C82.7082 49.4253 82.2805 49.3837 81.8462 49.3025L81.8418 49.2959Z" fill="#004705"/>
<path d="M87.9856 49.1029C87.5403 48.8923 87.1959 48.5984 86.9525 48.2277C86.709 47.8549 86.5862 47.4315 86.5862 46.96V43.5098H88.2203V46.8525C88.2203 47.2692 88.3299 47.5895 88.5493 47.8154C88.7686 48.0413 89.0998 48.1532 89.5429 48.1532C89.9859 48.1532 90.3171 48.0413 90.5321 47.8154C90.747 47.5895 90.8545 47.2692 90.8545 46.8525V43.5098H92.4886V46.96C92.4886 47.4337 92.3658 47.8549 92.1223 48.2277C91.8788 48.6006 91.5345 48.8923 91.0914 49.1029C90.6461 49.3135 90.1307 49.421 89.5429 49.421C88.955 49.421 88.4286 49.3157 87.9834 49.1029H87.9856Z" fill="#004705"/>
<path d="M97.3139 46.098H98.926L99.4108 48.0435C99.9043 48.0435 100.314 47.8921 100.641 47.5873C100.968 47.2824 101.13 46.8656 101.13 46.3348C101.13 45.7624 100.979 45.3325 100.674 45.0451C100.369 44.7578 99.8495 44.6152 99.1103 44.6152C98.7659 44.6152 98.4106 44.6503 98.0465 44.7227C97.6802 44.7951 97.3797 44.8872 97.1428 45.0013V43.7444C97.4302 43.6216 97.7723 43.5251 98.1693 43.4549C98.5663 43.3847 98.9699 43.3474 99.3779 43.3474C100.488 43.3474 101.337 43.5997 101.92 44.1042C102.503 44.6086 102.795 45.3456 102.795 46.3129C102.795 46.9007 102.65 47.4162 102.359 47.8614C102.069 48.3067 101.679 48.6489 101.187 48.8923C100.696 49.1358 100.157 49.2586 99.5687 49.2586H98.0969L97.3117 46.098H97.3139Z" fill="#004705"/>
<path d="M105.118 49.1029C104.673 48.8923 104.329 48.5984 104.085 48.2277C103.842 47.8549 103.719 47.4315 103.719 46.96V43.5098H105.353V46.8525C105.353 47.2692 105.462 47.5895 105.682 47.8154C105.901 48.0413 106.232 48.1532 106.675 48.1532C107.119 48.1532 107.45 48.0413 107.665 47.8154C107.88 47.5895 107.987 47.2692 107.987 46.8525V43.5098H109.621V46.96C109.621 47.4337 109.498 47.8549 109.255 48.2277C109.011 48.6006 108.667 48.8923 108.224 49.1029C107.779 49.3135 107.263 49.421 106.675 49.421C106.088 49.421 105.561 49.3157 105.116 49.1029H105.118Z" fill="#004705"/>
<path d="M111.047 48.9209C110.834 48.6949 110.729 48.3813 110.729 47.9799V43.5098H112.363V47.5412C112.363 47.7123 112.398 47.8351 112.47 47.9075C112.543 47.9799 112.659 48.015 112.826 48.015H113.203V49.2608H111.955C111.56 49.2608 111.257 49.149 111.047 48.9231V48.9209Z" fill="#004705"/>
<path d="M114.947 49.2959C114.512 49.2126 114.172 49.0897 113.92 48.9252V47.6794C114.236 47.8658 114.589 48.0084 114.979 48.1093C115.37 48.2102 115.723 48.2606 116.039 48.2606C116.418 48.2606 116.697 48.2234 116.872 48.1488C117.048 48.0742 117.136 47.9382 117.136 47.7452C117.136 47.5741 117.052 47.4403 116.883 47.3482C116.714 47.2539 116.401 47.1376 115.942 46.9929L115.675 46.9073C115.058 46.7143 114.604 46.4818 114.31 46.2098C114.017 45.9378 113.87 45.565 113.87 45.0912C113.87 44.5406 114.091 44.1107 114.536 43.8059C114.982 43.501 115.578 43.3496 116.331 43.3496C116.739 43.3496 117.133 43.3935 117.513 43.479C117.892 43.5646 118.197 43.6765 118.425 43.8124V45.0912C118.195 44.9333 117.912 44.8061 117.572 44.7095C117.232 44.613 116.897 44.5648 116.567 44.5648C115.872 44.5648 115.526 44.7402 115.526 45.0912C115.526 45.2623 115.609 45.3961 115.773 45.4882C115.938 45.5803 116.232 45.6922 116.655 45.8216L117.041 45.94C117.493 46.0826 117.846 46.2405 118.101 46.4138C118.355 46.5871 118.533 46.7801 118.634 46.9951C118.735 47.21 118.785 47.471 118.785 47.7803C118.785 48.2738 118.572 48.673 118.145 48.9735C117.719 49.274 117.081 49.4253 116.236 49.4253C115.813 49.4253 115.385 49.3837 114.951 49.3025L114.947 49.2959Z" fill="#004705"/>
<path d="M113.598 41.766H115.596V40.6276H116.725V41.766H117.445V40.6276H118.563V42.7991H113.598V41.7682V41.766Z" fill="#004705"/>
<path d="M117.092 38.4781H118.553V39.9938H117.092V38.4781Z" fill="#004705"/>
<path d="M120.628 49.274C120.163 49.1775 119.774 49.0437 119.467 48.8704V45.8501H122.187V47.0433H121.068V47.9667C121.29 48.0896 121.617 48.1488 122.047 48.1488C123.185 48.1488 123.755 47.5544 123.755 46.3656C123.755 45.7558 123.591 45.3127 123.262 45.032C122.933 44.7534 122.376 44.613 121.595 44.613C121.237 44.613 120.869 44.6503 120.494 44.7249C120.117 44.7995 119.801 44.9069 119.542 45.0429V43.7752C119.836 43.6392 120.191 43.5339 120.606 43.4571C121.02 43.3825 121.454 43.3453 121.906 43.3453C123.06 43.3453 123.935 43.6085 124.534 44.1349C125.133 44.6613 125.431 45.4048 125.431 46.3656C125.431 47.3263 125.137 48.0567 124.549 48.6006C123.962 49.1446 123.126 49.4166 122.045 49.4166C121.564 49.4166 121.09 49.3683 120.625 49.2718L120.628 49.274Z" fill="#004705"/>
<path d="M126.12 44.2292H127.743L128.967 48.0457C129.498 48.0457 129.906 47.8856 130.193 47.5675C130.48 47.2495 130.623 46.7955 130.623 46.2076C130.623 45.6768 130.522 45.2798 130.322 45.0144C130.121 44.749 129.814 44.6174 129.399 44.6174C129.169 44.6174 128.941 44.6525 128.71 44.7249V43.4988C129.011 43.3979 129.351 43.3496 129.732 43.3496C130.586 43.3496 131.224 43.5997 131.652 44.0954C132.077 44.5933 132.292 45.2974 132.292 46.2076C132.292 46.8459 132.152 47.3943 131.873 47.8527C131.595 48.3111 131.215 48.6598 130.739 48.9011C130.263 49.1402 129.741 49.2608 129.175 49.2608H127.734L126.122 44.2314L126.12 44.2292Z" fill="#004705"/>
<path d="M134.613 49.1029C134.167 48.8923 133.823 48.5984 133.58 48.2277C133.336 47.8549 133.213 47.4315 133.213 46.96V43.5098H134.847V46.8525C134.847 47.2692 134.957 47.5895 135.176 47.8154C135.396 48.0413 135.727 48.1532 136.17 48.1532C136.613 48.1532 136.944 48.0413 137.159 47.8154C137.374 47.5895 137.482 47.2692 137.482 46.8525V43.5098H139.116V46.96C139.116 47.4337 138.993 47.8549 138.749 48.2277C138.506 48.6006 138.162 48.8923 137.719 49.1029C137.273 49.3135 136.758 49.421 136.17 49.421C135.582 49.421 135.056 49.3157 134.611 49.1029H134.613Z" fill="#004705"/>
<path d="M136.47 42.1104C136.47 42.0314 136.455 41.9766 136.422 41.9437C136.389 41.9108 136.334 41.8954 136.255 41.8954H135.751V40.7878H136.762C137.028 40.7878 137.218 40.8492 137.337 40.9698C137.455 41.0926 137.514 41.2462 137.514 41.4326V41.755H139.675V42.7969H136.473V42.1082L136.47 42.1104Z" fill="#004705"/>
<path d="M141.952 45.679C141.952 45.3061 141.873 45.0364 141.715 44.8675C141.557 44.6986 141.28 44.6152 140.888 44.6152C140.495 44.6152 140.125 44.7117 139.739 44.9048V43.6677C139.91 43.5821 140.142 43.5076 140.432 43.4418C140.721 43.376 141.004 43.3453 141.276 43.3453C142.028 43.3453 142.601 43.547 142.996 43.9462C143.391 44.3476 143.588 44.9289 143.588 45.6878V49.2564H141.954V45.6768L141.952 45.679Z" fill="#004705"/>
<path d="M145.735 49.1292C145.397 48.9362 145.143 48.6708 144.968 48.333C144.792 47.9952 144.704 47.6202 144.704 47.2034V43.5054H146.338V47.1069C146.338 47.8022 146.707 48.1488 147.446 48.1488C147.747 48.1488 148.008 48.0874 148.225 47.9601C148.442 47.8329 148.635 47.6399 148.799 47.3745V43.5054H150.423V49.2564H148.874V48.6116C148.624 48.877 148.328 49.0766 147.988 49.2126C147.648 49.3486 147.299 49.4166 146.939 49.4166C146.474 49.4166 146.073 49.3201 145.735 49.127V49.1292Z" fill="#004705"/>
<path d="M11.7215 29.7133C10.015 29.7133 8.43798 29.4611 6.99472 28.9566C5.54928 28.4521 4.30782 27.702 3.27035 26.704C2.23287 25.706 1.4279 24.4623 0.855423 22.9708C0.285141 21.4793 0 19.7575 0 17.8032C0 15.9827 0.271981 14.3332 0.818135 12.8527C1.36429 11.3722 2.1561 10.1022 3.19358 9.04279C4.19157 8.02506 5.42864 7.23763 6.9026 6.6827C8.37875 6.12777 9.9887 5.84921 11.7368 5.84921C12.7019 5.84921 13.5749 5.90405 14.3514 6.01152C15.1278 6.119 15.8451 6.26157 16.5031 6.43485C17.1918 6.63006 17.8169 6.8494 18.3762 7.09067C18.9355 7.33195 19.4269 7.55567 19.848 7.76185V13.3309H19.1702C18.8829 13.0852 18.5188 12.7935 18.0823 12.4557C17.6458 12.1179 17.1501 11.7867 16.593 11.4577C16.0271 11.1309 15.4152 10.8545 14.7571 10.6286C14.0991 10.4027 13.395 10.2908 12.6427 10.2908C11.8092 10.2908 11.0174 10.4224 10.2673 10.6834C9.51713 10.9445 8.82182 11.3788 8.18574 11.9841C7.58036 12.5698 7.08904 13.344 6.71397 14.3091C6.3389 15.2742 6.15027 16.4433 6.15027 17.8185C6.15027 19.1938 6.35425 20.455 6.76003 21.4201C7.16581 22.3852 7.67687 23.1441 8.29541 23.699C8.92272 24.2627 9.62241 24.6663 10.3923 24.9076C11.1622 25.1489 11.9255 25.2695 12.6756 25.2695C13.4257 25.2695 14.1079 25.162 14.812 24.9471C15.5161 24.7321 16.1675 24.4404 16.7641 24.0719C17.2686 23.7758 17.7358 23.4578 18.1679 23.12C18.6 22.7822 18.9553 22.4905 19.2317 22.2448H19.848V27.7349C19.2711 27.9915 18.7228 28.2328 18.1986 28.4587C17.6743 28.6846 17.1238 28.8798 16.5491 29.0443C15.799 29.2593 15.0949 29.4238 14.4347 29.5378C13.7767 29.6519 12.873 29.7067 11.7215 29.7067V29.7133Z" fill="#004705"/>
<path d="M44.7913 29.2659H38.8691V19.1477H30.1241V29.2659H24.2019V6.30106H30.1241V14.7061H38.8691V6.30106H44.7913V29.2681V29.2659Z" fill="#004705"/>
<path d="M103.927 29.2659H98.22L88.4726 13.502V29.2659H83.0439V6.30106H90.1242L98.4986 19.457V6.30106H103.927V29.2681V29.2659Z" fill="#004705"/>
<path d="M130.101 27.9564C129.072 28.3578 127.71 28.7548 126.015 29.1518C124.319 29.5466 122.626 29.7462 120.941 29.7462C117.035 29.7462 113.975 28.6846 111.764 26.5614C109.553 24.4382 108.448 21.5056 108.448 17.7615C108.448 14.0174 109.564 11.3173 111.795 9.13272C114.026 6.9481 117.136 5.85579 121.128 5.85579C122.639 5.85579 124.078 5.99178 125.447 6.26376C126.813 6.53574 128.335 7.0797 130.011 7.89126V13.2738H129.349C129.061 13.0589 128.64 12.7518 128.083 12.357C127.528 11.9622 126.993 11.6244 126.48 11.3458C125.883 11.0168 125.186 10.7339 124.389 10.497C123.593 10.2601 122.746 10.1417 121.852 10.1417C120.803 10.1417 119.851 10.2952 118.998 10.6045C118.145 10.9137 117.379 11.3853 116.699 12.0236C116.052 12.6399 115.539 13.4252 115.164 14.3749C114.789 15.3269 114.6 16.4235 114.6 17.6672C114.6 20.2071 115.274 22.1505 116.62 23.4972C117.967 24.844 119.956 25.5173 122.589 25.5173C122.814 25.5173 123.065 25.513 123.336 25.502C123.608 25.491 123.859 25.4757 124.084 25.4559V20.9529H119.505V16.6188H130.101V27.9564Z" fill="#004705"/>
<path d="M157.417 14.9321C158.049 17.3031 157.88 19.4746 157.126 21.5978C155.535 26.0811 151.296 29.1584 146.534 29.2396C143.123 29.2988 139.71 29.2396 136.297 29.2659C135.626 29.2703 135.45 29.018 135.453 28.3863C135.472 24.3395 135.472 20.2905 135.453 16.2437C135.45 15.6296 135.586 15.3444 136.286 15.3642C138.006 15.4124 139.728 15.419 141.445 15.3642C142.219 15.3378 142.373 15.6405 142.36 16.3315C142.322 18.2967 142.346 20.2642 142.346 22.1856C142.443 22.2668 142.485 22.3326 142.526 22.3326C145.623 22.3721 148.742 22.6616 151.723 21.4618C154.522 20.3344 156.457 18.4349 157.178 15.4344C157.207 15.3115 157.288 15.2019 157.417 14.9365V14.9321Z" fill="#004705"/>
<path d="M150.931 19.1017C150.883 18.2243 150.945 17.4106 150.778 16.6473C150.326 14.5745 148.521 13.151 146.396 13.1379C143.097 13.1159 139.796 13.1094 136.497 13.1466C135.723 13.1554 135.415 12.9712 135.444 12.1421C135.505 10.4268 135.481 8.70722 135.47 6.98979C135.468 6.53357 135.547 6.23965 136.091 6.24623C139.971 6.29668 143.856 6.20895 147.727 6.4239C150.298 6.56647 152.423 7.87373 153.895 10.0452C156.053 13.2344 154.787 17.4742 151.245 19.0271C151.149 19.0688 151.039 19.0798 150.934 19.1039L150.931 19.1017Z" fill="#004705"/>
<path d="M3.00692 49.5789C2.34232 49.2981 1.83565 48.9033 1.4869 48.3966C1.13815 47.89 0.962681 47.3153 0.962681 46.6726V46.2493C0.962681 45.8435 1.04164 45.4772 1.19957 45.1504C1.35749 44.8236 1.57683 44.4573 1.85759 44.0515C2.03744 43.8037 2.16685 43.6041 2.24582 43.4505C2.32478 43.2992 2.36426 43.161 2.36426 43.036C2.36426 42.7201 2.17343 42.5622 1.78959 42.5622H0.844238V40.7044H3.29426C3.80093 40.7044 4.20671 40.8514 4.51159 41.1431C4.81647 41.437 4.96781 41.8186 4.96781 42.2924C4.96781 42.6302 4.9064 42.9439 4.78138 43.2312C4.65635 43.5185 4.47211 43.8475 4.22425 44.2204C3.98737 44.5911 3.8097 44.9069 3.69126 45.1658C3.57282 45.4246 3.5136 45.7053 3.5136 46.0102V46.3656C3.5136 46.8942 3.67152 47.2999 3.98737 47.5829C4.30322 47.8636 4.75286 48.004 5.3385 48.004C5.95703 48.004 6.42861 47.8329 6.74885 47.4886C7.06908 47.1442 7.23139 46.6463 7.23139 45.9927C7.23139 44.6174 6.69621 43.9309 5.62583 43.9309V42.6982L7.26429 40.45H9.9841L8.14165 42.968C8.73825 43.2729 9.16377 43.6699 9.41821 44.159C9.67045 44.6481 9.79986 45.271 9.79986 46.0256C9.79986 46.7801 9.62219 47.4908 9.26686 48.0874C8.91153 48.684 8.39608 49.1512 7.72052 49.4911C7.04496 49.8289 6.25095 49.9978 5.3385 49.9978C4.42605 49.9978 3.67152 49.8574 3.00692 49.5767V49.5789Z" fill="#FFC100"/>
<path d="M7.09546 36.5852H9.66392V39.5924H7.09546V36.5852Z" fill="#FFC100"/>
<path d="M14.1428 44.1217C14.1428 43.5361 14.0178 43.1106 13.7699 42.8452C13.522 42.5798 13.0878 42.4481 12.4692 42.4481C11.8507 42.4481 11.2694 42.5995 10.6619 42.9044V40.961C10.9317 40.825 11.2958 40.7066 11.752 40.6057C12.2082 40.5048 12.6513 40.4544 13.079 40.4544C14.2612 40.4544 15.1627 40.7702 15.7834 41.3997C16.402 42.0314 16.7112 42.9439 16.7112 44.1371V49.7478H14.1428V44.1217Z" fill="#FFC100"/>
<path d="M18.1304 41.8406H20.6813L22.6071 47.8395C23.4406 47.8395 24.0832 47.5895 24.5329 47.0872C24.9825 46.5871 25.2084 45.8742 25.2084 44.9508C25.2084 44.1173 25.0505 43.4922 24.7347 43.0755C24.4188 42.6587 23.9341 42.4504 23.2805 42.4504C22.9207 42.4504 22.5588 42.5074 22.1991 42.6192V40.6934C22.6729 40.5355 23.2059 40.4566 23.8047 40.4566C25.1448 40.4566 26.1516 40.847 26.8206 41.63C27.4918 42.4131 27.8274 43.5207 27.8274 44.9508C27.8274 45.9532 27.608 46.8152 27.1693 47.5368C26.7307 48.2585 26.1362 48.8068 25.3861 49.1841C24.6382 49.5613 23.8178 49.75 22.9273 49.75H20.6637L18.1304 41.8428V41.8406Z" fill="#FFC100"/>
<path d="M30.1436 48.8353C29.332 48.0588 28.9263 46.9205 28.9263 45.4224C28.9263 43.9243 29.3935 42.6368 30.3278 41.7638C31.2622 40.8908 32.5519 40.4544 34.197 40.4544C35.842 40.4544 37.1515 40.8492 37.9565 41.6366C38.7614 42.424 39.165 43.4615 39.165 44.7446V49.7456H36.6141V44.7271C36.6141 43.9835 36.4255 43.4176 36.0482 43.0294C35.6709 42.6412 35.0546 42.446 34.197 42.446C33.3854 42.446 32.745 42.6982 32.2712 43.2071C31.7974 43.7137 31.5627 44.4529 31.5627 45.4202C31.5627 46.3107 31.7557 46.9643 32.1462 47.3811C32.5366 47.7978 33.1288 48.0062 33.9294 48.0062C34.3571 48.0062 34.7409 47.9448 35.0787 47.8198V49.7807C34.6401 49.9276 34.0983 50 33.4556 50C32.0584 50 30.9552 49.6118 30.1436 48.8353Z" fill="#FFC100"/>
<path d="M31.3608 37.9692H36.8706V36.1772H39.1847V39.5902H31.3608V37.9671V37.9692Z" fill="#FFC100"/>
<path d="M79.0256 8.88927C78.8479 8.02726 78.3149 7.22448 77.3695 6.71123L65.7029 0.396455C64.7268 -0.132152 63.5512 -0.132152 62.5751 0.396455L50.9085 6.71123C50.3404 7.0183 49.9236 7.43066 49.6407 7.89566C49.2371 8.38479 48.9893 9.00552 48.9893 9.68547V26.6711C48.9893 28.2218 50.2592 29.4918 51.81 29.4918H76.3387C77.8894 29.4918 79.1594 28.2218 79.1594 26.6711V9.68547C79.1594 9.40691 79.1067 9.1437 79.0299 8.88707L79.0256 8.88927Z" fill="#FFC100"/>
<path d="M68.9601 12.3833C68.8372 12.3658 68.71 12.4206 68.5938 12.5281C68.3393 9.55825 66.3631 8.19835 63.8451 8.19835C63.7705 8.19835 63.6959 8.19835 63.6235 8.20274C61.1911 8.2817 59.1315 9.65915 58.8748 12.5698C58.7542 12.3921 58.6116 12.2912 58.4669 12.3044C58.1423 12.3351 57.9339 12.9361 58.0019 13.6423C58.0699 14.3508 58.3901 14.8992 58.7147 14.8663C58.82 14.8553 58.9121 14.7873 58.9867 14.6732C59.5 17.3492 61.3731 19.3474 63.6235 19.411C63.6608 19.411 63.6981 19.4154 63.7354 19.4154C65.9661 19.4154 67.8458 17.5159 68.4314 14.9189C68.4775 14.9518 68.5258 14.9715 68.5806 14.9781C68.9337 15.0308 69.3066 14.4912 69.4119 13.774C69.5172 13.0567 69.3154 12.4338 68.9601 12.3811V12.3833Z" stroke="black" stroke-width="0.155731" stroke-miterlimit="10"/>
<path d="M59.5306 24.2649H60.1513C60.3575 24.2649 60.5242 24.4316 60.5242 24.6378V24.6992C60.5242 24.9054 60.3575 25.0721 60.1513 25.0721H59.5306C59.3244 25.0721 59.1577 24.9054 59.1577 24.6992V24.6378C59.1577 24.4316 59.3244 24.2649 59.5306 24.2649Z" fill="black"/>
<path d="M67.4774 24.2035H68.0981C68.3043 24.2035 68.471 24.3702 68.471 24.5764V24.6378C68.471 24.844 68.3043 25.0107 68.0981 25.0107H67.4774C67.2712 25.0107 67.1045 24.844 67.1045 24.6378V24.5764C67.1045 24.3702 67.2712 24.2035 67.4774 24.2035Z" fill="black"/>
<path d="M69.2935 10.4246L69.2562 10.4554C69.1071 9.89823 68.335 7.37803 66.3258 6.07954L65.5625 8.54491C65.4551 7.19378 65.6481 6.07296 65.8126 5.57725C65.1677 5.2636 64.4154 5.07496 63.538 5.09032C62.6607 5.07496 61.9083 5.2636 61.2635 5.57725C61.4258 6.07296 61.621 7.19378 61.5135 8.54491L60.7502 6.07954C58.7389 7.37803 57.969 9.89823 57.8199 10.4554L57.7848 10.4246C57.7848 10.4246 57.0149 10.4641 56.8789 11.7341L59.3267 12.9646H67.7581L70.2059 11.7341C70.07 10.4641 69.3001 10.4246 69.3001 10.4246H69.2935Z" fill="black"/>
<path d="M68.653 21.1284V23.381H66.9553V20.1852C66.7798 20.1282 66.5978 20.0778 66.4091 20.0383L66.0604 19.6457C65.4331 19.9593 64.6391 20.1457 63.7771 20.1457C62.9151 20.1457 62.0465 19.9418 61.406 19.5996L61.0178 20.0361L61.0946 20.1172C60.963 20.1436 60.748 20.1962 60.4782 20.2861V23.3788H58.7805V21.1394C57.5764 21.9838 56.3195 23.4841 56.0212 26.1184C56.1748 26.2324 56.3283 26.3421 56.4862 26.4496C56.495 26.4561 56.506 26.4627 56.5148 26.4693C56.6442 26.557 56.778 26.6404 56.9096 26.7237C56.9951 26.7764 57.085 26.8312 57.1815 26.8882C57.2802 26.9453 57.3789 27.0045 57.4798 27.0593C57.5281 27.0856 57.5764 27.1142 57.6268 27.1405C57.8878 27.2808 58.1532 27.4103 58.423 27.5331V23.6793H69.2145V27.5528C69.9822 27.2085 70.7104 26.7939 71.3903 26.3158C71.3991 26.3092 71.4079 26.3026 71.4145 26.296C71.4145 26.296 70.9012 22.9796 68.6552 21.1284H68.653Z" fill="black"/>
</svg>
