<svg width="32" height="30" viewBox="0 0 32 30" fill="none" xmlns="http://www.w3.org/2000/svg">
<path fill-rule="evenodd" clip-rule="evenodd" d="M26.5622 10.7822C26.5622 10.9515 26.4252 11.0888 26.2558 11.0888H23.2544V12.248H26.2558C26.4252 12.248 26.5622 12.3856 26.5622 12.555V13.659C26.5622 13.8287 26.4252 13.9656 26.2558 13.9656H23.2544V15.1251H26.2558C26.4252 15.1251 26.5622 15.2628 26.5622 15.4321V16.5361C26.5622 16.7051 26.4252 16.8431 26.2558 16.8431H21.8427C21.7609 16.8431 21.6856 16.81 21.6304 16.757L21.6261 16.7534L21.6217 16.7483C21.5688 16.6936 21.5359 16.6194 21.5359 16.5368V9.67817C21.5359 9.59637 21.5684 9.52107 21.621 9.4663L21.6261 9.46089L21.6293 9.45765C21.6848 9.40433 21.7594 9.37118 21.842 9.37118H26.2558C26.4252 9.37118 26.5622 9.50846 26.5622 9.67817V10.7822ZM20.4621 16.5368C20.4621 16.7055 20.3247 16.8427 20.1553 16.8427H19.0504C19.0234 16.8427 18.997 16.8391 18.9718 16.8327L18.9675 16.8316C18.9606 16.8294 18.9541 16.8269 18.9462 16.8247L18.9376 16.8211C18.9321 16.819 18.9275 16.8172 18.9228 16.815C18.9174 16.8125 18.9123 16.81 18.908 16.8078C18.9048 16.806 18.9022 16.8046 18.899 16.8028C18.8929 16.7995 18.8864 16.7952 18.8799 16.7916L18.877 16.7891C18.8478 16.7692 18.8208 16.744 18.7991 16.7134L15.6503 12.4631V16.5368C15.6503 16.7055 15.5133 16.8427 15.3431 16.8427H14.2386C14.0696 16.8427 13.9319 16.7055 13.9319 16.5368V9.67745C13.9319 9.50846 14.0696 9.37118 14.2386 9.37118H15.3431C15.3471 9.37118 15.35 9.37154 15.3543 9.37154C15.3594 9.3719 15.3644 9.37226 15.3702 9.37262C15.3756 9.37334 15.3806 9.3737 15.3864 9.37478C15.3904 9.37514 15.3947 9.37586 15.3994 9.37658C15.4052 9.37766 15.4106 9.37874 15.4167 9.38054C15.4207 9.38126 15.4271 9.38307 15.4271 9.38307C15.4333 9.38487 15.4398 9.38667 15.4459 9.38919L15.4553 9.39279C15.4618 9.39496 15.4675 9.39748 15.4733 9.4C15.4765 9.40144 15.4794 9.40324 15.483 9.40469C15.4884 9.40757 15.4935 9.41081 15.4992 9.41405C15.5021 9.41586 15.5083 9.41946 15.5083 9.41946C15.514 9.42306 15.5194 9.42666 15.5241 9.43063C15.5274 9.43243 15.532 9.43675 15.532 9.43675C15.5378 9.44072 15.5436 9.44576 15.549 9.45045L15.5544 9.45549C15.5605 9.46126 15.567 9.46774 15.5731 9.47459L15.5749 9.47639C15.5829 9.48612 15.5912 9.49657 15.5984 9.50738L18.744 13.7527V9.67745C18.744 9.50846 18.881 9.37118 19.0504 9.37118H20.1553C20.3247 9.37118 20.4621 9.50846 20.4621 9.67745V16.5368ZM12.858 16.5368C12.858 16.7055 12.7206 16.8427 12.5512 16.8427H11.4463C11.2769 16.8427 11.1395 16.7055 11.1395 16.5368V9.67745C11.1395 9.50846 11.2769 9.37118 11.4463 9.37118H12.5512C12.7206 9.37118 12.858 9.50846 12.858 9.67745V16.5368ZM10.1947 16.5361C10.1947 16.7055 10.057 16.8431 9.88828 16.8431H5.47448C5.39229 16.8431 5.31731 16.8103 5.26252 16.7574L5.25782 16.7534L5.25386 16.7483C5.20087 16.6936 5.16771 16.619 5.16771 16.5368V9.67745C5.16771 9.50846 5.30578 9.37118 5.47448 9.37118H6.57938C6.74917 9.37118 6.88578 9.50846 6.88578 9.67745V15.1251H9.88828C10.057 15.1251 10.1947 15.2628 10.1947 15.4321V16.5361ZM31.5012 12.7751C31.5012 5.73087 24.4361 0 15.7512 0C7.06711 0 0.0012207 5.73087 0.0012207 12.7751C0.0012207 19.0904 5.60426 24.3792 13.173 25.3794C13.686 25.4897 14.3843 25.717 14.5605 26.1556C14.7195 26.5537 14.6644 27.1774 14.6114 27.5788C14.6114 27.5788 14.4268 28.6897 14.3868 28.9264C14.3183 29.3249 14.0703 30.4837 15.7512 29.7757C17.4322 29.0673 24.8214 24.4368 28.126 20.6355C30.4086 18.1334 31.5012 15.5942 31.5012 12.7751Z" fill="white"/>
</svg>
