
<svg width="21" height="23" viewBox="0 0 21 23" fill="none" xmlns="http://www.w3.org/2000/svg">
<g clip-path="url(#clip0_298_2021)">
<path d="M12.5668 9.48849V12.5436C12.5668 12.6209 12.5067 12.6811 12.4293 12.6811H11.9395C11.8922 12.6811 11.8492 12.6553 11.8277 12.6252L10.427 10.7346V12.5479C10.427 12.6252 10.3668 12.6854 10.2895 12.6854H9.79962C9.72228 12.6854 9.66212 12.6252 9.66212 12.5479V9.49278C9.66212 9.41544 9.72228 9.35528 9.79962 9.35528H10.2852C10.3281 9.35528 10.3754 9.37677 10.3969 9.41544L11.7977 11.3061V9.49278C11.7977 9.41544 11.8578 9.35528 11.9352 9.35528H12.425C12.5024 9.35099 12.5668 9.41544 12.5668 9.48849ZM9.04337 9.35099H8.55353C8.47618 9.35099 8.41603 9.41114 8.41603 9.48849V12.5436C8.41603 12.6209 8.47618 12.6811 8.55353 12.6811H9.04337C9.12072 12.6811 9.18087 12.6209 9.18087 12.5436V9.48849C9.18087 9.41544 9.12072 9.35099 9.04337 9.35099ZM7.86173 11.9119H6.5254V9.48849C6.5254 9.41114 6.46525 9.35099 6.3879 9.35099H5.89806C5.82071 9.35099 5.76056 9.41114 5.76056 9.48849V12.5436C5.76056 12.5822 5.77345 12.6123 5.79923 12.6381C5.82501 12.6596 5.85509 12.6768 5.89376 12.6768H7.85743C7.93478 12.6768 7.99493 12.6166 7.99493 12.5393V12.0494C7.99493 11.9764 7.93478 11.9119 7.86173 11.9119ZM15.1449 9.35099H13.1813C13.1082 9.35099 13.0438 9.41114 13.0438 9.48849V12.5436C13.0438 12.6166 13.1039 12.6811 13.1813 12.6811H15.1449C15.2223 12.6811 15.2824 12.6209 15.2824 12.5436V12.0537C15.2824 11.9764 15.2223 11.9162 15.1449 11.9162H13.8086V11.4006H15.1449C15.2223 11.4006 15.2824 11.3404 15.2824 11.2631V10.769C15.2824 10.6916 15.2223 10.6315 15.1449 10.6315H13.8086V10.1158H15.1449C15.2223 10.1158 15.2824 10.0557 15.2824 9.97833V9.48849C15.2781 9.41544 15.218 9.35099 15.1449 9.35099ZM20.125 5.59981V17.8588C20.1207 19.7838 18.5438 21.3436 16.6145 21.3393H4.35548C2.43048 21.335 0.870712 19.7537 0.875009 17.8287V5.56973C0.879306 3.64473 2.46056 2.08497 4.38556 2.08927H16.6445C18.5695 2.09356 20.1293 3.67052 20.125 5.59981ZM17.4781 10.8678C17.4781 7.73106 14.3328 5.17872 10.4699 5.17872C6.60704 5.17872 3.46173 7.73106 3.46173 10.8678C3.46173 13.6779 5.95392 16.0326 9.32267 16.4795C10.1434 16.6557 10.0488 16.9565 9.86407 18.0608C9.834 18.2369 9.72228 18.7526 10.4699 18.4389C11.2176 18.1252 14.5047 16.0627 15.9785 14.3697C16.9926 13.2525 17.4781 12.1225 17.4781 10.8678Z" fill="#06C755"/>
</g>
<defs>
<clipPath id="clip0_298_2021">
<rect width="19.25" height="22" fill="white" transform="translate(0.875 0.714287)"/>
</clipPath>
</defs>
</svg>
