<svg width="31" height="23" viewBox="0 0 31 23" fill="none" xmlns="http://www.w3.org/2000/svg">
<path d="M15.5022 17.376C14.5061 17.376 13.51 17.083 12.6897 16.4385L0.502197 6.94629V20.1885C0.502197 21.7705 1.73267 23.001 3.3147 23.001H27.6897C29.2131 23.001 30.5022 21.7705 30.5022 20.1885V6.94629L18.2561 16.4385C17.4358 17.083 16.4397 17.376 15.5022 17.376ZM1.4397 5.30566L13.8616 14.9736C14.7991 15.6768 16.1467 15.6768 17.0842 14.9736L29.5061 5.30566C30.092 4.83691 30.5022 4.0752 30.5022 3.31348C30.5022 1.79004 29.2131 0.500977 27.6897 0.500977H3.3147C1.73267 0.500977 0.502197 1.79004 0.502197 3.31348C0.502197 4.0752 0.85376 4.83691 1.4397 5.30566Z" fill="white"/>
</svg>
