<svg width="25" height="24" viewBox="0 0 25 24" fill="none" xmlns="http://www.w3.org/2000/svg">
<path d="M12.4999 0C5.74011 0 0.500122 4.9517 0.500122 11.6398C0.500122 15.1383 1.93379 18.161 4.26864 20.2496C4.36602 20.3357 4.44482 20.4408 4.50027 20.5584C4.55571 20.676 4.58663 20.8036 4.59114 20.9336L4.65654 23.0695C4.66137 23.2267 4.70474 23.3803 4.78283 23.5168C4.86092 23.6533 4.97135 23.7685 5.1044 23.8523C5.23745 23.9361 5.38905 23.9859 5.54588 23.9974C5.70271 24.0089 5.85996 23.9817 6.00381 23.9182L8.38546 22.8682C8.58729 22.7793 8.81364 22.7628 9.02625 22.8214C10.1584 23.1291 11.3267 23.2832 12.4999 23.2795C19.2596 23.2795 24.4996 18.3296 24.4996 11.6398C24.4996 4.9499 19.2596 0 12.4999 0ZM19.7057 8.95572L16.1808 14.5497C16.0482 14.7601 15.8734 14.9407 15.6676 15.0801C15.4617 15.2195 15.2291 15.3148 14.9846 15.3599C14.74 15.405 14.4888 15.399 14.2467 15.3421C14.0047 15.2853 13.777 15.1789 13.5781 15.0297L10.7746 12.9267C10.6494 12.8329 10.497 12.7824 10.3405 12.7828C10.184 12.7833 10.032 12.8348 9.90733 12.9294L6.12081 15.8019C5.61562 16.1853 4.95593 15.5805 5.29402 15.0438L8.81895 9.45131C8.95156 9.24095 9.12632 9.06036 9.3322 8.92091C9.53808 8.78146 9.77063 8.68618 10.0152 8.64109C10.2597 8.59599 10.5109 8.60205 10.753 8.65889C10.9951 8.71572 11.2228 8.8221 11.4217 8.97132L14.2254 11.074C14.3507 11.1678 14.503 11.2183 14.6595 11.2179C14.816 11.2174 14.9681 11.1659 15.0927 11.0713L18.8789 8.19793C19.3844 7.81424 20.0441 8.41903 19.7057 8.95572Z" fill="#1877F2"/>
</svg>
