<svg width="50" height="67" viewBox="0 0 50 67" fill="none" xmlns="http://www.w3.org/2000/svg">
<path d="M18.9473 0.000106812H5.12405C2.29398 0.000106812 0 2.29408 0 5.12416V61.8759C0 64.7053 2.29398 67 5.12405 67H18.9473C21.7774 67 24.0707 64.7053 24.0707 61.8759V5.12416C24.0707 2.29408 21.7774 0.000106812 18.9473 0.000106812Z" fill="#004705"/>
<path d="M20.4776 23.5381C20.4776 28.2004 16.6983 31.9805 12.0352 31.9805C7.37281 31.9805 3.59277 28.2004 3.59277 23.5381C3.59277 18.875 7.37281 15.0956 12.0352 15.0956C16.6983 15.0956 20.4776 18.875 20.4776 23.5381Z" fill="#FFC100"/>
<path d="M16.7822 23.5383C16.7822 26.1594 14.6569 28.2847 12.0351 28.2847C9.41399 28.2847 7.2887 26.1594 7.2887 23.5383C7.2887 20.9165 9.41399 18.7912 12.0351 18.7912C14.6569 18.7912 16.7822 20.9165 16.7822 23.5383Z" fill="white"/>
<path d="M45.6967 27.0239H11.8238C9.89932 27.0239 8.33813 25.4628 8.33813 23.5382C8.33813 21.6131 9.89932 20.0526 11.8238 20.0526H45.6967C47.6212 20.0526 49.1824 21.6131 49.1824 23.5382C49.1824 25.4628 47.6212 27.0239 45.6967 27.0239Z" fill="#FFC100"/>
</svg>
