<svg width="83" height="51" viewBox="0 0 83 51" fill="none" xmlns="http://www.w3.org/2000/svg">
<path d="M28.5365 17.3276L2.84814 44.6836H28.2065L35.8113 17.3276H28.5365Z" fill="#004705"/>
<path d="M54.0194 17.3276H35.8118L28.207 44.6836H79.7077L54.0194 17.3276Z" fill="#004705"/>
<path d="M0 51H82.7989V44.0355H0V51Z" fill="#9E9E9E"/>
<path d="M24.8535 51H82.7982V44.0355H24.8535V51Z" fill="#AFAFAF"/>
<path d="M35.8119 -0.000141144H28.5371V17.3274H35.8119V-0.000141144Z" fill="#004705"/>
<path d="M54.0199 -0.000141144H35.8124V17.3274H54.0199V-0.000141144Z" fill="#004705"/>
<path d="M28.3873 44.0356H3.45776L3.85021 43.618L10.0838 36.979C15.0868 38.0799 20.1803 38.5693 25.3139 38.5693C26.8539 38.5693 28.3976 38.5255 29.9431 38.4406L28.3873 44.0356Z" fill="#014405"/>
<path d="M79.0989 44.0356H28.3868L29.9427 38.4406C42.1861 37.7676 54.5515 34.5366 66.2822 30.3875L79.0989 44.0356Z" fill="#014405"/>
<path d="M24.854 51H0V44.0356H79.0991H24.854V51Z" fill="#FFC100"/>
<path d="M82.7984 51H24.8535V44.0356H82.7984V51Z" fill="#FFC100"/>
</svg>
