<svg width="58" height="67" viewBox="0 0 58 67" fill="none" xmlns="http://www.w3.org/2000/svg">
<path d="M57.5025 1.74424C57.2755 1.6395 56.9617 1.43613 56.517 1.26373C55.6515 0.867012 54.3283 0.422714 52.634 0.172203C49.2765 -0.361992 44.2767 0.269524 39.8469 3.16003C35.4332 6.06232 32.6863 10.1146 31.0964 13.0937C30.7459 13.7497 30.4509 14.3498 30.1917 14.9028C30.1236 14.8958 30.0625 14.8691 29.9927 14.8691H27.7132C27.6874 14.8691 27.6651 14.8805 27.6394 14.8814C27.3819 14.3341 27.0908 13.7418 26.7447 13.0937C25.1548 10.1146 22.4079 6.06232 17.9943 3.16003C13.5645 0.269524 8.56462 -0.361992 5.20695 0.172203C3.51288 0.422714 2.18974 0.867012 1.32403 1.26373C0.879435 1.43613 0.565594 1.6395 0.338648 1.74424C0.117027 1.85946 -0.000244141 1.92014 -0.000244141 1.92014C-0.000244141 1.92014 0.119776 1.86514 0.346853 1.76039C0.578687 1.66612 0.89903 1.47802 1.34913 1.32483C2.22605 0.965645 3.55517 0.57634 5.2334 0.381256C8.56527 -0.0403366 13.4336 0.687637 17.764 3.51355C22.0883 6.35474 24.8855 10.28 26.5605 13.1963C26.9162 13.8147 27.2191 14.3804 27.4901 14.9067C26.6644 15.001 25.9823 15.5718 25.7557 16.3522C25.7418 16.3517 25.73 16.3443 25.716 16.3443C24.8807 16.3443 24.2038 17.0212 24.2038 17.8566C24.2038 18.674 24.8554 19.3313 25.6663 19.3588V20.4904C25.6663 22.9205 23.9677 22.8664 23.8463 24.0557C23.437 23.8942 23.0334 23.7275 22.648 23.5546C20.0727 22.3518 18.798 21.8089 18.2226 21.877C18.2652 21.4938 18.1737 20.8151 18.0876 19.9724C17.9399 18.7373 17.8494 17.1513 17.9371 15.7573C18.1614 12.9842 18.3097 11.9791 17.9416 11.8726C17.9324 11.8691 17.9183 11.8769 17.9079 11.8761C17.6933 11.7259 17.2388 11.5418 16.6879 11.3109C16.3983 11.1101 16.1173 10.8801 15.8988 10.6144C15.2144 9.71748 15.1416 9.27972 14.9648 9.32206C14.8769 9.31682 14.7148 9.77814 15.2487 10.6336C15.0527 10.5249 14.8612 10.4101 14.682 10.2866C13.3184 9.37792 12.8466 9.00827 12.685 9.16713C12.5595 9.27668 12.7881 9.94443 14.269 10.9343C15.0135 11.4113 15.9336 11.8377 16.6925 12.0284C16.9312 12.0926 17.1397 12.1288 17.3302 12.1523C17.3954 12.1667 17.4585 12.1816 17.5173 12.189C17.1895 12.6634 16.7982 13.7139 16.637 15.6774C16.542 17.1727 16.661 18.8857 16.9933 20.1688C17.2433 21.2053 17.5954 21.9429 17.8718 22.1484C17.8252 22.3732 17.9751 22.7232 18.463 23.219C19.0418 23.8043 20.093 24.5816 21.8355 25.3733C22.4644 25.6556 23.141 25.9114 23.8241 26.1466V28.3733C22.8953 28.5614 21.9359 28.7268 21.0289 28.832C17.5073 29.1851 16.2164 29.3815 16.1736 29.9449C16.1731 29.9506 16.1784 29.9567 16.1782 29.9624C15.9151 30.229 15.5968 30.9361 15.3655 31.891C15.0322 33.1741 14.9108 34.8867 15.006 36.3819C15.1674 38.348 15.5593 39.3985 15.8875 39.8721C15.8272 39.8795 15.7624 39.8948 15.6952 39.9096C15.506 39.9332 15.2989 39.9694 15.0622 40.0327C14.303 40.223 13.3823 40.6481 12.638 41.1251C11.1571 42.1149 10.9285 42.7827 11.054 42.8922C11.2156 43.0511 11.6874 42.6818 13.051 41.7728C13.2302 41.6497 13.4213 41.5345 13.6175 41.4262C13.0838 42.2812 13.2459 42.7425 13.3338 42.7373C13.5106 42.7796 13.5834 42.3423 14.2676 41.445C14.4848 41.1809 14.7633 40.9522 15.051 40.7528C15.6062 40.5202 16.065 40.3351 16.2793 40.1832C16.2888 40.1824 16.3021 40.1898 16.3106 40.1867C16.6787 40.0803 16.5302 39.0751 16.3061 36.302C16.2184 34.9081 16.311 33.3221 16.4596 32.0874C16.5297 31.4074 16.6025 30.8357 16.6059 30.4364C16.7732 30.5245 16.9759 30.6092 17.2611 30.6842C18.0574 30.8907 19.3585 31.0216 21.2608 30.8104C22.1142 30.7122 23.0116 30.5498 23.8852 30.3482C24.0227 31.2189 24.4918 31.9809 25.1805 32.4771C23.1195 32.8119 22.1674 33.9859 21.7745 38.0486C21.6532 38.1944 21.5277 38.3463 21.3973 38.5043C20.4056 39.7416 19.0944 41.2765 17.8099 42.5064C16.1485 44.0483 15.1846 44.9827 14.7818 45.5833C14.493 45.657 14.032 46.4138 13.6692 47.538C13.2415 48.7928 12.9931 50.4918 12.9765 51.9897C12.9912 53.9624 13.304 55.0391 13.5961 55.5357C13.5352 55.5388 13.4694 55.5493 13.401 55.5593C13.2106 55.5685 13.0014 55.589 12.7608 55.6348C11.9898 55.7679 11.04 56.1232 10.2621 56.5439C8.71174 57.4202 8.43404 58.0692 8.55113 58.1879C8.70048 58.3586 9.19828 58.0251 10.6259 57.2204C10.8138 57.1104 11.0129 57.0104 11.2165 56.9166C10.6206 57.7297 10.748 58.2019 10.8363 58.2032C11.0093 58.2586 11.1144 57.8274 11.8636 56.9838C12.0997 56.7368 12.3947 56.5295 12.6963 56.3519C13.2674 56.1611 13.7387 56.011 13.9638 55.8753C13.9733 55.8753 13.986 55.8836 13.9947 55.8809C14.3695 55.8024 14.2962 54.789 14.279 52.0071C14.2954 50.6101 14.5058 49.0355 14.746 47.8152C14.8385 47.2976 14.9275 46.8454 14.9799 46.4806C15.2 46.491 15.5045 46.4317 15.9247 46.258C16.6844 45.9416 17.8003 45.2603 19.1891 43.9436C20.0336 43.1362 20.8678 42.1926 21.5912 41.2451C21.5525 42.4859 21.5335 43.879 21.5335 45.4907C21.5335 55.225 24.8104 67 28.8527 67C32.8949 67 36.1721 55.225 36.1721 45.4907C36.1721 43.882 36.1542 42.4907 36.1185 41.2503C36.8412 42.1961 37.6739 43.1375 38.5167 43.9436C39.9054 45.2603 41.0214 45.9416 41.7812 46.258C42.2015 46.4317 42.5057 46.491 42.7256 46.4806C42.778 46.8454 42.867 47.2976 42.96 47.8152C43.2 49.0355 43.4104 50.6101 43.4266 52.0071C43.4095 54.789 43.3362 55.8024 43.7111 55.8809C43.7198 55.8836 43.7325 55.8753 43.7421 55.8753C43.9669 56.011 44.4382 56.1611 45.0095 56.3519C45.3111 56.5295 45.6061 56.7368 45.8422 56.9838C46.5911 57.8274 46.6963 58.2586 46.8696 58.2032C46.9578 58.2019 47.0852 57.7297 46.489 56.9166C46.6928 57.0104 46.8919 57.1104 47.0795 57.2204C48.5071 58.0251 49.0051 58.3586 49.1548 58.1879C49.2717 58.0692 48.9937 57.4202 47.4435 56.5439C46.6658 56.1232 45.7157 55.7679 44.9449 55.6348C44.7044 55.589 44.4949 55.5685 44.3047 55.5593C44.2361 55.5493 44.1707 55.5388 44.1096 55.5357C44.4016 55.0391 44.7145 53.9624 44.7293 51.9897C44.7127 50.4918 44.4644 48.7928 44.0367 47.538C43.6736 46.4138 43.2127 45.657 42.9238 45.5833C42.521 44.9827 41.5573 44.0483 39.8958 42.5064C38.6114 41.2765 37.2999 39.7416 36.3083 38.5043C36.1839 38.3542 36.0643 38.2084 35.9482 38.0692C35.5712 33.8331 34.6394 32.7045 32.5899 32.4239C33.2428 31.9272 33.688 31.1896 33.8219 30.3486C34.6952 30.5503 35.5921 30.7122 36.4449 30.8104C38.3473 31.0216 39.6483 30.8907 40.4448 30.6842C40.7298 30.6092 40.9328 30.5245 41.0999 30.4364C41.1034 30.8357 41.1759 31.4074 41.2461 32.0874C41.395 33.3221 41.4875 34.9081 41.3998 36.302C41.1754 39.0751 41.027 40.0803 41.395 40.1867C41.4037 40.1898 41.4168 40.1824 41.4264 40.1832C41.6407 40.3351 42.0994 40.5202 42.6545 40.7528C42.9426 40.9522 43.221 41.1809 43.4379 41.445C44.1222 42.3423 44.1951 42.7796 44.3719 42.7373C44.4596 42.7425 44.622 42.2812 44.0882 41.4262C44.2846 41.5345 44.4757 41.6497 44.6547 41.7728C46.0185 42.6818 46.4899 43.0511 46.6518 42.8922C46.7771 42.7827 46.5488 42.1149 45.068 41.1251C44.3234 40.6481 43.4026 40.223 42.6436 40.0327C42.407 39.9694 42.1997 39.9332 42.0103 39.9096C41.9431 39.8948 41.8785 39.8795 41.8183 39.8721C42.1465 39.3985 42.5384 38.348 42.6999 36.3819C42.795 34.8867 42.6737 33.1741 42.3403 31.891C42.109 30.9361 41.7908 30.229 41.5276 29.9624C41.5276 29.9567 41.5324 29.9506 41.532 29.9449C41.4892 29.3815 40.1982 29.1851 36.6767 28.832C35.7697 28.7268 34.8105 28.5614 33.8817 28.3733V26.1466C34.5647 25.9114 35.2412 25.6556 35.8701 25.3733C37.6128 24.5816 38.6637 23.8043 39.2425 23.219C39.7304 22.7232 39.8805 22.3732 39.8338 22.1484C40.1101 21.9429 40.4623 21.2053 40.7124 20.1688C41.0445 18.8857 41.1636 17.1727 41.0689 15.6774C40.9075 13.7139 40.516 12.6634 40.1882 12.189C40.2471 12.1816 40.3104 12.1667 40.3754 12.1523C40.5662 12.1288 40.7748 12.0926 41.0131 12.0284C41.772 11.8377 42.6925 11.4113 43.4366 10.9343C44.9174 9.94443 45.1461 9.27668 45.0209 9.16713C44.8589 9.00827 44.3871 9.37792 43.0237 10.2866C42.8444 10.4101 42.6532 10.5249 42.4568 10.6336C42.991 9.77814 42.8286 9.31682 42.7409 9.32206C42.5642 9.27972 42.4913 9.71748 41.8069 10.6144C41.5883 10.8801 41.3072 11.1101 41.0179 11.3109C40.4671 11.5418 40.0123 11.7259 39.7976 11.8761C39.7876 11.8769 39.7732 11.8691 39.764 11.8726C39.3961 11.9791 39.5445 12.9842 39.7688 15.7573C39.8561 17.1513 39.7657 18.7373 39.6182 19.9724C39.5322 20.8151 39.4406 21.4938 39.4834 21.877C38.9077 21.8089 37.6329 22.3518 35.0575 23.5546C34.6725 23.7275 34.2688 23.8942 33.8599 24.0557C33.7403 22.8507 32.0395 22.7241 32.0395 20.4904V19.3588C32.8504 19.3313 33.502 18.674 33.502 17.8566C33.502 17.0212 32.8251 16.3443 31.9898 16.3443C31.9758 16.3443 31.964 16.3517 31.9501 16.3522C31.7349 15.6115 31.1077 15.0656 30.3401 14.9276C30.6137 14.3961 30.9205 13.823 31.2806 13.1963C32.9556 10.28 35.7527 6.35474 40.0774 3.51355C44.4077 0.687637 49.2757 -0.0403366 52.6078 0.381256C54.2859 0.57634 55.6149 0.965645 56.4921 1.32483C56.9421 1.47802 57.2624 1.66612 57.4942 1.76039C57.7215 1.86514 57.8416 1.92014 57.8416 1.92014C57.8416 1.92014 57.7242 1.85946 57.5025 1.74424Z" fill="#004705"/>
</svg>
