<svg width="73" height="62" viewBox="0 0 73 62" fill="none" xmlns="http://www.w3.org/2000/svg">
<path d="M47.147 30.7154L43.5452 38.8926H38.7324V30.7154H47.147Z" fill="#004705"/>
<path d="M62.259 58.0296C58.9486 58.0296 56.2663 55.3463 56.2663 52.0359C56.2663 48.7264 58.9486 46.0431 62.259 46.0431C65.5685 46.0431 68.2518 48.7264 68.2518 52.0359C68.2518 55.3463 65.5685 58.0296 62.259 58.0296ZM62.259 42.0727C56.7555 42.0727 52.2949 46.5333 52.2949 52.0359C52.2949 57.5385 56.7555 62 62.259 62C67.7616 62 72.2222 57.5385 72.2222 52.0359C72.2222 46.5333 67.7616 42.0727 62.259 42.0727Z" fill="#004705"/>
<path d="M52.2263 46.2528C52.2523 34.1544 56.2044 27.3589 59.593 25.215C60.2617 24.7923 60.9033 24.5685 61.4475 24.5685C61.7032 24.5685 61.954 24.5907 62.1943 24.6351C63.2894 24.8348 65.1284 25.707 65.1284 29.2944V40.8177C66.3055 41.1187 67.4093 41.5973 68.4109 42.2283V17.9785C68.4109 14.4297 66.9163 11.4869 62.7606 10.9302C62.2956 10.8675 61.7996 10.8337 61.2661 10.8337C60.3456 10.8337 59.1241 11.1376 57.7308 11.7841C51.0096 14.8996 40.3074 25.9666 40.3074 49.1792C40.3074 53.1245 43.5069 56.324 47.4522 56.324H51.4969C50.9652 54.9963 50.6652 53.5519 50.6652 52.0361C50.6652 49.9289 51.2392 47.9577 52.2263 46.2528Z" fill="#004705"/>
<path d="M61.9014 26.2376C61.7595 26.2115 61.609 26.198 61.4479 26.198C61.363 26.198 61.0426 26.226 60.4647 26.5927C58.1722 28.0428 54.3996 33.2994 53.9094 44.0142C56.0205 41.8181 58.9798 40.4432 62.2593 40.4432C62.6781 40.4432 63.091 40.4683 63.4992 40.5117V29.2943C63.4992 27.4601 62.9618 26.4315 61.9014 26.2376Z" fill="#FFC100"/>
<path d="M17.7924 62H13.7178V9.17677C13.7178 4.11704 17.8339 -3.8147e-06 22.8936 -3.8147e-06C27.9533 -3.8147e-06 32.0694 4.11704 32.0694 9.17677V27.9607H27.9948V9.17677C27.9948 6.3642 25.7062 4.07559 22.8936 4.07559C20.081 4.07559 17.7924 6.3642 17.7924 9.17677V62Z" fill="#FFC100"/>
<path d="M37.1712 36.9563C32.1114 36.9563 27.9954 32.8402 27.9954 27.7795H32.07C32.07 30.5921 34.3586 32.8807 37.1712 32.8807V36.9563Z" fill="#FFC100"/>
<path d="M24.0318 54.5185H7.48057C3.34903 54.5185 0 57.8675 0 62H31.5123C31.5123 57.8675 28.1633 54.5185 24.0318 54.5185Z" fill="#004705"/>
<path d="M20.1927 55.6116H11.3179V50.2836H20.1927V55.6116Z" fill="#004705"/>
</svg>
