<svg width="58" height="67" viewBox="0 0 58 67" fill="none" xmlns="http://www.w3.org/2000/svg">
<path d="M0 61.7331H57.2307V66.7998H0V61.7331Z" fill="#004705"/>
<path d="M28.6814 18.4C37.4347 18.4 44.7067 25.4667 44.7067 34.2667C44.7067 43.0667 37.5694 50.1333 28.6814 50.1333C19.7947 50.1333 12.6574 43.0667 12.6574 34.2667C12.6574 25.4667 19.7947 18.4 28.6814 18.4ZM0 15.0667H9.29069C9.69469 15.0667 10.1 15.4667 10.1 15.8667C10.1 16.2667 9.69469 16.6667 9.29069 16.6667H0V60H57.2307V16.6667H53.056C52.6507 16.6667 52.2467 16.2667 52.2467 15.8667C52.2467 15.4667 52.6507 15.0667 53.056 15.0667H57.2307V10H0V15.0667Z" fill="#004705"/>
<path d="M28.6809 28.4005C25.4502 28.4005 22.7568 31.0671 22.7568 34.2671C22.7568 37.4671 25.4502 40.1338 28.6809 40.1338C31.9129 40.1338 34.6062 37.4671 34.6062 34.2671C34.6062 31.0671 31.9129 28.4005 28.6809 28.4005Z" fill="#004705"/>
<path d="M52.5155 5.33327C51.8435 5.99994 50.7661 5.99994 50.0915 5.33327C49.4181 4.6666 49.4181 3.59994 50.0915 2.93327C50.7661 2.2666 51.8435 2.2666 52.5155 2.93327C53.1888 3.59994 53.1888 4.6666 52.5155 5.33327ZM47.5328 5.33327C46.8595 5.99994 45.7835 5.99994 45.1102 5.33327C44.4368 4.6666 44.4368 3.59994 45.1102 2.93327C45.7835 2.2666 46.8595 2.2666 47.5328 2.93327C48.2075 3.59994 48.2075 4.6666 47.5328 5.33327ZM42.4169 5.33327C41.7435 5.99994 40.6662 5.99994 39.9928 5.33327C39.3195 4.6666 39.3195 3.59994 39.9928 2.93327C40.6662 2.2666 41.7435 2.2666 42.4169 2.93327C43.0902 3.59994 43.0902 4.6666 42.4169 5.33327ZM37.4342 5.33327C36.7608 5.99994 35.6835 5.99994 35.0115 5.33327C34.3382 4.6666 34.3382 3.59994 35.0115 2.93327C35.6835 2.2666 36.7608 2.2666 37.4342 2.93327C38.1075 3.59994 38.1075 4.6666 37.4342 5.33327ZM22.7568 -6.48499e-05C23.1608 -6.48499e-05 23.5648 0.399935 23.5648 0.799935V8.2666H57.2301V-6.48499e-05H22.7568Z" fill="#004705"/>
<path d="M28.6816 48.4004C36.2229 48.4004 42.5522 42.5337 42.9562 35.0671H36.2229C35.8188 38.8004 32.5869 41.7337 28.6816 41.7337C24.5082 41.7337 21.1415 38.4004 21.1415 34.2671C21.1415 30.1337 24.5082 26.8004 28.6816 26.8004C32.5869 26.8004 35.8188 29.7337 36.2229 33.4671H42.9562C42.5522 26.0004 36.2229 20.1337 28.6816 20.1337C20.7362 20.1337 14.4082 26.5337 14.4082 34.2671C14.4082 42.0004 20.7362 48.4004 28.6816 48.4004Z" fill="#FFC100"/>
<path d="M0 8.40039H21.9493V5.06706H14.408C14.0053 5.06706 13.6 4.66706 13.6 4.26706C13.6 3.86706 14.0053 3.46706 14.408 3.46706H21.9493V0.933724C21.9493 0.533724 22.352 0.133724 22.7574 0.133724H0V8.40039Z" fill="#004705"/>
</svg>
