<svg width="61" height="62" viewBox="0 0 61 62" fill="none" xmlns="http://www.w3.org/2000/svg">
<path d="M29.7102 28.7681C29.0382 28.0948 27.9622 28.0948 27.2902 28.7681C26.6168 29.4401 26.6168 30.5147 27.2902 31.1881L42.0769 45.9748C42.7489 46.6468 43.8249 46.6468 44.4969 45.9748C45.1689 45.3028 45.1689 44.2267 44.4969 43.5547L29.7102 28.7681Z" fill="#FFC100"/>
<path d="M53.504 54.9817C52.16 56.3257 50.008 56.3257 48.7986 54.9817C47.4546 53.6377 47.4546 51.4857 48.7986 50.2764C50.144 48.9324 52.2933 48.9324 53.504 50.2764C54.848 51.4857 54.848 53.6377 53.504 54.9817ZM45.708 47.1844C44.3627 48.5297 42.212 48.5297 41.0013 47.1844L26.216 32.3977C25.5426 31.7257 25.2733 30.919 25.2733 29.9777C25.2733 28.095 26.7533 26.6177 28.6346 26.6177C29.576 26.6177 30.3827 27.0203 31.0533 27.5577L45.8413 42.3457C47.0507 43.8244 47.0507 45.975 45.708 47.1844ZM57.1333 46.647L24.736 19.0897C24.4667 18.8203 24.332 18.551 24.4667 18.1484C26.3493 13.1737 25.14 7.66302 21.376 3.89902C16.132 -1.34365 7.39462 -1.34365 2.15195 4.16702C1.21195 5.10835 0.538667 6.18434 0 7.25901H11.2933C11.5613 7.25901 11.8306 7.39368 11.9653 7.66301L16.132 13.5777C16.4013 13.8457 16.4013 14.2497 16.132 14.519L11.9653 20.4337C11.8306 20.7017 11.5613 20.8364 11.2933 20.8364H0.538672C4.03467 26.2137 10.756 28.3644 16.6693 26.2137C16.94 26.079 17.3427 26.2137 17.6107 26.483L45.304 58.8804C48.5306 62.6444 54.176 62.9137 57.6706 59.419C61.1653 55.6537 60.8973 49.8724 57.1333 46.647Z" fill="#004705"/>
</svg>
