<svg width="61" height="69" viewBox="0 0 61 69" fill="none" xmlns="http://www.w3.org/2000/svg">
<path d="M33.6227 56.6667L41.2987 41.8667C37.932 40.6667 34.4307 40.0001 30.66 40.0001C27.5627 40.0001 24.4667 40.5334 21.6387 41.3334L29.584 56.6667H33.6227Z" fill="#004705"/>
<path d="M26.3508 30.0001H33.0841C34.0268 30.0001 34.8348 30.8001 34.8348 31.7334C34.8348 32.6667 34.0268 33.4667 33.0841 33.4667H26.3508C25.4095 33.4667 24.6015 32.6667 24.6015 31.7334C24.6015 30.6667 25.4095 30.0001 26.3508 30.0001ZM29.7175 36.6667C36.5855 36.6667 42.1068 29.7334 42.9148 23.2001H16.5215C17.3295 29.7334 22.8508 36.6667 29.7175 36.6667Z" fill="#004705"/>
<path d="M47.7616 45.2001C46.6856 44.5334 45.6069 43.8667 44.3962 43.2001L37.3936 56.6667H41.7016L47.7616 45.2001Z" fill="#FFC100"/>
<path d="M21.3693 56.6667H25.6773L18.4066 42.5334C17.1946 43.0667 16.1173 43.6001 14.9053 44.2667L21.3693 56.6667Z" fill="#FFC100"/>
<path d="M60.5544 64.7999C59.3424 57.7333 55.7064 51.5999 50.4544 47.1999L45.6064 56.6666C48.9731 56.9333 51.5318 59.5999 51.5318 62.9333V68.2666H57.5918C58.5331 68.2666 59.3425 67.8666 59.8811 67.1999C60.4185 66.5333 60.6891 65.7333 60.5544 64.7999Z" fill="#004705"/>
<path d="M45.2024 59.9999H17.7331C16.1171 59.9999 14.6357 61.3332 14.6357 63.0666V68.3999H48.3011V63.0666C48.1651 61.3332 46.8184 59.9999 45.2024 59.9999Z" fill="#FFC100"/>
<path d="M17.5987 56.6666L12.2121 46.1333C6.42142 50.5333 2.11207 57.0666 0.766739 64.7999C0.632072 65.7333 0.901412 66.5333 1.44008 67.1999C1.97741 67.8666 2.7854 68.2666 3.72807 68.2666H11.1347V62.9333C11.1347 59.4666 13.9627 56.6666 17.5987 56.6666Z" fill="#004705"/>
<path d="M9.51823 16.6667H51.5316C52.4742 16.6667 53.2823 15.8667 53.2823 14.9334C53.2823 14.0001 52.4742 13.2001 51.5316 13.2001H44.7996C44.5289 9.33342 42.7796 5.73342 39.8169 3.20008V5.73342C39.8169 8.00008 37.9316 9.86675 35.6423 9.86675C33.3529 9.86675 31.3329 8.13342 31.3329 5.86675V8.2016e-05C30.7942 8.2016e-05 30.2556 8.2016e-05 29.5836 8.2016e-05V5.86675C29.5836 8.13342 27.6969 10.0001 25.4089 10.0001C23.1183 10.0001 21.2342 8.13342 21.2342 5.86675V3.33342C18.2716 5.86675 16.3862 9.46675 16.2516 13.3334H9.51823C8.57556 13.3334 7.76758 14.1334 7.76758 15.0667C7.76758 15.8667 8.57556 16.6667 9.51823 16.6667Z" fill="#004705"/>
</svg>
