<svg width="37" height="67" viewBox="0 0 37 67" fill="none" xmlns="http://www.w3.org/2000/svg">
<path fill-rule="evenodd" clip-rule="evenodd" d="M13.4524 18.7484H23.1445V-4.19617e-05H13.4524V18.7484Z" fill="#004705"/>
<path fill-rule="evenodd" clip-rule="evenodd" d="M14.2821 5.46154H22.3146C29.1533 5.46154 34.747 11.0568 34.747 17.8947V61.8307C34.747 64.6742 32.4212 67 29.5769 67H7.01897C4.1755 67 1.84888 64.6742 1.84888 61.8307V17.8947C1.84888 11.0568 7.44417 5.46154 14.2821 5.46154Z" fill="#004705"/>
<path fill-rule="evenodd" clip-rule="evenodd" d="M13.2251 4.14954H23.3721V3.32473H13.2251V4.14954Z" fill="#FFC100"/>
<path fill-rule="evenodd" clip-rule="evenodd" d="M1.84888 22.2185H34.747V21.1749H1.84888V22.2185Z" fill="#FFC100"/>
<path fill-rule="evenodd" clip-rule="evenodd" d="M2.46134 21.2524H34.1342C35.4874 21.2524 36.5963 20.1444 36.5963 18.7912C36.5963 17.4364 35.4874 16.3292 34.1342 16.3292H2.46134C1.10812 16.3292 0.00012207 17.4364 0.00012207 18.7912C0.00012207 20.1444 1.10812 21.2524 2.46134 21.2524Z" fill="#004705"/>
<path fill-rule="evenodd" clip-rule="evenodd" d="M1.84888 57.0537H34.747V56.0101H1.84888V57.0537Z" fill="#FFC100"/>
<path fill-rule="evenodd" clip-rule="evenodd" d="M2.46134 56.0884H34.1342C35.4874 56.0884 36.5963 54.9804 36.5963 53.6263V53.6255C36.5963 52.2715 35.4874 51.1643 34.1342 51.1643H2.46134C1.10812 51.1643 0.00012207 52.2715 0.00012207 53.6255V53.6263C0.00012207 54.9804 1.10812 56.0884 2.46134 56.0884Z" fill="#004705"/>
</svg>
