<svg width="86" height="41" viewBox="0 0 86 41" fill="none" xmlns="http://www.w3.org/2000/svg">
<path d="M84.4862 13.6726L84.3247 9.46945C84.2226 1.45056 79.4191 -2.38419e-05 77.8505 -2.38419e-05H7.44426C5.87576 -2.38419e-05 1.07216 1.45056 0.970102 9.46945L0.808594 13.6726H84.4862Z" fill="#FFC100"/>
<path d="M82.4569 2.90219H2.83877C1.27026 2.90219 0 4.17345 0 5.74096L0.970038 31.0342C1.0721 39.0521 5.8757 40.5027 7.4442 40.5027H42.6468H77.8505C79.419 40.5027 84.2226 39.0521 84.3246 31.0342L85.2947 5.74096C85.2947 4.17345 84.0244 2.90219 82.4569 2.90219Z" fill="#004705"/>
<path d="M0.961792 30.7875L0.970706 31.0342C1.07276 39.0521 5.87636 40.5027 7.44487 40.5027H77.8512C79.4196 40.5027 84.2233 39.0521 84.3253 31.0342L84.3352 30.7875H0.961792Z" fill="#FFC100"/>
<path d="M3.36816 32.3471C3.75955 39.2136 8.01026 40.5027 9.43608 40.5027H75.8592C77.285 40.5027 81.5357 39.2136 81.9271 32.3471H3.36816Z" fill="#004705"/>
<path d="M78.6572 37.1416C79.2557 36.1775 79.7273 35.1262 80.0484 34.0056H75.2121C75.1387 34.3762 75.0595 34.7438 74.9564 35.1015C74.7701 35.7465 74.5304 36.448 74.2539 37.1416H78.6572Z" fill="white"/>
<path d="M5.29932 28.6421H80.8797V25.74H5.29932V28.6421Z" fill="white"/>
<path d="M71.0517 37.1099H8.31458L6.96704 34.2097H72.3983L71.0517 37.1099Z" fill="white"/>
<path d="M77.851 40.5027H42.7563H75.8594H77.851ZM77.8807 0.00101471C77.8807 0.00101471 77.8807 2.28882e-05 77.8797 2.28882e-05L77.8807 0.00101471Z" fill="#88B5C3"/>
</svg>
