<svg width="37" height="67" viewBox="0 0 37 67" fill="none" xmlns="http://www.w3.org/2000/svg">
<path d="M36.0137 55.4443H33.7703V41.554C33.7703 35.0174 28.5749 29.5314 21.9624 29.1812V26.9634C21.9624 26.6132 21.6075 26.2631 21.2527 26.2631H15.35C14.9951 26.2631 14.6403 26.6132 14.6403 26.9634V29.0645C12.9874 28.7143 11.6895 27.1969 11.6895 25.446V11.6725H13.9329C14.2866 11.6725 14.6403 11.3223 14.6403 10.9721V5.13589C14.6403 4.78572 14.2866 4.43554 13.9329 4.43554H11.6895V0.817078C11.6895 0.466904 11.3346 0.116722 10.9798 0.116722C10.6273 0.116722 10.2724 0.466904 10.2724 0.817078V4.31882H4.36734V0.700348C4.36734 0.350174 4.01483 0 3.65998 0C3.30514 0 2.95263 0.350174 2.95263 0.700348V4.31882H0.70801C0.354334 4.31882 -0.000488281 4.66899 -0.000488281 5.01917V10.8554C-0.000488281 11.2056 0.354334 11.5558 0.70801 11.5558H2.95263V25.446C2.95263 31.9826 8.14686 37.4686 14.7593 37.8188V40.0366C14.7593 40.3868 15.113 40.7369 15.4678 40.7369H21.3718C21.7266 40.7369 22.0791 40.3868 22.0791 40.0366V37.9355C23.7331 38.2857 25.0323 39.8031 25.0323 41.554V55.4443H22.7888C22.434 55.4443 22.0791 55.7944 22.0791 56.1446V61.9808C22.0791 62.331 22.434 62.6812 22.7888 62.6812H25.0323V66.2997C25.0323 66.6498 25.386 67 25.7408 67C26.0945 67 26.4482 66.6498 26.4482 66.2997V62.6812H32.3532V66.2997C32.3532 66.6498 32.7069 67 33.0606 67C33.4154 67 33.7703 66.6498 33.7703 66.2997V62.6812H36.0137C36.3674 62.6812 36.7211 62.331 36.7211 61.9808V56.1446C36.8401 55.6777 36.4853 55.4443 36.0137 55.4443Z" fill="#004705"/>
</svg>
