<svg width="70" height="69" viewBox="0 0 70 69" fill="none" xmlns="http://www.w3.org/2000/svg">
<path d="M29.8543 37.6565H34.5619C34.9336 37.6565 35.3052 38.0245 35.3052 38.3925C35.3052 38.7605 34.9336 39.1284 34.5619 39.1284H29.8543C29.4827 39.1284 29.111 38.7605 29.111 38.3925C29.111 38.0245 29.4827 37.6565 29.8543 37.6565ZM29.8543 33.1182H34.5619C34.9336 33.1182 35.3052 33.4862 35.3052 33.8542C35.3052 34.2221 34.9336 34.5901 34.5619 34.5901H29.8543C29.4827 34.5901 29.111 34.2221 29.111 33.8542C29.111 33.3635 29.4827 33.1182 29.8543 33.1182ZM32.9514 43.7894H31.3409C30.9693 43.7894 30.5976 43.4214 30.5976 43.0535C30.5976 42.6855 30.9693 42.3175 31.3409 42.3175H32.9514C33.3231 42.3175 33.6947 42.6855 33.6947 43.0535C33.6947 43.4214 33.4457 43.7894 32.9514 43.7894ZM26.0139 52.9887C26.0139 56.4231 28.7394 59.1216 32.2081 59.1216C35.6756 59.1216 38.4011 56.4231 38.4011 52.9887V22.3244H26.0139V52.9887Z" fill="#004705"/>
<path d="M44.595 11.6533H47.6921V14.7197H44.595V11.6533Z" fill="#004705"/>
<path d="M26.0139 16.1911V20.8521H38.4011V16.1911H34.5619H29.8543H26.0139Z" fill="#004705"/>
<path d="M40.0115 16.1911V20.8521H52.3999V16.1911H48.4356H43.8519H40.0115Z" fill="#004705"/>
<path d="M43.8519 37.6565H48.5595C48.9311 37.6565 49.3028 38.0245 49.3028 38.3925C49.3028 38.7605 48.9311 39.1284 48.5595 39.1284H43.8519C43.4802 39.1284 43.1086 38.7605 43.1086 38.3925C43.1086 38.0245 43.3563 37.6565 43.8519 37.6565ZM43.8519 33.1182H48.5595C48.9311 33.1182 49.3028 33.4862 49.3028 33.8542C49.3028 34.2221 48.9311 34.5901 48.5595 34.5901H43.8519C43.4802 34.5901 43.1086 34.2221 43.1086 33.8542C43.1086 33.3635 43.3563 33.1182 43.8519 33.1182ZM46.949 43.7894H45.3385C44.9668 43.7894 44.5952 43.4214 44.5952 43.0535C44.5952 42.6855 44.9668 42.3175 45.3385 42.3175H46.949C47.3206 42.3175 47.6923 42.6855 47.6923 43.0535C47.6923 43.4214 47.3206 43.7894 46.949 43.7894ZM40.0115 52.9887C40.0115 56.4231 42.7369 59.1216 46.2057 59.1216C49.6744 59.1216 52.3999 56.4231 52.3999 52.9887V22.3244H40.0115V52.9887Z" fill="#004705"/>
<path d="M57.7254 16.1911H53.885V20.8521H66.2734V16.1911H62.433H57.7254Z" fill="#004705"/>
<path d="M57.7256 37.656H62.4331C62.8048 37.656 63.1765 38.0239 63.1765 38.3919C63.1765 38.7599 62.8048 39.1278 62.4331 39.1278H57.7256C57.3551 39.1278 56.9823 38.7599 56.9823 38.3919C56.9823 38.0239 57.3551 37.656 57.7256 37.656ZM57.7256 33.1176H62.4331C62.8048 33.1176 63.1765 33.4856 63.1765 33.8536C63.1765 34.2215 62.8048 34.5895 62.4331 34.5895H57.7256C57.3551 34.5895 56.9823 34.2215 56.9823 33.8536C56.9823 33.3629 57.3551 33.1176 57.7256 33.1176ZM60.8227 43.7888H59.2122C58.8417 43.7888 58.4689 43.4208 58.4689 43.0529C58.4689 42.6849 58.8417 42.3169 59.2122 42.3169H60.8227C61.1943 42.3169 61.566 42.6849 61.566 43.0529C61.566 43.4208 61.3182 43.7888 60.8227 43.7888ZM53.8852 52.9881C53.8852 56.2999 56.4879 58.8757 59.7077 59.121V67.4617H13.2537V63.782H19.8207V57.6491H5.82185V49.9217C5.82185 49.5537 5.4502 49.1857 5.07855 49.1857C4.7069 49.1857 4.33524 49.5537 4.33524 49.9217V57.6491H2.84863V63.782H11.7683V68.1976C11.7683 68.5656 12.1399 68.9336 12.5116 68.9336H60.5749C60.9465 68.9336 61.3182 68.5656 61.3182 68.1976V58.9983C64.1675 58.5077 66.3974 55.9319 66.3974 52.9881V22.3238H53.8852V52.9881Z" fill="#FFC100"/>
<path d="M22.9165 5.52042V14.7197H29.1107V10.9173C29.1107 10.5494 29.4824 10.1814 29.854 10.1814H34.5616C34.9332 10.1814 35.3049 10.5494 35.3049 10.9173V14.7197H39.1441H42.9845V10.9173C42.9845 10.5494 43.3561 10.1814 43.7278 10.1814H48.4354C48.807 10.1814 49.1787 10.5494 49.1787 10.9173V14.7197H53.0179H56.8583V10.9173C56.8583 10.5494 57.2311 10.1814 57.6016 10.1814H62.3092C62.6808 10.1814 63.0525 10.5494 63.0525 10.9173V14.7197H66.8929H69.2467V5.52042H22.9165Z" fill="#004705"/>
<path d="M2.84863 20.8524V25.5134H5.94573V20.8524C5.94573 19.1352 7.30846 17.786 9.04283 17.786C10.7772 17.786 12.1399 19.1352 12.1399 20.8524V56.1777H15.237V20.8524C15.237 17.418 12.5116 14.7195 9.04283 14.7195C5.57408 14.7195 2.84863 17.418 2.84863 20.8524Z" fill="#004705"/>
<path d="M58.5933 11.6533H61.6904V14.7197H58.5933V11.6533Z" fill="#004705"/>
<path d="M30.7214 11.6533H33.8185V14.7197H30.7214V11.6533Z" fill="#004705"/>
<path d="M1.61001 31.5234C1.23958 31.5234 0.866699 31.8914 0.866699 32.2594V33.8539C0.866699 34.2219 1.23958 34.5898 1.61001 34.5898C1.98166 34.5898 2.35331 34.2219 2.35331 33.8539V32.2594C2.35331 31.8914 2.10555 31.5234 1.61001 31.5234Z" fill="#004705"/>
<path d="M5.4502 35.3255V36.9201C5.4502 37.288 5.82185 37.656 6.19351 37.656C6.56516 37.656 6.9368 37.288 6.9368 36.9201V35.3255C6.9368 34.9575 6.56516 34.5896 6.19351 34.5896C5.82185 34.5896 5.4502 34.9575 5.4502 35.3255Z" fill="#004705"/>
<path d="M10.2871 4.72352L12.4766 2.55615L14.666 4.72352L12.4766 6.89209L10.2871 4.72352Z" fill="#004705"/>
<path d="M3.22036 0.00011611C4.10962 0.00011611 4.83085 0.713982 4.83085 1.59466C4.83085 2.47534 4.10962 3.18921 3.22036 3.18921C2.33109 3.18921 1.60986 2.47534 1.60986 1.59466C1.60986 0.713982 2.33109 0.00011611 3.22036 0.00011611Z" fill="#004705"/>
<path d="M1.61049 7.7279C2.49976 7.7279 3.22098 8.44177 3.22098 9.32245C3.22098 10.2031 2.49976 10.917 1.61049 10.917C0.721226 10.917 0 10.2031 0 9.32245C0 8.44177 0.721226 7.7279 1.61049 7.7279Z" fill="#004705"/>
</svg>
