<svg width="68" height="67" viewBox="0 0 68 67" fill="none" xmlns="http://www.w3.org/2000/svg">
<path d="M39.799 5.96589C39.799 9.26045 37.1286 11.9316 33.8333 11.9316C30.5387 11.9316 27.8676 9.26045 27.8676 5.96589C27.8676 2.6706 30.5387 0.000148773 33.8333 0.000148773C37.1286 0.000148773 39.799 2.6706 39.799 5.96589Z" fill="#004705"/>
<path d="M30.9991 5.47039C32.0175 8.60342 30.3023 11.9692 27.1693 12.9876C24.0348 14.0053 20.669 12.2908 19.6506 9.15703C18.633 6.02327 20.3482 2.6575 23.4819 1.63984C26.615 0.620703 29.9807 2.33589 30.9991 5.47039Z" fill="#004705"/>
<path d="M22.4759 7.71774C24.4129 10.3831 23.8218 14.1138 21.1565 16.0507C18.4904 17.9876 14.7597 17.3966 12.8233 14.7313C10.8862 12.0652 11.477 8.33451 14.1426 6.39757C16.8083 4.46136 20.539 5.05243 22.4759 7.71774Z" fill="#004705"/>
<path d="M15.0644 12.4896C17.7297 14.4259 18.3208 18.1573 16.3846 20.8226C14.448 23.4886 10.7169 24.079 8.05122 22.142C5.3859 20.2058 4.79506 16.4744 6.73134 13.8091C8.6685 11.1438 12.3991 10.5527 15.0644 12.4896Z" fill="#004705"/>
<path d="M9.49034 19.318C12.6241 20.3357 14.3389 23.7015 13.3208 26.8352C12.3026 29.9683 8.93709 31.6835 5.80333 30.6651C2.66986 29.6467 0.955032 26.2816 1.97292 23.1471C2.9911 20.0141 6.35658 18.2996 9.49034 19.318Z" fill="#004705"/>
<path d="M6.29942 27.5343C9.59434 27.5343 12.2649 30.2048 12.2649 33.5001C12.2649 36.7946 9.59434 39.4658 6.29942 39.4658C3.00419 39.4658 0.333374 36.7946 0.333374 33.5001C0.333374 30.2048 3.00419 27.5343 6.29942 27.5343Z" fill="#004705"/>
<path d="M5.80333 36.3349C8.93709 35.3165 12.3026 37.0309 13.3208 40.1647C14.3389 43.2985 12.6241 46.6642 9.49034 47.6819C6.35658 48.7003 2.9911 46.9851 1.97292 43.8521C0.955032 40.7183 2.66986 37.3525 5.80333 36.3349Z" fill="#004705"/>
<path d="M8.0513 44.8581C10.717 42.9204 14.4481 43.5115 16.3847 46.1775C18.3209 48.8428 17.7298 52.5735 15.0645 54.5105C12.3991 56.4474 8.66858 55.8563 6.73142 53.1903C4.79514 50.525 5.38569 46.7943 8.0513 44.8581Z" fill="#004705"/>
<path d="M12.8233 52.2688C14.7597 49.6027 18.4904 49.0124 21.1565 50.9486C23.8218 52.8855 24.4129 56.617 22.4759 59.2823C20.539 61.9476 16.8083 62.5387 14.1426 60.6017C11.477 58.6648 10.8862 54.9348 12.8233 52.2688Z" fill="#004705"/>
<path d="M19.6506 57.8424C20.669 54.7087 24.0348 52.9942 27.1693 54.0126C30.3023 55.0303 32.0175 58.3961 30.9991 61.5298C29.9807 64.6636 26.615 66.3788 23.4819 65.3604C20.3482 64.342 18.633 60.9769 19.6506 57.8424Z" fill="#004705"/>
<path d="M27.8676 61.0343C27.8676 57.739 30.5387 55.0685 33.8333 55.0685C37.1286 55.0685 39.799 57.739 39.799 61.0343C39.799 64.3288 37.1286 67 33.8333 67C30.5387 67 27.8676 64.3288 27.8676 61.0343Z" fill="#004705"/>
<path d="M36.668 61.5298C35.6504 58.3961 37.3648 55.0303 40.4986 54.0126C43.6324 52.9942 46.9981 54.7087 48.0158 57.8424C49.0342 60.9769 47.319 64.342 44.186 65.3604C41.0515 66.3788 37.6864 64.6636 36.668 61.5298Z" fill="#004705"/>
<path d="M45.1914 59.2823C43.2545 56.617 43.8456 52.8855 46.5116 50.9486C49.1769 49.0124 52.9076 49.6027 54.8446 52.2688C56.7808 54.9348 56.1897 58.6648 53.5244 60.6017C50.8591 62.5387 47.1284 61.9476 45.1914 59.2823Z" fill="#004705"/>
<path d="M52.6021 54.5105C49.9368 52.5735 49.3457 48.8428 51.2834 46.1775C53.2196 43.5115 56.9503 42.9204 59.6156 44.8581C62.2816 46.7943 62.8727 50.525 60.9358 53.1903C58.9988 55.8563 55.2681 56.4474 52.6021 54.5105Z" fill="#004705"/>
<path d="M58.1767 47.6819C55.0429 46.6642 53.3285 43.2985 54.3469 40.1647C55.3653 37.0309 58.7303 35.3165 61.8633 36.3349C64.9971 37.3525 66.7123 40.7183 65.6939 43.8521C64.6762 46.9851 61.3104 48.7003 58.1767 47.6819Z" fill="#004705"/>
<path d="M61.3676 39.4658C58.073 39.4658 55.4019 36.7946 55.4019 33.5001C55.4019 30.2048 58.073 27.5343 61.3676 27.5343C64.6629 27.5343 67.3333 30.2048 67.3333 33.5001C67.3333 36.7946 64.6629 39.4658 61.3676 39.4658Z" fill="#004705"/>
<path d="M61.8633 30.6651C58.7303 31.6835 55.3645 29.9683 54.3469 26.8352C53.3285 23.7015 55.0429 20.3357 58.1767 19.318C61.3104 18.2996 64.6762 20.0141 65.6939 23.1471C66.7123 26.2816 64.9971 29.6467 61.8633 30.6651Z" fill="#004705"/>
<path d="M59.6156 22.1421C56.9503 24.079 53.2196 23.4887 51.2834 20.8219C49.3457 18.1573 49.9368 14.4259 52.6021 12.4897C55.2681 10.5528 58.9988 11.1438 60.9358 13.8091C62.8727 16.4744 62.2816 20.2059 59.6156 22.1421Z" fill="#004705"/>
<path d="M54.8446 14.7313C52.9076 17.3966 49.1769 17.9876 46.5116 16.0507C43.8456 14.1138 43.2545 10.3831 45.1914 7.71774C47.1284 5.05243 50.8591 4.46136 53.5244 6.39757C56.1897 8.33451 56.7808 12.0652 54.8446 14.7313Z" fill="#004705"/>
<path d="M48.0158 9.15703C46.9981 12.2908 43.6324 14.0053 40.4986 12.9876C37.3648 11.9692 35.6504 8.60342 36.668 5.47039C37.6864 2.33589 41.0515 0.620703 44.186 1.63984C47.319 2.6575 49.0342 6.02327 48.0158 9.15703Z" fill="#004705"/>
<path d="M33.8333 2.75357C35.605 2.75357 37.0456 4.19416 37.0456 5.9659C37.0456 7.7369 35.605 9.17822 33.8333 9.17822C32.0623 9.17822 30.621 7.7369 30.621 5.9659C30.621 4.19416 32.0623 2.75357 33.8333 2.75357Z" fill="#FFC100"/>
<path d="M4.59178 23.9991C5.13931 22.314 6.95517 21.3896 8.64019 21.9366C10.3243 22.4836 11.2496 24.2994 10.7024 25.9838C10.1549 27.6689 8.339 28.594 6.65427 28.047C4.96984 27.4993 4.04484 25.6835 4.59178 23.9991Z" fill="#FFC100"/>
<path d="M4.59178 43.0012C4.04484 41.3161 4.96984 39.5004 6.65427 38.9533C8.339 38.4056 10.1549 39.3315 10.7024 41.0158C11.2496 42.7002 10.3243 44.5167 8.64019 45.063C6.95517 45.6107 5.13931 44.6856 4.59178 43.0012Z" fill="white"/>
<path d="M15.7614 58.3742C14.3281 57.333 14.0095 55.3205 15.0507 53.8872C16.0919 52.4547 18.1052 52.136 19.5377 53.1765C20.9702 54.2176 21.2896 56.2309 20.2477 57.6635C19.2073 59.0974 17.1947 59.4154 15.7614 58.3742Z" fill="#FFC100"/>
<path d="M33.8333 64.2466C32.0623 64.2466 30.621 62.8053 30.621 61.0343C30.621 59.2633 32.0623 57.8219 33.8333 57.8219C35.605 57.8219 37.0456 59.2633 37.0456 61.0343C37.0456 62.8053 35.605 64.2466 33.8333 64.2466Z" fill="white"/>
<path d="M51.9059 58.3742C50.4734 59.4154 48.4601 59.0974 47.4189 57.6635C46.3778 56.2309 46.6964 54.2176 48.1297 53.1765C49.5622 52.136 51.5755 52.4547 52.6166 53.8872C53.6578 55.3205 53.3384 57.333 51.9059 58.3742Z" fill="#FFC100"/>
<path d="M63.0752 43.0012C62.5275 44.6856 60.7117 45.6107 59.0273 45.063C57.343 44.5167 56.4178 42.7002 56.9648 41.0158C57.5126 39.3315 59.3284 38.4056 61.0127 38.9533C62.6971 39.5004 63.6223 41.3161 63.0752 43.0012Z" fill="white"/>
<path d="M63.0752 23.9991C63.6223 25.6835 62.6971 27.4993 61.0127 28.047C59.3284 28.594 57.5126 27.6689 56.9648 25.9838C56.4178 24.2994 57.343 22.4836 59.0273 21.9366C60.7117 21.3896 62.5275 22.314 63.0752 23.9991Z" fill="#FFC100"/>
</svg>
