<svg width="43" height="69" viewBox="0 0 43 69" fill="none" xmlns="http://www.w3.org/2000/svg">
<path d="M14.6015 67.2917H12.5876V64.1991H14.6015V67.2917Z" fill="#004705"/>
<path d="M30.5167 67.2917H28.5021V64.1991H30.5167V67.2917Z" fill="#004705"/>
<path d="M14.6015 69H12.5876V67.2918H14.6015V69Z" fill="#FFC100"/>
<path d="M30.5167 69H28.5021V67.2918H30.5167V69Z" fill="#FFC100"/>
<path d="M37.0024 1.08321H36.8919C36.8919 0.485113 29.9217 0.00017786 21.3236 0.00017786C12.7246 0.00017786 5.75437 0.485113 5.75437 1.08321L2.90674 5.646H39.8501L37.0024 1.08321Z" fill="#FFC100"/>
<path d="M10.2583 64.4091H10.336C10.336 65.0056 15.2976 65.4897 21.4175 65.4897C27.5375 65.4897 32.4982 65.0056 32.4982 64.4091L34.5258 59.8581H8.23071L10.2583 64.4091Z" fill="#FFC100"/>
<path d="M21.0482 1.92746C9.42372 1.92746 -0.000488281 3.10993 -0.000488281 4.56689V58.8043C-0.000488281 60.262 9.42372 61.4438 21.0482 61.4438C32.6727 61.4438 42.0969 60.262 42.0969 58.8043V4.56689C42.0969 3.10993 32.6727 1.92746 21.0482 1.92746Z" fill="#004705"/>
<path d="M27.4139 52.1145H14.682V49.4171H27.4139V52.1145Z" fill="white"/>
<path d="M24.7981 16.7553C24.7981 18.7983 23.1417 20.4548 21.0985 20.4548C19.0554 20.4548 17.3989 18.7983 17.3989 16.7553C17.3989 14.712 19.0554 13.0557 21.0985 13.0557C23.1417 13.0557 24.7981 14.712 24.7981 16.7553Z" fill="white"/>
<path d="M24.3504 16.7552C24.3504 18.5513 22.8942 20.0076 21.0979 20.0076C19.3016 20.0076 17.8455 18.5513 17.8455 16.7552C17.8455 14.9586 19.3016 13.5027 21.0979 13.5027C22.8942 13.5027 24.3504 14.9586 24.3504 16.7552Z" fill="white"/>
<path d="M20.8848 16.5122L23.1731 14.648L21.3535 16.9968L20.8848 16.5122Z" fill="#FFC100"/>
</svg>
