<svg width="50" height="69" viewBox="0 0 50 69" fill="none" xmlns="http://www.w3.org/2000/svg">
<path d="M30.8708 56.0089C30.7458 56.0089 30.7458 56.0089 30.6221 56.0089C30.4983 56.0089 30.3745 56.1315 30.2507 56.1315C30.1269 56.1315 30.0032 56.1315 29.8781 56.254C29.7544 56.254 29.6306 56.3766 29.383 56.3766C29.258 56.3766 29.0104 56.4992 28.8867 56.4992C28.7629 56.4992 28.6391 56.4992 28.6391 56.4992C28.5141 56.4992 28.3903 56.4992 28.1427 56.6217C28.0189 56.6217 28.0189 56.6217 27.8939 56.6217C27.6464 56.6217 27.5226 56.6217 27.275 56.7443H27.15C26.9025 56.7443 26.6549 56.7443 26.5311 56.7443C26.4061 56.7443 26.4061 56.7443 26.2823 56.7443C26.1585 56.7443 25.911 56.7443 25.7872 56.7443C25.6622 56.7443 25.6622 56.7443 25.5384 56.7443C25.2908 56.7443 25.0432 56.7443 24.7944 56.7443C24.5469 56.7443 24.2993 56.7443 24.0518 56.7443C23.9268 56.7443 23.9268 56.7443 23.803 56.7443C23.6792 56.7443 23.4316 56.7443 23.3078 56.7443C23.1841 56.7443 23.1841 56.7443 23.059 56.7443C22.8115 56.7443 22.5639 56.7443 22.4401 56.7443H22.3163C22.0675 56.7443 21.9438 56.7443 21.6962 56.6217C21.5724 56.6217 21.5724 56.6217 21.4487 56.6217C21.3236 56.6217 21.1999 56.6217 20.9523 56.4992C20.8285 56.4992 20.7035 56.4992 20.7035 56.4992C20.5797 56.4992 20.3321 56.4992 20.2084 56.3766C20.0846 56.3766 19.9596 56.3766 19.712 56.254C19.5882 56.254 19.4644 56.254 19.3406 56.1315C19.2156 56.1315 19.0919 56.1315 18.9681 56.0089C18.8443 56.0089 18.8443 56.0089 18.7205 56.0089C18.5955 56.0089 18.4717 56.0089 18.3479 55.8864L14.0094 69H35.0856L31.1184 56.0089C31.1184 56.0089 30.9946 56.0089 30.8708 56.0089Z" fill="#004705"/>
<path d="M9.6693 40.0768C10.0419 39.8317 10.537 39.9543 10.7858 40.3219C12.8926 43.8761 15.992 46.6949 19.8354 48.5333C20.208 48.7784 20.3318 49.1461 20.208 49.5137C20.0842 49.7588 19.8354 50.004 19.4641 50.004C19.3403 50.004 19.2153 50.004 19.0915 49.8814C15.0006 47.9205 11.6535 44.8566 9.42173 41.1798C9.17294 40.6896 9.29672 40.1994 9.6693 40.0768ZM18.5952 54.2935C18.7202 54.2935 18.7202 54.2935 18.844 54.2935C19.0915 54.2935 19.2153 54.416 19.4641 54.416C19.5879 54.416 19.7116 54.416 19.8354 54.5386C19.9592 54.5386 20.0842 54.5386 20.208 54.6611C20.4556 54.6611 20.5794 54.7837 20.8281 54.7837C20.9519 54.7837 20.9519 54.7837 21.0757 54.7837C21.1995 54.7837 21.4483 54.7837 21.5721 54.9063C21.6959 54.9063 21.6959 54.9063 21.8196 54.9063C22.0672 54.9063 22.316 54.9063 22.4398 55.0288C22.5635 55.0288 22.5636 55.0288 22.6873 55.0288C22.9349 55.0288 23.0587 55.0288 23.3075 55.0288C23.3075 55.0288 23.3075 55.0288 23.4313 55.0288C23.6788 55.0288 23.9264 55.0288 24.1752 55.0288H24.299C24.5465 55.0288 24.7941 55.0288 25.0429 55.0288C25.2904 55.0288 25.538 55.0288 25.7868 55.0288H25.9106C26.1582 55.0288 26.4057 55.0288 26.6545 55.0288C26.6545 55.0288 26.6545 55.0288 26.7783 55.0288C27.0259 55.0288 27.1496 55.0288 27.3984 55.0288C27.5222 55.0288 27.5222 55.0288 27.646 55.0288C27.8936 55.0288 28.1424 55.0288 28.2661 54.9063C28.3899 54.9063 28.3899 54.9063 28.5137 54.9063C28.6387 54.9063 28.8863 54.9063 29.0101 54.7837C29.1339 54.7837 29.1339 54.7837 29.2576 54.7837C29.5064 54.7837 29.6302 54.6611 29.8778 54.6611C30.0016 54.6611 30.1266 54.6611 30.2503 54.5386C30.3741 54.5386 30.4979 54.5386 30.6217 54.416C30.8705 54.416 30.9943 54.2935 31.2418 54.2935C31.3656 54.2935 31.3656 54.2935 31.4894 54.2935C40.1677 51.7198 46.4916 44.2438 46.863 35.2971H3.47034C3.59535 44.2438 9.91687 51.8423 18.5952 54.2935Z" fill="#004705"/>
<path d="M6.32243 3.18665H43.5149C44.3838 3.18665 45.1278 2.4513 45.1278 1.5934C45.1278 0.735499 44.3838 0.000154972 43.5149 0.000154972H6.32243C5.45473 0.000154972 4.71082 0.735499 4.71082 1.5934C4.8346 2.4513 5.45473 3.18665 6.32243 3.18665Z" fill="#004705"/>
<path d="M14.8771 9.31476H42.0284V4.78014H7.9342V8.57942V14.7073V27.6984H42.0284V14.7073V10.908H14.8771C14.5045 10.908 14.1331 10.5403 14.1331 10.1727C14.1331 9.80499 14.3807 9.31476 14.8771 9.31476Z" fill="#004705"/>
<path d="M47.3598 29.169H2.35556C1.11528 29.169 0 30.1495 0 31.4976C0 32.8457 0.9915 33.8262 2.35556 33.8262H47.3598C48.5989 33.8262 49.7142 32.8457 49.7142 31.4976C49.7142 30.1495 48.7227 29.169 47.3598 29.169Z" fill="#FFC100"/>
</svg>
